/* XPM */
static char *image[] = {
"48 48 564 2",
"   c None",
"00 c #aaba9b",
"10 c #a6b897",
"20 c #b5c2a8",
"30 c #e8eae5",
"40 c #d4d8cf",
"50 c #2c3126",
"60 c #bdc8b3",
"70 c #e0e3dd",
"80 c #e3e6e0",
"90 c #95a782",
":0 c #4b4d48",
";0 c #6b6d68",
"A0 c #838581",
"B0 c #e7e9e4",
"C0 c #d5dad0",
"D0 c #102744",
"E0 c #434441",
"F0 c #676964",
"G0 c #8a9a78",
"H0 c #0e243e",
"I0 c #465c78",
"J0 c #3e413e",
"K0 c #60625d",
"L0 c #696b66",
"M0 c #3b3e3a",
"N0 c #3a4f6b",
"O0 c #6f819c",
"P0 c #899eb9",
"Q0 c #98aecd",
"R0 c #9cb3d2",
"S0 c #8ba1bd",
"T0 c #5b708b",
"U0 c #8399b6",
"V0 c #8ea4c2",
"W0 c #3d3d3b",
"X0 c #62645f",
"Y0 c #585b56",
"Z0 c #5b5e59",
"a0 c #5e615c",
"b0 c #1f3652",
"c0 c #5e748f",
"d0 c #9bb0cd",
"e0 c #8ea9cd",
"f0 c #7899c3",
"g0 c #7698c4",
"h0 c #7396c2",
"i0 c #7194c1",
"j0 c #9cb4d3",
"k0 c #657a93",
"l0 c #7d9ec8",
"m0 c #4c627d",
"n0 c #3c3e3a",
"o0 c #61635f",
"p0 c #676a65",
"q0 c #3b3b39",
"r0 c #465d78",
"s0 c #859ab4",
"t0 c #a0b7d7",
"u0 c #809fc5",
"v0 c #7e9ec7",
"w0 c #7c9cc6",
"x0 c #7799c4",
"y0 c #7597c3",
"z0 c #9eb5d4",
"01 c #425873",
"11 c #7798c5",
"21 c #91a9c6",
"31 c #646661",
"41 c #575955",
"51 c #61655f",
"61 c #555653",
"71 c #263e5c",
"81 c #6a7f98",
"91 c #a2b7d4",
":1 c #82a1c9",
";1 c #7e9ec8",
"A1 c #7b9cc6",
"B1 c #799ac5",
"C1 c #a0b6d5",
"D1 c #6d91be",
"E1 c #506681",
"F1 c #545552",
"G1 c #565954",
"H1 c #595c57",
"I1 c #6a6c67",
"J1 c #1e3753",
"K1 c #6d809b",
"L1 c #86a2c9",
"M1 c #88a6cc",
"N1 c #86a5cb",
"O1 c #85a2c8",
"P1 c #89a5c9",
"Q1 c #88a4c8",
"R1 c #82a1ca",
"S1 c #a0b7d6",
"T1 c #8ba3c0",
"U1 c #557fb4",
"V1 c #95acc9",
"W1 c #404140",
"X1 c #5d5f5b",
"Y1 c #595b57",
"Z1 c #5c5e5a",
"a1 c #5f615d",
"b1 c #626460",
"c1 c #666964",
"d1 c #414340",
"e1 c #a5bbd7",
"f1 c #88a6ca",
"g1 c #8ba7ce",
"h1 c #94adce",
"i1 c #a7bbd8",
"j1 c #7b8ea8",
"k1 c #60758f",
"l1 c #4c637e",
"m1 c #83a2ca",
"n1 c #95aac6",
"o1 c #6f839e",
"p1 c #5980b4",
"q1 c #6c8fbc",
"r1 c #656762",
"s1 c #585a56",
"t1 c #5b5d59",
"u1 c #5e605c",
"v1 c #61645f",
"w1 c #626660",
"x1 c #516783",
"y1 c #a3b8d4",
"z1 c #8ca8cb",
"02 c #aabedb",
"12 c #475e79",
"22 c #a4b8d3",
"32 c #89a6cd",
"42 c #83a2c9",
"52 c #72859f",
"62 c #4d647e",
"72 c #6c8ebb",
"82 c #5e85b8",
"92 c #97aecd",
":2 c #5b5d58",
";2 c #575954",
"A2 c #5a5c58",
"B2 c #5d605b",
"C2 c #60635e",
"D2 c #636660",
"E2 c #646561",
"F2 c #455c77",
"G2 c #9cb0cb",
"H2 c #91abce",
"I2 c #8ca9ce",
"J2 c #8eaacf",
"K2 c #90abce",
"L2 c #aabfdc",
"M2 c #8b9db8",
"N2 c #4e647f",
"O2 c #2a425f",
"P2 c #a4bad9",
"Q2 c #8da9cf",
"R2 c #8aa8ce",
"S2 c #8da8cc",
"T2 c #4c637d",
"U2 c #91acd0",
"V2 c #6087b9",
"W2 c #7192bd",
"X2 c #495d65",
"Y2 c #5f615b",
"Z2 c #5a5d58",
"a2 c #5c5f5a",
"b2 c #5f625d",
"c2 c #6a6d68",
"d2 c #2b4360",
"e2 c #97b1d2",
"f2 c #8daacf",
"g2 c #8eaacd",
"h2 c #a4bad8",
"i2 c #9caec9",
"j2 c #5c718c",
"k2 c #566b86",
"l2 c #93adce",
"m2 c #91acd1",
"n2 c #8eabd0",
"o2 c #a6bddc",
"p2 c #213956",
"q2 c #8399b4",
"r2 c #6188ba",
"s2 c #648ab6",
"t2 c #6ea348",
"u2 c #62a226",
"v2 c #535f48",
"w2 c #656763",
"x2 c #626560",
"y2 c #6a6d67",
"z2 c #31373d",
"03 c #5d728d",
"13 c #a3b9d8",
"23 c #89a4cb",
"33 c #8ba8cd",
"43 c #a5bad5",
"53 c #6d819c",
"63 c #324965",
"73 c #93a7c1",
"83 c #92aed1",
"93 c #a0b5d0",
":3 c #4a607c",
";3 c #7797c1",
"A3 c #5e8e53",
"B3 c #73b92f",
"C3 c #6ebd21",
"D3 c #75c527",
"E3 c #567439",
"F3 c #6e706b",
"G3 c #40474a",
"H3 c #97abc6",
"I3 c #93afd3",
"J3 c #93add1",
"K3 c #a8bedb",
"L3 c #8194ae",
"M3 c #334a67",
"N3 c #aabfdb",
"O3 c #93aed0",
"P3 c #7385a1",
"Q3 c #7a9d86",
"R3 c #7ec13e",
"S3 c #6cba20",
"T3 c #75c726",
"U3 c #81d22f",
"V3 c #89cb4c",
"W3 c #516368",
"X3 c #a5bad6",
"Y3 c #a6bcdc",
"Z3 c #91a5c0",
"a3 c #546a85",
"b3 c #1b3351",
"c3 c #7c90aa",
"d3 c #a0b8d6",
"e3 c #9cb5d6",
"f3 c #a5bcd9",
"g3 c #374d6a",
"h3 c #81bf47",
"i3 c #6ab61e",
"j3 c #73c425",
"k3 c #88d43e",
"l3 c #93d84f",
"m3 c #375e3f",
"n3 c #a0b3cc",
"o3 c #657a94",
"p3 c #29405e",
"q3 c #213855",
"r3 c #b4c7e0",
"s3 c #a4bcda",
"t3 c #a2bad9",
"u3 c #a1b4ce",
"v3 c #70a93a",
"w3 c #6ab322",
"x3 c #71c123",
"y3 c #8ed449",
"z3 c #98db57",
"04 c #6fa055",
"14 c #183150",
"24 c #647994",
"34 c #a7bdd8",
"44 c #a8bedc",
"54 c #a5bcdb",
"64 c #a0b6d4",
"74 c #617791",
"84 c #599029",
"94 c #74ba31",
":4 c #6fbe22",
";4 c #8cd148",
"A4 c #a3de6a",
"B4 c #74ad47",
"C4 c #7a99b9",
"D4 c #677b95",
"E4 c #b1c3db",
"F4 c #abc1de",
"G4 c #b2c5e0",
"H4 c #253f5b",
"I4 c #82c344",
"J4 c #6dbb20",
"K4 c #85cd3d",
"L4 c #b0e37e",
"M4 c #8ac752",
"N4 c #6f92a6",
"O4 c #7d9dc7",
"P4 c #a5bad8",
"Q4 c #203754",
"R4 c #b2c4dd",
"S4 c #7cb844",
"T4 c #8fbd63",
"U4 c #b2c99a",
"V4 c #b5e587",
"W4 c #9cd863",
"X4 c #7fa095",
"Y4 c #7a9bc6",
"Z4 c #7f9fc8",
"a4 c #84a1c7",
"b4 c #6b819b",
"c4 c #9fb0c9",
"d4 c #bacce5",
"e4 c #aec1db",
"f4 c #516682",
"g4 c #669f34",
"h4 c #93be69",
"i4 c #d0d7c8",
"j4 c #a6df6f",
"k4 c #4c7f25",
"l4 c #8296b1",
"m4 c #7b9bc5",
"n4 c #809fc8",
"o4 c #84a3cb",
"p4 c #a1b8d8",
"q4 c #2e4462",
"r4 c #39506c",
"s4 c #bdcde3",
"t4 c #becfe6",
"u4 c #bbcde5",
"v4 c #b5c9e2",
"w4 c #afc0d9",
"x4 c #518722",
"y4 c #86bf51",
"z4 c #d8ddd4",
"05 c #daded8",
"15 c #b3d690",
"25 c #61992d",
"35 c #455b77",
"45 c #8aa7cb",
"55 c #81a0c9",
"65 c #85a3cb",
"75 c #88a6cb",
"85 c #8da1bb",
"95 c #99acc3",
":5 c #c1d0e6",
";5 c #c1d2e8",
"A5 c #bfd0e7",
"B5 c #b2c5de",
"C5 c #86c14c",
"D5 c #ced6c7",
"E5 c #e3e6e1",
"F5 c #c2d4b0",
"G5 c #76af3e",
"H5 c #a0b5d2",
"I5 c #81a1c9",
"J5 c #86a4cb",
"K5 c #8aa7cd",
"L5 c #98b2d2",
"M5 c #4d637e",
"N5 c #c2d2e8",
"O5 c #b9cbe2",
"P5 c #75af3f",
"Q5 c #bacba9",
"R5 c #e8eae6",
"S5 c #ccd5c5",
"T5 c #8cc653",
"U5 c #6a809a",
"V5 c #829fc8",
"W5 c #86a5cc",
"X5 c #a6bad5",
"Y5 c #bac9df",
"Z5 c #cbdaed",
"a5 c #b9cae2",
"b5 c #6b7f99",
"c5 c #5e942b",
"d5 c #9dc17a",
"e5 c #dfe2dc",
"f5 c #d3d8ce",
"g5 c #9cd466",
"h5 c #29405d",
"i5 c #87a5cc",
"j5 c #93adcf",
"k5 c #6c819a",
"l5 c #70839e",
"m5 c #c8d6e8",
"n5 c #cedcee",
"o5 c #cad9ec",
"p5 c #c0cfe6",
"q5 c #8dc15c",
"r5 c #d7dad3",
"s5 c #d7dbd4",
"t5 c #a9d57f",
"u5 c #528821",
"v5 c #7c8eab",
"w5 c #86a3ca",
"x5 c #a9bedb",
"y5 c #2e4663",
"z5 c #304763",
"06 c #c7d5e9",
"16 c #d6e2f2",
"26 c #d3e0f1",
"36 c #cfdcef",
"46 c #cad9ed",
"56 c #bfd0e4",
"66 c #778ba4",
"76 c #82be48",
"86 c #afcc95",
"96 c #e0e2dd",
":6 c #b9d3a0",
";6 c #61992e",
"A6 c #304865",
"B6 c #a2b8d8",
"C6 c #8ba8ce",
"D6 c #8facd0",
"E6 c #96b0d2",
"F6 c #90a4bd",
"G6 c #95a8bf",
"H6 c #cbd9ec",
"I6 c #d2dff0",
"J6 c #d1def0",
"K6 c #becee4",
"L6 c #233b58",
"M6 c #4f8620",
"N6 c #9ed26c",
"O6 c #d6eebf",
"P6 c #bbdc9a",
"Q6 c #75af3d",
"R6 c #8598b3",
"S6 c #89a6cc",
"T6 c #93afd2",
"U6 c #a1b8d6",
"V6 c #4b617c",
"W6 c #4a607b",
"X6 c #c0d0e5",
"Y6 c #ccdaed",
"Z6 c #cddbee",
"a6 c #cbd9ed",
"b6 c #bfcfe3",
"c6 c #627793",
"d6 c #b9c3b0",
"e6 c #7fb54e",
"f6 c #aedf7e",
"g6 c #89c850",
"h6 c #374f6b",
"i6 c #9eb6d5",
"j6 c #8eabcf",
"k6 c #92aed2",
"l6 c #9bb5d6",
"m6 c #abbed9",
"n6 c #1d3654",
"o6 c #b3c4db",
"p6 c #c6d6ea",
"q6 c #c8d7eb",
"r6 c #c9d8ec",
"s6 c #c7d7eb",
"t6 c #b5c4dc",
"u6 c #d8ddd5",
"v6 c #ccd2c6",
"w6 c #6c8f4c",
"x6 c #8ea1bc",
"y6 c #8ca9cd",
"z6 c #92add1",
"07 c #96b0d3",
"17 c #9bb4d3",
"27 c #8c9fb9",
"37 c #7589a2",
"47 c #b8cae0",
"57 c #c2d3e9",
"67 c #c4d4e9",
"77 c #c5d5ea",
"87 c #c4d4ea",
"97 c #4f6580",
":7 c #d1d4cc",
";7 c #c4c8be",
"A7 c #364e6a",
"B7 c #a2b9d7",
"C7 c #99b3d4",
"D7 c #697e98",
"E7 c #5f748f",
"F7 c #b7c9e2",
"G7 c #bed0e7",
"H7 c #c0d1e7",
"I7 c #c0d1e8",
"J7 c #becfe7",
"K7 c #a3b4cc",
"L7 c #798ea9",
"M7 c #8ea8cd",
"N7 c #9fb7d7",
"O7 c #aac0dc",
"P7 c #526782",
"Q7 c #506581",
"R7 c #b8cbe4",
"S7 c #bacde5",
"T7 c #bbcee5",
"U7 c #bccee6",
"V7 c #bccce3",
"W7 c #3a506d",
"X7 c #233c58",
"Y7 c #9cb6d6",
"Z7 c #a0b8d8",
"a7 c #a8bdd9",
"b7 c #95a8c1",
"c7 c #a3b5cd",
"d7 c #afc4de",
"e7 c #b2c7e1",
"f7 c #b4c8e2",
"g7 c #b6c9e3",
"h7 c #b7cae3",
"i7 c #b3c5de",
"j7 c #6c8099",
"k7 c #60748f",
"l7 c #92acce",
"m7 c #aac0dd",
"n7 c #afc4df",
"o7 c #b0c5e0",
"p7 c #b2c6e1",
"q7 c #b1c4df",
"r7 c #a4b5cc",
"s7 c #a2b5d1",
"t7 c #9eb7d7",
"u7 c #a4bbda",
"v7 c #a6bddb",
"w7 c #a9bfdc",
"x7 c #abc1dd",
"y7 c #acc2de",
"z7 c #aec3df",
"08 c #b5c8e1",
"18 c #324966",
"28 c #405772",
"38 c #a2bad8",
"48 c #98b2d4",
"58 c #9bb4d5",
"68 c #a0b9d8",
"78 c #a5bcda",
"88 c #a7bedb",
"98 c #a8bfdc",
":8 c #a8bed9",
";8 c #617690",
"A8 c #5e738e",
"B8 c #96afd1",
"C8 c #97b2d4",
"D8 c #9ab4d5",
"E8 c #9db6d6",
"F8 c #9fb8d8",
"G8 c #a1b9d8",
"H8 c #a3bad9",
"I8 c #a2b8d6",
"J8 c #8598b1",
"K8 c #7f95ad",
"L8 c #8eaacc",
"M8 c #91add1",
"N8 c #94afd2",
"O8 c #96b1d3",
"P8 c #99b3d5",
"Q8 c #9bb4d6",
"R8 c #9db6d7",
"S8 c #9db5d4",
"T8 c #8a9db7",
"U8 c #9bafca",
"V8 c #8ca8cc",
"W8 c #90acd1",
"X8 c #93aed2",
"Y8 c #95b0d3",
"Z8 c #97b1d4",
"a8 c #98b1d2",
"b8 c #8fa3bc",
"c8 c #273f5b",
"d8 c #93a6c0",
"e8 c #91abcf",
"f8 c #8fabd0",
"g8 c #90acd0",
"h8 c #9fb6d5",
"i8 c #8698b2",
"j8 c #556a85",
"k8 c #879bb6",
"l8 c #7a8ea7",
"m8 c #445a76",
"                                                                                                ",
"                                        m8l8k8j8                                                ",
"                                      i8h8g8f8e8d8c8                                            ",
"                                    b8a8Z8Y8X8W8V8U8                                            ",
"                                  T8S8R8Q8P8O8N8M8L8K8                                          ",
"                                J8I8H8G8F8E8D8C8N8M8B8A8                                        ",
"                              ;8:8988878H868R85848N8M83828                                      ",
"                            1808z7y7x7w7v7u7G8t758C8N8g8s7                                      ",
"                            r7q7p7o7n7y7m788H8G8R8D8O8X8l7k7                                    ",
"                          j7i7h7g7f7e7o7d7c7b7a7Z7Y7P8Y8M8a7X7                                  ",
"                        W7V7U7T7S7R7g708Q7    P7O7N7Q8Z8X8M7L7                                  ",
"                        K7J7I7H7G7U7F7E7        D7I8E8C7N8g8B7A7                          ;7:7  ",
"                      97V7877767574737            2717D807z6y6x6                        w6v6u6  ",
"                      t6s6r6r6q6p6o6              n6m6l6Z8k6j6i6h6                    g6f6e6d6  ",
"                    c6b6a6Z6Z6Y6X6W6                V6U648T6f8S6R6                  Q6P6O6N6M6  ",
"                  L6K6r6Z6J6I6H6G6                    F6E6N8D6C6B6A6              ;6:6968676    ",
"                  66564636261606z5                    y5x5N8g8C6w5v5            u5t5s5r5q5      ",
"                L6p577o5n5J6m5l5                        k5j5D6C6i5B6h5          g5f5e5d5c5      ",
"                b5a567q6Z5Z6Y5                            X5f8C6W5V5U5        T5S5R5Q5P5        ",
"                O5G7N577q6X6M5                            W6L5K5J5I5H5      G5F5E5D5C5          ",
"              A8B5T7A5;5:595                                857565554535  251505z4y4x4          ",
"              w4v4R7u4t4s4r4                                q4p4o4n4m4l4k4j4i496h4g4            ",
"            f4e4p7v4R7d4c4                                    b4a4Z4Y4X4W4V4U4T4S4              ",
"            d8y7n7p7f7R497                                    Q4P4O4N4M4L4K4J4I4                ",
"          H4G4w7F4z7o7E4                                        D4C4B4A4;4:49484                ",
"          74645444m73424                                        1404z3y3x3w3v3                  ",
"          u3F8t3s3v7r3q3                                  p3o3n3m3l3k3j3i3h3                    ",
"        g3f3e3t768d3c3                              b3a3Z3Y3X3W3V3U3T3S3R3Q3                    ",
"        P3O348D8Y7N3M3                          m8L3K3J3I3H3G3F3E3D3C3B3A3;3:3                  ",
"        9383N8O84873                      635343a833231303z2y2x2w2v2u2t2s2r2q2                  ",
"      p2o2n2m2k6l2k2                q3j2i2h2g2f2C6e285d2  c2x2b2a2Z2Y2X2W2V2U2q3                ",
"      T2S2R2Q2f8P2O2            N2M2L2K2g8J2I2H2G2F2    E2D2C2B2A2;2:2  92827262                ",
"      5242i532R222        12L302l2J2n2f2I2z1y1x1      ;2w1v1u1t1s1r1    j8q1p1o1                ",
"      n155m165i5y1l1k1j1i1h1g1I2I2C6K5f1e1E7        d1c1b1a1Z1Y1X1W1      V1U1T1                ",
"      S1O4Z455R1Q1P1O1N1i5M1M1M1i5L1h2K1J1          I1x2b2a2H1G1F1        E1D1W8                ",
"      C1B1A1O4;1n455R1m1m1m1:1S2918171            6151C2X1A24131            211101              ",
"      z0y0x0B1Y4w0O4v0;1u0t0s0r0                q0p0o0u1t1s131n0            m0l0k0              ",
"      j0i0h0y0g0x0f0e0d0c0b0                    r1v1a0Z0Y0X0W0                V0U0              ",
"      T0S0R0t7Q0P0O0N0                        M0L0b2a2Y1K0J0                  I0l4              ",
"            H0                                G0F0w2A2X1E0                      D0              ",
"                                              C0B0A0;0:0                                        ",
"                                            9080706050                                          ",
"                                            403020                                              ",
"                                            1000                                                ",
"                                                                                                ",
"                                                                                                ",
"                                                                                                ",
"                                                                                                "};
