/* XPM */
static char *image[] = {
"48 48 151 2",
"   c None",
"00 c #620202",
"10 c #620602",
"20 c #660202",
"30 c #660602",
"40 c #6a0202",
"50 c #6a0602",
"60 c #6e0202",
"70 c #720202",
"80 c #b27272",
"90 c #eedede",
":0 c #565656",
";0 c #cea2a2",
"A0 c #a65252",
"B0 c #ae6262",
"C0 c #6e0602",
"D0 c #760202",
"E0 c #b67272",
"F0 c #8a1616",
"G0 c #ca9292",
"H0 c #a24242",
"I0 c #b26262",
"J0 c #720602",
"K0 c #8e1616",
"L0 c #eee2e2",
"M0 c #d2a2a2",
"N0 c #ce9292",
"O0 c #5a5a5a",
"P0 c #760602",
"Q0 c #ba7e7e",
"R0 c #ca9e9e",
"S0 c #a23232",
"T0 c #b25252",
"U0 c #9e2626",
"V0 c #7a0602",
"W0 c #c69696",
"X0 c #d6b6b2",
"Y0 c #d2aaaa",
"Z0 c #961616",
"a0 c #c69292",
"b0 c #debebe",
"c0 c #debaba",
"d0 c #be8282",
"e0 c #e6d2d2",
"f0 c #ba7272",
"g0 c #962622",
"h0 c #a63232",
"i0 c #c27272",
"j0 c #e6c2c2",
"k0 c #7e0602",
"l0 c #9a3632",
"m0 c #be7272",
"n0 c #b66262",
"o0 c #ae4242",
"p0 c #d29292",
"q0 c #ae5652",
"r0 c #921616",
"s0 c #aa4646",
"t0 c #ca8282",
"u0 c #deb2b2",
"v0 c #c67272",
"w0 c #a22626",
"x0 c #820606",
"y0 c #9e3636",
"z0 c #dab2b2",
"01 c #f6eeee",
"11 c #e2c2c2",
"21 c #ead2d2",
"31 c #aa3636",
"41 c #a61616",
"51 c #ce8282",
"61 c #5e5e5e",
"71 c #ba5656",
"81 c #f2e2e2",
"91 c #ae3636",
":1 c #d28282",
";1 c #860606",
"A1 c #a21616",
"B1 c #b23636",
"C1 c #8a0606",
"D1 c #aa1616",
"E1 c #eed2d2",
"F1 c #ae1616",
"G1 c #d68282",
"H1 c #b22626",
"I1 c #e6b2b2",
"J1 c #b21616",
"K1 c #8e0606",
"L1 c #d27272",
"M1 c #ce6666",
"N1 c #ba1616",
"O1 c #f6e2e2",
"P1 c #da8282",
"Q1 c #920606",
"R1 c #d26666",
"S1 c #be1616",
"T1 c #faeeee",
"U1 c #960606",
"V1 c #f2d2d2",
"W1 c #c61616",
"X1 c #9a0606",
"Y1 c #ca2626",
"Z1 c #e69292",
"a1 c #d64646",
"b1 c #d23636",
"c1 c #f2c2c2",
"d1 c #9e0606",
"e1 c #da5656",
"f1 c #e68686",
"g1 c #faf2f2",
"h1 c #d21a1a",
"i1 c #e67676",
"j1 c #a20606",
"k1 c #d62a2a",
"l1 c #de3636",
"m1 c #de4646",
"n1 c #e24646",
"o1 c #e23a3a",
"p1 c #a60606",
"q1 c #ea8686",
"r1 c #ea7676",
"s1 c #fefefe",
"t1 c #de2a2a",
"u1 c #f2a2a2",
"v1 c #f6b2b2",
"w1 c #f29696",
"x1 c #fe0e0e",
"y1 c #fa0e0e",
"z1 c #aa0606",
"02 c #ae0606",
"12 c #ae0a0a",
"22 c #b20a0a",
"32 c #b60a0a",
"42 c #ba0a0a",
"52 c #be0a0a",
"62 c #c20a0a",
"72 c #c60a0a",
"82 c #ca0a0a",
"92 c #ce0a0a",
":2 c #d20a0a",
";2 c #d60a0a",
"A2 c #da0a0a",
"B2 c #de0a0a",
"C2 c #e20a0a",
"D2 c #e60a0a",
"E2 c #f60e0e",
"F2 c #f20e0e",
"G2 c #ee0e0e",
"H2 c #ea0e0e",
"I2 c #626262",
"J2 c #666666",
"                                                                                                ",
"    J2J2J2J2J2J2J2J2J2J2J2J2J2J2J2J2J2J2J2J2J2J2J2J2J2J2I2I2I2I2I2I2I2I2I2I2I2I2I2I2I2I2I2I2    ",
"    J2H2G2G2G2F2F2E2E2E2F2F2G2G2G2H2H2D2D2C2C2B2A2A2;2:2:2:29282827272625252423222221202z1I2    ",
"    J2G2G2F2E2E2E2y1y1y1E2E2F2G2G2G2H2D2D2C2C2B2A2A2;2:2:2:29282827272625242423222221202z1I2    ",
"    J2G2F2E2E2y1y1y1y1y1y1E2F2F2G2G2H2D2D2C2C2B2A2A2;2:2:29292827272626252424232222212z1z1I2    ",
"    J2F2F2E2y1y1x1x1y1y1y1E2F2G2G2H2H2D2D2C2B2B2A2A2;2:2:29292827272625252423222222202z1z1I2    ",
"    J2F2F2E2E2y1y1y1y1E2E2F2F2G2G2H2D2D2C2C2B2A2A2;2:2:2929282827262525242423222221202z1z1I2    ",
"    J2G2F2F2E2E2E2E2E2F2F2G2G2G2H2D2D2C2C2w1v1u1t1;2:2:29292827272625252423222222202z1z1z1I2    ",
"    J2G2G2G2F2F2F2F2G2G2G2G2H2H2D2D2C2C2B2s1r1t1q1:2:2929282727262525242423222221202z1z1p1I2    ",
"    J2H2H2G2G2G2G2G2G2H2H2D2D2D2D2C2C2B2o1s1n1;2m1:2929282727262525242423222221202z1z1p1p1I2    ",
"    J2D2D2D2H2H2H2D2D2D2D2D2C2C2C2B2A2A2l1s1m1:2k1929282727262525242423222221202z1z1z1p1j1I2    ",
"    J2D2D2D2D2D2D2D2D2C2C2C2B2B2A2A2A2;2;2s1i192h19282727262525242423222222202z1z1z1p1j1j1I2    ",
"    J2C2C2C2C2C2C2C2B2B2B2A2A2A2A2;2;2:2:2g1f192e182727262525242423222221202z1z1z1p1j1j1d1I2    ",
"    J2A2A2A2A2A2A2A2A2A2A2A2;2;2:2:2:2:292c1c1b1a1726262525242423222221202z1z1z1p1j1j1d1d1I2    ",
"    J2A2A2A2A2A2A2;2;2;2;2:2:2:2:292929282f1g1Z1Y16252524242322222221202z1z1z1p1j1j1d1d1d1I2    ",
"    J2:2:2:2:2:2:2:2:2:2:2:292929292828272e1s1s152525242323222222202z1z1z1p1p1j1j1d1d1X1X1I2    ",
"    J2:2:2:2:2:292929292929282828272727262W1s1V1524242322222221202z1z1z1p1p1j1j1d1d1X1X1U1I2    ",
"    J292929292928282828282727272727262625252V1T142322222221202z1z1z1p1p1j1j1d1d1d1X1U1U1U1I2    ",
"    J2727272727272727272727262626252525242S1s1s1R122221202z1z1z1z1p1p1j1j1d1d1X1X1U1U1U1Q1I2    ",
"    J2727272726262626262525252525242424232P1O1O1O11202z1z1z1z1p1p1j1j1d1d1d1X1U1U1U1U1Q1Q1I2    ",
"    J25252525252525252525242424242323222N1T1M1M1s1L1z1z1z1p1p1j1j1d1d1d1X1X1U1U1U1Q1Q1Q1K1I2    ",
"    J24242424242424242423232322222222222L1T1J1z1I1T1H1p1p1j1j1d1d1d1X1X1U1U1U1Q1Q1Q1Q1K1K1I2    ",
"    I23232323232323222222222222222020202O1G1z1z1F1O1E1D1d1d1d1d1X1X1U1U1U1U1Q1Q1Q1K1K1C1C1I2    ",
"    I222222222222222222212020202z1z1z1G1T1F1p1p1j1B1T1E1A1d1X1U1U1U1U1U1Q1Q1K1K1K1C1C1C1;1I2    ",
"    I20202020202020202z1z1z1z1z1z1p1D1T1:1j1j1d1d1d19181T171U1U1U1Q1Q1Q1Q1K1K1C1C1C1C1;1;161    ",
"    I2z1z1z1z1z1z1z1z1z1p1p1p1p1p1j151T141d1d1X1X1X1U13181s1211121s1s1s1s101z0y0C1;1;1x0x061    ",
"    I2p1p1p1p1p1p1p1p1p1j1j1j1d1d1A1T151X1X1U1w0v0u0g18111t081s121s0C1C1C1r0q011;1x0x0x0x061    ",
"    I2j1j1j1j1j1j1d1d1d1d1d1d1d1X1p081U131p0g1u0t0o0Q1Q1K1K1K1n021s121m0y0;1;1l0x0x0x0k0k061    ",
"    I2d1d1d1d1d1d1d1X1X1X1X1U1U1w0s1j0t0i0h0Q1Q1K1K1K1K1C1C1C1C1C1g0f01101s1e0d0c0b0a0k0k061    ",
"    I2X1X1X1X1U1U1U1U1U1U1U1U1Q11111Z0Q1K1K1K1K1C1C1C1C1C1C1;1;1;1x0x0x0x0x0x0k0Y0X0W0V0V061    ",
"    I2U1U1U1U1U1U1Q1Q1Q1Q1U0o0T0s1S0K1C1C1C1C1C1C1;1;1;1;1x0x0x0x0x0x0k0k0k0k0V0W0R0Q0P0P0O0    ",
"    I2Q1Q1Q1Q1Q1Q1K1K1K1m0N0r001N0C1C1C1C1;1;1;1x0x0x0x0x0x0x0k0k0k0k0k0V0V0V0V0V0P0P0P0P0O0    ",
"    I2K1K1K1C1C1C1C1r0M0M0C1z0L0K0;1;1;1x0x0x0x0x0x0x0k0k0k0k0k0V0V0V0V0P0P0P0P0P0P0P0P0J0O0    ",
"    I2C1C1C1C1C1;1;1e0z0;1I0s1H0x0x0x0x0k0k0k0k0k0k0V0V0V0V0V0V0P0P0P0P0P0P0P0P0P0J0J0J0J0O0    ",
"    I2;1;1x0x0x0x0G0L0F0l0s1E0k0k0k0k0k0k0V0V0V0V0D0D0D0D0D0P0P0P0P0P0P0J0J0J0J0J0J0C0C0C0O0    ",
"    I2x0x0x0x0k0k001B0A001;0V0V0V0V0D0D0D0D0D0D0D0D0D0D0D0J0J0J0J0J0J0J0J0J0J0C0C0C0C0C0C0:0    ",
"    61k0k0V0V0V0V0d0a09080D0D0D0D0D0D0D07070J0J0J0J0J0J0J0J0C0C0C060C0C0C0C0C0C0C0C0505050:0    ",
"    61D0D0D0D0D0D0D0D0D07070707070607060606060606060606060C060606060C0C0504050505050505050:0    ",
"    61707070707070706060606060606060606060606040404040404040404040504040405050505030303030:0    ",
"    O0606060606060606040404040404040404040404040404040202020202020202020303030303030301010:0    ",
"    O0404040404040404020202020202020202020202020000000000000000000000000101010101010101010:0    ",
"    :0202020202020000000000000000000000000000000000000000000000000000010101010101010101010:0    ",
"    :0:0:0:0:0:0:0:0:0:0:0:0:0:0:0:0:0:0:0:0:0:0:0:0:0:0:0:0:0:0:0:0:0:0:0:0:0:0:0:0:0:0:0:0    ",
"                                                                                                ",
"                                                                                                ",
"                                                                                                ",
"                                                                                                ",
"                                                                                                "};
