/* XPM */
static char *image[] = {
"48 48 570 2",
"   c None",
"00 c #b92a45",
"10 c #bc243f",
"20 c #9b1c32",
"30 c #8f192e",
"40 c #a71f36",
"50 c #921c30",
"60 c #c32f48",
"70 c #cd3551",
"80 c #a6364b",
"90 c #cf2d46",
":0 c #d12c46",
";0 c #d7324b",
"A0 c #c72843",
"B0 c #bd2540",
"C0 c #b6233c",
"D0 c #ad2941",
"E0 c #ca314b",
"F0 c #9c253a",
"G0 c #b42b43",
"H0 c #c33752",
"I0 c #b03148",
"J0 c #b9334a",
"K0 c #e5374e",
"L0 c #e6384f",
"M0 c #d6324b",
"N0 c #bc253f",
"O0 c #d3304a",
"P0 c #c62844",
"Q0 c #b8253e",
"R0 c #b6243e",
"S0 c #d0334e",
"T0 c #ed6175",
"U0 c #e2435c",
"V0 c #c53951",
"W0 c #bb3a52",
"X0 c #a4384e",
"Y0 c #d8384e",
"Z0 c #e12c46",
"a0 c #e73d53",
"b0 c #e33e53",
"c0 c #e23d53",
"d0 c #ea485c",
"e0 c #ca2b45",
"f0 c #ca2b46",
"g0 c #c52a44",
"h0 c #b3253d",
"i0 c #b3263e",
"j0 c #c02d45",
"k0 c #c22f47",
"l0 c #d63752",
"m0 c #f87383",
"n0 c #e65e70",
"o0 c #ab3b51",
"p0 c #b72f48",
"q0 c #af364c",
"r0 c #e73e53",
"s0 c #dd1f3e",
"t0 c #e12946",
"u0 c #e22744",
"v0 c #e73b53",
"w0 c #d2324a",
"x0 c #a12036",
"y0 c #a72239",
"z0 c #d4344e",
"01 c #cb2c47",
"11 c #c52a45",
"21 c #c32b45",
"31 c #b3263f",
"41 c #b3273e",
"51 c #992438",
"61 c #9e2439",
"71 c #db3f58",
"81 c #f56f7f",
"91 c #b93f55",
":1 c #c33b53",
";1 c #aa364c",
"A1 c #cf394e",
"B1 c #e3314b",
"C1 c #df1f3f",
"D1 c #e32c49",
"E1 c #e7455a",
"F1 c #d12f4a",
"G1 c #e84a5f",
"H1 c #cd2d49",
"I1 c #cd2d47",
"J1 c #cb2c48",
"K1 c #c52b46",
"L1 c #c42c46",
"M1 c #ba2942",
"N1 c #ba2944",
"O1 c #b42940",
"P1 c #c42f48",
"Q1 c #c72f49",
"R1 c #d3344f",
"S1 c #db3e58",
"T1 c #81202f",
"U1 c #962538",
"V1 c #e04f64",
"W1 c #da566a",
"X1 c #b23c52",
"Y1 c #a9384e",
"Z1 c #e74458",
"a1 c #e12442",
"b1 c #e02040",
"c1 c #e52f4b",
"d1 c #e94258",
"e1 c #ea435a",
"f1 c #eb4b5f",
"g1 c #d2314b",
"h1 c #5d121e",
"i1 c #d2324c",
"j1 c #ce2e49",
"k1 c #cb2d48",
"l1 c #c92e49",
"m1 c #c62e48",
"n1 c #c72e48",
"o1 c #c72e49",
"p1 c #cb314b",
"q1 c #cd324c",
"r1 c #d73652",
"s1 c #ec6074",
"t1 c #d53853",
"u1 c #d63d57",
"v1 c #ea6b7d",
"w1 c #b03c54",
"x1 c #b1354c",
"y1 c #c5384e",
"z1 c #e83b53",
"02 c #e12141",
"12 c #e22241",
"22 c #e32242",
"32 c #e32343",
"42 c #ea4058",
"52 c #d83750",
"62 c #a7233a",
"72 c #a32337",
"82 c #d83a51",
"92 c #d0304b",
":2 c #cf2f4b",
";2 c #cb304a",
"A2 c #ca2f4a",
"B2 c #cc314a",
"C2 c #cc314b",
"D2 c #d0324e",
"E2 c #d33350",
"F2 c #d73853",
"G2 c #f8808e",
"H2 c #f37585",
"I2 c #f2687b",
"J2 c #cf4d62",
"K2 c #ba3c54",
"L2 c #a93b50",
"M2 c #e24559",
"N2 c #e42b49",
"O2 c #e32342",
"P2 c #e42343",
"Q2 c #e7324e",
"R2 c #e74a5e",
"S2 c #d2324d",
"T2 c #e84f63",
"U2 c #d4324d",
"V2 c #d2314d",
"W2 c #d0314c",
"X2 c #cf314c",
"Y2 c #d0314d",
"Z2 c #d0324d",
"a2 c #d73753",
"b2 c #da3d58",
"c2 c #f87a89",
"d2 c #f5516a",
"e2 c #ee7181",
"f2 c #ad3d53",
"g2 c #b8344c",
"h2 c #bc384f",
"i2 c #ea455b",
"j2 c #e42443",
"k2 c #e52444",
"l2 c #e52544",
"m2 c #e62545",
"n2 c #ea3e55",
"o2 c #ed5164",
"p2 c #ed5465",
"q2 c #ee5568",
"r2 c #d73551",
"s2 c #6d1826",
"t2 c #661724",
"u2 c #d93751",
"v2 c #d3334e",
"w2 c #d3324e",
"x2 c #d5354e",
"y2 c #d5344f",
"z2 c #d73752",
"03 c #db3e57",
"13 c #de445d",
"23 c #f77584",
"33 c #f77282",
"43 c #c5465c",
"53 c #c14057",
"63 c #ac394f",
"73 c #db4359",
"83 c #e83450",
"93 c #e52545",
":3 c #e62645",
";3 c #e72646",
"A3 c #ea2a48",
"B3 c #ed485f",
"C3 c #db3b54",
"D3 c #982237",
"E3 c #982136",
"F3 c #dc3c54",
"G3 c #d63651",
"H3 c #d73650",
"I3 c #d63650",
"J3 c #d83652",
"K3 c #d83b55",
"L3 c #df445d",
"M3 c #731e2e",
"N3 c #792031",
"O3 c #e04a61",
"P3 c #f77082",
"Q3 c #e6697b",
"R3 c #b13d54",
"S3 c #bf334e",
"T3 c #b43950",
"U3 c #ec4d62",
"V3 c #e62846",
"W3 c #e72746",
"X3 c #e82847",
"Y3 c #e92848",
"Z3 c #ec3d57",
"a3 c #e4485e",
"b3 c #ce304b",
"c3 c #ce314b",
"d3 c #e64c61",
"e3 c #db3a54",
"f3 c #d93853",
"g3 c #da3954",
"h3 c #db3a56",
"i3 c #dc4059",
"j3 c #b73348",
"k3 c #bc344b",
"l3 c #e6556a",
"m3 c #f77f8b",
"n3 c #ba4158",
"o3 c #c94058",
"p3 c #b33950",
"q3 c #d24057",
"r3 c #ea3f58",
"s3 c #e82747",
"t3 c #e92847",
"u3 c #e92948",
"v3 c #ea2949",
"w3 c #ec2e4c",
"x3 c #ed5267",
"y3 c #e4465e",
"z3 c #e4475f",
"04 c #f05f71",
"14 c #dc3b56",
"24 c #7b1b2c",
"34 c #791c2b",
"44 c #de3d58",
"54 c #db3b56",
"64 c #dd3e57",
"74 c #de4059",
"84 c #de435d",
"94 c #f26b7d",
":4 c #da405a",
";4 c #da415a",
"A4 c #f26b7c",
"B4 c #db5d70",
"C4 c #b93f57",
"D4 c #b03b53",
"E4 c #ea5166",
"F4 c #ea2e4c",
"G4 c #ea2948",
"H4 c #eb2a49",
"I4 c #eb2b4a",
"J4 c #ed304e",
"K4 c #ef3f5a",
"L4 c #ef415a",
"M4 c #f04f66",
"N4 c #e04159",
"O4 c #ac293f",
"P4 c #a9293e",
"Q4 c #e2435d",
"R4 c #df3e58",
"S4 c #e0425b",
"T4 c #e0455e",
"U4 c #7e2231",
"V4 c #7f2231",
"W4 c #e24961",
"X4 c #f57585",
"Y4 c #f47383",
"Z4 c #f57182",
"a4 c #f3838f",
"b4 c #b44055",
"c4 c #ba384f",
"d4 c #c93e55",
"e4 c #ed4b61",
"f4 c #ea2a49",
"g4 c #eb2a4a",
"h4 c #ec2b4a",
"i4 c #ec2c4b",
"j4 c #f0415b",
"k4 c #ea5065",
"l4 c #d3334f",
"m4 c #d4344f",
"n4 c #ea5369",
"o4 c #e0435c",
"p4 c #8d2433",
"q4 c #8c2535",
"r4 c #e24760",
"s4 c #e44b63",
"t4 c #a52e41",
"u4 c #a62f41",
"v4 c #e54f66",
"w4 c #f66679",
"x4 c #f64a63",
"y4 c #f77887",
"z4 c #d15366",
"05 c #c14158",
"15 c #af3b53",
"25 c #e45166",
"35 c #ec3853",
"45 c #ec2b4b",
"55 c #ed2c4b",
"65 c #ed2d4c",
"75 c #f03150",
"85 c #f05a6d",
"95 c #e74e64",
":5 c #e74f65",
";5 c #f26678",
"A5 c #e54d64",
"B5 c #c3344c",
"C5 c #c3354c",
"D5 c #e75167",
"E5 c #eb596e",
"F5 c #d33c55",
"G5 c #d33e57",
"H5 c #ec5f73",
"I5 c #f65b70",
"J5 c #f6596f",
"K5 c #ee7d8c",
"L5 c #b43f57",
"M5 c #c23650",
"N5 c #c03d54",
"O5 c #ef5669",
"P5 c #ed2d4b",
"Q5 c #ee2d4c",
"R5 c #ee2d4d",
"S5 c #f23755",
"T5 c #f24c63",
"U5 c #f24a62",
"V5 c #f2455f",
"W5 c #ee5f72",
"X5 c #da3e58",
"Y5 c #da3f58",
"Z5 c #f36d7e",
"a5 c #e65067",
"b5 c #e6516a",
"c5 c #f57282",
"d5 c #f78593",
"e5 c #c64a5f",
"f5 c #c9435a",
"g5 c #b53c53",
"h5 c #dd4d62",
"i5 c #f0425c",
"j5 c #ef2e4d",
"k5 c #f0304f",
"l5 c #f33855",
"m5 c #f43957",
"n5 c #f35a6d",
"o5 c #f06576",
"p5 c #f16778",
"q5 c #f46073",
"r5 c #f64e67",
"s5 c #f56578",
"t5 c #f5677b",
"u5 c #f7546b",
"v5 c #f7697c",
"w5 c #e57182",
"x5 c #b84057",
"y5 c #c83650",
"z5 c #b93d55",
"06 c #ef5f71",
"16 c #f03250",
"26 c #f02f4e",
"36 c #f53e5a",
"46 c #f54a63",
"56 c #f64c64",
"66 c #f75268",
"76 c #f7919d",
"86 c #bd445b",
"96 c #ce455e",
":6 c #bb3a53",
";6 c #d6475f",
"A6 c #f14f66",
"B6 c #f1304f",
"C6 c #f23150",
"D6 c #f23251",
"E6 c #f33452",
"F6 c #f5435e",
"G6 c #f97989",
"H6 c #dc6375",
"I6 c #c1435a",
"J6 c #b63e56",
"K6 c #ed6073",
"L6 c #f23a57",
"M6 c #f23351",
"N6 c #f33553",
"O6 c #f33754",
"P6 c #f33856",
"Q6 c #f74963",
"R6 c #f85c71",
"S6 c #f4919d",
"T6 c #b94259",
"U6 c #c43b54",
"V6 c #cd435c",
"W6 c #f35b70",
"X6 c #f33654",
"Y6 c #f33755",
"Z6 c #f43956",
"a6 c #f43b58",
"b6 c #f43d59",
"c6 c #f84d66",
"d6 c #f98a97",
"e6 c #d1566b",
"f6 c #c7465d",
"g6 c #b83e56",
"h6 c #e85d71",
"i6 c #f34762",
"j6 c #f43a57",
"k6 c #f43c59",
"l6 c #f5405b",
"m6 c #f8526a",
"n6 c #f96a7e",
"o6 c #ee8996",
"p6 c #ba4259",
"q6 c #ca3b56",
"r6 c #c5415a",
"s6 c #f46879",
"t6 c #f43e5a",
"u6 c #f53f5b",
"v6 c #f5415c",
"w6 c #f5425d",
"x6 c #f6445f",
"y6 c #f9576d",
"z6 c #fa99a4",
"07 c #c84c62",
"17 c #ce4960",
"27 c #be3f57",
"37 c #e0576b",
"47 c #f5576c",
"57 c #f5415d",
"67 c #f6435e",
"77 c #f64560",
"87 c #f64761",
"97 c #fa7b8b",
":7 c #e67888",
";7 c #c1445c",
"A7 c #be4159",
"B7 c #f36f7f",
"C7 c #f64863",
"D7 c #f64660",
"E7 c #f64862",
"F7 c #f74a63",
"G7 c #f74b65",
"H7 c #fa5e73",
"I7 c #f8a2ac",
"J7 c #c1455d",
"K7 c #c54159",
"L7 c #d85066",
"M7 c #f66478",
"N7 c #f74962",
"O7 c #f74b64",
"P7 c #f74c65",
"Q7 c #f84e67",
"R7 c #f9566c",
"S7 c #fa8d9a",
"T7 c #dc677a",
"U7 c #c8475e",
"V7 c #bc4058",
"W7 c #f06f80",
"X7 c #f7546c",
"Y7 c #f74d66",
"Z7 c #f84f67",
"a7 c #f85169",
"b7 c #f9536a",
"c7 c #fa6c7e",
"d7 c #f49fa8",
"e7 c #bf435b",
"f7 c #cd435d",
"g7 c #d14b63",
"h7 c #f77182",
"i7 c #f85068",
"j7 c #f85269",
"k7 c #f9546b",
"l7 c #f9576e",
"m7 c #fb9fa9",
"n7 c #d2586d",
"o7 c #cf4c62",
"p7 c #bf425b",
"q7 c #eb6a7b",
"r7 c #f96176",
"s7 c #f9556c",
"t7 c #f9566d",
"u7 c #fa586e",
"v7 c #fa5a70",
"w7 c #fb7c8b",
"x7 c #ee919d",
"y7 c #c0445d",
"z7 c #d1465f",
"08 c #f87b8b",
"18 c #f9596f",
"28 c #fa596f",
"38 c #fa5b70",
"48 c #fa5d72",
"58 c #fb5f73",
"68 c #fb6277",
"78 c #fcadb6",
"88 c #ca4d65",
"98 c #d44e65",
":8 c #c6455d",
";8 c #e26175",
"A8 c #f96f81",
"B8 c #fa5c71",
"C8 c #fb5e73",
"D8 c #fb6074",
"E8 c #fb6175",
"F8 c #fb8e9c",
"G8 c #e57d8c",
"H8 c #c7475f",
"I8 c #c3445d",
"J8 c #f7808e",
"K8 c #fb6477",
"L8 c #fb6075",
"M8 c #fc6276",
"N8 c #fc6d7f",
"O8 c #f8b3ba",
"P8 c #c5485f",
"Q8 c #cd4960",
"R8 c #dc5a6e",
"S8 c #fb7b8a",
"T8 c #fc6377",
"U8 c #fc6578",
"V8 c #fca0aa",
"W8 c #dd6b7c",
"X8 c #cf4c63",
"Y8 c #c4445d",
"Z8 c #f37e8c",
"a8 c #fc6e80",
"b8 c #fc7c8b",
"c8 c #f4aab4",
"d8 c #c4455e",
"e8 c #d34d66",
"f8 c #d45269",
"g8 c #fc8694",
"h8 c #fdb8bf",
"i8 c #d55b70",
"j8 c #d55068",
"k8 c #c7465f",
"l8 c #ee7585",
"m8 c #efaab3",
"n8 c #c84760",
"o8 c #d75368",
"p8 c #ce4c64",
"q8 c #ce5068",
"r8 c #da556b",
"s8 c #ce4b64",
"                                                                                                ",
"                                                                                                ",
"                                                                                                ",
"                                                                                                ",
"                                                                                                ",
"                                              s8s8                                              ",
"                                            r8q8p8o8                                            ",
"                                            n8m8l8k8                                            ",
"                                          j8i8h8g8f8e8                                          ",
"                                          d8c8b8a8Z8Y8                                          ",
"                                        X8W8V8U8T8S8R8Q8                                        ",
"                                        P8O8N8M8L8K8J8I8                                        ",
"                                      H8G8F8E8D8C8B8A8;8:8                                      ",
"                                    98887868584838281808n8z7                                    ",
"                                    y7x7w7C8B8v7u7t7s7r7q7p7                                    ",
"                                  o7n7m7483828l7s7k7j7i7h7g7f7                                  ",
"                                  e7d7c7v7u7t7s7b7a7Z7Y7X7W7V7                                  ",
"                                U7T7S728l7R7k7j7i7Q7P7O7N7M7L7K7                                ",
"                                J7I7H7t7s7b7a7Z7Y7G7F7E7D7C7B7A7                                ",
"                              ;7:797R7k7j7i7Q7P7O7N787776757473727                              ",
"                            1707z6y6b7a7Z7Y7G7F7E7D7x6w6v6u6t6s6r6q6                            ",
"                            p6o6n6m6i7Q7P7O7N7877767w6l6t6k6j6i6h6g6                            ",
"                          f6e6d6a7Z7c6P7F7E7D7x6w6v6u6b6a6Z6Y6X6W6V6U6                          ",
"                          T6S6R6Q7P7O7Q6877767w6l6t6k6j6P6O6N6M6L6K6J6                          ",
"                        I6H6G6c6P7F7E7D7x6F6v6u6b6a6Z6Y6X6E6D6C6B6A6;6:6                        ",
"                      96867666O7Q687775646l636k6j6P6O6N6M6C6B6B6261606z5y5                      ",
"                      x5w5v5u5t5s5r5q5p5o5n5a6m5l5X6E6D6C6B6k526j5j5i5h5g5                      ",
"                    f5e5d5Y7c5b5a5Z5o5Y5X5W5V5U5T5S5C6B6B62626j5R5Q5P5O5N5M5                    ",
"                    L5K5J5I5H5G5F5E5D5C5B5A5;5:5958575k526j5j5Q5655545352515                    ",
"                  05z4y4x4w4v4u4t4s4r4q4p4o4n4m4l4k4j426j5R5Q555i4h4g4f4e4d4c4                  ",
"                  b4a4Z4Y4X4W4V4U4T4S4    R4Q4P4O4N4M4L4K4J45545I4H4f4G4F4E4D4                  ",
"                C4B4A4;4:49484    7464    544434241404z3y3x3w3g4H4v3u3t3s3r3q3p3                ",
"              o3n3m3l3k3j3v4i3    h3g3    f3e3    f3d3c3b3a3Z3f4G4Y3X3s3W3V3U3T3S3              ",
"              R3Q3P3O3N3M3L3K3    J3J3    I3H3    G3F3E3D3C3B3A3G4s3W3;3:393837363              ",
"            5343332313    03z2    y2x2    w2v2    w2u2t2s2r2q2p2o2n2:3m2l2k2j2i2h2g2            ",
"            f2e2d2c2b2    a2m4    Z2Y2    X2W2    V2U2    U2T2S2U2R2Q2k2j2P2O2N2M2L2            ",
"          K2J2I2H2G2F2    E2D2    C2B2    A2;2    :292    928272625242j232221202z1y1x1          ",
"          w1v1u1t1s1r1    q1p1    o1n1    n1m1    l1k1    j1i1  h1g1f1e1d1c102b1a1Z1Y1          ",
"        X1W1V1U1T1S1R1    Q1P1    O1O1    N1M1    L1K1    J1I1    H1G1g1F1E1D1C1C1B1A1;1        ",
"      :1918171    R1q1    6151                    4131    2111    01z0y0x0w0v0u0t0s0r0q0p0      ",
"      o0n0m0l0    k0j0                                    i0h0    g0f0    e0d0c0b0a0Z0Y0X0      ",
"    W0V0U0T0S0                                                    R0Q0    P0O0N0N0M0L0K0J0I0    ",
"    H0G0F0E0D0                                                            C0B0    A0;0:09080    ",
"  7060                                                                            504030201000  ",
"                                                                                                ",
"                                                                                                ",
"                                                                                                ",
"                                                                                                "};
