/* XPM */
static char *image[] = {
"48 48 591 2",
"   c None",
"00 c #3867a5",
"10 c #a3bbd8",
"20 c #f8fbfd",
"30 c #ebf1f8",
"40 c #a5bdd9",
"50 c #3a6ba8",
"60 c #d7e2ef",
"70 c #b9d0e8",
"80 c #d9e3f0",
"90 c #3c6ba7",
":0 c #a3bcd8",
";0 c #e8eff7",
"A0 c #a7c4e2",
"B0 c #e7eff7",
"C0 c #a6bdd9",
"D0 c #386aa6",
"E0 c #eaf0f7",
"F0 c #a8c4e2",
"G0 c #a7c3e1",
"H0 c #ecf1f8",
"I0 c #748598",
"J0 c #738598",
"K0 c #738597",
"L0 c #aac5e2",
"M0 c #adc7e4",
"N0 c #f7fafc",
"O0 c #3a69a6",
"P0 c #a9c5e2",
"Q0 c #aac6e3",
"R0 c #adc8e3",
"S0 c #f8fafc",
"T0 c #abc6e3",
"U0 c #768799",
"V0 c #758698",
"W0 c #aec8e4",
"X0 c #adc7e3",
"Y0 c #3a69a8",
"Z0 c #acc7e3",
"a0 c #adc8e4",
"b0 c #b0cae4",
"c0 c #3465a3",
"d0 c #afc8e4",
"e0 c #7c8b9b",
"f0 c #7b8b9b",
"g0 c #7b8a9a",
"h0 c #7a899a",
"i0 c #79899a",
"j0 c #798999",
"k0 c #788899",
"l0 c #778899",
"m0 c #778799",
"n0 c #b1cae5",
"o0 c #afc9e4",
"p0 c #396aa7",
"q0 c #b0c9e4",
"r0 c #bcd1e8",
"s0 c #b7cee7",
"t0 c #b3cbe5",
"u0 c #b0cae5",
"v0 c #f9fafc",
"w0 c #3969a5",
"x0 c #b9cee6",
"y0 c #b5cae1",
"z0 c #b5cae0",
"01 c #b3c6dc",
"11 c #b2c6da",
"21 c #b1c5d9",
"31 c #b1c5da",
"41 c #b3c7dd",
"51 c #b4cae0",
"61 c #b7cde3",
"71 c #b8cee5",
"81 c #b8cfe7",
"91 c #b6cee7",
":1 c #b2cbe5",
";1 c #b4cce6",
"A1 c #fafbfd",
"B1 c #3466a4",
"C1 c #b3cce5",
"D1 c #b5cce3",
"E1 c #b0c5da",
"F1 c #afc2d8",
"G1 c #adc1d6",
"H1 c #a6b8cb",
"I1 c #a8b9cd",
"J1 c #a8bbcf",
"K1 c #aec1d7",
"L1 c #afc4d9",
"M1 c #b2c8df",
"N1 c #b4cbe2",
"O1 c #b6cde6",
"P1 c #b3cce6",
"Q1 c #fafcfd",
"R1 c #b5cde6",
"S1 c #b3c9e2",
"T1 c #b2c7de",
"U1 c #b0c5db",
"V1 c #a8bace",
"W1 c #a1b2c4",
"X1 c #9aaaba",
"Y1 c #9aaabb",
"Z1 c #9daebf",
"a1 c #9eafc1",
"b1 c #a0b1c3",
"c1 c #a7b9cd",
"d1 c #a9bcd0",
"e1 c #abbed3",
"f1 c #adc1d7",
"g1 c #afc4da",
"h1 c #b2c8e1",
"i1 c #b9cfe7",
"j1 c #dcc1ca",
"k1 c #d69fa8",
"l1 c #3869a6",
"m1 c #b6cee6",
"n1 c #b5cce5",
"o1 c #b3c9e1",
"p1 c #b1c6dd",
"q1 c #aec3d9",
"r1 c #aabdd2",
"s1 c #a7b9ce",
"t1 c #a5b7ca",
"u1 c #a3b5c7",
"v1 c #b1becd",
"w1 c #b5c1cd",
"x1 c #bac4cf",
"y1 c #b8c2cd",
"z1 c #a6b3c0",
"02 c #93a1b1",
"12 c #8e9cab",
"22 c #909ead",
"32 c #92a0b0",
"42 c #94a3b3",
"52 c #9aa9b9",
"62 c #9cacbd",
"72 c #9fafc2",
"82 c #a1b3c5",
"92 c #a4b6c9",
":2 c #a6b8cd",
";2 c #a9bdd1",
"A2 c #acc0d5",
"B2 c #aec2d9",
"C2 c #c2d2e3",
"D2 c #e7a1a3",
"E2 c #cad5e6",
"F2 c #3666a4",
"G2 c #b7cfe7",
"H2 c #b6cde4",
"I2 c #b3c9e0",
"J2 c #b1c5dc",
"K2 c #aec2d8",
"L2 c #adc0d5",
"M2 c #aabdd0",
"N2 c #bbc9d8",
"O2 c #d5c6cd",
"P2 c #e37b7c",
"Q2 c #de4646",
"R2 c #e46666",
"S2 c #dec7c9",
"T2 c #97a3b0",
"U2 c #8895a3",
"V2 c #85929f",
"W2 c #8794a2",
"X2 c #8a98a6",
"Y2 c #8e9baa",
"Z2 c #919fae",
"a2 c #95a4b3",
"b2 c #97a6b6",
"c2 c #9baabb",
"d2 c #9eafc0",
"e2 c #a1b2c3",
"f2 c #a3b4c7",
"g2 c #a6b9cc",
"h2 c #a9bccf",
"i2 c #acbfd4",
"j2 c #ccd8e5",
"k2 c #e78484",
"l2 c #d71515",
"m2 c #e2d0d6",
"n2 c #b8d0e8",
"o2 c #fbfcfe",
"p2 c #b8cee6",
"q2 c #b6cbe3",
"r2 c #b4c9df",
"s2 c #b2c6db",
"t2 c #c5d2e1",
"u2 c #e7d5d8",
"v2 c #e59495",
"w2 c #a6b2bd",
"x2 c #94a2b0",
"y2 c #96a3b2",
"z2 c #97a5b4",
"03 c #99a7b6",
"13 c #9caaba",
"23 c #9eadbd",
"33 c #a0afc0",
"43 c #a2b2c3",
"53 c #a6b6c8",
"63 c #a8b9cb",
"73 c #aabdcf",
"83 c #adbfd3",
"93 c #d9dfe8",
":3 c #eab5b7",
";3 c #bed1e7",
"A3 c #bad1e8",
"B3 c #bfd2e6",
"C3 c #e7eaf0",
"D3 c #e88585",
"E3 c #d60c0c",
"F3 c #e8a5a6",
"G3 c #aebac7",
"H3 c #a3b1c0",
"I3 c #a4b2c1",
"J3 c #a4b3c2",
"K3 c #a5b4c4",
"L3 c #a7b6c6",
"M3 c #a9b8c8",
"N3 c #abbacc",
"O3 c #acbdce",
"P3 c #aebfd0",
"Q3 c #b0c1d4",
"R3 c #b5c6da",
"S3 c #e3e4e9",
"T3 c #e15757",
"U3 c #e78b8c",
"V3 c #c7d9eb",
"W3 c #bad0e8",
"X3 c #bbd0e8",
"Y3 c #bcd1e9",
"Z3 c #bbd1e8",
"a3 c #ccdbed",
"b3 c #f0d7d9",
"c3 c #dd4242",
"d3 c #db3030",
"e3 c #e7d4d7",
"f3 c #b5c4d3",
"g3 c #b3c1d1",
"h3 c #b3c2d2",
"i3 c #b4c3d3",
"j3 c #b5c4d5",
"k3 c #b5c5d7",
"l3 c #b8c7d9",
"m3 c #b8c9da",
"n3 c #bacadd",
"o3 c #c1d0e1",
"p3 c #eae2e6",
"q3 c #dd4141",
"r3 c #e47070",
"s3 c #cfdeed",
"t3 c #d5e0ed",
"u3 c #d1cad8",
"v3 c #bdd2e9",
"w3 c #cfdeee",
"x3 c #f0c4c4",
"y3 c #e46d6d",
"z3 c #f6f7f8",
"04 c #f8f6f7",
"14 c #f0b9b9",
"24 c #e36060",
"34 c #dfe7ee",
"44 c #c2d3e3",
"54 c #c3d3e4",
"64 c #c4d3e5",
"74 c #c5d6e7",
"84 c #c6d8e9",
"94 c #c6d8eb",
":4 c #d2e0ee",
";4 c #f0d9db",
"A4 c #e15656",
"B4 c #f0f1f5",
"C4 c #ecbfc1",
"D4 c #cfbdcb",
"E4 c #3768a5",
"F4 c #edb3b4",
"G4 c #f1c7c7",
"H4 c #ebf0f6",
"I4 c #dce6f2",
"J4 c #d2e0ef",
"K4 c #e7eef4",
"L4 c #de4444",
"M4 c #d50505",
"N4 c #f5dfe0",
"O4 c #edaaab",
"P4 c #e36a6a",
"Q4 c #d81e1e",
"R4 c #d50303",
"S4 c #e36a6b",
"T4 c #cdd3e3",
"U4 c #bdd2e8",
"V4 c #fdfdfe",
"W4 c #ebced1",
"X4 c #d70f0f",
"Y4 c #f6e9e9",
"Z4 c #d5e2f0",
"a4 c #eca3a3",
"b4 c #e67a7a",
"c4 c #eff2f6",
"d4 c #d1e0ef",
"e4 c #d7e3f1",
"f4 c #ebdde1",
"g4 c #e25d5d",
"h4 c #dc3636",
"i4 c #edc5c7",
"j4 c #bfd3e9",
"k4 c #bed3e9",
"l4 c #fbfcfd",
"m4 c #e05252",
"n4 c #f8f3f3",
"o4 c #ccdced",
"p4 c #ea9494",
"q4 c #d71414",
"r4 c #f6e5e5",
"s4 c #f0f3f7",
"t4 c #e2ebf4",
"u4 c #ebe1e6",
"v4 c #e98e8e",
"w4 c #e88888",
"x4 c #eef0f4",
"y4 c #c0d4ea",
"z4 c #bfd4e9",
"05 c #3767a6",
"15 c #3868a6",
"25 c #f7e7e8",
"35 c #df4949",
"45 c #f6f2f2",
"55 c #dae5f1",
"65 c #e8eef5",
"75 c #f8f5f5",
"85 c #da2828",
"95 c #d81515",
":5 c #db2f2f",
";5 c #d71616",
"A5 c #efbbbb",
"B5 c #eaf0f5",
"C5 c #c0d4e9",
"D5 c #fdfefe",
"E5 c #3667a5",
"F5 c #f3cecf",
"G5 c #db2d2d",
"H5 c #f3eced",
"I5 c #dde7f2",
"J5 c #f1f4f7",
"K5 c #f8f1f1",
"L5 c #d92222",
"M5 c #f5dede",
"N5 c #e6edf4",
"O5 c #3969a6",
"P5 c #f1c2c2",
"Q5 c #d71111",
"R5 c #f0d5d7",
"S5 c #d0dfee",
"T5 c #d7e4f1",
"U5 c #ecf1f6",
"V5 c #f9f9f9",
"W5 c #efb5b5",
"X5 c #e06c6d",
"Y5 c #efb9ba",
"Z5 c #f5dada",
"a5 c #e2eaf3",
"b5 c #c0d5ea",
"c5 c #3667a6",
"d5 c #3968a6",
"e5 c #f0bbbc",
"f5 c #eba7a7",
"g5 c #d3e0f0",
"h5 c #f8f8f9",
"i5 c #dd3e3e",
"j5 c #dd3b3b",
"k5 c #e6d9df",
"l5 c #d9e5f1",
"m5 c #eeb0b0",
"n5 c #d71313",
"o5 c #f4d4d4",
"p5 c #c1d5ea",
"q5 c #3766a4",
"r5 c #396aa6",
"s5 c #f1bebf",
"t5 c #e36262",
"u5 c #d6e3f0",
"v5 c #dee8f3",
"w5 c #f4f4f5",
"x5 c #eca5a5",
"y5 c #db3131",
"z5 c #dd3939",
"06 c #e98c8c",
"16 c #e05050",
"26 c #d60909",
"36 c #eddbdf",
"46 c #e9e0e6",
"56 c #d81f1f",
"66 c #eda7a7",
"76 c #c5d8ec",
"86 c #c2d5ea",
"96 c #3969a7",
":6 c #f1bfc0",
";6 c #d92121",
"A6 c #e4e1e9",
"B6 c #eff2f7",
"C6 c #efb6b6",
"D6 c #da2626",
"E6 c #dc3333",
"F6 c #eeb4b5",
"G6 c #eff3f7",
"H6 c #f1f4f8",
"I6 c #e99191",
"J6 c #e3ebf4",
"K6 c #dee7f2",
"L6 c #e04f4f",
"M6 c #e25b5b",
"N6 c #d1dfef",
"O6 c #3a69a7",
"P6 c #f1c3c5",
"Q6 c #eebcbd",
"R6 c #c9daec",
"S6 c #dfe8f3",
"T6 c #f4dfdf",
"U6 c #e15555",
"V6 c #f2f3f5",
"W6 c #e1eaf5",
"X6 c #e1eaf4",
"Y6 c #eda8a8",
"Z6 c #e15858",
"a6 c #e0eaf4",
"b6 c #e48f91",
"c6 c #d81d1d",
"d6 c #efe6e9",
"e6 c #3a6aa7",
"f6 c #f9f9fa",
"g6 c #e0e9f3",
"h6 c #e9eef4",
"i6 c #ea8f8f",
"j6 c #d60e0e",
"k6 c #f5dfdf",
"l6 c #eaeff6",
"m6 c #efbaba",
"n6 c #e9d3d7",
"o6 c #d60d0d",
"p6 c #ecaaab",
"q6 c #dae6f2",
"r6 c #efeaee",
"s6 c #e25f5f",
"t6 c #d40202",
"u6 c #e46b6b",
"v6 c #f5f2f4",
"w6 c #e1ebf5",
"x6 c #efcbcc",
"y6 c #db2e2e",
"z6 c #df4d4d",
"07 c #dd4040",
"17 c #3565a5",
"27 c #3b6ba7",
"37 c #ebc8cb",
"47 c #d92525",
"57 c #d71919",
"67 c #f0c0c0",
"77 c #f0f4f7",
"87 c #dbe6f2",
"97 c #e4ecf6",
":7 c #f1dde0",
";7 c #d40101",
"A7 c #d50606",
"B7 c #eed0d2",
"C7 c #d2e1f0",
"D7 c #3b6aa8",
"E7 c #f9fbfd",
"F7 c #e4acb0",
"G7 c #d60b0b",
"H7 c #dd3c3c",
"I7 c #f6e2e2",
"J7 c #e7eef5",
"K7 c #e3ecf6",
"L7 c #efebef",
"M7 c #e57272",
"N7 c #e3ebf5",
"O7 c #3566a4",
"P7 c #f8fafd",
"Q7 c #daa8b1",
"R7 c #d50707",
"S7 c #e15959",
"T7 c #f4f1f3",
"U7 c #dce7f2",
"V7 c #dde8f4",
"W7 c #e2ebf5",
"X7 c #eef3f7",
"Y7 c #d71212",
"Z7 c #ede5e9",
"a7 c #dbe7f3",
"b7 c #ccddee",
"c7 c #cbdbed",
"d7 c #c3d6eb",
"e7 c #f6f1f4",
"f7 c #d61112",
"g7 c #e46e6e",
"h7 c #eff1f5",
"i7 c #d4e2f0",
"j7 c #e0eaf5",
"k7 c #ebf1f7",
"l7 c #e67e7e",
"m7 c #dfe9f4",
"n7 c #c2d6eb",
"o7 c #feffff",
"p7 c #3666a5",
"q7 c #3b6ba8",
"r7 c #f7f4f6",
"s7 c #d50404",
"t7 c #e57676",
"u7 c #e7edf5",
"v7 c #dee8f4",
"w7 c #dee9f4",
"x7 c #e6eef5",
"y7 c #d81c1c",
"z7 c #d71010",
"08 c #e7e1e8",
"18 c #d8e4f2",
"28 c #d5e2f1",
"38 c #c3d7eb",
"48 c #fefeff",
"58 c #3767a5",
"68 c #3c6ba8",
"78 c #eff3f9",
"88 c #dc3e3f",
"98 c #d40000",
":8 c #e36969",
";8 c #dee8f2",
"A8 c #dce7f3",
"B8 c #dde7f3",
"C8 c #e1e9f4",
"D8 c #da2929",
"E8 c #e47a7b",
"F8 c #d5e3f1",
"G8 c #d4e1f0",
"H8 c #d2e0f0",
"I8 c #c6d8ec",
"J8 c #cedeee",
"K8 c #f1f5fa",
"L8 c #3b6aa9",
"M8 c #3a6aa8",
"N8 c #aec2db",
"O8 c #edcfd3",
"P8 c #d81b1b",
"Q8 c #da2b2b",
"R8 c #d8dee9",
"S8 c #dae6f3",
"T8 c #dbe6f3",
"U8 c #de4343",
"V8 c #e2d8e0",
"W8 c #cedeef",
"X8 c #ccdcee",
"Y8 c #cadbed",
"Z8 c #c8daed",
"a8 c #c7d9ec",
"b8 c #c5d7eb",
"c8 c #c4d7eb",
"d8 c #eef4f9",
"e8 c #b0c4dd",
"f8 c #3c69a8",
"g8 c #3c6ca9",
"h8 c #dfe8f2",
"i8 c #efe8ea",
"j8 c #daced8",
"k8 c #d9e5f2",
"l8 c #e2b3b8",
"m8 c #d8e5f2",
"n8 c #d7e4f2",
"o8 c #d6e3f1",
"p8 c #d4e2f1",
"q8 c #d3e1f0",
"r8 c #d0dfef",
"s8 c #cfdeef",
"t8 c #cdddee",
"u8 c #cbdcee",
"v8 c #c9dbed",
"w8 c #c8d9ec",
"x8 c #c9daed",
"y8 c #d1e0f0",
"z8 c #eff4fa",
"09 c #e1e9f3",
"19 c #3d6da9",
"29 c #3e6da9",
"39 c #afc3dc",
"49 c #ffffff",
"59 c #fcfdfe",
"69 c #f0f4f9",
"79 c #b0c4dc",
"89 c #3e6ea9",
"99 c #3b6aa7",
":9 c #3465a4",
";9 c #3868a7",
"A9 c #3c6aa7",
"B9 c #3b69a8",
"                                                                                                ",
"                                                                                                ",
"                                                                                                ",
"              B9A9;9:9:9:9:9:9:9:9:9:9:9:9:9:9:9:9:9:9:9:9:9:9:9:9:9:9:9:9:9:9;999B9            ",
"            89796959494949494949494949494949494949494949494949494949494949494959693929          ",
"          1909z8y8x8w8v8u8t8s8r8y8q8p8o8n8n8m8l8k8k8m8n8n8o8p8q8y8r8s8t8u8v8w8x8j8i8h8g8        ",
"        f8e8d8c8b8a8Z8Y8X8W8r8y8q8p8o8n8m8k8V8U8T8S8S8k8m8n8o8p8q8y8r8W8X8Y8Z8R8Q8P8O8N8M8      ",
"        L8K8J8c8I8a8x8u8t8s8r8H8G8F8n8m8S8T8E8D8C8B8A8T8S8k8n8F8p8H8r8s8t8u8;8:89898887868      ",
"        584838c8I8w8v8X8t8s8y8q828o818S8T808z7y7x7w7v7B8T8S818o828q8y8s8J8u7t7989898s7r7q7      ",
"        p7o7n7c8I8Z8Y8X8W8r8H8G8F8n8k8T8m7l798z7k7j7m7v7A8T8k8n8F8G8H8i7h7g798989898f7e768      ",
"        p749d7c8a8Z8c7b7W8r8H8p8o818S8a7Z7Y798s7X7W7j7m7V7a7S818o8p8U7T7S798989898R7Q7P768      ",
"        O749d7b8a8x8c7b7s8r8H8p8o8m8S8N7M7989898L7K7W7j7v7A8S8m8o8J7I7H798989898G7F7w8E7D7      ",
"        :949d7b8a8x8c7t8s8r8C7p8o8m8S8B7A798;798:797W7j7v7A8S887776757989898984737w8a8E727      ",
"        1749d7b8a8x8c7b7s8r8H8p8o818u70798z6y698x6K7w6m7v7A8W7v6u6t698989898s6r6c7b8Y8E799      ",
"        :949d7c8a8Z8Y8b7W8r8H8p8o8q6p698o6n6U898m6w6j7m7V7l6k60798989898j6i6h6u8a8c8g6f6e6      ",
"        O749n7c8I8Z8Y8X8W8r8y8q828d6c698b6a6Z698Y6X6m7W6V6i6j698989898U6T6S6Y8Z8I8R6Q6P6O6      ",
"        O7o7n7c8I8w8v8u8t8s8N6C7J7M698L6K6J60798I6H6G6F6E698989898D6C6B6G8u8v8w8I8A6;6:696      ",
"        p74886d776a8x8c7b7W8r8J666985646k83626981606z598989898y5x5w5v5W8b7c7x8a8u5t598s5r5      ",
"        q548p5d7c8I8Z8Y8X8t8X6o5n598m5l5k5j598989898989898i5C6h5x7g5s8t8X8Y8Z8N6f59898e5d5      ",
"        c548b5n7c8I8a8x8u8a5Z5y79898Y5X5o6989898989898y6W5V5U5T5y8r8W8b7u8x8S5R5Q59898P5O5      ",
"        c548p5p5d7b8a8v8N5M5L59898989898989898989898L6K5J5I5C7y8r8s8t8u8Y8i7H5G5989898F5d5      ",
"        E5D5C5b5n7c8Z8B5A5;59898989898s7:516959898857565G8H8N6r8s8t8X8Y8554535989898;72515      ",
"        05D5z4y4p5a8x4w4s798989898Q5v4u4t4s4r4q498p4s4H8y8r8s8W8t8X8o4J6n4m498989898i5l405      ",
"        58D5k4j4R6i4h49898989898g4f4e4s8s8d4c4b498a4J5r8s8s8W8t8X8Z4s4Y40798989898X4W45905      ",
"        58V4U4T4S4R4Q4P49598n5O4;8u8X8t8t8W8o8N4M4L4n4K4N6t8J4I4H4V5G4L598989898G7F4R659E4      ",
"        0559D4i5g7C4B4A498Q8;4:494847474645444342498j51404z3V5V5k6y3s798989898;5x3w3v35905      ",
"        1559u3t3o4s3r398q3p3o3n3m3l3k3j3i3h3g3f3e3X4989895d3c3y5R49898989898z5b3a3Z3Y359E5      ",
"        1559X3W3V3U398T3S3R3Q3P3O3N3M3L3K3J3I3H3G3F3;7989898989898989898E3D3C3B3Z3W3X359c5      ",
"        d559A3;3:3R4y393837363534333231303z2y2x2x2w2v226989898989898A724u2t2s2r2q2p2W3V4q5      ",
"        d5o2n2m2l2k2j2i2h2g2f2e2d2c2b2a2Z2Y2X2W2V2U2T2S2R2y6;6L5Q2P2O2N2M2L2K2J2I2H2G2D5F2      ",
"        d5o2E207D2C2B2A2;2:29282726252b2423222121212Z202z1y1x1w1v1u1t1s1r1A2q1p1o1n1m1D5p7      ",
"        l1l4k1j1i1h1p1g1f1e1d1c192f2b1a1Z162Y1X1X1X1Y162Z172W1f2t1V1d1e1K2U1T1S1R1R1R1D5O7      ",
"        O5Q1R1P1R1O1O1N1M1J2L1K1L2r1M2J1I1g2H1H1t1H1H1c1I1J1M2e1G1F1E1p1I2D1O1O1R1P1C1D5B1      ",
"        96A1;1:1P1;1R191818181716151r241s2312121212111310141z0y061x081818191R1;1P1:1:148:9      ",
"        w0v0:1u0:1t0;1R1O1s08181i1W3W3Z3Z3Z3Z3r0r0r0Z3Z3Z3Z3W3W3i18181s0O1R1;1t0:1u0q04817      ",
"        p0E7:1o0q0n0m0l0k0j0j0i0h0g0g0g0f0e0e0e0e0e0e0e0f0g0g0g0h0i0j0j0k0l0:1n0q0o0d0o7c0      ",
"        r5E7b0a0d0q0n0n0:1P1;1R1R19191s0818181818181818181s09191R1R1;1P1:1n0n0q0d0a0Z049c0      ",
"        Y0P7o0Z0X0W0V0V0U0m0m0l0k0k0j0j0j0j0i0i0i0i0i0j0j0j0j0k0k0l0m0m0U0V0o0W0X0Z0T049c0      ",
"        96S0R0Q0T0Z0a0W0o0q0n0n0:1:1t0P1;1;1;1;1;1;1;1;1;1P1t0:1:1n0n0q0o0W0a0Z0T0Q0P04917      ",
"        O0N0M0P0L0T0K0K0J0I0V0V0V0U0U0U0m0m0m0m0m0m0m0m0:1n0n0n0q0q0o0W0a0Z0Z0T0L0P0Q0D5F2      ",
"        e6H081G0F0P0L0T0Z0Z0X0W0W0o0o0q0q0u0u0u0u0u0u0u0q0q0o0o0W0W0X0Z0Z0T0L0P0F0G0W3E0e6      ",
"        D0C0B0G0G0A0F0P0L0T0T0Z0Z0X0a0W0W0W0d0d0d0d0d0W0W0W0a0X0Z0Z0T0T0L0P0F0A0G0G0;0:0D0      ",
"          9080B070Z0X0a0W0o0o0u0n0n0:1:1:1:1:1:1:1:1:1:1:1:1:1n0n0u0o0o0W0a0X0Z0W3;060D7        ",
"            504030P720E7E7E7E7E7E7E7E7E7E7E7E7E7E7E7E7E7E7E7E7E7E7E7E7E7E7E720P73010e6          ",
"              O5O615150000000000000000q5q5q5q5q5q5q5q5q5q5q500000000000000000015O6O5            ",
"                                                                                                ",
"                                                                                                ",
"                                                                                                "};
