/* XPM */
static char *image[] = {
"64 64 2 1",
"0 c #ffffff",
"1 c #000000",
"1111111111111111111111111111111111111111111111111111111111111111",
"1111111111111111111111111111111111111111111111111111111111111111",
"1111111111111111111111111111111111111111111000001111111111111111",
"1111111111111111111111111111111111111110000101011111111111111111",
"1111111111111111111111111111111111101001010010001111111111111111",
"1111111111111111111111111111111100010010010100100111111111111111",
"1111111111111111111111111111000010100100100010101111111111111111",
"1111111111111111111111110100101001001010010100010111111111111111",
"1111111111111111111101000000000100100101001010100011111111111111",
"1111111111111111110010010101010010101000101001010111111111111111",
"1111111111111111110000000000001010010101010100101011111111111111",
"1111111111111111101010101010101001001010010010100101111111111111",
"1111111111110111110000100101010101010010101010010101111111111111",
"1111111111101101101110010100100100101000000001010101111111111111",
"1111111111111111111001010010010101010000001000101011111111111111",
"1111111111101011101101001001010101010000100011010100111111111111",
"1111111111111110111000100100101010100000001101010010111111111111",
"1111111111110111111101001001010101000000010101010101111111111111",
"1111111111111101110100100101010101000000001010101010111111111111",
"1111111111111011111110010101010101101000010101010101011111111111",
"1111111111111111011101101010101010100001001010101010111111111111",
"1111111111111011111110101010101010010000001010101010101111111111",
"1111111111111101111011010101010101010000000101010101011111111111",
"1111111111111111011110001010101010101001000101010010101111111111",
"1111111111111101111111010101101100011000000010100001111111111111",
"1111111111111111101101011010101010100111001001001011001111111111",
"1111111111111110111111101011010100011011000001010010110111111111",
"1111111111111111111111101101011010110101100100100110101111111111",
"1111111111111110101110110101101000011011100001001101010111111111",
"1111111111111111111111101010101000101001100100111011101111111111",
"1111111111111111011011111101100000001110100010101101010111111111",
"1111111111111111111111101010101110010010101101110101111011111111",
"1111111111111111101111110110011011000011010110101110101011111111",
"1111111111111111111011111010110110001101101101101010101101111111",
"1111111111111111101111101101111100110110110110111011110111111111",
"1111111111111111111111110011010100101101011011010110101101111111",
"1111111111111111110110101111111011110110101101111010110110111111",
"1111111111111111111111101111110010101101110110101111011101111111",
"1111111111111111111010011111010101110110111011110101110111111111",
"1111111111111111111101111111001110111011010110111101011010111111",
"1111111111111111111011111011010111011101111111010111101111111111",
"1111111111111111110110111110111011101010101011111010111010111111",
"1111111111111111101011101001011101111011111101010111011111011111",
"1111111111111110011101111011101110101011010111111011101011111111",
"1111111111111010110110101011110111110111111101011010111101011111",
"1111111111111001010101101111011010110101010111101011101111101111",
"1111111111100101101110101111111111010111111010110110111010111111",
"1111111111100101010010111111010101101101011111110111101110111111",
"1111111110101010101101111111111111010111101010101101010000010111",
"1111111110101101010101111111101011011010111111101010101001011111",
"1111111101010101010111111111111101101111101010101000000000101111",
"1111111011101010101011101111110110101010101010000001001111111111",
"1111110101011101010111111111111101101011010000010010111111111111",
"1111010101010110001111111111110101010100000010011111111111111111",
"1111010101011010001111111111111010100001001011111111111111111111",
"1110101110101100011111111111010101001000111111111111111111111111",
"1110111111010000111111111010101000000111111111111111111111111111",
"1101011111101011111111101010000010111111111111111111111111111111",
"1110101111010011111111110100111111111111111111111111111111111111",
"1110101101010111111111101011111111111111111111111111111111111111",
"1111000101011111111111111111111111111111111111111111111111111111",
"1111110101011111111111111111111111111111111111111111111111111111",
"1111110101111111111111111111111111111111111111111111111111111111",
"1111111111111111111111111111111111111111111111111111111111111111"};
