/* XPM */
static char *image[] = {
"64 64 2 1",
"0 c #ffffff",
"1 c #000000",
"1111111111111111111111111111111111111111111111111111111111111111",
"1111111111111111111111111111111111111110000111111111111111111111",
"1111111111111111111111111111111111100001010011111111111111111111",
"1111111111111111111111111111111010010100000111111111111111111111",
"1111111111111111111111111111000000000010100001111111111111111111",
"1111111111111111111111110000101010101000010101111111111111111111",
"1111111111111111111101000100000100010010100011111111111111111111",
"1111111111111111100000000001010010100100001001111111111111111111",
"1111111111111100001001010100100100001001010010111111111111111111",
"1111111111111001000000000010010001010010001001111111111111111111",
"1111111111111100010101001001001010001001010010111111111111111111",
"1111111101110100000000100100100001010010001000111111111111111111",
"1111111011111110101010010010010100100100100101011111111111111111",
"1111111110111010010010100100100101001001010010011111111111111111",
"1111111011101110100100001010010010010100010100101111111111111111",
"1111111110111110000000100001001001000010100010011111111111111111",
"1111111101111101010100010101010100101010010101011111111111111111",
"1111111111110111000010101010001010101001010010001111111111111111",
"1111111101011111010100100001010001001010101001010111111111111111",
"1111111111111111001010010101001100100100010101010111111111111111",
"1111111110110111100101010100100010101010100100101111111111111111",
"1111111111111110110001001010101010100101010010100111111111111111",
"1111111110101111100100101001010101010100101010010011111111111111",
"1111111111111111010010100101010010010010100101010111111111111111",
"1111111111011011110101010101001001001010010101010101111111111111",
"1111111111111111110101010100100000010010101010100111111111111111",
"1111111111101101110100101010000100000001010100101001111111111111",
"1111111111111111111010100100000000000000101010101011111111111111",
"1111111111101011101010101000010000000100010101010101111111111111",
"1111111111111111111101010001000000010000001010101010111111111111",
"1111111111111011111010100100000001000001001010100101111111111111",
"1111111111111111111101010000001000000000001010101010111111111111",
"1111111111110110110101000100100000010010100101010101011111111111",
"1111111111111111111110101000000101000000000101010101011111111111",
"1111111111111011111110100010100000001010101010101010111111111111",
"1111111111111110111110101000010100100000000101010101011111111111",
"1111111111111111111011000101000010001010101010101011011111111111",
"1111111111111101111111010000101001000100010101011010101111111111",
"1111111111111111101111010100000100101001001010101010110111111111",
"1111111111111111111111010001010010000100101010101101011111111111",
"1111111111111110111111101000001001010010010110110101100111111111",
"1111111111111111111111101100100100010100100101010110111111111111",
"1111111111111111110111101010000010100001000100101010100111111111",
"1111111111111111011111110101010000000110101001011010110111111111",
"1111111111111111111111101101101010110101100100101011010101111111",
"1111111111111111111111110101010101010101011001001101010111111111",
"1111111111111111111111110110101001011010101010010010101111111111",
"1111111111111111111111111010110101101011010100100101000111111111",
"1111111111111111110111111011010101010101101010010000010111111111",
"1111111111111111111111111010101010101101010101001010001011111111",
"1111111111111111111111111101010010110010100000000001111111111111",
"1111111111111111111111111011010101010100001000101010001111111111",
"1111111111111111111111111101001010100001000111111001010011111111",
"1111111111111111111111111101010100000010111111111100010001111111",
"1111111111111111111111110110100000011101111111111100001000111111",
"1111111111111111111101010100000101111111111111111110000100001111",
"1111111111111111111010100001011111111111111111111111000110001111",
"1111111111111111111010010111111111111111111111111111110001001111",
"1111111111111111111011111111111111111111111111111111111000111111",
"1111111111111111111111111111111111111111111111111111111100111111",
"1111111111111111111111111111111111111111111111111111111111111111",
"1111111111111111111111111111111111111111111111111111111111111111",
"1111111111111111111111111111111111111111111111111111111111111111",
"1111111111111111111111111111111111111111111111111111111111111111"};
