/* XPM */
static char *image[] = {
"64 64 2 1",
"0 c #ffffff",
"1 c #000000",
"1111111111111111111111111111111111111111111111111111111111111111",
"1111111111111111111111111111111111111111111111111111111111111111",
"1111111111111111111111111111111111111111111111111111111111111111",
"1111111111111111111111111111111111111111111111111111111111111111",
"1111111111111111111111111111111111111111111111111111111111111111",
"1111111111111111111111111111111111111111111111111111111111111111",
"1111111111111111111111111111111111111101011111111111111111111111",
"1111111111111111111111111111111111100010111111111111111111111111",
"1111111110111111111111111111111111111001011111111111111111111111",
"1111111011101011111111111111111111110100111111111111111111111111",
"1111110110101101111111111111111111110010011111111111111111111111",
"1111111101110111111111111111111011101010111111111111111111111111",
"1111110111011011111111111111001101010101001111111111111111111111",
"1111111101101101111111111111010101011000111111111111111111111111",
"1111110110110111111111111111010100101010001111111111111111111111",
"1111111111101110111111111111010101011010101111111111111111111111",
"1111111011011111111010101111010101011001001111111111111111111111",
"1111111101110101111110110101101010101000101111111111111111111111",
"1111110111011011110101001011010101011010010111111111111111111111",
"1111111101101111111010101011101010101101001111111111111111111111",
"1111110110110101111101010111010110110100101111111101011111111111",
"1111111011011111101011011011101010101100000111010101010111111111",
"1111111100100101111101101111010101010101010101010101011111111111",
"1111110111011111111010101011101010111100100110101110010111111111",
"1111111100101011110111010111101010100101001010110010101111111111",
"1111110111011101111101101011101010111100100110101010010111111111",
"1111111000100111110110101110101010100110010110101010101011111111",
"1111111111111011111101010111110101011010100011010010001111111111",
"1111110101001111110111011011101011010110010101001001010011111111",
"1111111101110101111010101111101010111010100110101101001101111111",
"1111110100001111111110110101110101010110010011010101010011111111",
"1111111111111011101011010111101011010110101010101010101011111111",
"1111111010101101111101101111110101101010100011101011010101111111",
"1111111101010111111110110101101010110111001001010001000010111111",
"1111110111111011110101010111110101011010101011101010110101111111",
"1111111110101111111110101111110111101011000101010101010101111111",
"1111111001010101110101011011111001010101101001101001011010111111",
"1111111111111111111110101111110110110111000101110101001001011111",
"1111110110101011111011010101110101101010110001101010101101111111",
"1111111101011111101110111111111010110111001010110100101010111111",
"1111111101101011111101010111110101011010101001110101010101011111",
"1111110111101111111011101011111011101011100100111010101001011111",
"1111111101111011111110111111110101010101101010110101010101011111",
"1111111110101111101011010101111010111010100001011101010101011111",
"1111110111110110111110110111111011010111110100111010101010101111",
"1111111101011111111111011111111010110100101010111101011010110111",
"1111111110110111111010101011111010110111100100011110101101011111",
"1111110111111011111111111111111011011010110010111011010110101111",
"1111111110101111110101010111111101010101010101011110110101010111",
"1111111111111101111111101101111010111011011001011101011011011111",
"1111111011111111111101110111111101010101110100011111101010101011",
"1111111110101111110110111111111010111010110011011110101101101111",
"1111111011111011111111010111111101011011011000101111101010110111",
"1111111111101111111010101101111011011010110101001110111111011011",
"1111111110111101111111110111111101011011011000101111100101101111",
"1111110111110111111010111111111101011101011111011111011110110111",
"1111111111111111111111111111111101101010101111111111110101111111",
"1111111111111111111111111011111110111111111111111111111111111111",
"1111111111111111111111111111111111111111111111111111111111111111",
"1111111111111111111111111111111111111111111111111111111111111111",
"1111111111111111111111111111111111111111111111111111111111111111",
"1111111111111111111111111111111111111111111111111111111111111111",
"1111111111111111111111111111111111111111111111111111111111111111",
"1111111111111111111111111111111111111111111111111111111111111111"};
