/* XPM */
static char *image[] = {
"48 48 7 1",
"  c None",
"0 c #ffffff",
"1 c #00008b",
"2 c #000040",
"3 c #006400",
"4 c #bebebe",
"5 c #000000",
"                5            5                  ",
"                5           55                  ",
"                 5          5                   ",
"                 55        5                    ",
"   55             55      55                    ",
"     55            5     5               5      ",
"       5            5 5 5              55       ",
"        5            545              5         ",
"         5          35453           55          ",
"         55     55  54445  55     555           ",
"          5     5455544455545     5             ",
"          55   55444544454445   55              ",
"            55555444455544445   5               ",
"             55 5544444444455 55                ",
"                555444444455555                 ",
"                  555555555                     ",
"                  544444445                     ",
"                5555544455555                   ",
"               544444211111145  555             ",
"        55    5544421114444411155555            ",
"       5555555554421444445544441   55           ",
"      55    554552144555555555441   55          ",
"      5    55444214455005555555441  55          ",
"     55    544441444400044444444441  5          ",
"     55   55555214440004444444444441  55        ",
"    55    54442144440044444444444441   55       ",
"   55    554442145500055555555555541     55     ",
"   5   55 544214455005555555555555411      55   ",
"  5   555 555214455555555555555555541           ",
"55    5   544214444444444444444444441           ",
"     55   544214444444444444444444441           ",
"     55    542144444444444444444444415          ",
"     5     5552145555555555555555541 55         ",
"     5     5442145555555555555555541 55         ",
"     5     5542145555555555555555541  55        ",
"     5      5552144444444444444444111  5        ",
"     55      5421144444444444444411111 5        ",
"     55      5542114445555555444111111 5        ",
"     55       5555211444555444411111111         ",
"      5        544552114444411111111111         ",
"     5          555551111111122111111111        ",
"     5            54422222212  2111111111       ",
"    5              54445         221111111      ",
"  55                555            22111111     ",
"  5                                 22111111    ",
"                                     22111111   ",
"                                      22111111  ",
"                                       22111111 "};
