/* XPM */
static char *image[] = {
"48 48 415 2",
"   c None",
"00 c #8f8f8f",
"10 c #999999",
"20 c #a1a1a1",
"30 c #d1d1d1",
"40 c #efefed",
"50 c #9f9f9e",
"60 c #d3d3d1",
"70 c #313131",
"80 c #a4a4a2",
"90 c #e3e3e2",
":0 c #e6e6e4",
";0 c #e7e7e5",
"A0 c #e8e8e6",
"B0 c #e9e9e7",
"C0 c #666666",
"D0 c #020201",
"E0 c #757574",
"F0 c #dbdbd9",
"G0 c #dfdfdd",
"H0 c #dcdcda",
"I0 c #d8d8d6",
"J0 c #d8d8d7",
"K0 c #ececea",
"L0 c #393939",
"M0 c #787878",
"N0 c #8e8e8c",
"O0 c #cacac8",
"P0 c #cccccb",
"Q0 c #c1c1c0",
"R0 c #ababa9",
"S0 c #a6a6a5",
"T0 c #acacab",
"U0 c #cdcdcb",
"V0 c #dcdcdb",
"W0 c #ebebe9",
"X0 c #333333",
"Y0 c #080808",
"Z0 c #90908e",
"a0 c #9a9a99",
"b0 c #959594",
"c0 c #787876",
"d0 c #70706f",
"e0 c #727271",
"f0 c #7b7b7a",
"g0 c #b6b6b5",
"h0 c #cfcfce",
"i0 c #e8e8e7",
"j0 c #989898",
"k0 c #6c6c6b",
"l0 c #202020",
"m0 c #212121",
"n0 c #545453",
"o0 c #6f6f6e",
"p0 c #666665",
"q0 c #484847",
"r0 c #151514",
"s0 c #121212",
"t0 c #8e8e8d",
"u0 c #c2c2c0",
"v0 c #dddddc",
"w0 c #eaeae9",
"x0 c #c7c7c5",
"y0 c #757573",
"z0 c #030303",
"01 c #0b0b0b",
"11 c #5c5c5b",
"21 c #1f1e1d",
"31 c #1d1d1b",
"41 c #6d6b67",
"51 c #9f9e98",
"61 c #a19f9a",
"71 c #a3a09a",
"81 c #94928c",
"91 c #70706c",
":1 c #1d1c1b",
";1 c #1a1a19",
"A1 c #5e5e5d",
"B1 c #858585",
"C1 c #b0b0b0",
"D1 c #b9b9b8",
"E1 c #bbbbb9",
"F1 c #bbbbba",
"G1 c #bcbcbb",
"H1 c #c3c3c2",
"I1 c #e1e1e0",
"J1 c #adadab",
"K1 c #434342",
"L1 c #020202",
"M1 c #9e9e9d",
"N1 c #e4e4e2",
"O1 c #dadad8",
"P1 c #858584",
"Q1 c #595958",
"R1 c #010101",
"S1 c #61615c",
"T1 c #6c6b65",
"U1 c #6f6e68",
"V1 c #686661",
"W1 c #63615c",
"X1 c #595753",
"Y1 c #6e6c67",
"Z1 c #716f6a",
"a1 c #76746e",
"b1 c #6c6a65",
"c1 c #62615c",
"d1 c #4d4d49",
"e1 c #060606",
"f1 c #6f6f6a",
"g1 c #b4b2ac",
"h1 c #bebcb5",
"i1 c #bfbdb6",
"j1 c #b6b3ad",
"k1 c #b2afa8",
"l1 c #8b8880",
"m1 c #e2e2e1",
"n1 c #cfcfcd",
"o1 c #a1a1a0",
"p1 c #8c8c8b",
"q1 c #1b1b1a",
"r1 c #4c4c48",
"s1 c #60605d",
"t1 c #5b5956",
"u1 c #5c5956",
"v1 c #595752",
"w1 c #575450",
"x1 c #53504c",
"y1 c #5d5b56",
"z1 c #5b5954",
"02 c #575550",
"12 c #55534f",
"22 c #4f4d49",
"32 c #383736",
"42 c #121211",
"52 c #9f9f9f",
"62 c #c2c2c1",
"72 c #919190",
"82 c #494948",
"92 c #181817",
":2 c #797875",
";2 c #53514e",
"A2 c #514f4b",
"B2 c #464440",
"C2 c #474541",
"D2 c #484642",
"E2 c #494743",
"F2 c #4a4844",
"G2 c #4b4946",
"H2 c #494744",
"I2 c #41403c",
"J2 c #312f2d",
"K2 c #131212",
"L2 c #444340",
"M2 c #7a7771",
"N2 c #807e77",
"O2 c #918f87",
"P2 c #96938d",
"Q2 c #979690",
"R2 c #7e7b77",
"S2 c #e0e0de",
"T2 c #888887",
"U2 c #151515",
"V2 c #6e6d68",
"W2 c #848381",
"X2 c #565655",
"Y2 c #f2f1ef",
"Z2 c #f4f3f1",
"a2 c #f5f4f2",
"b2 c #f6f5f3",
"c2 c #faf9f9",
"d2 c #f9f8f8",
"e2 c #b2b2b1",
"f2 c #7c7c7c",
"g2 c #3c3c3b",
"h2 c #595652",
"i2 c #706d67",
"j2 c #6e6c66",
"k2 c #868480",
"l2 c #989694",
"m2 c #949391",
"n2 c #dfdfde",
"o2 c #b4b4b2",
"p2 c #838383",
"q2 c #8b8982",
"r2 c #999896",
"s2 c #7e7e7d",
"t2 c #e6e4df",
"u2 c #dededc",
"v2 c #d4d4d4",
"w2 c #e6e6e5",
"x2 c #1b1b1b",
"y2 c #474542",
"z2 c #524f4b",
"03 c #5e5c57",
"13 c #585858",
"23 c #6b6a68",
"33 c #9c9b99",
"43 c #b4b4b3",
"53 c #848483",
"63 c #040404",
"73 c #b0aba2",
"83 c #e9e8e5",
"93 c #f2f1ee",
":3 c #f6f6f4",
";3 c #f8f7f6",
"A3 c #fbfafa",
"B3 c #8f8f8e",
"C3 c #101010",
"D3 c #f7f6f5",
"E3 c #f0eeec",
"F3 c #e6e4e1",
"G3 c #6b6b6a",
"H3 c #999895",
"I3 c #e2e2e0",
"J3 c #898988",
"K3 c #050505",
"L3 c #d7d5d1",
"M3 c #969696",
"N3 c #d5d5d5",
"O3 c #f5f4f3",
"P3 c #6c6b6a",
"Q3 c #a4a3a1",
"R3 c #c5c5c4",
"S3 c #131313",
"T3 c #171717",
"U3 c #dddad6",
"V3 c #e1e1df",
"W3 c #d7d6d3",
"X3 c #d6d5d2",
"Y3 c #b2b2b2",
"Z3 c #bebebe",
"a3 c #c6c6c6",
"b3 c #cccccc",
"c3 c #d0d0d0",
"d3 c #454441",
"e3 c #222221",
"f3 c #f9f9f8",
"g3 c #e6e5e1",
"h3 c #8b8b89",
"i3 c #c3c1bd",
"j3 c #e7e7e6",
"k3 c #d3d3d2",
"l3 c #a4a4a4",
"m3 c #393938",
"n3 c #686868",
"o3 c #e3e3e1",
"p3 c #f0f0f0",
"q3 c #b4b4b4",
"r3 c #7f7f7f",
"s3 c #2e2e2e",
"t3 c #eaeae8",
"u3 c #e0e0df",
"v3 c #bdbdbc",
"w3 c #696968",
"x3 c #888888",
"y3 c #646464",
"z3 c #444444",
"04 c #53524c",
"14 c #8d8982",
"24 c #eae8e3",
"34 c #ebebea",
"44 c #d6d6d4",
"54 c #a8a8a7",
"64 c #2c2c2c",
"74 c #c9c9c9",
"84 c #828282",
"94 c #4a4a4a",
":4 c #a3a3a3",
";4 c #a7a7a7",
"A4 c #cacaca",
"B4 c #ececeb",
"C4 c #e5e5e4",
"D4 c #cbcbca",
"E4 c #868686",
"F4 c #111111",
"G4 c #7d7d7d",
"H4 c #747474",
"I4 c #232323",
"J4 c #878787",
"K4 c #a9a9a8",
"L4 c #fbfbfa",
"M4 c #ededec",
"N4 c #e5e5e3",
"O4 c #cdcdcc",
"P4 c #80807f",
"Q4 c #141414",
"R4 c #1e1e1e",
"S4 c #959595",
"T4 c #cdcdcd",
"U4 c #292929",
"V4 c #dddddd",
"W4 c #dedede",
"X4 c #eeeeec",
"Y4 c #e9e9e8",
"Z4 c #d9d9d8",
"a4 c #a5a5a4",
"b4 c #1f1f1f",
"c4 c #343434",
"d4 c #7e7e7e",
"e4 c #5c5c5c",
"f4 c #616161",
"g4 c #898989",
"h4 c #6e6e6e",
"i4 c #505050",
"j4 c #bdbdbd",
"k4 c #adadad",
"l4 c #eeeeed",
"m4 c #dadad9",
"n4 c #939393",
"o4 c #5a5a5a",
"p4 c #353535",
"q4 c #282828",
"r4 c #2b2b2b",
"s4 c #414141",
"t4 c #bababa",
"u4 c #efefee",
"v4 c #e4e4e3",
"w4 c #8d8d8d",
"x4 c #a2a2a2",
"y4 c #909090",
"z4 c #9e9e9e",
"05 c #6a6a6a",
"15 c #fefefd",
"25 c #bfbfbf",
"35 c #e8e8e8",
"45 c #e9e9e9",
"55 c #ebebeb",
"65 c #eeeeee",
"75 c #efefef",
"85 c #f0f0ef",
"95 c #e1e1e1",
":5 c #a0a0a0",
";5 c #606060",
"A5 c #818181",
"B5 c #676767",
"C5 c #6b6b6b",
"D5 c #f1f1f0",
"E5 c #b6b6b6",
"F5 c #dbdbdb",
"G5 c #dfdfdf",
"H5 c #e0e0e0",
"I5 c #e2e2e2",
"J5 c #e3e3e3",
"K5 c #e5e5e5",
"L5 c #b1b1b1",
"M5 c #f2f2f1",
"N5 c #f3f3f2",
"O5 c #afafaf",
"P5 c #f8f8f8",
"Q5 c #c7c7c7",
"R5 c #ededeb",
"S5 c #f5f5f5",
"T5 c #f6f6f5",
"U5 c #f7f7f6",
"V5 c #f8f8f7",
"W5 c #babab9",
"X5 c #c6c6c5",
"Y5 c #e7e7e7",
"Z5 c #fafaf9",
"a5 c #454545",
"b5 c #6c6c6c",
"c5 c #7a7a7a",
"d5 c #8a8a8a",
"e5 c #a0a09f",
"f5 c #aaaaaa",
"g5 c #f3f3f3",
"h5 c #f2f2f2",
"i5 c #fafafa",
"j5 c #a9a9a9",
"k5 c #5d5d5c",
"l5 c #464646",
"m5 c #464645",
"n5 c #474747",
"o5 c #515151",
"p5 c #ababab",
"q5 c #f4f4f3",
"r5 c #fcfcfb",
"s5 c #a8a8a8",
"t5 c #c9c9c8",
"u5 c #c2c2c2",
"v5 c #c3c3c3",
"w5 c #ececec",
"x5 c #acacac",
"y5 c #f4f4f4",
"z5 c #fdfdfc",
"06 c #a5a5a5",
"16 c #cbcbcb",
"26 c #fcfcfc",
"36 c #f9f9f9",
"46 c #b5b5b5",
"56 c #f5f5f4",
"66 c #0e0e0e",
"76 c #a4a4a3",
"86 c #dcdcdc",
"96 c #b8b8b8",
":6 c #fdfdfd",
";6 c #070707",
"A6 c #aeaeae",
"B6 c #d2d2d2",
"C6 c #b7b7b7",
"D6 c #f1f1f1",
"E6 c #d7d7d7",
"F6 c #f7f7f7",
"G6 c #c0c0c0",
"H6 c #ededed",
"I6 c #fbfbfb",
"J6 c #fefefe",
"K6 c #707070",
"L6 c #cfcfcf",
"M6 c #f6f6f6",
"N6 c #ffffff",
"O6 c #dadada",
"P6 c #1d1d1d",
"Q6 c #222222",
"R6 c #000000",
"                                                                                                ",
"          R6R6R6R6R6R6R6R6R6R6R6R6R6R6R6R6R6R6R6R6R6R6R6R6R6R6R6Q6P6                            ",
"        R6O6N6N6N6N6N6N6N6N6N6N6N6N6N6N6N6N6N6N6N6N6N6N6N6N6N6N6M6L6K6R6                        ",
"        R6N6N6N6N6N6N6N6N6N6N6N6N6N6N6N6J6J6J6J6J6J6J6J6J6J6J6J6I6M6H6G6R6                      ",
"        R6N6N6N6N6N6N6N6N6N6N6N6N6N6J6J6J6J6J6J6J6J6J6J6J6J6J6J6F6E6N6D6C6R6                    ",
"        R6N6N6N6N6N6N6N6N6N6N6N6J6J6J6J6J6J6J6J6J6J6J6J6J6J6J6J6F6B6N6N6H6A6;6                  ",
"        R6N6N6N6N6N6N6N6N6N6J6J6J6J6J6J6J6J6J6J6J6J6J6J6J6J6:6:6M696N6:6N6867666                ",
"        R6N6N6N6N6N6N6N6J6J6J6J6J6J6J6J6J6J6J6J6J6J6:6:6:6:6:6:65646N63626N61606R6              ",
"        R6N6N6N6N6N6N6J6J6J6J6J6J6J6J6J6J6J6J6:6:6:6:6:6z5262626y5x5w5v51696u5t5s5R6            ",
"        R6N6N6N6N6N6N6J6J6J6J6J6J6J6J6:6:6:6:6:6:6z52626262626r5q5p5o5n5m5l5l5k5j5R6            ",
"        R6N6N6N6N6N6N6J6J6J6J6J6:6:6:6:6:6z5262626262626r5I6I6i5h5g5G6f5e5d5c5b5a5R6            ",
"        R6N6N6N6N6N6N6J6:6:6:6:6:6:6262626262626r5I6I6I6I6i5Z5Z536I6F6F6Y5X5t5W5c5R6            ",
"        R6N6N6N6N6J6J6:6:6:6z526f5R6R6R6R6R6R6R6R6R6R6R6R6s53636F6V5U5T5S5S5S5R5j5R6            ",
"        R6N6N6N6N6N6N6N6N6N6N6N6R6Q5i526262626262626I6P5O5R6U5T5T556y5q5g5N5M5M5L5R6            ",
"        R6N6N6N6N6N6N6N6N6N6N6J6R636K5J5J5J5I5H5G5G586F5E5R656S556y5q5N5N5M5M5D546R6            ",
"        R6N6N6N6N6N6N6N6N6J6J6:6R626C5B5A5Y5;5:5O695H5H5C6R6h556q5q5N5h5M5D6D58546R6            ",
"        R6N6N6N6N6N6N6N6J6J6:6z5R6:67565H6H665w5w555453525R685q5g5N5h5M5D5D5858546R6            ",
"        R6N6N6N6N6N6N6J615:62626R6:6d505z4M6y4x445s5w4H6G6R6v465D5M5M5D5D58575u446R6            ",
"        R6N6N6N6N6J6J6:6:62626I6R6:626262626I6P5t4K6s4r4q4p4o4n4m4Y5l48585u4u4l446R6            ",
"        R6N6N6N6J6J6:6:626r5I6i5R6:6k4A6K5j4j4n5i405h4g4f4e4d4c4b4a4Z4Y4l4u4l4X446R6            ",
"        R6N6N6J6J6:6z526I6I6i5Z5R6S5W4W4V4x5U4y406T4H6I6I6D6O6S4R4Q4P4O4N4M4M4M446R6            ",
"        R6N6J6:6:62626I6L4i5K4R6R6i5J4C5d5I4H4L5P5:626I6:6:6J6I6f4G4F4E4D4C4M4B446R6            ",
"        R6N6:6:626r5I6L4i5s5R6N6R6A4;4:49484O5I626:6:6:6:6J6J6:6F674H4645444Y43446R6            ",
"        R6N6z526r5I6i5i5s5R6N6241404R666z3y3S5i5:6i5i5:6I6i5263635G5x364w3v3u3t346R6            ",
"        R6N626I6I6i5Z536R6N6N6g5N6N6:6s3r3q3F6F6M6S5y5h5p375H65574o3n3n3m3l3k3j346R6            ",
"        R6N6I6L4i5Z536P5R6i3h3g3f3Z5q5e3d3O5c3b374a3u5Z3t4E5Y3X3W3V3U3T3S3n4R3v446R6            ",
"        R6N6i5i53636P5V5R6Q3P3O3Z3N3L5S3M34536J6N6N6N6N6N6N6N6N6N6N6J6L3K3J3W5I346R6            ",
"        R6N6Z536f3P5V5F6R6H3G3F3E3D3D5C3B395M6A3L42626Z5;3;3:38593a38373635343u346R6            ",
"        R6N636f3P5F6U5M6R633231303z2y2x2r3E595N3w2v2K5A4J5L6u2O4t2s2r2q263p2o2n246R6            ",
"        R6N6P5V5F6U5M6T5R6m2l2k2j2i2h2g2f2e245d2Z5c2f336f3b2a2Z2Y2X2W2V2U2T2C6S246R6            ",
"        R6N6V5F6U5M6T556R6R2Q2P2O2N2M2L2K2J2I2H2G2G2F2E2D2C2E2B2A2;2:292827262V346R6            ",
"        R6N6F6U5T5S556y552R6R6R6R6R6R6R64232221202z1y1h2x1w1v1u1t1s1r1q1p1o1n1m146R6            ",
"        R6N6M6T5S556y5q5D5R6l1k1j1i1h1g1f1e1d1c1b1a1Z1Y1X1W1V1U1T1S1R1Q1P1o2O1N146R6            ",
"        R6N6T55656q5q5N5h5M1R6R6R6R6R6R6R6R6L1S3R6R6R6R6R6R6R6R6F4R66363K1J1k3S246R6            ",
"        R6N656y5q5g5N5M5M5u4I1H1G1F1E1D1C1B1A1;1:191817161514131211101z0z066y0x0A6R6            ",
"        R6N6y5q5N5N5M5M5D5p385u4u4l4l4M4w0v0u0t0K1s0L1R6R6L1r0q0p0o0n0m0l0R163k0j0R6            ",
"        R6N6q5N5h5M5D6D58585u4u4l4l4M4R5B4i0n2h0g0d5f0e0b5b5d0c0b0a0Z0Y0B5X0R1L1;5R6            ",
"        R6N6N5h5M5D5D58585u4u4l4X4M4B4B434W0Y4N4V0U0W5T0S0S0R043Q0P0O0N063M0L0R6R6R6            ",
"        R6N6M5M5D5D58575u4l4l4M4M4B4K034W0w0t3Y4j3o3v0O1J0I0J0O1H0G0F0J1E0D0C0b4R6R6R6          ",
"        R6N6D6D58585u4u4l4l4M4R5B4K034w0w0Y4B0i0A0j3;0w2:0N1N1N190o3I1I080G3e1C070R6R6R6        ",
"        R6N6D58585u4u4l4X4M4R5B43434w0t3Y4B0i0A0j3;0:0:0N4v4N190o3I3I3u26050y3L1M0L0R6R6        ",
"        R6N68585u440l4M4M4B4B434W0w0t3Y4B0i0j3;0w2:0C4N4v4N1o3o3I3I3V3u3v03020k5R1C0R4R6R6      ",
"        R6O6u4u4l4l4M4M4B4K034W0w0Y4Y4i0A0j3;0w2:0C4N4N1N1o3m1I3V3V3u3u3u3v03010s4R6R6R6R6      ",
"        R6u54646464646464646464646464646464646464646464646464646464646464646Y300f4R6R6R6        ",
"          R6R6R6R6R6R6R6R6R6R6R6R6R6R6R6R6R6R6R6R6R6R6R6R6R6R6R6R6R6R6R6R6R6R6R6R6R6            ",
"                                                                                                ",
"                                                                                                ",
"                                                                                                "};
