/* XPM */
static char *image[] = {
"48 48 377 2",
"   c None",
"00 c #484848",
"10 c #686868",
"20 c #6d6d6d",
"30 c #6a6a6a",
"40 c #4e4e4e",
"50 c #6c6c6c",
"60 c #6e6e6e",
"70 c #707070",
"80 c #717171",
"90 c #767676",
":0 c #747474",
";0 c #757575",
"A0 c #777777",
"B0 c #818181",
"C0 c #787878",
"D0 c #7c7c7c",
"E0 c #858585",
"F0 c #808080",
"G0 c #888888",
"H0 c #838383",
"I0 c #868686",
"J0 c #8c8c8c",
"K0 c #878787",
"L0 c #8e8e8e",
"M0 c #8b8b8b",
"N0 c #8d8d8d",
"O0 c #f1dfdf",
"P0 c #ecd7d7",
"Q0 c #faf8f8",
"R0 c #f9f7f7",
"S0 c #fcf0f0",
"T0 c #fdf7f7",
"U0 c #fffefe",
"V0 c #fefbfb",
"W0 c #e5a1a1",
"X0 c #e2c8c8",
"Y0 c #919191",
"Z0 c #f4b8b8",
"a0 c #ef9c9c",
"b0 c #e98181",
"c0 c #e26565",
"d0 c #d94242",
"e0 c #d94343",
"f0 c #dc5151",
"g0 c #df6060",
"h0 c #f9dfdf",
"i0 c #f7d8d8",
"j0 c #e47979",
"k0 c #de6e6e",
"l0 c #e0c2c2",
"m0 c #fdeded",
"n0 c #f6b8b8",
"o0 c #ee8080",
"p0 c #e75b5b",
"q0 c #e55858",
"r0 c #e35555",
"s0 c #e15151",
"t0 c #df4e4e",
"u0 c #dd4c4c",
"v0 c #da4949",
"w0 c #da4747",
"x0 c #da4646",
"y0 c #da4545",
"z0 c #dd5252",
"01 c #eca1a1",
"11 c #fefafa",
"21 c #d93f3f",
"31 c #db5757",
"41 c #ddbdbd",
"51 c #9b9b9b",
"61 c #939393",
"71 c #fcdbdb",
"81 c #f48f8f",
"91 c #ee6a6a",
":1 c #ec6666",
";1 c #ea6464",
"A1 c #e96161",
"B1 c #e75e5e",
"C1 c #e55b5b",
"D1 c #e35858",
"E1 c #e05555",
"F1 c #de5252",
"G1 c #dc4f4f",
"H1 c #de6262",
"I1 c #e17f7f",
"J1 c #e29191",
"K1 c #e29090",
"L1 c #e18f8f",
"M1 c #e18d8d",
"N1 c #e38888",
"O1 c #df5d5d",
"P1 c #db4949",
"Q1 c #d73535",
"R1 c #e57f7f",
"S1 c #d52d2d",
"T1 c #dd5454",
"U1 c #d5b4b4",
"V1 c #9e9e9e",
"W1 c #959595",
"X1 c #fee9e9",
"Y1 c #f8a0a0",
"Z1 c #f47575",
"a1 c #f27272",
"b1 c #ef6f6f",
"c1 c #ed6d6d",
"d1 c #ec6a6a",
"e1 c #ea6767",
"f1 c #e86565",
"g1 c #e66262",
"h1 c #e67e7e",
"i1 c #e6abab",
"j1 c #e8c6c6",
"k1 c #eae1e1",
"l1 c #f8dede",
"m1 c #eca0a0",
"n1 c #cd0808",
"o1 c #cf1111",
"p1 c #f9e0e0",
"q1 c #a1a1a1",
"r1 c #969696",
"s1 c #ebe6e6",
"t1 c #fcb5b5",
"u1 c #f88181",
"v1 c #f67d7d",
"w1 c #f57b7b",
"x1 c #f37878",
"y1 c #f17575",
"z1 c #ef7272",
"02 c #ed7171",
"12 c #eb7878",
"22 c #eaa3a3",
"32 c #ebd5d5",
"42 c #f4c9c9",
"52 c #da4848",
"62 c #d52f2f",
"72 c #cc0101",
"82 c #d32424",
"92 c #fae7e7",
":2 c #a3a3a3",
";2 c #989898",
"A2 c #eee0e0",
"B2 c #fb8686",
"C2 c #f98484",
"D2 c #f78383",
"E2 c #f68080",
"F2 c #f47e7e",
"G2 c #f27b7b",
"H2 c #f08282",
"I2 c #ebbcbc",
"J2 c #eceaea",
"K2 c #fbecec",
"L2 c #e98e8e",
"M2 c #de5b5b",
"N2 c #e26e6e",
"O2 c #dcd6d6",
"P2 c #eeb0b0",
"Q2 c #d52c2c",
"R2 c #faecec",
"S2 c #a6a6a6",
"T2 c #9d9d9d",
"U2 c #efe2e2",
"V2 c #fb8c8c",
"W2 c #fa8a8a",
"X2 c #f88888",
"Y2 c #f78686",
"Z2 c #f58383",
"a2 c #f1a9a9",
"b2 c #ece3e3",
"c2 c #f2bbbb",
"d2 c #e16b6b",
"e2 c #eebbbb",
"f2 c #f7d9d9",
"g2 c #ce0c0c",
"h2 c #d83e3e",
"i2 c #a8a8a8",
"j2 c #a0a0a0",
"k2 c #f2e6e6",
"l2 c #fc9191",
"m2 c #fa8f8f",
"n2 c #f98d8d",
"o2 c #f69b9b",
"p2 c #edd2d2",
"q2 c #e16969",
"r2 c #e78686",
"s2 c #f2e1e1",
"t2 c #e88a8a",
"u2 c #d0d0d0",
"v2 c #ababab",
"w2 c #a5a5a5",
"x2 c #f5ebeb",
"y2 c #fd9696",
"z2 c #fb9494",
"03 c #f7a9a9",
"13 c #ece6e6",
"23 c #fceded",
"33 c #e78888",
"43 c #e27070",
"53 c #eda9a9",
"63 c #efecec",
"73 c #cf0d0d",
"83 c #db4b4b",
"93 c #a9a9a9",
":3 c #f9efef",
";3 c #fd9b9b",
"A3 c #f9b4b4",
"B3 c #eeeaea",
"C3 c #fcefef",
"D3 c #e68282",
"E3 c #e47676",
"F3 c #f0b6b6",
"G3 c #db4d4d",
"H3 c #cf0f0f",
"I3 c #dbdbdb",
"J3 c #b0b0b0",
"K3 c #aeaeae",
"L3 c #fcf3f3",
"M3 c #fbbfbf",
"N3 c #f0eeee",
"O3 c #fefcfc",
"P3 c #ec9b9b",
"Q3 c #e57c7c",
"R3 c #f1baba",
"S3 c #e47777",
"T3 c #efd3d3",
"U3 c #fdfcfc",
"V3 c #f3f2f2",
"W3 c #f3bcbc",
"X3 c #e88585",
"Y3 c #ec9d9d",
"Z3 c #eeeded",
"a3 c #df6161",
"b3 c #f2e0e0",
"c3 c #b6b6b6",
"d3 c #fdf4f4",
"e3 c #eb8f8f",
"f3 c #f3e2e2",
"g3 c #e5e5e5",
"h3 c #cdcdcd",
"i3 c #db4a4a",
"j3 c #cd0606",
"k3 c #f8f7f7",
"l3 c #f8d3d3",
"m3 c #ed9595",
"n3 c #f0adad",
"o3 c #eaeaea",
"p3 c #fef9f9",
"q3 c #d32121",
"r3 c #bababa",
"s3 c #bbbbbb",
"t3 c #f3b5b5",
"u3 c #ed9a9a",
"v3 c #e6e6e6",
"w3 c #ea9494",
"x3 c #e26f6f",
"y3 c #e4e4e4",
"z3 c #bcbcbc",
"04 c #efa0a0",
"14 c #f8dada",
"24 c #e8e8e8",
"34 c #d8d8d8",
"44 c #fdf5f5",
"54 c #d11919",
"64 c #ce0808",
"74 c #f8e3e3",
"84 c #d1d1d1",
"94 c #bfbfbf",
":4 c #c0c0c0",
";4 c #efefef",
"A4 c #f5bfbf",
"B4 c #f0a5a5",
"C4 c #f5c6c6",
"D4 c #eeeeee",
"E4 c #e3e3e3",
"F4 c #c6c6c6",
"G4 c #bebebe",
"H4 c #b5b5b5",
"I4 c #fdf6f6",
"J4 c #e26c6c",
"K4 c #f2f2f2",
"L4 c #f8d1d1",
"M4 c #f1abab",
"N4 c #f1acac",
"O4 c #fdf9f9",
"P4 c #b2b2b2",
"Q4 c #b8b8b8",
"R4 c #b7b7b7",
"S4 c #b3b3b3",
"T4 c #b4b4b4",
"U4 c #d83a3a",
"V4 c #f7e9e9",
"W4 c #dadada",
"X4 c #e2e2e2",
"Y4 c #c3c3c3",
"Z4 c #fbe8e8",
"a4 c #f1adad",
"b4 c #f6cbcb",
"c4 c #fcf8f8",
"d4 c #c1c1c1",
"e4 c #bdbdbd",
"f4 c #c4c4c4",
"g4 c #f7eeee",
"h4 c #e98f8f",
"i4 c #d21c1c",
"j4 c #d63131",
"k4 c #f9ebeb",
"l4 c #d9d9d9",
"m4 c #c5c5c5",
"n4 c #c7c7c7",
"o4 c #f9dada",
"p4 c #f2b1b1",
"q4 c #ed9797",
"r4 c #da3737",
"s4 c #e99090",
"t4 c #f2bdbd",
"u4 c #eda5a5",
"v4 c #e78989",
"w4 c #e16868",
"x4 c #d01212",
"y4 c #db4c4c",
"z4 c #fbeded",
"05 c #e1e1e1",
"15 c #c9c9c9",
"25 c #f7f7f7",
"35 c #f5f5f5",
"45 c #f3f3f3",
"55 c #f8d4d4",
"65 c #e25656",
"75 c #d20909",
"85 c #cf0505",
"95 c #cd0101",
":5 c #cc0000",
";5 c #d63434",
"A5 c #f2bfbf",
"B5 c #dddddd",
"C5 c #dcdcdc",
"D5 c #dedede",
"E5 c #dfdfdf",
"F5 c #e0e0e0",
"G5 c #c8c8c8",
"H5 c #cbcbcb",
"I5 c #fdf2f2",
"J5 c #f2b9b9",
"K5 c #ea8d8d",
"L5 c #e78585",
"M5 c #e57d7d",
"N5 c #e88c8c",
"O5 c #f0b3b3",
"P5 c #f8dbdb",
"Q5 c #fefdfd",
"R5 c #f1f1f1",
"S5 c #e7e7e7",
"T5 c #e9e9e9",
"U5 c #ebebeb",
"V5 c #ececec",
"W5 c #ededed",
"X5 c #f0f0f0",
"Y5 c #cacaca",
"Z5 c #f6f6f6",
"a5 c #fbfbfb",
"b5 c #fdfdfd",
"c5 c #fcfcfc",
"d5 c #fafafa",
"e5 c #f4f4f4",
"f5 c #d7d7d7",
"g5 c #fefefe",
"h5 c #d5d5d5",
"i5 c #f9f9f9",
"j5 c #ffffff",
"k5 c #f8f8f8",
"l5 c #cfcfcf",
"m5 c #d4d4d4",
"n5 c #d6d6d6",
"o5 c #d3d3d3",
"p5 c #d2d2d2",
"q5 c #cecece",
"r5 c #cccccc",
"                                                                                                ",
"                                                                                                ",
"              r5q5p5p5p5p5p5p5p5p5p5p5p5p5p5p5p5p5p5p5o5n5n5n5n5n5n5n5n5n5n5n5m5l5              ",
"            m5k5j5j5j5j5j5j5j5j5j5j5j5j5j5j5j5j5j5j5j5j5j5j5j5j5j5j5j5j5j5j5j5j5j5i5h5          ",
"          p5g5j5j5j5j5j5j5j5j5j5j5j5j5j5j5j5j5j5j5j5j5j5j5j5j5j5j5j5j5j5j5j5j5j5j5j5j5f5        ",
"        q5e5g5d5d5d5d5d5d5d5d5i5i5i5d5c5g5j5j5g5b5d5a5b5b5b5b5g5g5g5g5g5g5b5b5b5b5b5j5Z5        ",
"        Y5c5X5W5W5W5W5W5V5U5T5S5R5Q5P5O5N5M5L5K5J5I5g5d5k5i5d5d5d5d5d5d5d5d5i5i5i5i5a5c5H5      ",
"        G5g5F5F5F5F5E5D5C5n5B5k5A5;5:5:5:5:59585756555j5Z54535Z525252525Z5Z5Z5353535Z5g5Y5      ",
"        15b505050505E5B5n5E5z4y4:5:5x4w4v4u4t4s4r4q4p4o4j5454535Z525Z5Z5Z5Z5Z535353535g5n4      ",
"        m4b5050505F5B5f5l4k4j4:5i4h4g4C5f4e4d4B5c4b4a4p4Z4b5R5e535Z5Z5Z5Z5353535353535g5m4      ",
"        Y4b5X4X405E5W4n5V4j4:5U4z405T4S4R4Q4R4P4D5O4N4M4L4j5K4K4e53535353535353535e535g5Y4      ",
"        d4b5X4X405B5h5W5J4:5y4I4r5H4G4F4Y5H515Y5E4D4C4B4A4j5e5;445e535353535353535e535g5:4      ",
"        94b5E4X4E5l4847464544434Q4m4l5h534l4f5X4S5241404M4j5e5D4K4e5e53535e5e5e5e5e535g5e4      ",
"        z3b5y3X4E5n5B5x3:5w3;4Q4F4p5W4D5F5F505D4T5v3C4u3t3j545V5R545e5e5e5e5e5e5e5e535g5s3      ",
"        r3b5y3X4B584X5q3i4p3m5f4p5C505E4y3y3U5;4o3V5n3m3l3j5U5V5R54545e5e5e545454545e5g5Q4      ",
"        R4b5y3X4C5l5k3j3i3g5:4h3l405E4y3g3g3X5D424f3K5e3d3c5g3V5R545e5e5e54545454545e5g5c3      ",
"        T4b5y305W4h3b3:5a3c5Y4o5D5E4g3v3g3o3;4V5Z3Y3X3W3j5R5g3V5R54545454545454545K4V3U3P4      ",
"        P4g5g3X4W4r5T3:5S3a5F4f5F5y3S5v3g3D4V5U5R3Q3P3O3g5g3S5W5R5K445454545K4K4R5N3M3L3K3      ",
"        J3g5v3E4I3h3V3H3G3g5Y534X4g3v3g3S5U5V5F3E3D3C3j5U505o3;4K445454545K4R5X5B3A3;3:393      ",
"        K3g5v3E4C5l5v38373p305n505y3y3X4246353433323j5K4C5y3V5X5K4K4K4K4K4R5;41303z2y2x2w2      ",
"        v2g5S5g3E5p5u2R3:5t2d584C505E5D5s2r2q2s4I4j525I3X4T5;4R5K4K4K4R5X5D4p2o2n2m2l2k2j2      ",
"        i2g524v305n5m4e5h2g2f2F5h5l4C5e2d2q2c2Q5j5R534E5S5V5X5R5R5R5R5;4b2a2Z2Y2X2W2V2U2T2      ",
"        S2g5T524y3C5q5r5R2Q2H3P2F5O2N2M2L2K2j5j524n5D5g3U5;4X5X5X5D4J2I2H2G2F2E2D2C2B2A2;2      ",
"        :2g5T524S5X4n5F4E5928272N2625242j5j5k5C5m5C5y3T5D4D4D4D432221202z1y1x1w1v1u1t1s1r1      ",
"        q1g5o3o324y3C5q59405p1o1:5n1m1l1g5y3r5p5W405v3T5k1j1i1h1g1f1e1d1c1b1a1Z1Y1X1j5U5W1      ",
"        V1g5U5o3T5v3F5m5m4U1T1S1R1Q1P1i3O1N1M1L1K1J1I1H1G1F1E1D1C1B1A1;1:1918171j545g3U561      ",
"        51g5o3T5S5y3B5413121m111j5d301z0y0y0x0w0w0525252v0u0t0s0r0q0p0o0n0m0i5g3o584I3X561      ",
"        ;2b5o3S5y3l0k0j0i0j5i5I3d4n524d5h0O533g0f0i3e0d0d0P1c0b0a0Z0Z4g5W534r5u2n5C5E435Y0      ",
"        r1c5S5X0W0O5V0Z5E4q5:4:4r5q5H515m5g3e5i5c5j5U0T0S0R0X5S5F5f5u2h3q5o5l4D5X4S5V5d5Y0      ",
"        61Q0P0O0W505o5Y5Y5r5l5h5C5C5W4n5p5q5r5H5Y515H5q5r5Y5r5h3u2p5h534C5F5g3T5V5W5R5b5N0      ",
"        Y0i5g3E5l4f5h5n534I3E5v3T524v3E4F5B5W434n5n5n5n5n534W4C5E5F5E4g324U5V5D4;4X5K4g5M0      ",
"        L0d5S5y305F5F505y3S5T5W5D4D4W5V5U524S5g3y3E4E4E4y3g3S524T5V5V5W5;4X5R5K4K4K445g5K0      ",
"        J0c5o3242424T5o3U5V5D4X5X5X5X5;4;4D4D4D4W5W5V5V5W5W5D4;4X5X5X5X5R5R5K4K4K4K445g5I0      ",
"        M0b5D4W5W5W5W5D4D4D4R5R5K4K4K4K4R5R5R5R5R5X5X5X5X5R5K4K4K4K4454545454545454545g5H0      ",
"        G0g5;4;4;4D4r5r5r5q5u2u2u2u2u2u2u28484p5p5p5p5p5p5p5p5p5p5p5p5p5p5o545454545e5g5F0      ",
"        E0g5X5X5X5X5X5X5X5X5R5R5R5R5R5R5R5R5R5R5R5R5R5K4K4K4K4K4K4K4K4K4K4K4K4K4K4K445g5D0      ",
"        H0g5X5X5R5;4h3h3h3h3h3h3h3h3h3q5q5q5q5q5q5q5q5q5q5q5q5q5q5q5q5q5q58445454545e5g5C0      ",
"        B0g5R5R5R5R5R5R5R5K4K4K4K4K4K4K4K4K4K4K4K44545454545454545454545454545454545e5g5A0      ",
"        A0g5R5R5K4X5q5q5q5q5q5q5q5q5q5q5q5q5q5q5q5q5q58445454545e5e5e5e5e5e5e5e5e5e535c5;0      ",
"        :0i535K4K4K4K4K4K44545454545454545454545e5e5e5e5e5e5e5e5e5e5e5e5e5e5e5353535k5;490      ",
"        80q5a5K445454545454545454545e5e5e5e5e5e5e5e5e5e5e5e5353535353535353535353535b5Q4        ",
"          :0R5c5Z54545454545e5e5e5e5e5e5e5e5e5e5353535353535353535353535Z5Z5Z5Z5k5b5g370        ",
"            601535j5j5j5j5j5j5j5j5j5j5j5j5j5j5j5j5j5j5j5j5j5j5j5j5j5j5j5j5j5j5g5e5Q450          ",
"              4030602020202020202020202020202020202020202020202020202020202020601000            ",
"                                                                                                ",
"                                                                                                ",
"                                                                                                ",
"                                                                                                "};
