/* XPM */
static char *image[] = {
"48 48 517 2",
"   c None",
"00 c #da2b07",
"10 c #dc2d08",
"20 c #d4310c",
"30 c #cc320f",
"40 c #c33511",
"50 c #b93713",
"60 c #b33a16",
"70 c #ac3c16",
"80 c #ab3a15",
"90 c #a53e18",
":0 c #a24921",
";0 c #af552d",
"A0 c #b24a23",
"B0 c #b7451f",
"C0 c #b74620",
"D0 c #bd451d",
"E0 c #c2401b",
"F0 c #c93b17",
"G0 c #d03612",
"H0 c #d6320e",
"I0 c #db2f0a",
"J0 c #dc2e0b",
"K0 c #da2d0a",
"L0 c #dc2d0b",
"M0 c #d32f0b",
"N0 c #c9340f",
"O0 c #ca3511",
"P0 c #c33a14",
"Q0 c #ba3d16",
"R0 c #ae4219",
"S0 c #a0461e",
"T0 c #934a23",
"U0 c #8d4f26",
"V0 c #8a5128",
"W0 c #87532a",
"X0 c #83552c",
"Y0 c #82562e",
"Z0 c #815830",
"a0 c #7c5932",
"b0 c #755a32",
"c0 c #675730",
"d0 c #685d36",
"e0 c #746a3f",
"f0 c #847d51",
"g0 c #c0bc9e",
"h0 c #b8ac78",
"i0 c #92895c",
"j0 c #8e8456",
"k0 c #877a4d",
"l0 c #887344",
"m0 c #907142",
"n0 c #987041",
"o0 c #996d3e",
"p0 c #976a3d",
"q0 c #97693c",
"r0 c #9a663a",
"s0 c #9c6438",
"t0 c #9f6236",
"u0 c #a7592e",
"v0 c #b15027",
"w0 c #b84921",
"x0 c #c0421c",
"y0 c #c63d18",
"z0 c #ca3814",
"01 c #ca3813",
"11 c #d9330e",
"21 c #aa401a",
"31 c #796638",
"41 c #79693b",
"51 c #7a693b",
"61 c #7a6a3c",
"71 c #796a3d",
"81 c #776b3e",
"91 c #736c3e",
":1 c #716b3f",
";1 c #70683d",
"A1 c #6e663c",
"B1 c #6d653a",
"C1 c #6c623a",
"D1 c #675f36",
"E1 c #696138",
"F1 c #756b41",
"G1 c #897f51",
"H1 c #928758",
"I1 c #aa9f74",
"J1 c #e0dac1",
"K1 c #fdfbf0",
"L1 c #e4d395",
"M1 c #cdbe89",
"N1 c #aaa06e",
"O1 c #a39969",
"P1 c #9e9363",
"Q1 c #908657",
"R1 c #897f4e",
"S1 c #887d4c",
"T1 c #8d834f",
"U1 c #91854f",
"V1 c #91874f",
"W1 c #928750",
"X1 c #948a50",
"Y1 c #96874f",
"Z1 c #98844d",
"a1 c #97834b",
"b1 c #96824b",
"c1 c #94814b",
"d1 c #92814b",
"e1 c #998652",
"f1 c #d96d48",
"g1 c #ad411b",
"h1 c #776e3f",
"i1 c #746a3b",
"j1 c #726739",
"k1 c #6e6437",
"l1 c #6b6135",
"m1 c #6a5f34",
"n1 c #6b5f34",
"o1 c #6d6237",
"p1 c #72653b",
"q1 c #7a6e43",
"r1 c #807547",
"s1 c #857a4c",
"t1 c #968c5b",
"u1 c #a19664",
"v1 c #9b905e",
"w1 c #a19767",
"x1 c #c6bd9a",
"y1 c #ede7d2",
"z1 c #faf6e5",
"02 c #faf6ea",
"12 c #e7d79e",
"22 c #d8c993",
"32 c #b8ac7a",
"42 c #a79c6b",
"52 c #aca26f",
"62 c #afa573",
"72 c #aa9f6d",
"82 c #9e9261",
"92 c #968a59",
":2 c #918451",
";2 c #8d7f4c",
"A2 c #8b7d4a",
"B2 c #8b7e48",
"C2 c #8f824a",
"D2 c #93854c",
"E2 c #96884d",
"F2 c #a09459",
"G2 c #e47a56",
"H2 c #6f6438",
"I2 c #807546",
"J2 c #8c804e",
"K2 c #938655",
"L2 c #9c905d",
"M2 c #a19562",
"N2 c #a09562",
"O2 c #a29764",
"P2 c #a59a67",
"Q2 c #a79c69",
"R2 c #a79d69",
"S2 c #a39965",
"T2 c #998c5b",
"U2 c #bfb792",
"V2 c #eee8d1",
"W2 c #f5f0dc",
"X2 c #f7f3e1",
"Y2 c #e6d69f",
"Z2 c #e4d49f",
"a2 c #dccd9a",
"b2 c #b1a574",
"c2 c #9f9664",
"d2 c #b3a876",
"e2 c #b5aa77",
"f2 c #b5aa76",
"g2 c #b6ab77",
"h2 c #b3a874",
"i2 c #b2a773",
"j2 c #b2a772",
"k2 c #b4a772",
"l2 c #b3a771",
"m2 c #ab9f69",
"n2 c #a29660",
"o2 c #9f925e",
"p2 c #afa36f",
"q2 c #e37853",
"r2 c #a89d67",
"s2 c #b1a56e",
"t2 c #b0a46c",
"u2 c #ada26c",
"v2 c #aca06b",
"w2 c #aba06a",
"x2 c #aa9f6a",
"y2 c #a79c68",
"z2 c #a89d6a",
"03 c #a79c6d",
"13 c #b8af87",
"23 c #f4eed7",
"33 c #f8f3dd",
"43 c #e7d6a3",
"53 c #ebdbaa",
"63 c #dfd1a1",
"73 c #aea172",
"83 c #aea271",
"93 c #b3a875",
":3 c #b5aa75",
";3 c #b7ac77",
"A3 c #b9ae79",
"B3 c #bbb07a",
"C3 c #bcb07a",
"D3 c #beb27c",
"E3 c #c0b57d",
"F3 c #c2b67f",
"G3 c #c6ba83",
"H3 c #bcb280",
"I3 c #716639",
"J3 c #a69b64",
"K3 c #ac9f68",
"L3 c #a99d67",
"M3 c #a99d68",
"N3 c #a89d69",
"O3 c #a99e6d",
"P3 c #b2a87b",
"Q3 c #c9c09a",
"R3 c #d6cfad",
"S3 c #ece4ca",
"T3 c #faf4dd",
"U3 c #f5efd7",
"V3 c #e8daa9",
"W3 c #eedeb0",
"X3 c #e0d1a4",
"Y3 c #cfc295",
"Z3 c #c6ba8c",
"a3 c #b7ac7c",
"b3 c #b2a775",
"c3 c #b2a774",
"d3 c #b5a975",
"e3 c #b8ac76",
"f3 c #b9ae77",
"g3 c #baaf77",
"h3 c #c3b881",
"i3 c #bbb17f",
"j3 c #72683b",
"k3 c #968a57",
"l3 c #aba172",
"m3 c #bcb286",
"n3 c #c2b88d",
"o3 c #cfc59d",
"p3 c #dfd8b3",
"q3 c #ede6c5",
"r3 c #f0e8c9",
"s3 c #f3ecce",
"t3 c #f3edd1",
"u3 c #e9daad",
"v3 c #e9dbb0",
"w3 c #eadbb1",
"x3 c #e8dab2",
"y3 c #e8dab4",
"z3 c #e2d5ae",
"04 c #d2c69d",
"14 c #c5b98f",
"24 c #bfb388",
"34 c #b9ae82",
"44 c #cabf8e",
"54 c #bbb07e",
"64 c #74693b",
"74 c #887c4c",
"84 c #ccc39a",
"94 c #f9f0cc",
":4 c #f3ecc8",
";4 c #f3ebc8",
"A4 c #f1e9c8",
"B4 c #f1e9cb",
"C4 c #f5f0db",
"D4 c #f6f1dd",
"E4 c #f7f2e0",
"F4 c #e8dbb2",
"G4 c #eadcb5",
"H4 c #ebdeb8",
"I4 c #eee1bd",
"J4 c #efe3c1",
"K4 c #f3e6c6",
"L4 c #eee3c1",
"M4 c #d0c696",
"N4 c #b9af7c",
"O4 c #efe6c4",
"P4 c #f3edd4",
"Q4 c #f4edd6",
"R4 c #f6f0db",
"S4 c #f7f3de",
"T4 c #f6f1df",
"U4 c #f7f2e1",
"V4 c #eaddb7",
"W4 c #eadebc",
"X4 c #ece0bf",
"Y4 c #e7dcba",
"Z4 c #cfc595",
"a4 c #f2eccf",
"b4 c #f5eed4",
"c4 c #f5efd6",
"d4 c #f5f0d9",
"e4 c #f4f0dc",
"f4 c #dcdcd0",
"g4 c #f0e8d7",
"h4 c #f8f4e2",
"i4 c #f3ecd2",
"j4 c #e5e0cc",
"k4 c #ecdec9",
"l4 c #eeead5",
"m4 c #d8c1b4",
"n4 c #dc684f",
"o4 c #f1d0bc",
"p4 c #f7f8e7",
"q4 c #dbd6c6",
"r4 c #dd6047",
"s4 c #dd826d",
"t4 c #e05237",
"u4 c #e8401f",
"v4 c #f0d7c5",
"w4 c #dcd9c9",
"x4 c #e74728",
"y4 c #eb3410",
"z4 c #ec310e",
"05 c #e7492a",
"15 c #f0d7c4",
"25 c #e74d2e",
"35 c #ec3a17",
"45 c #ec3713",
"55 c #e84d2e",
"65 c #f0d8c5",
"75 c #dcd8ca",
"85 c #e75132",
"95 c #ed3f1c",
":5 c #ed3c18",
";5 c #e85232",
"A5 c #f7f7e6",
"B5 c #dbd8c9",
"C5 c #e75436",
"D5 c #ec4220",
"E5 c #ec3f1c",
"F5 c #e85536",
"G5 c #f0d9c6",
"H5 c #e85839",
"I5 c #ee4725",
"J5 c #ee4421",
"K5 c #e9583a",
"L5 c #f0dac6",
"M5 c #e85c3e",
"N5 c #ed4b29",
"O5 c #ed4826",
"P5 c #e95c3d",
"Q5 c #f0dac8",
"R5 c #e95f41",
"S5 c #ef502e",
"T5 c #ef4d2a",
"U5 c #e96041",
"V5 c #e96345",
"W5 c #ee5432",
"X5 c #ee5130",
"Y5 c #e96446",
"Z5 c #f0dbc8",
"a5 c #ef5837",
"b5 c #f05535",
"c5 c #ea674a",
"d5 c #f0dcc9",
"e5 c #ea6a4e",
"f5 c #f05c3c",
"g5 c #f05939",
"h5 c #ea6b4e",
"i5 c #f0dbca",
"j5 c #ea6f51",
"k5 c #f06141",
"l5 c #f05f3e",
"m5 c #ea6f52",
"n5 c #f0dcca",
"o5 c #f06545",
"p5 c #f16242",
"q5 c #eb7256",
"r5 c #f0ddca",
"s5 c #eb7559",
"t5 c #f0694a",
"u5 c #f16747",
"v5 c #eb7659",
"w5 c #f0ddcb",
"x5 c #eb795e",
"y5 c #f26d4e",
"z5 c #f26b4b",
"06 c #ec7a5e",
"16 c #f1ddcb",
"26 c #8a7e4d",
"36 c #ec7d61",
"46 c #f17253",
"56 c #f27050",
"66 c #ec7e62",
"76 c #f1decc",
"86 c #ad421b",
"96 c #ed8165",
":6 c #f37657",
";6 c #f37454",
"A6 c #ed8166",
"B6 c #f1dfcc",
"C6 c #f8f5e9",
"D6 c #e1d093",
"E6 c #e5d59d",
"F6 c #baaf7d",
"G6 c #e27753",
"H6 c #a6421c",
"I6 c #74683b",
"J6 c #897e4d",
"K6 c #ed8569",
"L6 c #f17b5c",
"M6 c #f2795a",
"N6 c #ec846a",
"O6 c #f0dfcc",
"P6 c #f7f6e5",
"Q6 c #f9f6ea",
"R6 c #e2d194",
"S6 c #e4d39c",
"T6 c #e4d49d",
"U6 c #e5d4a0",
"V6 c #cfc494",
"W6 c #baaf7c",
"X6 c #e17e5a",
"Y6 c #736639",
"Z6 c #897e4c",
"a6 c #c8bf96",
"b6 c #f3e9c4",
"c6 c #ed886d",
"d6 c #f37e61",
"e6 c #f27d5f",
"f6 c #ed886e",
"g6 c #f1e0ce",
"h6 c #f7f5e4",
"i6 c #f2eede",
"j6 c #decd92",
"k6 c #e5d39c",
"l6 c #e5d59e",
"m6 c #e5d5a0",
"n6 c #e5d5a2",
"o6 c #e6d6a5",
"p6 c #ede0bf",
"q6 c #e8dcba",
"r6 c #d0c595",
"s6 c #beb280",
"t6 c #8c7f4d",
"u6 c #c8be96",
"v6 c #f2e9c3",
"w6 c #efe7c6",
"x6 c #ed8c71",
"y6 c #f28266",
"z6 c #f28063",
"07 c #ee8e74",
"17 c #eedbc8",
"27 c #e4d59d",
"37 c #e6d5a1",
"47 c #e6d6a3",
"57 c #e5d5a4",
"67 c #e7d9a8",
"77 c #e9daac",
"87 c #e9dab1",
"97 c #e7dcb9",
":7 c #d2c797",
";7 c #736738",
"A7 c #cac099",
"B7 c #f2e9c4",
"C7 c #ede5c0",
"D7 c #eee7c7",
"E7 c #f1eace",
"F7 c #f3ecd3",
"G7 c #dcd8c9",
"H7 c #ee9076",
"I7 c #f4876a",
"J7 c #f38769",
"K7 c #ef8f74",
"L7 c #e6d6a2",
"M7 c #e5d5a5",
"N7 c #e6d8a8",
"O7 c #e8d9aa",
"P7 c #e8daac",
"Q7 c #e7d9ae",
"R7 c #e8dab0",
"S7 c #ecdfbf",
"T7 c #eadfbf",
"U7 c #dbd1a8",
"V7 c #cbc29b",
"W7 c #eee6c3",
"X7 c #eee6c5",
"Y7 c #efe8c8",
"Z7 c #f2eacb",
"a7 c #f2ebcd",
"b7 c #f2ebcf",
"c7 c #f1ebd3",
"d7 c #e0dcca",
"e7 c #f09176",
"f7 c #f48d6f",
"g7 c #e7d8aa",
"h7 c #e8d9ab",
"i7 c #e8daaf",
"j7 c #e9dab0",
"k7 c #e9dbb2",
"l7 c #eaddb6",
"m7 c #eaddb8",
"n7 c #eaddbb",
"o7 c #ebdfbe",
"p7 c #ebe2c2",
"q7 c #cbc19b",
"r7 c #f1e8c3",
"s7 c #eee6c1",
"t7 c #efe7c4",
"u7 c #efe8c6",
"v7 c #eee8c8",
"w7 c #f1eacc",
"x7 c #e7dbb0",
"y7 c #e9dcb5",
"z7 c #eadeb7",
"08 c #ebdeb9",
"18 c #ebdebc",
"28 c #ecdfbe",
"38 c #ece1c1",
"                                                                                                ",
"                                                                                                ",
"                                                                                                ",
"                                                                                                ",
"                                                                                                ",
"                                                                                                ",
"            38281808z7y7x7                                            w7v7u7t7s7r7q7            ",
"            p7o7n708m7l7k7j7i7h7g7                        f7e7d7c7b7a7Z7Y7X7W7s7r7V7            ",
"          U7T7S718m7m7l7k7R7Q7P7O7N7M7L7              K7J7I7H7G7F7E7w7Z7D7u7t7C7B7A7;7          ",
"          :797281808m7l7k787i777O76757473727        1707z6y6x6G7F7b7a7Z7Y7w6t7s7v6u6t6          ",
"        s6r6q6p6n708m7l7k787i777O767o6n6m6l6k6j6i6h6g6f6e6d6c6G7F7b7a7Z7Y7w6t7C7b6a6Z6Y6        ",
"      X6W6V6q6p61808m7l7k787i777O7675747U6T6S6R6Q6P6O6N6M6L6K6G7F7b7a7Z7Y7w6t7s7b6a6J6I6H6      ",
"      G6F6V6q6p61808m7l7k787i777O767o64737l6E6D6C6P6B6A6;6:696G7F7b7a7Z7Y7w6t7s7b6a6J6I686      ",
"      G6F6r6q6p61808m7l7k787i777O767o64737l6E6R6Q6P67666564636G7F7b7a7Z7Y7w6t7s7b6a626I686      ",
"      G6F6r6q6p61808m7l7k787i777O767o64737l6E6R6Q6P61606z5y5x5G7F7b7a7Z7Y7w6t7s7b6a626I686      ",
"      G6F6r6q6p61808m7l7k787i777O767o64737l6E6R6Q6P6w5v5u5t5s5G7F7b7a7Z7Y7w6t7s7b6a626I686      ",
"      G6F6r6q6p61808m7l7k787i777O767o64737l6E6R6Q6P6r5q5p5o5q5G7F7b7a7Z7Y7w6t7s7b6a626I686      ",
"      G6F6r6q6p61808m7l7k787i777O767o64737l6E6R6Q6P6n5m5l5k5j5G7F7b7a7Z7Y7w6t7s7b6a626I686      ",
"      G6F6r6q6p61808m7l7k787i777O767o64737l6E6R6Q6P6i5h5g5f5e5G7F7b7a7Z7Y7w6t7s7b6a626I686      ",
"      G6F6r6q6p61808m7l7k787i777O767o64737l6E6R6Q6P6d5c5b5a5c5G7F7b7a7Z7Y7w6t7s7b6a626I686      ",
"      G6F6r6q6p61808m7l7k787i777O767o64737l6E6R6Q6P6Z5Y5X5W5V5G7F7b7a7Z7Y7w6t7s7b6a626I686      ",
"      G6F6r6q6p61808m7l7k787i777O767o64737l6E6R6Q6P6Z5U5T5S5R5G7F7b7a7Z7Y7w6t7s7b6a626I686      ",
"      G6F6r6q6p61808m7l7k787i777O767o64737l6E6R6Q6P6Q5P5O5N5M5G7F7b7a7Z7Y7w6t7s7b6a626I686      ",
"      G6F6r6q6p61808m7l7k787i777O767o64737l6E6R6Q6P6L5K5J5I5H5G7F7b7a7Z7Y7w6t7s7b6a626I686      ",
"      G6F6r6q6p61808m7l7k787i777O767o64737l6E6R6Q6P6G5F5E5D5C5B5F7b7a7Z7Y7w6t7s7b6a626I686      ",
"      G6F6r6q6p61808m7l7k787i777O767o64737l6E6R6Q6A5G5;5:5958575F7b7a7Z7Y7w6t7s7b6a626I686      ",
"      G6F6r6q6p61808m7l7k787i777O767o64737l6E6R6Q6A56555453525G7F7b7a7Z7Y7w6t7s7b6a626I686      ",
"      G6F6r6q6p61808m7l7k787i777O767o64737l6E6R6Q6A51505z4y4x4w4F7b7a7Z7Y7w6t7s7b6a626I686      ",
"      G6F6r6q6p61808m7l7k787i777O767o64737l6E6R6Q6A5v4u4t4s4r4q4F7b7a7Z7Y7w6t7s7b6a626I686      ",
"      G6F6r6q6p61808m7l7k787i777O767o64737l6E6R6Q6p4o4n4m4l4k4j4i4b7a7Z7Y7w6t7s7b6a626I686      ",
"      G6F6r6q6p61808m7l7k787i777O767o64737l6E6R6Q6h4g4f4e4d4c4b4i4a4a7Z7Y7w6t7s7b6a626I686      ",
"      G6F6Z4Y4X4W408V4l7k787i777O767o64737l6E6R6Q6U4T4S4R4d4Q4P4i4a4a7Z7Y7w6O4s7B7a626I686      ",
"      G6N4M4L4K4J4I4H4G4F4j7i777O767o64737l6E6R6Q6U4E4D4C4d4Q4P4i4a4a7B4Y7A4;4:49484746486      ",
"      G6544434241404z3y3x3w3v3u3O767o64737l6E6R6Q6U4E4D4C4d4Q4P4F7t3s3r3q3p3o3n3m3l3k3j386      ",
"      G6i3h3g3f3e3d3c3b3a3Z3Y3X3W3V3o64737l6E6R6Q6U4E4D4R4d4U3T3S3R3Q3P3O3N3N3M3L3K3J3I386      ",
"      G6H3G3F3E3D3C3B3A3;3:393837363534337l6E6R6Q6U4E4D4C433231303z2y2N3x2w2v2u2t2s2r2I386      ",
"      q2p2o2n2m2l2k2j2i2h2g2f2e2d2c2b2a2Z2Y2E6R6Q6X2E4W2V2U2T2S2R2Q2P2O2N2N2M2L2K2J2I2H286      ",
"      G2F2E2D2C2B2B2A2;2:292T28272625242322212R602z1y1x1w1v1u1t1s1r1q1p1o1n1m1l1k1j1i1h1g1      ",
"      f1e1d1c1b1a1Z1Y1X1W1V1U1T1S1R1Q1P1O1N1M1L1K1J1I1H1G1F1E1D1C1B1A1;1:19181716151413121      ",
"      1101z0y0x0w0v0u0t0s0r0q0p0o0n0m0l0k0j0i0h0g0f0e0d0c0b0a0Z0Y0X0W0V0U0T0S0R0Q0P0O0N0M0      ",
"                      L0K0J0I0H0G0F0E0D0C0B0A0;0:09080706050403020K0101000                      ",
"                                                                                                ",
"                                                                                                ",
"                                                                                                ",
"                                                                                                ",
"                                                                                                ",
"                                                                                                ",
"                                                                                                "};
