/* XPM */
static char *image[] = {
"64 64 229 2",
"   c None",
"00 c #dcdcdc",
"10 c #616161",
"20 c #d8d8d8",
"30 c #666666",
"40 c #686868",
"50 c #646464",
"60 c #010101",
"70 c #dadada",
"80 c #6d6d6d",
"90 c #040404",
":0 c #070707",
";0 c #cacaca",
"A0 c #737373",
"B0 c #080808",
"C0 c #c9c9c9",
"D0 c #757575",
"E0 c #020202",
"F0 c #0b0b0b",
"G0 c #030303",
"H0 c #0d0d0d",
"I0 c #c6c6c6",
"J0 c #c1c1c1",
"K0 c #0f0f0f",
"L0 c #bfbfbf",
"M0 c #060606",
"N0 c #c5c5c5",
"O0 c #090909",
"P0 c #111111",
"Q0 c #bbbbbb",
"R0 c #0c0c0c",
"S0 c #0e0e0e",
"T0 c #101010",
"U0 c #b4b4b4",
"V0 c #141414",
"W0 c #121212",
"X0 c #969696",
"Y0 c #131313",
"Z0 c #b3b3b3",
"a0 c #949494",
"b0 c #050505",
"c0 c #1a1a1a",
"d0 c #1e1e1e",
"e0 c #a7a7a7",
"f0 c #0a0a0a",
"g0 c #1d1d1d",
"h0 c #1f1f1f",
"i0 c #a4a4a4",
"j0 c #282828",
"k0 c #a9a9a9",
"l0 c #a6a6a6",
"m0 c #adadad",
"n0 c #252525",
"o0 c #a0a0a0",
"p0 c #a5a5a5",
"q0 c #1c1c1c",
"r0 c #6c6c6c",
"s0 c #9e9e9e",
"t0 c #aeaeae",
"u0 c #b2b2b2",
"v0 c #9c9c9c",
"w0 c #b5b5b5",
"x0 c #272727",
"y0 c #222222",
"z0 c #a2a2a2",
"01 c #b0b0b0",
"11 c #151515",
"21 c #191919",
"31 c #787878",
"41 c #989898",
"51 c #afafaf",
"61 c #bababa",
"71 c #d6d6d6",
"81 c #383838",
"91 c #242424",
":1 c #2e2e2e",
";1 c #9d9d9d",
"A1 c #bdbdbd",
"B1 c #bcbcbc",
"C1 c #b8b8b8",
"D1 c #363636",
"E1 c #2f2f2f",
"F1 c #959595",
"G1 c #b7b7b7",
"H1 c #404040",
"I1 c #3a3a3a",
"J1 c #393939",
"K1 c #979797",
"L1 c #929292",
"M1 c #c2c2c2",
"N1 c #353535",
"O1 c #343434",
"P1 c #313131",
"Q1 c #333333",
"R1 c #434343",
"S1 c #3c3c3c",
"T1 c #262626",
"U1 c #a8a8a8",
"V1 c #bebebe",
"W1 c #2d2d2d",
"X1 c #919191",
"Y1 c #4b4b4b",
"Z1 c #464646",
"a1 c #444444",
"b1 c #424242",
"c1 c #323232",
"d1 c #626262",
"e1 c #909090",
"f1 c #b9b9b9",
"g1 c #c8c8c8",
"h1 c #c0c0c0",
"i1 c #545454",
"j1 c #4e4e4e",
"k1 c #494949",
"l1 c #454545",
"m1 c #303030",
"n1 c #8f8f8f",
"o1 c #8c8c8c",
"p1 c #a3a3a3",
"q1 c #cccccc",
"r1 c #484848",
"s1 c #292929",
"t1 c #606060",
"u1 c #8d8d8d",
"v1 c #8a8a8a",
"w1 c #939393",
"x1 c #cfcfcf",
"y1 c #575757",
"z1 c #555555",
"02 c #505050",
"12 c #4f4f4f",
"22 c #4d4d4d",
"32 c #4c4c4c",
"42 c #3f3f3f",
"52 c #212121",
"62 c #202020",
"72 c #717171",
"82 c #898989",
"92 c #8b8b8b",
":2 c #c7c7c7",
";2 c #5c5c5c",
"A2 c #535353",
"B2 c #525252",
"C2 c #515151",
"D2 c #474747",
"E2 c #3b3b3b",
"F2 c #868686",
"G2 c #cbcbcb",
"H2 c #d2d2d2",
"I2 c #cecece",
"J2 c #5f5f5f",
"K2 c #5d5d5d",
"L2 c #5b5b5b",
"M2 c #595959",
"N2 c #585858",
"O2 c #414141",
"P2 c #2a2a2a",
"Q2 c #2b2b2b",
"R2 c #6b6b6b",
"S2 c #858585",
"T2 c #878787",
"U2 c #cdcdcd",
"V2 c #5e5e5e",
"W2 c #565656",
"X2 c #4a4a4a",
"Y2 c #3d3d3d",
"Z2 c #2c2c2c",
"a2 c #1b1b1b",
"b2 c #181818",
"c2 c #373737",
"d2 c #676767",
"e2 c #888888",
"f2 c #838383",
"g2 c #d7d7d7",
"h2 c #171717",
"i2 c #161616",
"j2 c #232323",
"k2 c #3e3e3e",
"l2 c #5a5a5a",
"m2 c #a1a1a1",
"n2 c #dddddd",
"o2 c #dbdbdb",
"p2 c #d5d5d5",
"q2 c #636363",
"r2 c #696969",
"s2 c #707070",
"t2 c #848484",
"u2 c #818181",
"v2 c #7f7f7f",
"w2 c #7e7e7e",
"x2 c #828282",
"y2 c #c4c4c4",
"z2 c #dedede",
"03 c #d3d3d3",
"13 c #7d7d7d",
"23 c #ababab",
"33 c #e1e1e1",
"43 c #7b7b7b",
"53 c #7c7c7c",
"63 c #acacac",
"73 c #e2e2e2",
"83 c #d9d9d9",
"93 c #9a9a9a",
":3 c #7a7a7a",
";3 c #797979",
"A3 c #777777",
"B3 c #999999",
"C3 c #c3c3c3",
"D3 c #e5e5e5",
"E3 c #727272",
"F3 c #767676",
"G3 c #808080",
"H3 c #8e8e8e",
"I3 c #9f9f9f",
"J3 c #b6b6b6",
"K3 c #d1d1d1",
"L3 c #e9e9e9",
"M3 c #f1f1f1",
"N3 c #f0f0f0",
"O3 c #efefef",
"P3 c #eeeeee",
"Q3 c #ececec",
"R3 c #eaeaea",
"S3 c #ededed",
"T3 c #ebebeb",
"U3 c #e8e8e8",
"V3 c #e6e6e6",
"W3 c #e3e3e3",
"X3 c #dfdfdf",
"                                                                                                                                ",
"                                                                                                                                ",
"                                                    X3W3V3U3T3S3S3T3U3V3W3X3                                                    ",
"                                              W3R3T3R3Q3P3O3N3M3M3N3O3P3Q3R3T3R3W3                                              ",
"                                        X3U3U3L3Q3K3J3I3H3G3F3E3E3F3G3H3I3J3K3Q3L3U3U3X3                                        ",
"                                    X3V3D3L3C3B3A3F3;3:3:3:3:3:3:3:3:3:3:3;3F3A393C3L3D3V3X3                                    ",
"                                83W373X36353;3434343434343434343434343434343434343;35363X373W383                                ",
"                              X3X33323:3131313131313131313131313131313131313131313131313:32333X3X3                              ",
"                          03z2X3y2x2w2v2v2v2v2v2v2v2u2t2u2s2r2q2q2r2s2u2t2u2v2v2v2v2v2v2v2w2x2y2X3z203                          ",
"                        p2o2n2m213u2u2u2u2u2u2t2w2l2k2j2i2h2h2h2h2h2h2i2j2k2l2w2t2u2u2u2u2u2u213m2n2o2p2                        ",
"                      03g2p2H3f2f2f2f2f2f2e2d2c2b2a2Z2Y2X2W2V2q2q2V2W2X2Y2Z2a2b2c2d2e2f2f2f2f2f2f2H3p2g203                      ",
"                    K3p2U2T2S2S2S2S2t2e2R2Q2b2P2O2W2N2M2L2K2K2J2J2K2K2L2M2N2W2O2P2b2Q2R2e2t2S2S2S2S2T2I2p2K3                    ",
"                  U2H2G2T2F2F2F2F2F2f2E2b2Q2D2C2B2A2W2N2M2l2;2K2K2;2l2M2N2W2A2B2C2D2Q2b2E2f2F2F2F2F2F2T2G2H2U2                  ",
"                :2K3I292e2e2e2e2827262524232221202A2z1W2y1M2l2l2l2l2M2y1W2z1A2021222324252627282e2e2e2e292I2K3:2                ",
"                x1x1w1v1v1v1v1u1t1b2s1D2r1X2322202B2A2z1W2y1N2N2N2N2y1W2z1A2B2022232X2r1D2s1b2t1u1v1v1v1v1w1x1x1                ",
"              G2q1p1o1o1o1o1n1N2b2m1l1l1D2k1X222j112B2A2i1z1W2W2W2W2z1i1A2B212j122X2k1D2l1l1m1b2N2n1o1o1o1o1p1q1G2              ",
"            h1g1f1o1H3H3H3e1d1b2c1O2b1a1Z1r1X2Y132j112C2B2A2i1i1i1i1A2B2C212j132Y1X2r1Z1a1b1O2c1b2d1e1H3H3H3o1f1g1h1            ",
"            :2:2X1n1n1n1n1A3b2W1k242O2b1l1Z1r1X2Y122j11202C2B2B2B2B2C20212j122Y1X2r1Z1l1b1O242k2W1b2A3n1n1n1n1X1:2:2            ",
"          V1y2U1X1X1X1X1u162T1E2S1Y242b1R1l1D2Z1Q1P1c1Q1O1N1N1N1N1N1N1O1Q1c1P1Q1Z1D2l1R1b142Y2S1E2T162u1X1X1X1X1U1y2V1          ",
"          M1h1L1w1w1w1K14262c2J1I1Y242H1O2a1l1m1T33333333333333333333333333333T3m1l1a1O2H142Y2I1J1c26242K1w1w1w1L1h1M1          ",
"        G1V1U1F1F1F1F1A3b2E1D1c2I1S1Y242H1O2R1Z233g2g2g2g2g2g2g2g2g2g2g2g2g2g233Z2R1O2H142Y2S1I1c2D1E1b2A3F1F1F1F1U1V1C1        ",
"        B1A1K1K1K1K1;1:191Q1O1c281J1S1Y242H1O2Q233g2g2717333333333333333333333Q3W1b1H142Y2S1J181c2O1Q191:1;1K1K1K1K1A1B1        ",
"        615141B3B3413121W1P1O1N1D1J1I1S1Y242H1s133g2g27311:1:1:1:1:1:1W1W1Z2Q2Z2H1H142Y2S1I1J1D1N1O1P1W1213141B3B3415161        ",
"      01G1z0939393;1k2y0E1m1c1Q1N1c2J1I1S1S1k2x033g2g233Q2a1a1l1l1a1a1a1R1b1b1O242k2S1S1I1J1c2N1Q1c1m1E1y0k2;1939393z0G101      ",
"      w0J3v0v0v0v041h2x0W1E1P1c1Q1D1D181J1E2Y2T133g2g233s1b1b1b1b1b1b1b1O2H1H142k2S1E2J181D1D1Q1c1P1E1W1x0h241v0v0v0v0J3w0      ",
"      u0t0;1s0s0s0r0q0Q2Q2:1E1m1c1Q1N1c281J1E29133g2g233x0H1H1H1H1H1H14242k2Y2Y2S1E2J181c2N1Q1c1m1E1:1Q2Q2q0r0s0s0s0;1t0u0      ",
"    p001U1o0o0o0z0r162s1P2Z2:1E1m1c1O1O1D181J1j233g2g233n0k2k2k2k2k2k2Y2Y2S1E2E2I18181D1O1O1c1m1E1:1Z2P2s162r1z0o0o0o0U101p0    ",
"    p0m0l0z0z0z0k0n0y0x0j0Q2Z2:1E1P1P1Q1O1D1c25273g2g23391S1S1S1S1S1E2E2I1I1J1J181c2D1O1Q1P1P1E1:1Z2Q2j0x0y0n0k0z0z0z0l0m0l0    ",
"    i023i0p1p1p1p0i2y0n0x0j0Q2Q2W1E1m1P1Q1Q1N1h073g2g273y0J1J1I1I1J1J1J1J181c2c2D1N1Q1Q1P1m1E1W1Q2Q2j0x0n0y0i2p0p1p1p1i023p0    ",
"    i0U1p0p0p0p0X1b2y091n0x0j0P2Z2W1:1m1m1c1Q1g073g2g2W3f052525252525252626262Q1O1Q1c1m1m1:1W1Z2P2j0x0n091y0b2X1p0p0p0p0U1i0    ",
"    i0p0e0e0e0e0e22152j291T1x0s1s1Q2W1W1E1m1P1q073g2g271W3737373737373737373S3d0c1P1m1E1W1W1Q2s1s1x0T191j25221e2e0e0e0e0p0i0    ",
"    p1p1k0k0k0k0u2c06252j291T1T1j0s1Q2Z2W1:1E1c073g2g2g2g2g2g2g2g2g2g2g2g2g273a2E1E1:1W1Z2Q2s1j0T1T191j25262c0u2k0k0k0k0p1p1    ",
"    o0I323232323x2c0d06262y091n0T1j0s1P2Q2Z2W1b273g2g271W3737373737373737373P3c0W1W1Z2Q2P2s1j0T1n091y06262d0c0x223232323I3o0    ",
"    ;1;1m0m0m0m0o121q0g0h052y0j2n0T1x0j0s1P2Q2h273g2g2W3b02121212121212121b221Q2Q2Q2P2s1j0x0T1n0j2y052h0g0q021o1m0m0m0m0;1;1    ",
"    4193m0t0t0t041b2a2q0d0d062y0y091n0T1x0j0j0i273g2g273h2Z2Z2Z2Z2Z2Z2Z2Q2Q2P2P2s1s1j0x0T1n091y0y062d0d0q0a2b241t0t0t0m09341    ",
"    a04123010101Z011c0a2a2g0d0625252j2j2n0T1T1Y073g2g27311P2P2P2P2P2P2P2s1s1j0j0x0x0T1n0j2j2525262d0g0a2a2c011Z00101012341w1    ",
"    e1X0U1u0u0u0f1x0c021c0a2g0g0h0h052y0j29191W073g2g273V0j0j0j0j0j0j0x0x0x0T1T1n09191j2y052h0h0g0g0a2c021c0x0f1u0u0u0U1X0n1    ",
"    o1a0z0U0U0U0G1j1q0i2b2c0c0q0q0d0h06252y0y0T073g2g273W0T1T1T1T1T1T1n0n0n09191j2y0y05262h0d0q0q0c0c0b2i2q0j1G1U0U0U0z0a0o1    ",
"      X141G1J3J3J343q011i2b2b2c0a2q0g0d0h06262S0W3g2g273T0j2j29191j2j2j2j2y0y052526262h0d0g0q0a2c0b2b2i211q043J3J3J3G141X1      ",
"      H3o1C1C1C1C1u0i2h211i2i2b221c0a2a2g0g0d0R0W3g2g2W3S052525252525252526262h0d0d0g0g0a2a2c021b2i2i211h2i2u0C1C1C1C1o1H3      ",
"      T2v163f1f1f1A1Z1a2W0Y011i2h2b221c0a2a2q0f0W3g2g2W3R0h0h0h0h0h0h0h0d0d0g0g0g0q0a2a2c021b2h2i211Y0W0a2Z1A1f1f1f163v1T2      ",
"        82B3B1Q0Q0Q0X121Y0P0Y0V011i2h2b22121c0O0W3g2g2W3f0g0g0g0g0g0g0g0q0q0a2a2c0c02121b2h2i211V0Y0P0Y021X1Q0Q0Q0B1B382        ",
"        T2S2A1A1A1A1N0Q1c0T0P0W0Y0V011i2i2h2b2M0W3g2g2W3O0c0a2a2a2a2c0c0c0c02121b2b2h2i2i211V0Y0W0P0T0c0Q1N0A1A1A1A1S2T2        ",
"        v2f2p1L0L0L0L0X0b2P0K0T0P0W0W0V0V011i2b0W3g2g2W3M0b221212121b2b2b2b2h2h2i2i211V0V0W0W0P0T0K0P0b2X0L0L0L0L0p1f2w2        ",
"          x2f2M1J0J0J0I032q0H0S0K0T0P0W0W0Y0V0G0N3W3W3N3b0i2i2i2i2i2i2i2i2111111V0V0Y0W0W0P0T0K0S0H0q032I0J0J0J0M1f2x2          ",
"          43w2p1M1M1M1M1A152b2F0H0S0K0T0T0P0P0W0E0E0G0G0V0V0V0V0V0V0V0V0Y0Y0Y0W0W0P0P0T0T0K0S0H0F0b252A1M1M1M1M1p1w243          ",
"            1343M1y2y2y2y2o0h2V0F0R0H0H0S0S0K0T0T0P0P0P0P0W0W0W0W0W0W0P0P0P0P0T0T0K0S0S0H0H0R0F0V0h2o0y2y2y2y2M14313            ",
"            D0:3n1C0I0I0I0g1S2b2P0O0F0F0R0H0H0H0S0S0K0K0K0T0T0T0T0T0T0K0K0K0S0S0H0H0H0R0F0F0O0P0b2S2g1I0I0I0C0n1:3D0            ",
"              A3D023g1g1g1g1q131b2Y0B0O0f0f0F0R0R0R0H0H0H0H0H0S0S0H0H0H0H0H0R0R0R0F0f0f0O0B0Y0b231q1g1g1g1g123D0A3              ",
"                D0A0L0;0;0;0;0I2e2h2h2:0B0B0O0O0f0f0f0F0F0F0F0F0F0F0F0F0F0f0f0f0O0O0B0B0:0h2h2e2I2;0;0;0;0L0A0D0                ",
"                r0A0F3g1G2q1q1q1I2p052q0F0b0:0:0B0B0B0O0O0O0O0O0O0O0O0O0O0B0B0B0:0:0b0F0q052p0I2q1q1q1G2g1F3A0r0                ",
"                  r0s2;3q1U2U2U2U2U2:202b2i2B090b0M0M0M0:0:0:0:0:0:0:0:0M0M0M0b090B0i2b202:2U2U2U2U2U2q1;3s2r0                  ",
"                    R280A3q1x1x1x1x1x1p2p1N1c0h2R0G0G0909090b0b0b0b0909090G0G0R0h2c0N1p1p2x1x1x1x1x1q1A380R2                    ",
"                      r2R2s2y2K3K3K3K3K3K370m232i2q0i2K0f0b0G06060G0b0f0K0i2q0i232m270K3K3K3K3K3K3y2s2R2r2                      ",
"                        50403063g203030303030320U2u1M2s1V0b221a2a221b2V0s1M2u1U220030303030303g263304050                        ",
"                          t130d1t2K371p2p2p2p2p2p2p220z2g2f123o0o023f1g2z220p2p2p2p2p2p2p271K3t2d130t1                          ",
"                              d1q2d1o070g2g2g2g2g2g2g2g2g2g2g2g2g2g2g2g2g2g2g2g2g2g2g2g270o0d1q2d1                              ",
"                                K210J250o0g27020202020202020202020202020202020202070g2o050J210K2                                ",
"                                    L2V2K2l2F2w000z2o270707070707070707070o2z200w0F2l2K2V2L2                                    ",
"                                        N2L2L2N2W2D0F1t0C303z27373z203C3t0F1D0W2N2L2L2N2                                        ",
"                                              z1M2M2M2y1z1A2B2C2C2B2A2z1y1M2M2M2z1                                              ",
"                                                    C2A2A2A2z1W2W2z1A2A2A2C2                                                    ",
"                                                                                                                                ",
"                                                                                                                                "};
