/* XPM */
static char *image[] = {
"48 48 837 2",
"   c None",
"00 c #0b1930",
"10 c #0e1c32",
"20 c #03080f",
"30 c #0d1f39",
"40 c #06101e",
"50 c #5e8ad2",
"60 c #4874be",
"70 c #5884ce",
"80 c #060e1c",
"90 c #8bafeb",
":0 c #45221d",
";0 c #916d6b",
"A0 c #030911",
"B0 c #618dd5",
"C0 c #193159",
"D0 c #6691d8",
"E0 c #a5c3f4",
"F0 c #90b3ec",
"G0 c #98b9ef",
"H0 c #7fa5e5",
"I0 c #623d3a",
"J0 c #572b25",
"K0 c #4f6683",
"L0 c #4e6484",
"M0 c #516682",
"N0 c #4c617d",
"O0 c #3f5169",
"P0 c #152a4d",
"Q0 c #9fbff3",
"R0 c #6c96dc",
"S0 c #bdd4f7",
"T0 c #a9c6f4",
"U0 c #1a2a45",
"V0 c #526984",
"W0 c #5c7490",
"X0 c #5d7595",
"Y0 c #5f7797",
"Z0 c #5d748b",
"a0 c #5b6f87",
"b0 c #557299",
"c0 c #567498",
"d0 c #567395",
"e0 c #516c8f",
"f0 c #435977",
"g0 c #2a3e5c",
"h0 c #122648",
"i0 c #94b6ee",
"j0 c #7aa2e4",
"k0 c #adc9f5",
"l0 c #c6d9f9",
"m0 c #7aa1e0",
"n0 c #1a2d4a",
"o0 c #485e7a",
"p0 c #597496",
"q0 c #607ca0",
"r0 c #627fa4",
"s0 c #6381a6",
"t0 c #6482a8",
"u0 c #627e9e",
"v0 c #4b596d",
"w0 c #9a7b78",
"x0 c #495d79",
"y0 c #4a6483",
"z0 c #384b62",
"01 c #b0caf6",
"11 c #acc7f5",
"21 c #a6c4f2",
"31 c #92b4ed",
"41 c #132544",
"51 c #35455a",
"61 c #4b627f",
"71 c #546d8e",
"81 c #567090",
"91 c #597493",
":1 c #5d799a",
";1 c #617fa1",
"A1 c #647fa4",
"B1 c #6e8db4",
"C1 c #4c5d6c",
"D1 c #9c5c56",
"E1 c #567294",
"F1 c #56739a",
"G1 c #567196",
"H1 c #536e8f",
"I1 c #475f7b",
"J1 c #334458",
"K1 c #32538a",
"L1 c #4c78c2",
"M1 c #bcd3f6",
"N1 c #c8dbf8",
"O1 c #1d3761",
"P1 c #475d7b",
"Q1 c #3e5169",
"R1 c #3f536e",
"S1 c #3e5c8d",
"T1 c #283545",
"U1 c #49607d",
"V1 c #56718f",
"W1 c #607ea2",
"X1 c #6b8ab2",
"Y1 c #a2b7ce",
"Z1 c #577395",
"a1 c #4e6786",
"b1 c #3c4f67",
"c1 c #222e3d",
"d1 c #98b9f0",
"e1 c #c3d9f8",
"f1 c #d0e0f9",
"g1 c #e0ecfc",
"h1 c #d8e5fb",
"i1 c #c3d8f7",
"j1 c #365890",
"k1 c #0d1d37",
"l1 c #2d4d83",
"m1 c #273d5e",
"n1 c #14294c",
"o1 c #5d89d1",
"p1 c #41546d",
"q1 c #577090",
"r1 c #6482a3",
"s1 c #90a8c5",
"t1 c #567192",
"u1 c #577497",
"v1 c #57759b",
"w1 c #526c90",
"x1 c #34455a",
"y1 c #80a6e6",
"z1 c #b4cef6",
"02 c #cddef9",
"12 c #d5e3f9",
"22 c #bdd2f7",
"32 c #1f3b69",
"42 c #010509",
"52 c #13284b",
"62 c #618cd3",
"72 c #42576e",
"82 c #5a7291",
"92 c #8c9fbd",
":2 c #4e6582",
";2 c #567094",
"A2 c #587598",
"B2 c #57749b",
"C2 c #58759c",
"D2 c #557095",
"E2 c #4c6484",
"F2 c #394d64",
"G2 c #6e97dc",
"H2 c #6f99df",
"I2 c #9cbbf0",
"J2 c #bfd5f7",
"K2 c #c3d8f8",
"L2 c #c3d7f7",
"M2 c #bad1f6",
"N2 c #c8daf9",
"O2 c #d3e3fa",
"P2 c #c5daf7",
"Q2 c #abc7f4",
"R2 c #89aeeb",
"S2 c #769fe2",
"T2 c #3c5f98",
"U2 c #83a9e7",
"V2 c #9abaf0",
"W2 c #81a7e7",
"X2 c #8fb2ed",
"Y2 c #6a94da",
"Z2 c #455970",
"a2 c #7d90a5",
"b2 c #4f6483",
"c2 c #577195",
"d2 c #536e93",
"e2 c #465c7a",
"f2 c #7da4e5",
"g2 c #a9c6f5",
"h2 c #bbd2f7",
"i2 c #b0cbf5",
"j2 c #bbd3f7",
"k2 c #d5e5fa",
"l2 c #e2ebfb",
"m2 c #e0eafb",
"n2 c #c8d9f8",
"o2 c #acc7f4",
"p2 c #97b8ef",
"q2 c #a3c1f3",
"r2 c #677889",
"s2 c #506682",
"t2 c #567298",
"u2 c #577297",
"v2 c #58769d",
"w2 c #536f97",
"x2 c #465d7c",
"y2 c #9cbcf2",
"z2 c #b3ccf6",
"03 c #c5dbf8",
"13 c #dbe9fb",
"23 c #e2edfc",
"33 c #dbe8fa",
"43 c #c4d9f8",
"53 c #acc8f5",
"63 c #b4cdf7",
"73 c #bcd3f8",
"83 c #a4c2f4",
"93 c #b8d2f8",
":3 c #516783",
";3 c #577399",
"A3 c #587398",
"B3 c #59759b",
"C3 c #5a789c",
"D3 c #59779d",
"E3 c #59779f",
"F3 c #5b79a1",
"G3 c #56749c",
"H3 c #4e698a",
"I3 c #3b4f68",
"J3 c #cddefb",
"K3 c #d4e3fc",
"L3 c #c8dcfa",
"M3 c #b2cdf6",
"N3 c #ccddf9",
"O3 c #d7e6fa",
"P3 c #deeafc",
"Q3 c #cfdff9",
"R3 c #c4d8f8",
"S3 c #bed4f7",
"T3 c #b8d0f6",
"U3 c #b7d0f6",
"V3 c #bdd3f8",
"W3 c #d0e0fb",
"X3 c #c7dbfa",
"Y3 c #ccdffb",
"Z3 c #68788a",
"a3 c #516885",
"b3 c #597499",
"c3 c #597699",
"d3 c #59779b",
"e3 c #59769d",
"f3 c #5b789d",
"g3 c #5b799f",
"h3 c #5a78a0",
"i3 c #5c7ba2",
"j3 c #5a7aa2",
"k3 c #56749a",
"l3 c #3a4e66",
"m3 c #d6e5fc",
"n3 c #5c88d0",
"o3 c #060e19",
"p3 c #6b95db",
"q3 c #b1ccf6",
"r3 c #d5e3fa",
"s3 c #d2e1fa",
"t3 c #d8e5fa",
"u3 c #d6e5fa",
"v3 c #cadcf9",
"w3 c #ccdefa",
"x3 c #c9ddfa",
"y3 c #475c72",
"z3 c #7d8fa8",
"04 c #536985",
"14 c #58749a",
"24 c #57769d",
"34 c #59789f",
"44 c #5877a0",
"54 c #5a79a0",
"64 c #5b7aa1",
"74 c #5a7ba4",
"84 c #5c7ca4",
"94 c #5d7ca2",
":4 c #5979a0",
";4 c #577599",
"A4 c #4c6686",
"B4 c #3b4e66",
"C4 c #c2d7fa",
"D4 c #19325b",
"E4 c #2e3e52",
"F4 c #08111d",
"G4 c #3a5d94",
"H4 c #4b77c1",
"I4 c #b1caf5",
"J4 c #bdd4f6",
"K4 c #d4e4f9",
"L4 c #e4edfc",
"M4 c #dbe8fb",
"N4 c #ccddf8",
"O4 c #c9dcf9",
"P4 c #c5daf9",
"Q4 c #c3d7f9",
"R4 c #43566b",
"S4 c #5e7793",
"T4 c #91a6be",
"U4 c #546886",
"V4 c #59769b",
"W4 c #58759b",
"X4 c #587498",
"Y4 c #526d92",
"Z4 c #526e91",
"a4 c #536e92",
"b4 c #516d94",
"c4 c #537095",
"d4 c #547098",
"e4 c #56749d",
"f4 c #5979a1",
"g4 c #5a7ba3",
"h4 c #5a789e",
"i4 c #587396",
"j4 c #547194",
"k4 c #546d8d",
"l4 c #4b627d",
"m4 c #3c4f64",
"n4 c #33548b",
"o4 c #3e5066",
"p4 c #445970",
"q4 c #364759",
"r4 c #0b172b",
"s4 c #95b7ef",
"t4 c #aec8f5",
"u4 c #c6d9f7",
"v4 c #d2e2f9",
"w4 c #d9e7fc",
"x4 c #d0e1fa",
"y4 c #bbd3f6",
"z4 c #b6cef6",
"05 c #b3cbf6",
"15 c #2b3847",
"25 c #4f647c",
"35 c #6783a3",
"45 c #94acc7",
"55 c #556987",
"65 c #58769e",
"75 c #58759a",
"85 c #516b8f",
"95 c #475f7c",
":5 c #405671",
";5 c #3d526e",
"A5 c #3e526d",
"B5 c #3e536e",
"C5 c #405570",
"D5 c #435a7a",
"E5 c #4c6689",
"F5 c #567398",
"G5 c #58769c",
"H5 c #506b8e",
"I5 c #48607d",
"J5 c #445973",
"K5 c #425670",
"L5 c #415670",
"M5 c #41556b",
"N5 c #3d5067",
"O5 c #3f5068",
"P5 c #516985",
"Q5 c #4c637f",
"R5 c #36475a",
"S5 c #102544",
"T5 c #315187",
"U5 c #88adea",
"V5 c #b9d1f6",
"W5 c #c6daf8",
"X5 c #d1e1f9",
"Y5 c #d1e2f9",
"Z5 c #b7cff6",
"a5 c #adc8f5",
"b5 c #4265a0",
"c5 c #03070d",
"d5 c #2a4a7e",
"e5 c #071121",
"f5 c #465a70",
"g5 c #627d9b",
"h5 c #93aac4",
"i5 c #556a89",
"j5 c #5a799f",
"k5 c #567397",
"l5 c #47607f",
"m5 c #3a2e27",
"n5 c #50698d",
"o5 c #587599",
"p5 c #526d8f",
"q5 c #2b384a",
"r5 c #4b617b",
"s5 c #546e8a",
"t5 c #0b1b33",
"u5 c #6993d9",
"v5 c #aac7f4",
"w5 c #bed5f7",
"x5 c #c5d9f8",
"y5 c #c7daf9",
"z5 c #bbd1f7",
"06 c #a8c5f4",
"16 c #6792d9",
"26 c #658fd5",
"36 c #556d87",
"46 c #8ba1bb",
"56 c #5b7aa3",
"66 c #557295",
"76 c #415773",
"86 c #fac96a",
"96 c #755534",
":6 c #4a6381",
";6 c #526e93",
"A6 c #4a617d",
"B6 c #825f35",
"C6 c #f3ac3b",
"D6 c #f5ae3f",
"E6 c #f5b147",
"F6 c #fbd98f",
"G6 c #475d75",
"H6 c #536b87",
"I6 c #010305",
"J6 c #2c4c82",
"K6 c #759ee1",
"L6 c #a4c1f3",
"M6 c #b5cef5",
"N6 c #c0d6f8",
"O6 c #c4d8f9",
"P6 c #b5cef7",
"Q6 c #a1c0f3",
"R6 c #84aae8",
"S6 c #446db0",
"T6 c #485c72",
"U6 c #8398b0",
"V6 c #586d8a",
"W6 c #5b7ba3",
"X6 c #567295",
"Y6 c #42576f",
"Z6 c #f3ac3d",
"a6 c #facf7c",
"b6 c #3d3025",
"c6 c #425771",
"d6 c #4a617f",
"e6 c #415064",
"f6 c #482f18",
"g6 c #fac76e",
"h6 c #fad482",
"i6 c #fce7b4",
"j6 c #465c73",
"k6 c #57718d",
"l6 c #abc7f5",
"m6 c #bdd5f9",
"n6 c #b3cdf7",
"o6 c #c1d7fa",
"p6 c #c0d6fa",
"q6 c #dce9fc",
"r6 c #7ca3e4",
"s6 c #b7cff7",
"t6 c #bcd2f8",
"u6 c #a6c3f4",
"v6 c #bad1f8",
"w6 c #507dc8",
"x6 c #4366a1",
"y6 c #445972",
"z6 c #7f93ab",
"07 c #5a7391",
"17 c #5d78a1",
"27 c #556f95",
"37 c #41556e",
"47 c #fad380",
"57 c #fcde9d",
"67 c #fce4a9",
"77 c #f6bb51",
"87 c #3f2a19",
"97 c #6c695b",
":7 c #43505d",
";7 c #584735",
"A7 c #472e17",
"B7 c #fcda91",
"C7 c #fce1a5",
"D7 c #fce2a5",
"E7 c #475b73",
"F7 c #5c7796",
"G7 c #59728e",
"H7 c #44576f",
"I7 c #cfe1fb",
"J7 c #c6dafa",
"K7 c #d8e6fc",
"L7 c #34568e",
"M7 c #d3e3fb",
"N7 c #aec9f6",
"O7 c #09172d",
"P7 c #50667e",
"Q7 c #869bb4",
"R7 c #526880",
"S7 c #577294",
"T7 c #4e6889",
"U7 c #3c4f65",
"V7 c #f6b348",
"W7 c #fce4a8",
"X7 c #fde9ba",
"Y7 c #fad689",
"Z7 c #5d3f21",
"a7 c #342010",
"b7 c #5b4227",
"c7 c #080402",
"d7 c #b47020",
"e7 c #facc73",
"f7 c #fde3aa",
"g7 c #fcefd0",
"h7 c #42556b",
"i7 c #577290",
"j7 c #5c7897",
"k7 c #546d89",
"l7 c #dae8fc",
"m7 c #2d3a49",
"n7 c #c4dafa",
"o7 c #e6effc",
"p7 c #739ce1",
"q7 c #091629",
"r7 c #495d74",
"s7 c #627c9a",
"t7 c #90a7c1",
"u7 c #425163",
"v7 c #41556f",
"w7 c #3b4d64",
"x7 c #2c3a4b",
"y7 c #fdebbd",
"z7 c #fdebbf",
"08 c #fce5ac",
"18 c #a46522",
"28 c #634425",
"38 c #fcd68d",
"48 c #fde7b6",
"58 c #fce8b5",
"68 c #fcedca",
"78 c #313f4f",
"88 c #42566c",
"98 c #495f78",
":8 c #4d657f",
";8 c #4d657e",
"A8 c #415469",
"B8 c #ebf2fd",
"C8 c #41556a",
"D8 c #44586e",
"E8 c #081224",
"F8 c #0a1930",
"G8 c #09162b",
"H8 c #465b72",
"I8 c #617b99",
"J8 c #6f8daf",
"K8 c #97aeca",
"L8 c #5e4022",
"M8 c #1c1108",
"N8 c #1b1007",
"O8 c #f6ba52",
"P8 c #fce6b1",
"Q8 c #fad17a",
"R8 c #fce1a2",
"S8 c #5b5043",
"T8 c #455971",
"U8 c #4e667f",
"V8 c #455a71",
"W8 c #495e76",
"X8 c #5b7694",
"Y8 c #6380a1",
"Z8 c #536a83",
"a8 c #475b71",
"b8 c #435670",
"c8 c #4c637c",
"d8 c #5d7997",
"e8 c #6e8cae",
"f8 c #7595b8",
"g8 c #3c2512",
"h8 c #362110",
"i8 c #f1a835",
"j8 c #55371d",
"k8 c #fac364",
"l8 c #fdebc1",
"m8 c #fce9b7",
"n8 c #fce5aa",
"o8 c #fce3ac",
"p8 c #0d0703",
"q8 c #835625",
"r8 c #f5b145",
"s8 c #d9861b",
"t8 c #241b14",
"u8 c #504c48",
"v8 c #516680",
"w8 c #5c7590",
"x8 c #57708d",
"y8 c #58728e",
"z8 c #617d9d",
"09 c #708eb0",
"19 c #6e8cad",
"29 c #6986a7",
"39 c #637e9d",
"49 c #607b99",
"59 c #6581a1",
"69 c #6d8bad",
"79 c #7494b7",
"89 c #0e0804",
"99 c #e8901e",
":9 c #f7b54d",
";9 c #fad688",
"A9 c #fce8b7",
"B9 c #feefcb",
"C9 c #fef0cf",
"D9 c #fdf1cf",
"E9 c #fcedc7",
"F9 c #fceec8",
"G9 c #fdeecd",
"H9 c #fdefcb",
"I9 c #fceac0",
"J9 c #c3781f",
"K9 c #f6b74a",
"L9 c #ed9d2b",
"M9 c #4e627a",
"N9 c #64809f",
"O9 c #6887a9",
"P9 c #6d8db1",
"Q9 c #7191b4",
"R9 c #6f8eb1",
"S9 c #6c8cb0",
"T9 c #708fb2",
"U9 c #7291b5",
"V9 c #7797bb",
"W9 c #1f1209",
"X9 c #f5af41",
"Y9 c #facc72",
"Z9 c #fcdc96",
"a9 c #fcecc2",
"b9 c #fef1d1",
"c9 c #fdf2d7",
"d9 c #fce3ad",
"e9 c #fcdc98",
"f9 c #fcde9e",
"g9 c #4d6179",
"h9 c #6683a5",
"i9 c #7292b6",
"j9 c #211309",
"k9 c #fce4aa",
"l9 c #fdedc6",
"m9 c #fdeeca",
"n9 c #fdefcd",
"o9 c #fdefcc",
"p9 c #fdefce",
"q9 c #fdf0ce",
"r9 c #fdf0cf",
"s9 c #fdefc9",
"t9 c #fdf0d2",
"u9 c #fef1d3",
"v9 c #fdf0d0",
"w9 c #fce5af",
"x9 c #4c6178",
"y9 c #6881a3",
"z9 c #7190b2",
"0: c #7390b7",
"1: c #7696ba",
"2: c #100904",
"3: c #f8c460",
"4: c #ec9922",
"5: c #fcdfa0",
"6: c #fce2a2",
"7: c #fceabd",
"8: c #fce7b0",
"9: c #fce6b2",
":: c #fce4ac",
";: c #fce5b3",
"A: c #fdedc4",
"B: c #fdeec9",
"C: c #fdedc7",
"D: c #fce7b5",
"E: c #fac866",
"F: c #f5bc5b",
"G: c #291a0e",
"H: c #4c637d",
"I: c #6582a7",
"J: c #6e8fb3",
"K: c #7090b8",
"L: c #7193b9",
"M: c #7695b8",
"N: c #4a3018",
"O: c #442b16",
"P: c #f8bf5c",
"Q: c #996023",
"R: c #130a05",
"S: c #fceabc",
"T: c #fcecc3",
"U: c #fcedc6",
"V: c #fce5b2",
"W: c #fce3a8",
"X: c #fce6ae",
"Y: c #fdebbe",
"Z: c #fdecc0",
"a: c #2d1b0d",
"b: c #9f6323",
"c: c #fcebc2",
"d: c #f8be5a",
"e: c #271d16",
"f: c #5e5344",
"g: c #536c88",
"h: c #6986a6",
"i: c #718fb2",
"j: c #708fb6",
"k: c #7190b7",
"l: c #7493b6",
"m: c #604730",
"n: c #2a190c",
"o: c #29180b",
"p: c #faca6c",
"q: c #fce9b9",
"r: c #fdecc4",
"s: c #fcf0d2",
"t: c #fcf1d4",
"u: c #f6ba50",
"v: c #b87220",
"w: c #ea9822",
"x: c #fcd488",
"y: c #fce2a6",
"z: c #fdeabc",
"0; c #fdebc0",
"1; c #fce9bc",
"2; c #fcf3dc",
"3; c #24160a",
"4; c #231409",
"5; c #5d5145",
"6; c #495f77",
"7; c #5f7a99",
"8; c #6b88ae",
"9; c #6e8fb4",
":; c #7192b7",
";; c #7291b8",
"A; c #7292b2",
"B; c #728fb0",
"C; c #6d8ba9",
"D; c #8e9fb2",
"E; c #96625d",
"F; c #374251",
"G; c #3f5571",
"H; c #384c64",
"I; c #29364a",
"J; c #f8bd56",
"K; c #fcd88c",
"L; c #fce6af",
"M; c #fdecc1",
"N; c #fdefca",
"O; c #fcf3d6",
"P; c #f3ab39",
"Q; c #191514",
"R; c #6e522d",
"S; c #27190f",
"T; c #945e24",
"U; c #face78",
"V; c #fce6b0",
"W; c #fce3aa",
"X; c #fceabe",
"Y; c #303e4f",
"Z; c #41556c",
"a; c #4a6079",
"b; c #526a88",
"c; c #5e7a99",
"d; c #6987a9",
"e; c #6d8cb2",
"f; c #7290b2",
"g; c #718fb1",
"h; c #6b85a5",
"i; c #67322d",
"j; c #a36b65",
"k; c #536f94",
"l; c #4c6687",
"m; c #374a64",
"n; c #f7bb53",
"o; c #fcd58a",
"p; c #fce1a8",
"q; c #fce6b4",
"r; c #fceec7",
"s; c #fcecc6",
"t; c #593a1f",
"u; c #3c454e",
"v; c #3a4d64",
"w; c #3d464f",
"x; c #402814",
"y; c #f7b44b",
"z; c #fcdd9a",
"0A c #fce1a6",
"1A c #fce5ae",
"2A c #40536b",
"3A c #587391",
"4A c #627f9f",
"5A c #6683a7",
"6A c #6a89ac",
"7A c #6d8db0",
"8A c #6f8eb5",
"9A c #6f90b5",
":A c #7091b6",
";A c #7293b8",
"AA c #7393b7",
"BA c #7392b5",
"CA c #7291b4",
"DA c #6f8fb3",
"EA c #6f8faf",
"FA c #647c94",
"GA c #434f5d",
"HA c #6a332e",
"IA c #85413a",
"JA c #b5827e",
"KA c #435160",
"LA c #637283",
"MA c #fac568",
"NA c #fcde9c",
"OA c #fce8b8",
"PA c #fcf1d6",
"QA c #fcecc0",
"RA c #56381e",
"SA c #73859a",
"TA c #5d6c7d",
"UA c #301d0e",
"VA c #f8c05e",
"WA c #fce2a4",
"XA c #fcecc4",
"YA c #fcf1da",
"ZA c #657586",
"aA c #899eb8",
"bA c #95acc8",
"cA c #98b0cc",
"dA c #99b1cd",
"eA c #a6bbd2",
"fA c #9dabbd",
"gA c #363f4a",
"hA c #6b342f",
"iA c #87423b",
"jA c #af736d",
"kA c #ac716b",
"lA c #b18885",
"mA c #fcda92",
"nA c #fce7b6",
"oA c #fcedcc",
"pA c #fcf5e4",
"qA c #9b6123",
"rA c #8a5924",
"sA c #fcdb94",
"tA c #fce9ba",
"uA c #fcf0ce",
"vA c #fcf2d8",
"wA c #fcf5e6",
"xA c #fcf7ec",
"yA c #85605d",
"zA c #ba8682",
"0B c #c29592",
"1B c #27180b",
"2B c #050201",
"3B c #000000",
"                                                                                                ",
"                                                                                                ",
"                                                                                                ",
"                                                                                                ",
"                                                                                                ",
"                                                                                                ",
"  3B3B3B3B                                    3B3B3B3B3B3B3B2B      1B3B3B3B3B3B3B3B3B3B3B3B3B3B",
"3B0BzAzAyA3B3B3B3B3B3B3B3B3B3B3B3B3B3B3B3B3B3B3BxAwAvAuAtAsArA3B3B3BqAuApAvAoAnAmA3B3BlAkAjAyA3B",
"3BjAiAhAgAfAeAdAdAdAdAdAdAdAdAdAdAdAdAcAbAaAZA3BwAYAXAtAWAVAUATASATARAQAPAXAOANAMA3BLAKAJAIAHA3B",
"3BjAhAGAFAEADACABAAA;AAAAABA:A9A8A7A6A5A4A3A2A3BYAXA1A0Az;y;x;w;v;u;t;s;r;q;p;o;n;3Bm;l;k;j;i;3B",
"3ByAGAFAh;g;f;CAAAAA;AAAAABA:A9Ae;d;c;b;a;Z;Y;3BvAX;W;V;0AU;T;S;R;Q;P;O;N;M;L;K;J;3BI;H;G;F;E;3B",
"  3BD;C;B;A;CABAAAAA;;AA:;BA:A9;8;7;6;5;4;4;3;3B2;1;tA0;z:y:x:w:v:u:t:s:r:0;q:sAp:3Bo:n:o:m:3B3B",
"  3BdACAl:CABAAAAAAAAAAAk:BAj:i:h:g:f:e:d:c:b:a:PAtAZ:Y:Y:X:W:V:c:U:1;T:0;0;S:NAK;R:Q:V;P:O:N:  ",
"  3BdAM:M:AAAAAA;A;A;AL::;:;K:J:I:H:G:F:wAs:V:E:c:D:C:B:A:;:::X:9:9:8:X;0;0;7:6:5:4:3:U:WAy;2:  ",
"  3BdA1:1:;A;A;;:;:;:;AAAA0:BAz9y9x9o:c:s:OA1AV;1Aw9v9u9t9s9r9q9p9p9o9n9m9l9X;WAWAk9V:1AK;J;j9  ",
"  3BdA1:1:AAAAi9AAAAAAAAAABACAJ:h9g91BW:nAf9e95:0Ad9q9u9c9u9u9u9u9u9u9u9u9b9a96:f9z;NAZ9Y9X9W9  ",
"  3BdAV91:U9T9S9R9Q9i9BAz9P96AO9N9M9n:L9x:Y9K9J9WAp;I9H9G9r;F9r;E9E9m9D9C9B9A9NA;9:9VAMAy;9989  ",
"  3BdAV979695949392919096Az8y8x8w8v8u8t8s8r8q8p8k9o8OA0;z:n85:NANA5:n8m8M;l8L;mAk8o:j8i8s8h8g8  ",
"  3BdAf8e8d8c8b8a8Z8c;Y8X8W83B3BV8U8T8S84;W9j93B1;V:OAY:z:R8o;Q8Q8o;NAP8Y:Y:L;o;O83BN8M8M8L83B  ",
"  3BK8J8I8H8G8G8F8E8D8c8C83B3BB83BA8;8:89888783B68tA58Y:48383:v:2818MA08z7y708x:K93Bx7w7v7u73B  ",
"  3Bt7s7r7q7G8p7o7n7E8m73B3Bo7l7o73B88k7j7i7h73Bg71;V;z:f7e7d7c7b7a7Z7Y7y7X7W7;9V73BU7T7S7R73B  ",
"  3BQ7P7O7q7N7M7M7M7L73B3BK7J7l7J7I73BH7G7F7E73B68nAD7C7B7VAA7;7:79787779:675747r83B372717073B  ",
"  3Bz6y6x6w6v6u6t6s6r6F8q6p6o6n6m6l6m63B98k6j63Bi6NAx:h6g6K9f6e6d6c6b6y;z;o;a63:Z63BY6X6W6V63B  ",
"  3BU6T6G8S6R6u6Q6P6r6n7v6O6N6M6L6l6K6J6I6H6G63BF6E::9E6D6C6B6A6;6:696p:86O8r8C6C63B766656V63B  ",
"  3B4636E82626160606n6n6z5y5x5w5v5u5t5t5H8s5r53B3B3B3B3B3B3Bq5p5o5n5m53B3B3B3B3B3B3Bl5k5j5i53B  ",
"  3Bh5g5f5e5d5c5b5a5a5Z5Y5X5W5V5U5T5S5R5Q5P5G6O5N5M5L5K5J5I5H5G5j5F5E5D5C5B5A5;5:595857565553B  ",
"  3B453525153Bc505z4y4x4w4v4u4t4s4T5r4q4p4o4n43Bm4l4k4j4i4o5h4W6g4f4e4d4c4b4a4Z4Y4c4X4W4V4U43B  ",
"  3BT4S4R43B3BQ4P4O4N4M4L4K4J4I4N7H4G4F4E4D4C4I73BB4A4;4:494W6847474645444346524V4W4147514043B  ",
"  3Bz3y33B3BM7x3w3x5v3u3t3s3r3x5q3n7p3o3n3J7C4m3K73Bl3l;k3j3i3i3j3j36464h3g3f3e3V4d314c3b3a33B  ",
"  3BZ33B3BY3X3W3V3U3T3S3R3Q3P3O3N3M3L3K3I7I7C4J7t6J33BI3H3G3h3F35454g3g3E3D3C3B314c3b3A3;3:33B  ",
"  3B3B3B938373635306l6a5s64333231303z2n6n793N7a5t683y23Bx2w2v2E3E334f3D3e3B37514b314;3u2t2s23B  ",
"  3Br23Br683s4u6q2q2s4p206o2n2m2l2k2j2a5i2h2i2g2p2f2f23Be2d2W4e365D3C3B3B314c314A3;3t2c2c2b23B  ",
"  3Ba2Z23BY2X2W2V2U2T2S2R283Q2P2O2k2N2M2L2K2J2I2H2G23BF2E2D214B3C2V4d314B2b3A2;3t2t2c2;2;2:23B  ",
"  3B9282723B62W21652T24232p206l62212t302K2K2z1y1H23Bx1I5w1t21414B2v1c3b314;3u1t2c2c2;2t1t1:23B  ",
"  3Bs1r1q1p13Bo1n1n1m1l1k1j183i2i1h1g1f1e1h2v5d13Bc1b1a1;2A3b3b31475A2A3;3t2Z1c2;2;2t1t1t1:23B  ",
"  3BY1X1W1V1U1T1S1R1Q1P1k1O1i2K2K2N1v3M1z1a506L1K1G8J1I1H1G1A3A3;3F1;3u2t2c2E1;2t1t1t1t1t1:23B  ",
"3BD1C1B1A1;1:19181716151413121x5K2J21183u6u601S2S2P6G8z0y0d2t2;3;3t2t2c2c2;2t1t1t1t1t1t1t1x0w03B",
"3BiAD1v0u0t0s0r0q0p0o0n0u5m0l0R3J2k0y2j0i0q283s6L3l6h0g0f0e0d0c0b0Z1c2E1;2t1t1t1t1t1t1t1t10BhA3B",
"3BiAiAD1a0Z0Y0X0W0V0U0y1u5T0S0P6l6s4R0j0G8K683Q0d1u5u5P0O0N0M0:3s2L0K0L0:2:2:2:2:2:2:2:2zAiAhA3B",
"3BJ0J0J0I03B3B3B3B3B3B3BH0G0F0E0i0D0163BC0C0f2R6B0H2A03B3B3B3B3B3B3B3B3B3B3B3B3B3B3B3B;0J0J0:03B",
"  3B3B3B3B              3B2690S226D03B3B8070S660B0e5                                  3B3B3B3B  ",
"                          3Bo150503B      40303020                                              ",
"                            3Bo13B          1000                                                ",
"                              3B                                                                ",
"                                                                                                ",
"                                                                                                ",
"                                                                                                ",
"                                                                                                "};
