/* XPM */
static char *image[] = {
"48 48 391 2",
"   c None",
"00 c #383b3b",
"10 c #373a3a",
"20 c #484d4d",
"30 c #eff0ed",
"40 c #eef0ed",
"50 c #eeefec",
"60 c #edeeeb",
"70 c #eceeeb",
"80 c #eceeea",
"90 c #ebedea",
":0 c #eaece9",
";0 c #ebece9",
"A0 c #ecedea",
"B0 c #5e6262",
"C0 c #4b4f4f",
"D0 c #edeeec",
"E0 c #e1e4df",
"F0 c #e0e2dd",
"G0 c #e0e3dc",
"H0 c #ebede9",
"I0 c #616565",
"J0 c #4e5252",
"K0 c #eeefed",
"L0 c #e2e4e0",
"M0 c #e1e3dd",
"N0 c #e0e3de",
"O0 c #e0e3dd",
"P0 c #dfe2dc",
"Q0 c #dfe1dc",
"R0 c #dee1db",
"S0 c #dde0da",
"T0 c #dde0d9",
"U0 c #dcdfd9",
"V0 c #dbdfd8",
"W0 c #dbded8",
"X0 c #daded7",
"Y0 c #daddd7",
"Z0 c #d9ddd6",
"a0 c #d9dcd6",
"b0 c #d8dcd5",
"c0 c #d8dbd4",
"d0 c #d7dbd4",
"e0 c #d7dad3",
"f0 c #d6dad3",
"g0 c #d6d9d2",
"h0 c #d6d9d1",
"i0 c #d5d9d1",
"j0 c #d5d8d1",
"k0 c #d4d8d0",
"l0 c #d4d7d0",
"m0 c #d3d7cf",
"n0 c #edefeb",
"o0 c #636767",
"p0 c #f0f0f0",
"q0 c #525656",
"r0 c #eaebeb",
"s0 c #fefefd",
"t0 c #535857",
"u0 c #515555",
"v0 c #e4e5e5",
"w0 c #f6f7f6",
"x0 c #585b5b",
"y0 c #4b4e4d",
"z0 c #dcdddc",
"01 c #f4f4f4",
"11 c #f3f3f3",
"21 c #5a5d5c",
"31 c #444746",
"41 c #d3d3d3",
"51 c #efefef",
"61 c #f1f1f1",
"71 c #f2f2f2",
"81 c #eeeeee",
"91 c #dfdfdf",
":1 c #c9c8c7",
";1 c #b0a595",
"A1 c #615543",
"B1 c #48443e",
"C1 c #c4c5c2",
"D1 c #cdcdcc",
"E1 c #d4d4d2",
"F1 c #d1d2cf",
"G1 c #c3c3c1",
"H1 c #eeefee",
"I1 c #5a5e5b",
"J1 c #393c3c",
"K1 c #c9caca",
"L1 c #ececec",
"M1 c #ececeb",
"N1 c #ebebeb",
"O1 c #e2e2e2",
"P1 c #d6d6d5",
"Q1 c #b7b7b7",
"R1 c #bcab99",
"S1 c #cca372",
"T1 c #dba867",
"U1 c #e6b46a",
"V1 c #d3a15e",
"W1 c #0b0905",
"X1 c #8c806e",
"Y1 c #e9e9e8",
"Z1 c #575b59",
"a1 c #383c3a",
"b1 c #bebfbe",
"c1 c #e8e8e8",
"d1 c #dddddd",
"e1 c #d3d3d2",
"f1 c #cccccb",
"g1 c #c5c5c5",
"h1 c #c0c0c0",
"i1 c #bfa28a",
"j1 c #d57823",
"k1 c #e4ad60",
"l1 c #e9b872",
"m1 c #f1d19f",
"n1 c #f4e0be",
"o1 c #d7ab66",
"p1 c #eeebe7",
"q1 c #e3e3e2",
"r1 c #515554",
"s1 c #363a38",
"t1 c #b2b3b3",
"u1 c #e9e9e9",
"v1 c #adadac",
"w1 c #a7a8a6",
"x1 c #ababaa",
"y1 c #c8c8c8",
"z1 c #b0937b",
"02 c #cd620a",
"12 c #eebf82",
"22 c #f5e2c3",
"32 c #fbf3e7",
"42 c #eec899",
"52 c #dcb277",
"62 c #cfd0cc",
"72 c #c3c4c1",
"82 c #c2c3c1",
"92 c #c1c2c0",
":2 c #d0d1ce",
";2 c #c9c9c8",
"A2 c #494b4b",
"B2 c #343634",
"C2 c #a6a8a6",
"D2 c #e6e6e5",
"E2 c #e1e1e1",
"F2 c #dadada",
"G2 c #d4d4d3",
"H2 c #cfb299",
"I2 c #d0650d",
"J2 c #f2a748",
"K2 c #fdf2e1",
"L2 c #e8b36a",
"M2 c #f4e4d0",
"N2 c #cdcece",
"O2 c #434645",
"P2 c #969896",
"Q2 c #ededec",
"R2 c #e6e6e6",
"S2 c #e3e3e3",
"T2 c #e7e7e6",
"U2 c #e5c8b0",
"V2 c #f3c285",
"W2 c #e6ae64",
"X2 c #bdc0be",
"Y2 c #404341",
"Z2 c #868988",
"a2 c #fafafa",
"b2 c #eed1b8",
"c2 c #d1660e",
"d2 c #eb9e47",
"e2 c #d46c16",
"f2 c #efd1b4",
"g2 c #f9f9f8",
"h2 c #aeb0af",
"i2 c #3c3c3c",
"j2 c #797b7a",
"k2 c #edd0b8",
"l2 c #fdbd60",
"m2 c #eed4be",
"n2 c #fcfcfb",
"o2 c #9ea1a0",
"p2 c #6c6f6d",
"q2 c #eccfb7",
"r2 c #d36912",
"s2 c #eed4bd",
"t2 c #f8f8f7",
"u2 c #f7f7f7",
"v2 c #dcdcda",
"w2 c #fdfdfc",
"x2 c #919291",
"y2 c #6c706d",
"z2 c #eccfb6",
"03 c #eb9e48",
"13 c #f19c30",
"23 c #fdbd61",
"33 c #848584",
"43 c #6f726f",
"53 c #f0d3bb",
"63 c #e29044",
"73 c #edd3bc",
"83 c #f6f6f6",
"93 c #787b77",
":3 c #886c50",
";3 c #d1650d",
"A3 c #ecd2bb",
"B3 c #d2d2d0",
"C3 c #d1d1d0",
"D3 c #cccdc9",
"E3 c #d0d0ce",
"F3 c #cbccc7",
"G3 c #cecfcd",
"H3 c #e1e1df",
"I3 c #747673",
"J3 c #cc5f07",
"K3 c #eb9f49",
"L3 c #f3af59",
"M3 c #d26810",
"N3 c #ebd1bb",
"O3 c #f5f5f3",
"P3 c #767976",
"Q3 c #cd5e03",
"R3 c #c3aa92",
"S3 c #c0c1bf",
"T3 c #cbccc9",
"U3 c #d1d1cf",
"V3 c #c0c1be",
"W3 c #cbccc8",
"X3 c #cfd0cd",
"Y3 c #bfc0be",
"Z3 c #e7e7e5",
"a3 c #777977",
"b3 c #e28f43",
"c3 c #fdbe62",
"d3 c #ebd1b9",
"e3 c #f4f4f2",
"f3 c #767875",
"g3 c #cf5f03",
"h3 c #eb9f4a",
"i3 c #ead0b9",
"j3 c #f3f3f2",
"k3 c #f3f3f1",
"l3 c #f4f4f3",
"m3 c #ededed",
"n3 c #727370",
"o3 c #bb6b28",
"p3 c #e28f42",
"q3 c #fdbe63",
"r3 c #f3ae58",
"s3 c #d16710",
"t3 c #f2f2f1",
"u3 c #cfcfce",
"v3 c #cacbc7",
"w3 c #cfcfcd",
"x3 c #c9cac6",
"y3 c #cfcfcc",
"z3 c #bebfbd",
"04 c #c9cac5",
"14 c #c2c3c0",
"24 c #e6e7e6",
"34 c #6d6e6a",
"44 c #898983",
"54 c #bf8d5c",
"64 c #eba04b",
"74 c #fbad3e",
"84 c #d26811",
"94 c #e9cfb8",
":4 c #f2f2f0",
";4 c #f1f1f0",
"A4 c #646663",
"B4 c #af6c4e",
"C4 c #8c8a83",
"D4 c #8f8f8b",
"E4 c #b1936e",
"F4 c #f19c31",
"G4 c #fbae3f",
"H4 c #cf650e",
"I4 c #efd5bf",
"J4 c #f1f1ef",
"K4 c #cecfcb",
"L4 c #bfc0bd",
"M4 c #cdcecb",
"N4 c #c7c7c5",
"O4 c #cccdca",
"P4 c #bebfbc",
"Q4 c #bdbebc",
"R4 c #bdbebb",
"S4 c #c6c6c3",
"T4 c #ededeb",
"U4 c #d4d5d2",
"V4 c #656663",
"W4 c #8c8882",
"X4 c #999998",
"Y4 c #8d8c84",
"Z4 c #d9a354",
"a4 c #fdbf64",
"b4 c #f3ae57",
"c4 c #cd6005",
"d4 c #b79e84",
"e4 c #fbfbfb",
"f4 c #f0f0ef",
"g4 c #cacac8",
"h4 c #ea3029",
"i4 c #8c8883",
"j4 c #7a7a7a",
"k4 c #a0a0a0",
"l4 c #c3c3c2",
"m4 c #98978f",
"n4 c #9a9385",
"o4 c #9a856c",
"p4 c #99734f",
"q4 c #a7a8a3",
"r4 c #efefee",
"s4 c #eeeeed",
"t4 c #bfc1be",
"u4 c #e93028",
"v4 c #d95c5b",
"w4 c #a87a77",
"x4 c #938d89",
"y4 c #d4d4d4",
"z4 c #e0e0e0",
"05 c #8e8e88",
"15 c #98846f",
"25 c #9b9c99",
"35 c #fdfdfd",
"45 c #fafaf9",
"55 c #f5f5f5",
"65 c #efefed",
"75 c #f9f9f9",
"85 c #fbfbfa",
"95 c #b3b4b1",
":5 c #ee2c2b",
";5 c #de8e8e",
"A5 c #d38787",
"B5 c #9f807c",
"C5 c #a09995",
"D5 c #c1c2bf",
"E5 c #98928d",
"F5 c #998471",
"G5 c #8e908b",
"H5 c #f6f6f5",
"I5 c #c1c1c0",
"J5 c #626460",
"K5 c #afb0ae",
"L5 c #f0f0ee",
"M5 c #fcfcfc",
"N5 c #a5a5a2",
"O5 c #f02c2c",
"P5 c #f09696",
"Q5 c #e09191",
"R5 c #ce8080",
"S5 c #b36b6a",
"T5 c #b26764",
"U5 c #aa7265",
"V5 c #8a8b87",
"W5 c #f7f7f6",
"X5 c #f5f5f4",
"Y5 c #8e8f8c",
"Z5 c #b5b8b2",
"a5 c #7f817e",
"b5 c #eeeeec",
"c5 c #fefefe",
"d5 c #969893",
"e5 c #f02e2e",
"f5 c #ee3f3f",
"g5 c #e37272",
"h5 c #d86161",
"i5 c #ea302c",
"j5 c #e33a1e",
"k5 c #8d908a",
"l5 c #dedfdd",
"m5 c #ffffff",
"n5 c #9b9c9a",
"o5 c #e8e9e6",
"p5 c #9b9d9a",
"q5 c #f8f8f8",
"r5 c #e9eae8",
"s5 c #8e8f8b",
"t5 c #ed3030",
"u5 c #eb2f2d",
"v5 c #8e8f8a",
"w5 c #898b86",
"x5 c #b4b5b3",
"y5 c #f3f4f3",
"z5 c #d1d2d1",
"06 c #8b8c88",
"16 c #8d908b",
"26 c #c6c8c5",
"36 c #d5d7d2",
"46 c #d1d2d0",
"56 c #a9aaa8",
"                                                                                                ",
"                                                                                                ",
"                                                                                                ",
"                                                                                                ",
"                                                                                                ",
"                  56      56      56      56      56      56      56                            ",
"                463626  463626  463626  463626  463626  463626  463626                          ",
"            1606z5y5x506z5y5x506z5y5x506z5y5x506z5y5x506z5y5x506z5y5x5w5v5              u5t5    ",
"          s5r5q5p5o5n5q5p5o5n5q5p5o5n5q5p5o5n5q5p5o5n5q5p5o5n5q5p5o5n5m5l5k5        j5i5h5g5f5e5",
"          d5c5b5a5Z5Y5X5a5Z5Y5X5a5Z5Y5X5a5Z5Y5X5a5Z5Y5X5a5Z5Y5X5a5Z5Y5W5c5V5      U5T5S5R5Q5P5O5",
"          N5M5L5K5J5I5W5K5J5I5W5K5J5I5W5K5J5I5W5K5J5I5W5K5J5I5W5K5J5I5H5c5G5    F5E5D5C5B5A5;5:5",
"          9585b5X5757565X5757565X5757565557545L5H57545L5H57545L5H57545L53525  1505z4M5y4x4w4v4u4",
"          t445b5b5b5b5b5b5b5b5b5s46565656565r4r4r4L5L5L5L5L5L5L5L5L5L5r4M5q4p4o4n4m4l4k4j4i4h4  ",
"          g4q5b5b5b5b5b5b565656565r4r4L5L5L5L5L5L5f4f4f4f4f4f4f4f4f4f4L5e4d4c4b4a4Z4Y4j4X4W4    ",
"        V4U4W5T4S4R4Q4P4P4O4s4N4M465N4M4N4L4L4L4K4J4L5N4K4L5N4L4L4L4K4J4I4H4b4a4G4F4E4D4C4B4    ",
"        A4l5H5b5s4656565r4L5L5L5f4J4J4J4J4;4;4;4:4:4:4:4:4:4:4:4:4:4:49484b4a474F4645444        ",
"        3424X5T414O4L504P4z3y3J4x3w3;4v3L4L4u3t3t3t3t3t3t3t3t3t3t3t394s3r3q374F464p3o3          ",
"        n3m3l365L5L5L5f4J4J4;4;4:4:4t3t3t3k3k3k3j3j3j3j3j3j3j3j3j3i3s3r3q374F4h3p3g3            ",
"        f3y5j3L5L5f4J4J4;4;4:4:4t3t3k3k3j3j3j3j3e3e3e3l3l3l3l3l3d3s3r3c374F4h3b3g3              ",
"        a3q5k3Z3L4L4L4L4L4Y3Y3X3k3j3W3V3V3U3T3U3l3T3S3U3l3T3S3R3H4r3c374F4h3b3Q3                ",
"        P3M5t3J4J4;4:4:4t3k3k3j3j3e3l3l3l3l3O3X5X5X5X5X5X5X5N3M3L3c374F4K3b3J3                  ",
"        I3c5;4H3L4L4G3t3F3E3j3W3S3S3U3D3C3X5X5D3B3H5H5H5H5A384L3c374F4K3b3;3:3                  ",
"        93c5;4:4:4t3k3j3j3e3l3l3l3X5X5X5X5H5H5H5H5H5H5837384L3c374F4K363;35343                  ",
"        3335:4:4t3k3j3j3e3l3l3X5X5X5H5H5H5H5W5W5W5W5W57384L32374130363;3z2c5y2                  ",
"        x2w2:4v2V3X3j3T3U3D3D5D5B3H5O4B3W5W5W5W5u2t2s2r2L32374130363;3q2W5m5p2                  ",
"        o2n2t3k3j3j3l3l3O3X5X5H5H5H5W5W5W5u2t2t2t2m2r2L3l274130363;3k2t2t2c5j2                  ",
"      i2h285k3j3j3l3l3O3X5X5H5H583W5W5u2t2t2q5g2f2e2L3l27413d263c2b2g2X5j3a2Z2                  ",
"      Y2X245j3j3e3l3O3X5X5H5H5W5W5W5t2t2q5g2g275W2V2c37413d263c2U2T2S2R2Q2t2P2                  ",
"      O2N2g2j3e3l3l3X5X5H5H5W5W5W5t2t2q5g2g275M2L2c5K2J2d263I2H2G2F2E2D2s4u2C2B2                ",
"      A2F2q5t3;2:2X5D3D592B3W5W5K4828272G2456252423222126302z1y1x1w1v1S3u183t1s1                ",
"      r1q1u2e3l3l3X5X5H5H5W5W5u2t2q5g2754545p1o1n1m1l1k1j1i1h1g1f1e1d1c1s4q5b1a1                ",
"      Z1Y183e3l3O3X5X5H5H5W5W5t2t2g2g27545a2X1W1V1U1T1S1R1Q1g1P1O1N1M1L1m3X5K1J1                ",
"      I1H155f4G1D5D5F1H5O414828282E175g2D1C1B1A1;1:1G291c181716161f451r451X54131                ",
"      2111X5l3l3X5X5H5H5W5W5u2t2q5g27545a285e4n2e4a2a27575q5u2u25555010101u2z0y0                ",
"      x0w0l3l3l3X5X5H5H5W5W5u2t2q5g27545a285e4n2M5M53535c5c53535M5M5e4e4a2e4v0u0                ",
"      t0a2j3l3l3X5X5H5H5W5W5u2t2q5g27545a285e4e4M5M5w23535s0353535w2M5n2e4n2r0q0                ",
"      x085j3e3l3O3X5X5H5H5W5W5t2t2g2g27545a285e4n2M5M5w2353535w2M5M5M5e4e485p0r1                ",
"      o0n0m0m0m0m0l0k0j0i0h0i0g0f0e0d0c0b0a0Z0Y0X0W0V0U0T0S0R0R0Q0P0O0N0M0L0K0J0                ",
"      I0H0m0m0m0m0l0k0j0i0j0i0g0f0e0d0c0b0a0Z0Y0X0W0V0U0T0S0R0R0P0P0G0O0F0E0D0C0                ",
"      B0A0H0;0;0:0;0H0;0H0;0H0H090H090A0807080707060n0n0505050504050404030407020                ",
"      10101010101010101010101010101010101010101010101010101010101010101010101000                ",
"                                                                                                ",
"                                                                                                ",
"                                                                                                ",
"                                                                                                ",
"                                                                                                ",
"                                                                                                ",
"                                                                                                "};
