/* XPM */
static char *image[] = {
"20 20 140 2",
"   c None",
"00 c #729fcd",
"10 c #a0bddb",
"20 c #b6cce2",
"30 c #b9cee5",
"40 c #bacfe6",
"50 c #b7cde3",
"60 c #8aaed5",
"70 c #7893ab",
"80 c #baab8a",
"90 c #d4a860",
":0 c #d4a65e",
";0 c #d5a760",
"A0 c #d7ad6a",
"B0 c #a19f90",
"C0 c #b3802e",
"D0 c #d7ac68",
"E0 c #eccf9f",
"F0 c #eac894",
"G0 c #d0a560",
"H0 c #b1853d",
"I0 c #8b8b84",
"J0 c #8c8e8a",
"K0 c #8c8d89",
"L0 c #d5a459",
"M0 c #ecca94",
"N0 c #ebc07e",
"O0 c #eabe7a",
"P0 c #eac07d",
"Q0 c #ecc689",
"R0 c #f0d3a4",
"S0 c #dcb069",
"T0 c #e5c89b",
"U0 c #fafaf9",
"V0 c #edeeeb",
"W0 c #bbbdba",
"X0 c #dcb06a",
"Y0 c #edca91",
"Z0 c #ecc384",
"a0 c #ecc68a",
"b0 c #edc78b",
"c0 c #ecc588",
"d0 c #edd0a1",
"e0 c #d3a358",
"f0 c #eef0ed",
"g0 c #daddd7",
"h0 c #e5e7e2",
"i0 c #dcb16e",
"j0 c #e9c388",
"k0 c #f0d2a4",
"l0 c #efd09e",
"m0 c #f2d6ab",
"n0 c #f1d2a3",
"o0 c #e6bd7c",
"p0 c #efd6ae",
"q0 c #ce9944",
"r0 c #fafafa",
"s0 c #ddb26f",
"t0 c #ddb068",
"u0 c #eecf9f",
"v0 c #e4bd7f",
"w0 c #eed1a4",
"x0 c #e9c68e",
"y0 c #d5a14f",
"z0 c #edd3a8",
"01 c #cd9842",
"11 c #d7a556",
"21 c #cf963c",
"31 c #eccfa2",
"41 c #ce963e",
"51 c #e4c189",
"61 c #dbad63",
"71 c #d09941",
"81 c #e3bc7c",
"91 c #d09c4a",
":1 c #b78029",
";1 c #c1882d",
"A1 c #e2be84",
"B1 c #ca9033",
"C1 c #daae68",
"D1 c #dbad65",
"E1 c #d19b45",
"F1 c #cf9c4a",
"G1 c #e7d3b1",
"H1 c #f6f7f5",
"I1 c #cbbea5",
"J1 c #dbb578",
"K1 c #dab579",
"L1 c #d09d4d",
"M1 c #dcaf69",
"N1 c #f6eee2",
"O1 c #e8eae7",
"P1 c #dbded8",
"Q1 c #d9dcd6",
"R1 c #e1e4df",
"S1 c #d8d8d7",
"T1 c #fdfdfd",
"U1 c #fcfdfc",
"V1 c #e8cfa7",
"W1 c #dbaf69",
"X1 c #d19c47",
"Y1 c #f7efe3",
"Z1 c #f2f3f1",
"a1 c #e7e9e5",
"b1 c #e8cfa9",
"c1 c #daac62",
"d1 c #d19a44",
"e1 c #f5eee1",
"f1 c #e1e3de",
"g1 c #e6e9e5",
"h1 c #e7e9e6",
"i1 c #e8eae6",
"j1 c #eee1cc",
"k1 c #d5a65c",
"l1 c #d8ae6a",
"m1 c #f3f0e8",
"n1 c #e4e6e2",
"o1 c #eaebe8",
"p1 c #d7d8d6",
"q1 c #f4f6f4",
"r1 c #f5f6f5",
"s1 c #f5f6f4",
"t1 c #f5f7f5",
"u1 c #d2d3d1",
"v1 c #888a85",
"w1 c #d8d8d6",
"x1 c #dfe2dd",
"y1 c #d9ddd6",
"z1 c #daddd6",
"02 c #e3e5e0",
"12 c #d3d3d2",
"22 c #d3d4d1",
"32 c #f4f5f3",
"42 c #f3f3f2",
"52 c #f3f4f2",
"62 c #cfd0cd",
"72 c #abada9",
"82 c #aeafac",
"92 c #b0b1ae",
":2 c #aaaca8",
"                                        ",
"      :292828282828282828282829272      ",
"      6252524242424242424242423222      ",
"      1202z1y1y1y1y1y1y1y1y1y1x1w1v1    ",
"      u1t1s1r1s1s1r1r1r1r1s1r1q1p1v1    ",
"      u1o1n1n1n1n1n1m1l1k1j1i1h1p1v1    ",
"      u1g1f1f1f1f1f1e1d1c1b1a1n1p1v1    ",
"      u132Z1Z1Z1Z1Z1Y1X1W1V1U1T1S1v1    ",
"      u1R1Q1Q1Q1P1O1N1X1M1L1K1J1I1v1    ",
"      u1t1s1r1r1H1G1F1E1D1C1B1A1;1:1    ",
"      u1o1n1n1n1s1918171615141312111    ",
"      u1g1f1f1f13201z0y0x0w0v0u0t0s0    ",
"      u132Z1Z1Z1r0q0p0o0n0m0l0k0j0i0    ",
"      u1h0g0g0g0f0e0d0c0c0b0a0Z0Y0X0    ",
"      W0V0s1s1s1U0T0S0R0Q0P0O0N0M0L0    ",
"        K0J0J0J0J0I0H0G0F0w0w0E0D0C0    ",
"                      B0A0;0:0908070    ",
"                      60504030201000    ",
"                                        ",
"                                        "};
