/* XPM */
static char *image[] = {
"48 48 616 2",
"   c None",
"00 c #0d110e",
"10 c #0b0e0b",
"20 c #090e0a",
"30 c #090f0d",
"40 c #0b0f0d",
"50 c #0c110d",
"60 c #0d130f",
"70 c #101813",
"80 c #0a110e",
"90 c #080b09",
":0 c #0e1210",
";0 c #080a09",
"A0 c #0a0e0b",
"B0 c #0f1611",
"C0 c #18221c",
"D0 c #1e2a22",
"E0 c #233228",
"F0 c #2a3830",
"G0 c #2c3931",
"H0 c #1c2f23",
"I0 c #162219",
"J0 c #161b17",
"K0 c #050605",
"L0 c #121915",
"M0 c #16221b",
"N0 c #212c25",
"O0 c #36433d",
"P0 c #415248",
"Q0 c #4b5e53",
"R0 c #52685b",
"S0 c #495b4f",
"T0 c #39493e",
"U0 c #2b3b32",
"V0 c #1f2722",
"W0 c #090d0a",
"X0 c #090c09",
"Y0 c #080c09",
"Z0 c #0a0d0b",
"a0 c #131a15",
"b0 c #0c100d",
"c0 c #18201b",
"d0 c #2f3c34",
"e0 c #46574b",
"f0 c #5d7261",
"g0 c #5a7565",
"h0 c #657d6c",
"i0 c #687c6e",
"j0 c #6d8776",
"k0 c #6f8d79",
"l0 c #36483e",
"m0 c #0b0d0c",
"n0 c #090c0a",
"o0 c #090d0b",
"p0 c #0b0e0d",
"q0 c #141b17",
"r0 c #0b0f0c",
"s0 c #131512",
"t0 c #282c27",
"u0 c #3b463d",
"v0 c #526456",
"w0 c #5a715f",
"x0 c #637d70",
"y0 c #647f6d",
"z0 c #698570",
"01 c #83aa93",
"11 c #51665b",
"21 c #0c0e0d",
"31 c #0c0e0c",
"41 c #0b0e0c",
"51 c #19201b",
"61 c #101411",
"71 c #121311",
"81 c #3f403e",
"91 c #64695f",
":1 c #40433d",
";1 c #1a1c19",
"A1 c #2f322c",
"B1 c #44564a",
"C1 c #55665b",
"D1 c #6f8773",
"E1 c #95b49a",
"F1 c #98b69d",
"G1 c #556858",
"H1 c #0a0c0b",
"I1 c #0c0f0d",
"J1 c #0d0f0d",
"K1 c #0e110e",
"L1 c #1c231f",
"M1 c #171d19",
"N1 c #3a3b39",
"O1 c #82857f",
"P1 c #aaaca6",
"Q1 c #9c9f98",
"R1 c #2f302d",
"S1 c #242621",
"T1 c #3c433a",
"U1 c #455047",
"V1 c #526358",
"W1 c #a4c5ac",
"X1 c #98b5a5",
"Y1 c #566b5b",
"Z1 c #0d100e",
"a1 c #1d2420",
"b1 c #222925",
"c1 c #111210",
"d1 c #40413e",
"e1 c #b2b4af",
"f1 c #373935",
"g1 c #4b4e47",
"h1 c #7a7e75",
"i1 c #444641",
"j1 c #1c1e1b",
"k1 c #4e594e",
"l1 c #829784",
"m1 c #5f7369",
"n1 c #0b0c0c",
"o1 c #0d0f0e",
"p1 c #0f1210",
"q1 c #1b201d",
"r1 c #29302b",
"s1 c #202320",
"t1 c #0e0f0d",
"u1 c #545552",
"v1 c #3b3c39",
"w1 c #393b37",
"x1 c #7c7f78",
"y1 c #cfd2cd",
"z1 c #848682",
"02 c #474a42",
"12 c #52554d",
"22 c #61655b",
"32 c #4a5b4e",
"42 c #0e0e0e",
"52 c #101310",
"62 c #111412",
"72 c #131714",
"82 c #2a322d",
"92 c #2b302c",
":2 c #161614",
";2 c #2e2f2d",
"A2 c #7d7e7c",
"B2 c #606060",
"C2 c #060606",
"D2 c #131412",
"E2 c #696c67",
"F2 c #b3b7b1",
"G2 c #b5b7b4",
"H2 c #373a35",
"I2 c #747770",
"J2 c #fdfefd",
"K2 c #a8ad9d",
"L2 c #535e56",
"M2 c #131514",
"N2 c #131613",
"O2 c #262c28",
"P2 c #333a35",
"Q2 c #141513",
"R2 c #282927",
"S2 c #6c6e6a",
"T2 c #acaeaa",
"U2 c #1a1b19",
"V2 c #262624",
"W2 c #2d2e2a",
"X2 c #8a8b86",
"Y2 c #333432",
"Z2 c #393c37",
"a2 c #e0e3dc",
"b2 c #71796f",
"c2 c #111312",
"d2 c #131513",
"e2 c #151816",
"f2 c #232825",
"g2 c #363e39",
"h2 c #313430",
"i2 c #3a3a39",
"j2 c #878887",
"k2 c #b9bab7",
"l2 c #393a38",
"m2 c #2c2d2b",
"n2 c #c9cbc7",
"o2 c #9d9e9a",
"p2 c #0c0c0c",
"q2 c #0f100e",
"r2 c #e9ebe5",
"s2 c #c9cec4",
"t2 c #5c665e",
"u2 c #0b0b0b",
"v2 c #0f1110",
"w2 c #121413",
"x2 c #131614",
"y2 c #1d201e",
"z2 c #39403b",
"03 c #3d433e",
"13 c #171816",
"23 c #3f3f3e",
"33 c #737570",
"43 c #2b2c2a",
"53 c #060605",
"63 c #161816",
"73 c #aeb0ac",
"83 c #c0c4bb",
"93 c #cbcdc7",
":3 c #20211f",
";3 c #51544c",
"A3 c #424440",
"B3 c #767974",
"C3 c #80877c",
"D3 c #151717",
"E3 c #3b433e",
"F3 c #404843",
"G3 c #323430",
"H3 c #2d2e2c",
"I3 c #888b84",
"J3 c #9ca098",
"K3 c #858782",
"L3 c #090908",
"M3 c #191a19",
"N3 c #7e807d",
"O3 c #d4d7d2",
"P3 c #343633",
"Q3 c #5f625b",
"R3 c #e0e2dc",
"S3 c #d3d6cd",
"T3 c #dddfd6",
"U3 c #6f776f",
"V3 c #0e0f0e",
"W3 c #171918",
"X3 c #383e3a",
"Y3 c #424a45",
"Z3 c #515a54",
"a3 c #50534e",
"b3 c #828480",
"c3 c #8f918b",
"d3 c #9fa29c",
"e3 c #3a3b38",
"f3 c #858681",
"g3 c #585955",
"h3 c #10110f",
"i3 c #979993",
"j3 c #c7cdc1",
"k3 c #f8faf8",
"l3 c #858b83",
"m3 c #060707",
"n3 c #0b0d0b",
"o3 c #181b19",
"p3 c #2d332f",
"q3 c #474f4a",
"r3 c #505853",
"s3 c #59625c",
"t3 c #80867f",
"u3 c #b7b9b4",
"v3 c #3f403f",
"w3 c #3f403d",
"x3 c #8b8e88",
"y3 c #aeb1aa",
"z3 c #a9aba5",
"04 c #3e3f3c",
"14 c #353632",
"24 c #939590",
"34 c #dfe1d8",
"44 c #7d867e",
"54 c #0c0d0d",
"64 c #1c1d1d",
"74 c #1f2220",
"84 c #4a524d",
"94 c #525a55",
":4 c #5f6862",
";4 c #5d6660",
"A4 c #5d6760",
"B4 c #5e6761",
"C4 c #545b55",
"D4 c #60635d",
"E4 c #a6aaa2",
"F4 c #b6b9b3",
"G4 c #ced0cb",
"H4 c #353633",
"I4 c #414240",
"J4 c #aaaea6",
"K4 c #9ea19b",
"L4 c #a7a8a2",
"M4 c #7b8079",
"N4 c #090909",
"O4 c #0b0c0b",
"P4 c #191c1a",
"Q4 c #1c1e1d",
"R4 c #3d433f",
"S4 c #505852",
"T4 c #606963",
"U4 c #646c67",
"V4 c #626a65",
"W4 c #68706b",
"X4 c #666f69",
"Y4 c #67706a",
"Z4 c #6e766f",
"a4 c #b2b6af",
"b4 c #979894",
"c4 c #383937",
"d4 c #969992",
"e4 c #c0c3ba",
"f4 c #e5e9e0",
"g4 c #cdd0c9",
"h4 c #8c938f",
"i4 c #0f0f0f",
"j4 c #111111",
"k4 c #222523",
"l4 c #2a2e2c",
"m4 c #575e59",
"n4 c #5c645f",
"o4 c #6a726c",
"p4 c #68706a",
"q4 c #6a736e",
"r4 c #6c7570",
"s4 c #717a75",
"t4 c #76817a",
"u4 c #6e7872",
"v4 c #666c65",
"w4 c #a6a9a2",
"x4 c #c7c9c4",
"y4 c #d6d9ce",
"z4 c #fafaf8",
"05 c #969c96",
"15 c #0c0d0c",
"25 c #1f2221",
"35 c #242725",
"45 c #4b514d",
"55 c #5a625c",
"65 c #6c756f",
"75 c #838b89",
"85 c #919a99",
"95 c #8a9290",
":5 c #757e79",
";5 c #707b73",
"A5 c #768079",
"B5 c #7d8780",
"C5 c #7e8882",
"D5 c #7e8880",
"E5 c #7e8881",
"F5 c #7f8a81",
"G5 c #9fa89c",
"H5 c #f3f5f0",
"I5 c #c7cec1",
"J5 c #101210",
"K5 c #141614",
"L5 c #272a28",
"M5 c #383b39",
"N5 c #5e6661",
"O5 c #656d68",
"P5 c #929a98",
"Q5 c #adb3b3",
"R5 c #b6bdbd",
"S5 c #bbc1c1",
"T5 c #8e9693",
"U5 c #77807b",
"V5 c #7b857e",
"W5 c #848f87",
"X5 c #94a097",
"Y5 c #92a097",
"Z5 c #93a198",
"a5 c #aeb7b0",
"b5 c #adb8b1",
"c5 c #0d0d0d",
"d5 c #101211",
"e5 c #212321",
"f5 c #2a2d2b",
"g5 c #5a615c",
"h5 c #646b66",
"i5 c #848c8a",
"j5 c #adb4b4",
"k5 c #b6bbbb",
"l5 c #b7bbbb",
"m5 c #aaaeae",
"n5 c #979d9b",
"o5 c #89928d",
"p5 c #919d94",
"q5 c #a1ada5",
"r5 c #b3beb7",
"s5 c #dfeae2",
"t5 c #b7c4ba",
"u5 c #151616",
"v5 c #2d2f2e",
"w5 c #4b504c",
"x5 c #69716a",
"y5 c #737b76",
"z5 c #99a0a0",
"06 c #a9afaf",
"16 c #b5baba",
"26 c #b9bebe",
"36 c #afb6b6",
"46 c #abb0b0",
"56 c #b3b8b8",
"66 c #b4bbbb",
"76 c #acb3b3",
"86 c #a0a7a7",
"96 c #8b9491",
":6 c #9eaaa1",
";6 c #d3dfd8",
"A6 c #c4cfc8",
"B6 c #080808",
"C6 c #0e100e",
"D6 c #202020",
"E6 c #353937",
"F6 c #6c736e",
"G6 c #6d756f",
"H6 c #8e9695",
"I6 c #9da5a5",
"J6 c #b1b6b6",
"K6 c #a5acac",
"L6 c #b1b7b7",
"M6 c #a9b0b0",
"N6 c #99a2a2",
"O6 c #7f8888",
"P6 c #595f5f",
"Q6 c #616a69",
"R6 c #d5e0da",
"S6 c #c0ccc4",
"T6 c #0f100f",
"U6 c #121312",
"V6 c #303431",
"W6 c #595f5b",
"X6 c #717974",
"Y6 c #808986",
"Z6 c #959c9c",
"a6 c #99a1a1",
"b6 c #a3aaaa",
"c6 c #a4abab",
"d6 c #a6abab",
"e6 c #9fa5a5",
"f6 c #a2a9a9",
"g6 c #858c8c",
"h6 c #787d7d",
"i6 c #434444",
"j6 c #5a6161",
"k6 c #c3cfc5",
"l6 c #101110",
"m6 c #181918",
"n6 c #373938",
"o6 c #707773",
"p6 c #767e79",
"q6 c #5d6463",
"r6 c #5b6262",
"s6 c #969d9d",
"t6 c #a1a7a7",
"u6 c #a7aeae",
"v6 c #9ea5a5",
"w6 c #8e9696",
"x6 c #868e8e",
"y6 c #878e8e",
"z6 c #4e5151",
"07 c #383939",
"17 c #99a4a1",
"27 c #d6e1d9",
"37 c #111211",
"47 c #212422",
"57 c #4d524f",
"67 c #79817c",
"77 c #88908a",
"87 c #4c5251",
"97 c #2a2d2d",
":7 c #3c4040",
";7 c #636969",
"A7 c #878f8f",
"B7 c #9aa0a0",
"C7 c #8a9494",
"D7 c #919999",
"E7 c #8b9393",
"F7 c #7a8282",
"G7 c #575c5c",
"H7 c #222424",
"I7 c #545959",
"J7 c #c4d0c9",
"K7 c #141414",
"L7 c #151615",
"M7 c #292d2b",
"N7 c #69706c",
"O7 c #7e8680",
"P7 c #959d97",
"Q7 c #959e98",
"R7 c #727b77",
"S7 c #222525",
"T7 c #444949",
"U7 c #697171",
"V7 c #848b8b",
"W7 c #808888",
"X7 c #787f7f",
"Y7 c #5a6262",
"Z7 c #272929",
"a7 c #1c1f1f",
"b7 c #afbab3",
"c7 c #121313",
"d7 c #151716",
"e7 c #3c3f3d",
"f7 c #828a84",
"g7 c #8d9590",
"h7 c #9aa29d",
"i7 c #97a09a",
"j7 c #616866",
"k7 c #252828",
"l7 c #2e3131",
"m7 c #444747",
"n7 c #596161",
"o7 c #575e5e",
"p7 c #2c2f2f",
"q7 c #151818",
"r7 c #7f8985",
"s7 c #181818",
"t7 c #1a1b1a",
"u7 c #565b58",
"v7 c #848c87",
"w7 c #9aa29c",
"x7 c #9da5a0",
"y7 c #a2a9a5",
"z7 c #a8afab",
"08 c #a0a7a3",
"18 c #939b96",
"28 c #5b615f",
"38 c #1f2222",
"48 c #161a1a",
"58 c #1d1f1f",
"68 c #090a0a",
"78 c #59605f",
"88 c #bcc6bf",
"98 c #191b19",
":8 c #1d1f1d",
";8 c #666c68",
"A8 c #8f9791",
"B8 c #a1aaa4",
"C8 c #a9b1ab",
"D8 c #b6bcb7",
"E8 c #929793",
"F8 c #9da39f",
"G8 c #828885",
"H8 c #a9b1ad",
"I8 c #858e8b",
"J8 c #424949",
"K8 c #535a58",
"L8 c #bec8c1",
"M8 c #1d1e1d",
"N8 c #282b29",
"O8 c #9ea7a1",
"P8 c #b4bcb7",
"Q8 c #595d5a",
"R8 c #383938",
"S8 c #212221",
"T8 c #5d615f",
"U8 c #5a5f5b",
"V8 c #9ea6a0",
"W8 c #d1dad3",
"X8 c #e5ebe7",
"Y8 c #d7e0db",
"Z8 c #c4cec7",
"a8 c #141514",
"b8 c #3d3f3e",
"c8 c #9ca59f",
"d8 c #a4ada7",
"e8 c #b5bdb7",
"f8 c #afb5b1",
"g8 c #6f7471",
"h8 c #9fa3a0",
"i8 c #414341",
"j8 c #e1e9e4",
"k8 c #eff2f0",
"l8 c #dfe6e1",
"m8 c #c7d2ca",
"n8 c #303131",
"o8 c #888f8a",
"p8 c #a7b0aa",
"q8 c #afb9b2",
"r8 c #b7c1bb",
"s8 c #7d847f",
"t8 c #5d625e",
"u8 c #5b5f5d",
"v8 c #414241",
"w8 c #adb3af",
"x8 c #f5f6f5",
"y8 c #edf2ee",
"z8 c #d2ddd6",
"09 c #a3aca6",
"19 c #aab3ad",
"29 c #abb4ae",
"39 c #b6beb8",
"49 c #cbd3ce",
"59 c #bdc4c0",
"69 c #929894",
"79 c #848986",
"89 c #e1e6e3",
"99 c #f7f9f7",
":9 c #ecf4ee",
";9 c #d8e2db",
"A9 c #979d99",
"B9 c #aeb7b1",
"C9 c #a0a6a2",
"D9 c #585b59",
"E9 c #adb5af",
"F9 c #cad4cd",
"G9 c #d7e1dc",
"H9 c #e2ece7",
"I9 c #f0f4f1",
"J9 c #ecf3ee",
"K9 c #dee5e1",
"L9 c #d0dbd3",
"M9 c #000000",
"N9 c #676b68",
"O9 c #b1bab4",
"P9 c #969b97",
"Q9 c #adb3ae",
"R9 c #c7d0c8",
"S9 c #2c2d2c",
"T9 c #b5beb8",
"U9 c #b3bcb6",
"V9 c #acb3ae",
"W9 c #b6bfb9",
"X9 c #bac0bb",
"Y9 c #bbc2bd",
"Z9 c #b7c0ba",
"a9 c #bcc3be",
"                                                                                                ",
"                                                                                                ",
"                                                                        a9Z9                    ",
"                                                                      Y9Z9Z9                    ",
"                                                                    X9W9W9V9                    ",
"                                                                    U9U9T9S9                    ",
"                                                    R9Q9P9        O9O9O9N9M9                    ",
"                                              L9K9J9I9H9G9F9E9D9C9B9B9A9M9M9                    ",
"                                            ;9:99989796959493929192909M9M9                      ",
"                                          z8y8x8w8v8u8t8s8r8q8p8p8o8n8M9M9                      ",
"                                        m8l8k8j8i8h8g8f8N9e8p8d8c8b8a8M9M9                      ",
"                                      Z8Y8X8W8V8U8T8S8R8Q8P8d8O8s8N8M8M9                        ",
"                                    L8K8J8I8H8O8G8F8E8F8D8C8B8A8;8:898M9                        ",
"                                  887868584838281808z7V9y7x7w7v7u7t7s7M9                        ",
"                                  r7q7p7o7n7m7l7k7j7i7h7h7h7g7f7e7d7c7M9                        ",
"                                b7a7Z7Y7X7W7V7U7T7l7S7R7Q7P7O7N7M7L7K7M9                        ",
"                              J7I7H7G7F7E7D7C7B7A7;7:797877767574737M9M9                        ",
"                            271707z6y6x6w6v6u6t6s6x6y6r6q6p6o6n6m6l6M9M9                        ",
"                            k6j6i6h6g6s6f6e6d6c6b6v6a6Z6Y6X6W6V6U6T6M9M9                        ",
"                          S6R6Q6P6O6N6M6c6L6L6K6M6J6I6H6G6F6E6D6C6B6M9                          ",
"                        A6m8;6:696867666564636261606z5y5x5w5v5u537M9M9                          ",
"                        t5s5r5q5p5o5n5m5l5k54606j576i5h5g5f5e5d5c5M9M9                          ",
"                      b5F9a5Z5Y5X5W5V5U5T5J6S5R5Q5P5O5N5M5L5K5J5M9M9                            ",
"                      I5H5G5F5E5D5C5B5A5;5:59585756555453525l615M9M9                            ",
"                    05z4y4x4w4v4u4t4:5s4r4q4p4p4o4n4m4l4k4j4i4M9M9                              ",
"                  h4g4f4e4d4c4b4a4Z4Y4Y4X4W4V4U4T4S4R4Q4P4O4N4M9M9                              ",
"                  M4L4K4J4I4H4G4F4E4D4C4B4A4;4:494847464i454M9M9                                ",
"                4434241404L7z3y3x3w3v3u3t3s3s3r3q3p3o3a8n3m3M9M9                                ",
"                l3k3j3i3h3w3g3f3e3l6d3c3b3a3Z3Y3X3W3d7V3c5M9M9                                  ",
"              U3T3S3R3Q3P3O3N3M3L3K3J3I3H3G3F3E3P4D33754M9M9M9                                  ",
"              C3B3A3;3:393837363534333231303z2y2x2w2v2u2M9M9                                    ",
"            t2s2r2a3q2p2o2n2m2l2k2j2i2q2h2g2f2e2d2c2V3M9M9                                      ",
"            b2z4a2Z2Y2X2W2V2U2T2K4S2R2Q2P2O2N2M2c7v2M9M9M9                                      ",
"          L2K2J2I2H2G2F2E2D2C2B2A2;2:292827262524215M9M9                                        ",
"          32221202z1y1x1w1v1u1S842t1s1r1q1p152o1n1M9M9                                          ",
"          m1l1k1j1i1h1g1f1e1d4d1O4c1b1a1Z1Z1Z1n3M9M9M9                                          ",
"        Y1X1W1V1U1T1S1R1Q1P1O1N1D2M1L1K1J1I1H1B6M9M9                                            ",
"        G1F1E1D1C1B1A1;1:19181716151Z141n33121M9M9                                              ",
"        1101z0y0x0w0v0u0t0Q2s0r0q0p0o0n0m0Z1M9M9                                                ",
"        l0k0j0i0h0g0f0e0d0c0b0a0Z0Y0X0W0I1M9M9M9                                                ",
"        V0U0T0S0R0Q0P0O0N0M0L0r0n0W0W0I1K0M9M9                                                  ",
"          J0I0H0G0F0E0D0C0B0r0o0W0A0r0;0M9M9                                                    ",
"            :090807060504030A0Y0W0r0I1M9M9                                                      ",
"                b09020o0Z0A0A0A04010M9M9                                                        ",
"                    0000b0b0Z141M9M9M9                                                          ",
"                            M9M9                                                                ",
"                                                                                                ",
"                                                                                                "};
