/* XPM */
static char *image[] = {
"48 48 695 2",
"   c None",
"00 c #050505",
"10 c #010101",
"20 c #000000",
"30 c #1b1b1a",
"40 c #252623",
"50 c #3d3f3d",
"60 c #bfbfbf",
"70 c #3f413e",
"80 c #e6e7e6",
"90 c #e8e9e8",
":0 c #e7e8e8",
";0 c #e7e8e7",
"A0 c #e6e7e7",
"B0 c #40423f",
"C0 c #e2e2e2",
"D0 c #424441",
"E0 c #414340",
"F0 c #c2c2c2",
"G0 c #44504c",
"H0 c #3f4a46",
"I0 c #363f3c",
"J0 c #434542",
"K0 c #434541",
"L0 c #c3c3c3",
"M0 c #38403d",
"N0 c #56615e",
"O0 c #55615e",
"P0 c #535f5b",
"Q0 c #4e5955",
"R0 c #414845",
"S0 c #39403d",
"T0 c #363d3a",
"U0 c #444642",
"V0 c #292f2d",
"W0 c #2e3633",
"X0 c #36403c",
"Y0 c #3e4946",
"Z0 c #485550",
"a0 c #4d5b56",
"b0 c #4c5955",
"c0 c #485551",
"d0 c #414c49",
"e0 c #3f4946",
"f0 c #394340",
"g0 c #37403d",
"h0 c #313937",
"i0 c #2e3634",
"j0 c #2c3331",
"k0 c #d6d6d6",
"l0 c #454743",
"m0 c #c3c4c3",
"n0 c #363c3b",
"o0 c #4d5653",
"p0 c #596560",
"q0 c #5c6965",
"r0 c #5d6965",
"s0 c #5b6863",
"t0 c #545f5c",
"u0 c #4f5a56",
"v0 c #4a5350",
"w0 c #47504e",
"x0 c #474945",
"y0 c #464844",
"z0 c #d4d4d4",
"01 c #2a302e",
"11 c #434e4b",
"21 c #4b5854",
"31 c #53625d",
"41 c #55645f",
"51 c #54625d",
"61 c #4e5c57",
"71 c #4c5954",
"81 c #495551",
"91 c #434f4b",
":1 c #404b48",
";1 c #3d4845",
"A1 c #323b38",
"B1 c #2d3432",
"C1 c #484a46",
"D1 c #474946",
"E1 c #c4c5c4",
"F1 c #373d3b",
"G1 c #454e4b",
"H1 c #4a5450",
"I1 c #57635f",
"J1 c #5d6a65",
"K1 c #606e6a",
"L1 c #5f6c68",
"M1 c #5d6a66",
"N1 c #58645f",
"O1 c #4d5754",
"P1 c #454f4b",
"Q1 c #3d4542",
"R1 c #383f3d",
"S1 c #494b48",
"T1 c #494b47",
"U1 c #292f2e",
"V1 c #343e3b",
"W1 c #424e4a",
"X1 c #52605b",
"Y1 c #515f5a",
"Z1 c #4f5d58",
"a1 c #4d5a56",
"b1 c #4a5753",
"c1 c #45514d",
"d1 c #434e4a",
"e1 c #404b47",
"f1 c #3d4844",
"g1 c #37413e",
"h1 c #2f3734",
"i1 c #29312e",
"j1 c #4a4c48",
"k1 c #c6c6c5",
"l1 c #363c3a",
"m1 c #39413e",
"n1 c #3c4341",
"o1 c #3f4644",
"p1 c #434d4a",
"q1 c #505b57",
"r1 c #54605d",
"s1 c #56625e",
"t1 c #586460",
"u1 c #596661",
"v1 c #5b6763",
"w1 c #5a6762",
"x1 c #596561",
"y1 c #55605d",
"z1 c #525e5a",
"02 c #505b58",
"12 c #4e5855",
"22 c #4c5552",
"32 c #495250",
"42 c #444d4a",
"52 c #3c4342",
"62 c #c5c5c5",
"72 c #4b4d49",
"82 c #c6c6c6",
"92 c #303835",
":2 c #333b38",
";2 c #38413e",
"A2 c #3a4441",
"B2 c #3f4a47",
"C2 c #45504d",
"D2 c #47534f",
"E2 c #4b5753",
"F2 c #4d5955",
"G2 c #505c57",
"H2 c #505d59",
"I2 c #505d58",
"J2 c #495651",
"K2 c #485450",
"L2 c #46524e",
"M2 c #46504d",
"N2 c #3e4845",
"O2 c #38423e",
"P2 c #353f3b",
"Q2 c #303836",
"R2 c #2b3230",
"S2 c #4c4e4a",
"T2 c #c4c4c4",
"U2 c #353a38",
"V2 c #373e3c",
"W2 c #454f4c",
"X2 c #505a56",
"Y2 c #535e5b",
"Z2 c #56605e",
"a2 c #59635f",
"b2 c #5b6662",
"c2 c #5d6763",
"d2 c #5e6966",
"e2 c #57625e",
"f2 c #515d59",
"g2 c #505c58",
"h2 c #535d5b",
"i2 c #545e5c",
"j2 c #535d5a",
"k2 c #48514f",
"l2 c #464f4c",
"m2 c #434d49",
"n2 c #3f4744",
"o2 c #3d4442",
"p2 c #3a423f",
"q2 c #373f3c",
"r2 c #bdbdbd",
"s2 c #4e504c",
"t2 c #4d4f4b",
"u2 c #c7c7c6",
"v2 c #c1c1c1",
"w2 c #282f2c",
"x2 c #2a322f",
"y2 c #2f3735",
"z2 c #323a37",
"03 c #38423f",
"13 c #3d4744",
"23 c #424c48",
"33 c #45504c",
"43 c #495450",
"53 c #4d5753",
"63 c #4f5956",
"73 c #525c58",
"83 c #545e5a",
"93 c #525d59",
":3 c #444f4b",
";3 c #424d49",
"A3 c #414c48",
"B3 c #4a5551",
"C3 c #4b5551",
"D3 c #4b5451",
"E3 c #47514d",
"F3 c #39423f",
"G3 c #36403d",
"H3 c #323a38",
"I3 c #2d3532",
"J3 c #2b322f",
"K3 c #282f2d",
"L3 c #252c2a",
"M3 c #b9b9b9",
"N3 c #4f514d",
"O3 c #4f514c",
"P3 c #c7c7c7",
"Q3 c #bebebe",
"R3 c #343b38",
"S3 c #3b4240",
"T3 c #404744",
"U3 c #454c49",
"V3 c #49514f",
"W3 c #4d5552",
"X3 c #505956",
"Y3 c #58605e",
"Z3 c #5a6360",
"a3 c #5e6664",
"b3 c #5f6965",
"c3 c #555e5b",
"d3 c #4c5652",
"e3 c #4b5552",
"f3 c #58615e",
"g3 c #59615e",
"h3 c #515b57",
"i3 c #434c49",
"j3 c #404845",
"k3 c #3b4241",
"l3 c #39403e",
"m3 c #343b39",
"n3 c #333836",
"o3 c #50524d",
"p3 c #c8c8c7",
"q3 c #bababa",
"r3 c #2a312e",
"s3 c #2f3634",
"t3 c #343c39",
"u3 c #3e4644",
"v3 c #424b48",
"w3 c #474f4d",
"x3 c #4a5351",
"y3 c #4f5754",
"z3 c #525b58",
"04 c #575f5c",
"14 c #545d5a",
"24 c #3c4643",
"34 c #3b4542",
"44 c #3b4541",
"54 c #48514e",
"64 c #4e5754",
"74 c #4f5855",
"84 c #424a47",
"94 c #333c39",
":4 c #313a37",
";4 c #2f3835",
"A4 c #2d3533",
"B4 c #2b3330",
"C4 c #29302e",
"D4 c #272d2b",
"E4 c #242b28",
"F4 c #51534e",
"G4 c #c8c8c8",
"H4 c #b8b8b8",
"I4 c #2e3331",
"J4 c #343a38",
"K4 c #404643",
"L4 c #444a48",
"M4 c #4d5352",
"N4 c #5c6360",
"O4 c #5e6764",
"P4 c #616a67",
"Q4 c #646b69",
"R4 c #515a58",
"S4 c #444e4b",
"T4 c #464e4c",
"U4 c #5a6260",
"V4 c #5c6461",
"W4 c #5d6462",
"X4 c #616866",
"Y4 c #4e5554",
"Z4 c #434b48",
"a4 c #404745",
"b4 c #3a413f",
"c4 c #353b39",
"d4 c #2f3432",
"e4 c #52544f",
"f4 c #c9c9c8",
"g4 c #b5b5b5",
"h4 c #232826",
"i4 c #343937",
"j4 c #393f3d",
"k4 c #3e4442",
"l4 c #424947",
"m4 c #474e4c",
"n4 c #4c5250",
"o4 c #505654",
"p4 c #535a58",
"q4 c #59605e",
"r4 c #565e5b",
"s4 c #353e3b",
"t4 c #343d3a",
"u4 c #3e4744",
"v4 c #515856",
"w4 c #525a57",
"x4 c #545b59",
"y4 c #adafae",
"z4 c #a1a4a3",
"05 c #9da1a0",
"15 c #9da09f",
"25 c #9b9e9d",
"35 c #262d2a",
"45 c #242a28",
"55 c #545651",
"65 c #535550",
"75 c #b2b2b2",
"85 c #323635",
"95 c #383d3b",
":5 c #3e4242",
";5 c #424846",
"A5 c #4d5150",
"B5 c #595f5d",
"C5 c #5d6360",
"D5 c #636968",
"E5 c #676c6b",
"F5 c #505653",
"G5 c #3e4542",
"H5 c #555c5a",
"I5 c #5e6462",
"J5 c #5f6564",
"K5 c #606765",
"L5 c #6c7371",
"M5 c #4a524f",
"N5 c #494f4d",
"O5 c #474d4b",
"P5 c #353b38",
"Q5 c #2e3432",
"R5 c #2a2f2d",
"S5 c #555752",
"T5 c #545552",
"U5 c #c9c9c9",
"V5 c #afafaf",
"W5 c #1f2321",
"X5 c #363b39",
"Y5 c #3c4140",
"Z5 c #424746",
"a5 c #464c4a",
"b5 c #4b504f",
"c5 c #505553",
"d5 c #545958",
"e5 c #5b615f",
"f5 c #585e5c",
"g5 c #2e3533",
"h5 c #2c3431",
"i5 c #313936",
"j5 c #515755",
"k5 c #565c5a",
"l5 c #515756",
"m5 c #29302d",
"n5 c #282e2c",
"o5 c #262d2b",
"p5 c #222826",
"q5 c #202624",
"r5 c #1d2120",
"s5 c #565753",
"t5 c #acacac",
"u5 c #2d3130",
"v5 c #3a3e3d",
"w5 c #404342",
"x5 c #454948",
"y5 c #4b4f4e",
"z5 c #4f5351",
"06 c #545957",
"16 c #585d5c",
"26 c #5e6260",
"36 c #616564",
"46 c #686c6c",
"56 c #4d5250",
"66 c #363d3b",
"76 c #373e3b",
"86 c #484f4d",
"96 c #5e6361",
":6 c #616664",
";6 c #626866",
"A6 c #646968",
"B6 c #565b59",
"C6 c #333937",
"D6 c #323735",
"E6 c #313634",
"F6 c #303433",
"G6 c #2e3332",
"H6 c #2c3130",
"I6 c #303533",
"J6 c #363a39",
"K6 c #555958",
"L6 c #272a29",
"M6 c #141717",
"N6 c #585a55",
"O6 c #565854",
"P6 c #cacaca",
"Q6 c #aaaaaa",
"R6 c #1f2322",
"S6 c #262a29",
"T6 c #2d3030",
"U6 c #333735",
"V6 c #393d3b",
"W6 c #3f4341",
"X6 c #444847",
"Y6 c #4e5252",
"Z6 c #535857",
"a6 c #262c2a",
"b6 c #242b29",
"c6 c #252b29",
"d6 c #4b504e",
"e6 c #535957",
"f6 c #575b5a",
"g6 c #595e5c",
"h6 c #5c605f",
"i6 c #3f4543",
"j6 c #212725",
"k6 c #202524",
"l6 c #1f2422",
"m6 c #202523",
"n6 c #292e2c",
"o6 c #7f8281",
"p6 c #e3e4e4",
"q6 c #cecfcf",
"r6 c #121616",
"s6 c #a0a1a1",
"t6 c #595b56",
"u6 c #575955",
"v6 c #a7a7a7",
"w6 c #343736",
"x6 c #3b3e3d",
"y6 c #474a49",
"z6 c #4d504e",
"07 c #515554",
"17 c #565a59",
"27 c #5b5e5e",
"37 c #646967",
"47 c #494d4c",
"57 c #2f3433",
"67 c #303434",
"77 c #303534",
"87 c #393e3c",
"97 c #5d615f",
":7 c #5f6362",
";7 c #626765",
"A7 c #666969",
"B7 c #686c6b",
"C7 c #414644",
"D7 c #2d3230",
"E7 c #2b302f",
"F7 c #2a2f2e",
"G7 c #2b302e",
"H7 c #818382",
"I7 c #6d6f6e",
"J7 c #2e3230",
"K7 c #222423",
"L7 c #9d9d9d",
"M7 c #5a5c57",
"N7 c #585a56",
"O7 c #cbcbcb",
"P7 c #2d302f",
"Q7 c #333635",
"R7 c #393b3b",
"S7 c #3f4242",
"T7 c #454947",
"U7 c #4b4e4d",
"V7 c #5a5e5d",
"W7 c #1e2321",
"X7 c #1d2220",
"Y7 c #1d2221",
"Z7 c #393e3d",
"a7 c #505453",
"b7 c #555957",
"c7 c #585c5b",
"d7 c #5b5f5d",
"e7 c #5f6261",
"f7 c #272b29",
"g7 c #1a1f1d",
"h7 c #191d1c",
"i7 c #181c1b",
"j7 c #1a1e1c",
"k7 c #9d9e9e",
"l7 c #eff0f0",
"m7 c #9e9f9e",
"n7 c #2c2f2e",
"o7 c #171918",
"p7 c #595b57",
"q7 c #2c2d2d",
"r7 c #343636",
"s7 c #414242",
"t7 c #464948",
"u7 c #4c4e4d",
"v7 c #515453",
"w7 c #565959",
"x7 c #5c5e5e",
"y7 c #666968",
"z7 c #444746",
"08 c #272c2a",
"18 c #282c2b",
"28 c #282d2b",
"38 c #2a2e2c",
"48 c #555857",
"58 c #606362",
"68 c #646766",
"78 c #686a69",
"88 c #6a6c6c",
"98 c #272b2a",
":8 c #262928",
";8 c #262827",
"A8 c #242726",
"B8 c #232626",
"C8 c #2a2d2c",
"D8 c #4e5150",
"E8 c #c2c3c3",
"F8 c #a2a3a3",
"G8 c #979797",
"H8 c #5c5e59",
"I8 c #5b5d58",
"J8 c #cccccc",
"K8 c #1d1e1d",
"L8 c #242625",
"M8 c #2c2c2c",
"N8 c #383a39",
"O8 c #3e403f",
"P8 c #444645",
"Q8 c #4a4c4b",
"R8 c #4f5251",
"S8 c #555756",
"T8 c #171b1a",
"U8 c #151817",
"V8 c #151918",
"W8 c #161918",
"X8 c #252826",
"Y8 c #4c4f4d",
"Z8 c #505352",
"a8 c #545656",
"b8 c #585b5a",
"c8 c #5d5f5e",
"d8 c #545756",
"e8 c #141716",
"f8 c #131615",
"g8 c #121514",
"h8 c #111413",
"i8 c #0f1110",
"j8 c #101211",
"k8 c #161818",
"l8 c #313332",
"m8 c #868786",
"n8 c #0b0c0c",
"o8 c #5e605a",
"p8 c #5c5e58",
"q8 c #cdcdcd",
"r8 c #313232",
"s8 c #373938",
"t8 c #3e3e3e",
"u8 c #434544",
"v8 c #494a4a",
"w8 c #505150",
"x8 c #555655",
"y8 c #5a5c5c",
"z8 c #606261",
"09 c #3e4040",
"19 c #212423",
"29 c #222524",
"39 c #424443",
"49 c #565857",
"59 c #5a5d5c",
"69 c #5e6060",
"79 c #636564",
"89 c #676968",
"99 c #525554",
":9 c #202322",
";9 c #1f2221",
"A9 c #1f2120",
"B9 c #1e201f",
"C9 c #1d1f1e",
"D9 c #1b1d1d",
"E9 c #1a1c1b",
"F9 c #191a1a",
"G9 c #191a19",
"H9 c #1c1d1d",
"I9 c #161616",
"J9 c #131616",
"K9 c #949494",
"L9 c #5f615b",
"M9 c #5d5f59",
"N9 c #cecece",
"O9 c #171818",
"P9 c #1e1e1e",
"Q9 c #232424",
"R9 c #2a2a2a",
"S9 c #303131",
"T9 c #353535",
"U9 c #3a3c3b",
"V9 c #404140",
"W9 c #454646",
"X9 c #0f1211",
"Y9 c #0d0f0f",
"Z9 c #0e100f",
"a9 c #101312",
"b9 c #3a3d3c",
"c9 c #414342",
"d9 c #454746",
"e9 c #494c4b",
"f9 c #4d4f4e",
"g9 c #525353",
"h9 c #323434",
"i9 c #0c0f0e",
"j9 c #0c0e0d",
"k9 c #0b0d0c",
"l9 c #0a0c0b",
"m9 c #090b0a",
"n9 c #080909",
"o9 c #080808",
"p9 c #070807",
"q9 c #050606",
"r9 c #040404",
"s9 c #020303",
"t9 c #121515",
"u9 c #959595",
"v9 c #60625c",
"w9 c #5e615a",
"x9 c #181b1b",
"y9 c #171a1a",
"z9 c #9a9a9a",
"0: c #cfcfcf",
"1: c #61625d",
"2: c #5f625b",
"3: c #a5a5a5",
"4: c #a3a3a3",
"5: c #a2a2a2",
"6: c #a1a1a1",
"7: c #d0d0d0",
"8: c #62635e",
"9: c #d1d1d1",
":: c #d7d7d7",
";: c #d9d9d9",
"A: c #dedede",
"B: c #e0e0e0",
"C: c #e5e5e5",
"D: c #e7e7e7",
"E: c #ececec",
"F: c #eeeeee",
"G: c #f0f0f0",
"H: c #f3f3f3",
"I: c #f5f5f5",
"J: c #f7f7f7",
"K: c #f9f9f9",
"L: c #fcfcfc",
"M: c #fefefe",
"N: c #fdfdfd",
"O: c #fbfbfb",
"P: c #f8f8f8",
"Q: c #f6f6f6",
"R: c #f4f4f4",
"S: c #f1f1f1",
"T: c #efefef",
"U: c #ededed",
"V: c #eaeaea",
"W: c #e8e8e8",
"X: c #e6e6e6",
"Y: c #e3e3e3",
"Z: c #e1e1e1",
"a: c #dfdfdf",
"b: c #dcdcdc",
"c: c #dadada",
"d: c #d8d8d8",
"e: c #d5d5d5",
"f: c #d3d3d3",
"g: c #d2d2d2",
"h: c #626460",
"i: c #646661",
"j: c #8a8b88",
"k: c #a0a0a0",
"l: c #8e8f8d",
"m: c #636560",
"n: c #646660",
"o: c #61635d",
"p: c #636660",
"                                                                                                ",
"                                                                                                ",
"                                                                                                ",
"                                                                                                ",
"                                                                                                ",
"                                                                                                ",
"        p:o:o:o:o:o:o:o:o:o:o:o:o:o:o:o:o:o:o:o:o:o:o:o:o:o:o:o:o:o:o:o:o:o:o:o:o:o:n:          ",
"      m:l:k:k:k:k:k:k:k:k:k:k:k:k:k:k:k:k:k:k:k:k:k:k:k:k:k:k:k:k:k:k:k:k:k:k:k:k:k:j:i:        ",
"      h:g:f:e:d:c:b:a:Z:Y:X:W:V:U:T:S:R:Q:P:O:N:M:L:K:J:I:H:G:F:E:V:D:C:Y:B:A:b:;:::9:o:        ",
"      8:7:6:6:5:5:5:5:5:5:5:5:5:5:4:4:4:4:4:4:4:4:4:4:4:4:4:4:4:5:5:5:5:5:5:5:5:5:3:7:2:        ",
"      1:0:z9y9y9y9y9y9y9y9y9y9y9y9y9y9y9y9y9y9y9y9y9y9y9y9y9y9y9y9y9y9y9y9y9y9y9x95:7:w9        ",
"      v90:u9t9s9r9q9p9o9n9m9l9k9j9i9h9g9f9e9d9c9b9a9Z9Z9Y9X9W9d9V9U9T9S9R9Q9P9O9t96:N9M9        ",
"      L9N9K9J9I9H9G9F9E9D9C9B9A9;9:9998979695949392929191909z8y8x8w8v8u8t8s8r8R9t9k:q8p8        ",
"      o8N9K9t9n8m8l8k8j8i8a9h8g8f8e8d8c8b8a8Z8Y8X8W8V8U8T8S849R8Q8P8O8N8l8M8L8K8t9k:J8I8        ",
"      H8N9G8J9A9F8G:E8D8C8B8A8;8:89888786858c84838281808z7y758x7w7v7u7t7s7U9r7q7t95:J8p7        ",
"      I8N9z9t9Z9o7n7m7l7k7j7i7h7g7f7e7d7c7b7a7Z7Y7X7X7W7b8V748Z8U7T7S7R7Q7P7;8A9t93:O7N7        ",
"      M7N9L7J9K7J7I7::E:H7G7F7E7D7C7B7A7;7:7978777675747B73758271707z6y6c9x6w6P7J9v6O7u6        ",
"      t6q8s6r6i7q6p6o6n6m6Y7l6k6j6i6h6g6f6e6d6c6c6b6a6g6h6c7Z6Y647X6W6V6U6T6S6R6J9Q6P6O6        ",
"      N6q84:M6L6K6J6I6H6G6F6E6D6C6B6A6;6:696867666665646A636261606z5y5x5w5v5w6u5J9t5P6s5        ",
"      O6J8v6J9h7r5X7l6q5p5c6o5n5m5l516k5e6j5i5h5h5g5f5e516d5c5b5a5Z5Y5X5E6G7S6W5J9V5U5T5        ",
"      S5q8Q6M6R5H6Q577D6P5a5O5N5M5L5K5J5I5H5G5G5G5F5E5D5K5C5B5k5j5A5O5;5:59585G7J975U565        ",
"      55q8t5J9W7m6p5453566251505z4y4x4w4v4u4t4t4s4r4q4r4p4o4n4m4l4k4j4i4Q5n5h4W7J9g4f4e4        ",
"      65J8V5M6d4E6C6c476b4a4l4Z4Y4X4W4V4U4T4S4S4R4Q4P4O4N4q4H5v4M4N5L4K4b4J4E6I4J9H4G4F4        ",
"      e4J875J9p5E4D4C4B4A4;4:4948474746454443424140414z3y3x3w3v3u3b4t3s3r3o545p5J9q3p3o3        ",
"      F4J8g4M6n3m376l3k3G5j384i3h3g3g3f374e3d3c3P4b3a3Z3Y314X3W3V3U3T3S3l366R3D6J9Q3P3O3        ",
"      N3J8M3J9L3K3J3I3;4H3t4G3F3E3D3C3B3A3;3:393837363534333231303t4z2y2I3x2w2L3J9v2u2t2        ",
"      s2J8r2M6c4q2p2o2n284m2l2k2j2i2i2h2g2f2e2d2c2b2a2Z2Y2X2d3k2W2i384n2o2b4V2U2J9T2u2S2        ",
"      t2J8v2J9K3R2A4Q294P2O244N2S4M2L2L2K2J2I2H2G2F2E2D2C2;3B213A2;2s4:292I3J3w2J9P38272        ",
"      S2J862M6V2b452n28442M232221202z1y1e2x1w1v1u1t1s1r1z1q1122232M2p184o1n1m1l1J9P6k1j1        ",
"      72O7P3J9i1h5h1H3s4g1A2f1e1d1c1K2b1a1Z1Y1X1Y1Z1a1b1K2c1W1e113A2g1V1z2h1h5U1J9N962T1        ",
"      S1O7P6M6R1S3Q1j3v3P154D3O1q1z1y1N1w1M1L1K1L1J1w1I1y1z1q153H154G1v3j3o2p2F1J99:E1D1        ",
"      C1O7N9J9r3B1;4A1s4O244;1:191L2817161Y1514131Y1612181L211e1f144;2s4A1y2h501J9z0T2y0        ",
"      x0O7g:M6V2p2o2T3v3S4w0v053u0f2t0s1x1s0r0M1q0v1p0s1t0f2u0o0v0w0S484T3o2p2n0J9d:m0l0        ",
"      y0O7k0J9m5j0i0h0t4g0f024e0d0:3L2c0b1b0a1a0a1b0b1Z0L291A3Y024f0X0t3i5W0B4V0J9b:m0U0        ",
"      l0O7c:M6T0S0S3G5R0v3G1w0v0d3Q0q1z1P0y1O0N0O0y1Y2f2q1Q0d3v0w0G1v3j3G5S3M0c4J9a:L0K0        ",
"      J0O7A:J9D4C4j0h1:4t3I0034413H0A3d1G0c1L2L2L2c1G0d1A3H0134403I094h0i0j0C4o5J9Y:F0E0        ",
"      D0P6C0J9J9J9J9J9J9J9J9J9J9J9J9J9J9J9J9J9J9J9J9J9J9J9J9J9J9J9J9J9J9J9J9J9J9J9X:F0B0        ",
"      E0O7H:X:A0A0D:D:D:;0;0:0:0W:W:W:W:90909090909090W:W:W::0:0:0;0D:D:D:D:A080D:V:v270        ",
"      E060z0z0z0z0z0z0z0z0z0z0z0z0z0z0z0z0z0z0z0z0z0z0z0z0z0z0z0z0z0z0z0z0z0z0z0z0f:H450        ",
"      40J0D0D0D0D0D0D0D0D0D0D0D0D0D0D0D0D0D0D0D0D0D0D0D0D0D0D0D0D0D0D0D0D0D0D0D0D0D0D03020      ",
"      201000000000000000000000000000000000000000000000000000000000000000000000000000102020      ",
"          2020202020202020202020202020202020202020202020202020202020202020202020202020          ",
"                                                                                                ",
"                                                                                                ",
"                                                                                                ",
"                                                                                                ",
"                                                                                                ",
"                                                                                                "};
