/* XPM */
static char *image[] = {
"48 48 768 2",
"   c None",
"00 c #2d3335",
"10 c #2d3334",
"20 c #292d2f",
"30 c #303637",
"40 c #464847",
"50 c #464846",
"60 c #454846",
"70 c #444745",
"80 c #404442",
"90 c #414443",
":0 c #444846",
";0 c #464948",
"A0 c #464848",
"B0 c #434746",
"C0 c #3b403f",
"D0 c #3b3f3e",
"E0 c #3a3e3e",
"F0 c #393e3d",
"G0 c #393d3d",
"H0 c #383d3c",
"I0 c #3a3f3f",
"J0 c #3d4141",
"K0 c #3c4040",
"L0 c #393e3e",
"M0 c #363a3a",
"N0 c #343839",
"O0 c #343838",
"P0 c #333838",
"Q0 c #323838",
"R0 c #292e30",
"S0 c #262a2c",
"T0 c #4c504d",
"U0 c #505250",
"V0 c #4f524f",
"W0 c #4e514f",
"X0 c #4d514e",
"Y0 c #4d504e",
"Z0 c #535554",
"a0 c #515453",
"b0 c #4a4d4c",
"c0 c #4a4e4c",
"d0 c #4c504f",
"e0 c #4f5351",
"f0 c #515454",
"g0 c #4e5150",
"h0 c #4b4f4e",
"i0 c #464a49",
"j0 c #444847",
"k0 c #424746",
"l0 c #444948",
"m0 c #464b4b",
"n0 c #494d4d",
"o0 c #484d4d",
"p0 c #414546",
"q0 c #3d4242",
"r0 c #3c4142",
"s0 c #3b4041",
"t0 c #3a3f40",
"u0 c #393e3f",
"v0 c #383e3f",
"w0 c #313739",
"x0 c #2a2f31",
"y0 c #2e3335",
"z0 c #484b49",
"01 c #4d504d",
"11 c #7b7e7b",
"21 c #7a7c7a",
"31 c #7c7f7d",
"41 c #808280",
"51 c #787a79",
"61 c #7b7d7c",
"71 c #7c7e7d",
"81 c #797c7b",
"91 c #5c605f",
":1 c #414444",
";1 c #454949",
"A1 c #3e4343",
"B1 c #3a3e3f",
"C1 c #363c3c",
"D1 c #343a3c",
"E1 c #7c7e7c",
"F1 c #7f817f",
"G1 c #333534",
"H1 c #848786",
"I1 c #838583",
"J1 c #7d807f",
"K1 c #313332",
"L1 c #7f8281",
"M1 c #343636",
"N1 c #838483",
"O1 c #818383",
"P1 c #313433",
"Q1 c #767977",
"R1 c #3f4342",
"S1 c #3d4241",
"T1 c #3f4444",
"U1 c #424646",
"V1 c #444949",
"W1 c #444848",
"X1 c #414545",
"Y1 c #3c4141",
"Z1 c #33393a",
"a1 c #4d4f4d",
"b1 c #4c4f4c",
"c1 c #4b4e4c",
"d1 c #4b4e4b",
"e1 c #616362",
"f1 c #7b7d7b",
"g1 c #7e807e",
"h1 c #808381",
"i1 c #7c7d7c",
"j1 c #797b7a",
"k1 c #787b79",
"l1 c #797c7a",
"m1 c #7c7f7e",
"n1 c #7d7f7e",
"o1 c #7b7e7c",
"p1 c #787b7a",
"q1 c #585b5b",
"r1 c #404443",
"s1 c #3f4343",
"t1 c #3e4342",
"u1 c #3e4242",
"v1 c #404545",
"w1 c #434747",
"x1 c #454a4a",
"y1 c #424747",
"z1 c #3f4344",
"02 c #3b4040",
"12 c #383d3e",
"22 c #383d3d",
"32 c #373c3d",
"42 c #363b3c",
"52 c #353a3b",
"62 c #343a3b",
"72 c #34393a",
"82 c #33383a",
"92 c #323839",
":2 c #2e3436",
";2 c #2f3537",
"A2 c #626562",
"B2 c #7a7c77",
"C2 c #717471",
"D2 c #4e5352",
"E2 c #303638",
"F2 c #626664",
"G2 c #aaaba7",
"H2 c #f9faf8",
"I2 c #fcfcfb",
"J2 c #fbfbfa",
"K2 c #fdfdfc",
"L2 c #fafaf9",
"M2 c #a9aaa6",
"N2 c #646866",
"O2 c #f0f0ee",
"P2 c #b7bab3",
"Q2 c #bcbeb8",
"R2 c #c0c2bc",
"S2 c #b5b6b3",
"T2 c #abaca9",
"U2 c #aeafad",
"V2 c #b5b6b4",
"W2 c #bdbebd",
"X2 c #c5c6c4",
"Y2 c #b9b9b8",
"Z2 c #b3b4b2",
"a2 c #afafae",
"b2 c #aaaba9",
"c2 c #a6a7a5",
"d2 c #a1a2a0",
"e2 c #9c9e9b",
"f2 c #989997",
"g2 c #959794",
"h2 c #919290",
"i2 c #8d8e8b",
"j2 c #8b8c8a",
"k2 c #bdbfb9",
"l2 c #cbccc7",
"m2 c #c8cac5",
"n2 c #c6c8c2",
"o2 c #878a85",
"p2 c #eaebe8",
"q2 c #cccdcc",
"r2 c #6b6f6e",
"s2 c #a6a9a3",
"t2 c #bec1ba",
"u2 c #b0b2ae",
"v2 c #c2c2c1",
"w2 c #cfcfce",
"x2 c #8d8e8c",
"y2 c #7b7d7a",
"z2 c #6c6d6a",
"03 c #5e605d",
"13 c #545652",
"23 c #535551",
"33 c #50524e",
"43 c #4d4f4b",
"53 c #4b4d49",
"63 c #484a46",
"73 c #464744",
"83 c #494b48",
"93 c #4d4f4c",
":3 c #525450",
";3 c #868883",
"A3 c #6d6f6b",
"B3 c #828380",
"C3 c #dadcdb",
"D3 c #848889",
"E3 c #ced0cb",
"F3 c #edeeec",
"G3 c #b8bbb5",
"H3 c #c3c4c1",
"I3 c #d8d8d7",
"J3 c #bcbdbb",
"K3 c #7a7b79",
"L3 c #878885",
"M3 c #9fa09d",
"N3 c #b1b2af",
"O3 c #c2c3c0",
"P3 c #e6e6e4",
"Q3 c #d4d4d2",
"R3 c #c1c1bf",
"S3 c #9b9c99",
"T3 c #848581",
"U3 c #575955",
"V3 c #4a4c49",
"W3 c #454643",
"X3 c #7e807b",
"Y3 c #969993",
"Z3 c #b5b8b1",
"a3 c #b2b5af",
"b3 c #868783",
"c3 c #bebfb9",
"d3 c #c9cbc6",
"e3 c #cfd1cd",
"f3 c #a6a8a4",
"g3 c #ecedea",
"h3 c #bcbfb8",
"i3 c #c0c3bd",
"j3 c #b0b1af",
"k3 c #696b67",
"l3 c #737571",
"m3 c #aeafac",
"n3 c #e2dcd9",
"o3 c #d49c9a",
"p3 c #c77a79",
"q3 c #bf6362",
"r3 c #b74f4f",
"s3 c #af3b3b",
"t3 c #a62828",
"u3 c #b1b1af",
"v3 c #b5b5b3",
"w3 c #b9bab8",
"x3 c #bdbebc",
"y3 c #c2c3bf",
"z3 c #c8c9c5",
"04 c #9fa19d",
"14 c #6e706c",
"24 c #51534f",
"34 c #b3b6af",
"44 c #d9ddd6",
"54 c #eceeea",
"64 c #f2f3f1",
"74 c #b9bbb7",
"84 c #7b7c79",
"94 c #bdbeb9",
":4 c #a9aba7",
";4 c #eff0ee",
"A4 c #bdbfb8",
"B4 c #c3c5c0",
"C4 c #dbdddb",
"D4 c #929391",
"E4 c #727370",
"F4 c #d1d2cf",
"G4 c #dbb9b7",
"H4 c #bd6665",
"I4 c #a62929",
"J4 c #b52d2d",
"K4 c #cd4242",
"L4 c #d44747",
"M4 c #db4e4e",
"N4 c #e25555",
"O4 c #eaeae7",
"P4 c #d7d8d6",
"Q4 c #cececc",
"R4 c #c4c4c3",
"S4 c #b3b4b0",
"T4 c #aeb0ab",
"U4 c #acb0a9",
"V4 c #e6e8e3",
"W4 c #f4f5f3",
"X4 c #e9ebe7",
"Y4 c #d4d8d1",
"Z4 c #81837f",
"a4 c #f1f1ef",
"b4 c #d1d3ce",
"c4 c #bdc0b9",
"d4 c #bec0ba",
"e4 c #cacdc7",
"f4 c #e2e3e2",
"g4 c #848582",
"h4 c #868784",
"i4 c #cbd9bd",
"j4 c #958859",
"k4 c #aa2a28",
"l4 c #c43c3c",
"m4 c #dc4e4e",
"n4 c #e34948",
"o4 c #e43f3f",
"p4 c #e53d3d",
"q4 c #e53b3b",
"r4 c #e53838",
"s4 c #e23333",
"t4 c #e6e7e4",
"u4 c #dfe1dd",
"v4 c #dadbd9",
"w4 c #bebfbc",
"x4 c #a0a29f",
"y4 c #969794",
"z4 c #afb2ab",
"05 c #acafa9",
"15 c #c9ccc7",
"25 c #c0c2bd",
"35 c #9b9e98",
"45 c #6f716d",
"55 c #afb1ac",
"65 c #b8b9b5",
"75 c #e0e1dd",
"85 c #bec0b9",
"95 c #c0c3bc",
":5 c #e6e8e6",
";5 c #838481",
"A5 c #9c9d9a",
"B5 c #bfd2ab",
"C5 c #72a640",
"D5 c #95cc5f",
"E5 c #afd874",
"F5 c #cd855f",
"G5 c #df302f",
"H5 c #e03030",
"I5 c #e33332",
"J5 c #e63535",
"K5 c #e63737",
"L5 c #e7e7e5",
"M5 c #e4e5e3",
"N5 c #dee0dc",
"O5 c #d6d7d4",
"P5 c #d3d5d0",
"Q5 c #d3d6d2",
"R5 c #cbcbc8",
"S5 c #a3a4a1",
"T5 c #c9cac6",
"U5 c #555753",
"V5 c #464844",
"W5 c #686a66",
"X5 c #dadbd7",
"Y5 c #b9bab6",
"Z5 c #939490",
"a5 c #ebecea",
"b5 c #bfc2bb",
"c5 c #d5d7d3",
"d5 c #c5c5c4",
"e5 c #acc591",
"f5 c #74a841",
"g5 c #9fd66a",
"h5 c #9ddd5e",
"i5 c #90d949",
"j5 c #92da4b",
"k5 c #aac661",
"l5 c #d75f48",
"m5 c #e53535",
"n5 c #e83838",
"o5 c #ea3b3a",
"p5 c #e73838",
"q5 c #e7e8e6",
"r5 c #dadcd8",
"s5 c #e8e8e6",
"t5 c #f3f3f1",
"u5 c #e6e7e6",
"v5 c #b3b5b1",
"w5 c #565854",
"x5 c #494a47",
"y5 c #747672",
"z5 c #ededeb",
"06 c #92948f",
"16 c #dfe0de",
"26 c #cacbc5",
"36 c #e2e3e1",
"46 c #949692",
"56 c #586946",
"66 c #70a639",
"76 c #a7dc71",
"86 c #96da55",
"96 c #90d849",
":6 c #92d94b",
";6 c #93da4d",
"A6 c #95db4f",
"B6 c #97dc52",
"C6 c #bab767",
"D6 c #d85248",
"E6 c #d15454",
"F6 c #cb6c6c",
"G6 c #c78888",
"H6 c #c9c9c9",
"I6 c #cbcccb",
"J6 c #d1d1d0",
"K6 c #dedfde",
"L6 c #ecedeb",
"M6 c #f0f1ef",
"N6 c #f4f4f3",
"O6 c #eeeeec",
"P6 c #e5e5e3",
"Q6 c #dadbd8",
"R6 c #d4d6d2",
"S6 c #dadcd9",
"T6 c #999b97",
"U6 c #525350",
"V6 c #525551",
"W6 c #696b66",
"X6 c #999b96",
"Y6 c #e0e0de",
"Z6 c #c5c6c2",
"a6 c #eaeae9",
"b6 c #8b8e89",
"c6 c #56812d",
"d6 c #8cc654",
"e6 c #9fdc63",
"f6 c #8fd748",
"g6 c #96dc51",
"h6 c #95db52",
"i6 c #89c053",
"j6 c #a6c682",
"k6 c #d8ccb9",
"l6 c #d2c8c3",
"m6 c #cccdc6",
"n6 c #c7cac4",
"o6 c #ebebea",
"p6 c #dededd",
"q6 c #d2d2d2",
"r6 c #d1d1d1",
"s6 c #e5e6e3",
"t6 c #d3d6d1",
"u6 c #cecfcc",
"v6 c #484a47",
"w6 c #5d5f5b",
"x6 c #c3c4c0",
"y6 c #c4c6c2",
"z6 c #a3a5a1",
"07 c #e2e2df",
"17 c #dcdcdb",
"27 c #548721",
"37 c #a2d76b",
"47 c #92d64f",
"57 c #8ed647",
"67 c #90d84a",
"77 c #92d94c",
"87 c #84c149",
"97 c #a1ce74",
":7 c #d6e4c8",
";7 c #e9eae8",
"A7 c #c2c5be",
"B7 c #bbbeb7",
"C7 c #d3d5d1",
"D7 c #b2b4b0",
"E7 c #b2b2af",
"F7 c #d6d6d5",
"G7 c #c5c6c3",
"H7 c #e1e3e0",
"I7 c #e3e4e1",
"J7 c #e4e6e3",
"K7 c #e8e9e7",
"L7 c #eeefed",
"M7 c #eff0ef",
"N7 c #434542",
"O7 c #676964",
"P7 c #e3e4e2",
"Q7 c #a1a49e",
"R7 c #bcbdba",
"S7 c #9fd46a",
"T7 c #90d64d",
"U7 c #8cd546",
"V7 c #8fd648",
"W7 c #97dd53",
"X7 c #7eb646",
"Y7 c #b5e485",
"Z7 c #a6b597",
"a7 c #a7a9a5",
"b7 c #adaeab",
"c7 c #a2a39f",
"d7 c #8f918d",
"e7 c #aea189",
"f7 c #f5c07d",
"g7 c #c9832d",
"h7 c #f79b31",
"i7 c #f69529",
"j7 c #f69022",
"k7 c #f58a1c",
"l7 c #f58516",
"m7 c #f79332",
"n7 c #f2b880",
"o7 c #a7590b",
"p7 c #656763",
"q7 c #82847f",
"r7 c #e4e5e2",
"s7 c #ced0cc",
"t7 c #cfd0ce",
"u7 c #5c8732",
"v7 c #81ba49",
"w7 c #9bd85f",
"x7 c #8bd445",
"y7 c #90d749",
"z7 c #93da4e",
"08 c #97de52",
"18 c #9be055",
"28 c #87c34c",
"38 c #92cb5d",
"48 c #c3eb9d",
"58 c #b6d09d",
"68 c #a9bb98",
"78 c #969e8e",
"88 c #aabb98",
"98 c #cbc8a5",
":8 c #f7cc94",
";8 c #dd9843",
"A8 c #d7892c",
"B8 c #f7982d",
"C8 c #f79327",
"D8 c #f78e21",
"E8 c #f6881b",
"F8 c #f9ad64",
"G8 c #dd9147",
"H8 c #9f5d1a",
"I8 c #acaea8",
"J8 c #cdceca",
"K8 c #b2b4af",
"L8 c #d8dad6",
"M8 c #d5d6d5",
"N8 c #839372",
"O8 c #5a9124",
"P8 c #a4d970",
"Q8 c #98db58",
"R8 c #95dc4f",
"S8 c #95dc50",
"T8 c #95dc51",
"U8 c #94d951",
"V8 c #81bb46",
"W8 c #85bd4f",
"X8 c #a1d36f",
"Y8 c #bae48f",
"Z8 c #ceefad",
"a8 c #cdefac",
"b8 c #b9e48d",
"c8 c #a1d46d",
"d8 c #92bd56",
"e8 c #c4a459",
"f8 c #f49931",
"g8 c #f89529",
"h8 c #f78f23",
"i8 c #f68b1c",
"j8 c #f68517",
"k8 c #f7993d",
"l8 c #f5c08c",
"m8 c #b46110",
"n8 c #7f6547",
"o8 c #5a5b58",
"p8 c #d5d6d2",
"q8 c #afb1ad",
"r8 c #91938e",
"s8 c #e1e2df",
"t8 c #a8aaa6",
"u8 c #69844e",
"v8 c #5e932b",
"w8 c #9cd069",
"x8 c #9ddb5f",
"y8 c #8dd547",
"z8 c #8ed648",
"09 c #91d84b",
"19 c #94db4f",
"29 c #96db51",
"39 c #8fd14f",
"49 c #86c34b",
"59 c #81bc49",
"69 c #7eb647",
"79 c #7eb747",
"89 c #83bc49",
"99 c #88c54d",
":9 c #92d452",
";9 c #9adf55",
"A9 c #b4d761",
"B9 c #efac50",
"C9 c #f68b1d",
"D9 c #f68719",
"E9 c #f9a758",
"F9 c #edb580",
"G9 c #b4681e",
"H9 c #8b5f31",
"I9 c #646762",
"J9 c #6e706b",
"K9 c #e2e3e0",
"L9 c #d6d7d3",
"M9 c #cccdca",
"N9 c #b8b9b6",
"O9 c #90938d",
"P9 c #72875e",
"Q9 c #568b24",
"R9 c #8dc159",
"S9 c #a4dd6d",
"T9 c #9bdb5c",
"U9 c #95da50",
"V9 c #94db4e",
"W9 c #96dd51",
"X9 c #98df53",
"Y9 c #99e055",
"Z9 c #9be257",
"a9 c #9ce157",
"b9 c #9be156",
"c9 c #9be155",
"d9 c #9ae054",
"e9 c #99e054",
"f9 c #99e053",
"g9 c #97df51",
"h9 c #9be058",
"i9 c #d1d682",
"j9 c #f8c48b",
"k9 c #e1a266",
"l9 c #ab5e11",
"m9 c #826340",
"n9 c #6a6c68",
"o9 c #60635e",
"p9 c #979994",
"q9 c #d3d4d1",
"r9 c #bebfbb",
"s9 c #d2d2ce",
"t9 c #c5c7c5",
"u9 c #989a95",
"v9 c #8e918b",
"w9 c #7b8a6c",
"x9 c #558428",
"y9 c #62962d",
"z9 c #85bb52",
"0: c #a9dd75",
"1: c #abe474",
"2: c #a6e369",
"3: c #a3e364",
"4: c #a1e260",
"5: c #9ee15b",
"6: c #9be056",
"7: c #9ee25c",
"8: c #a2e262",
"9: c #a7e46b",
":: c #ace574",
";: c #b9e98b",
"A: c #bee597",
"B: c #95c169",
"C: c #689736",
"D: c #7a6424",
"E: c #7b6850",
"F: c #6b6d68",
"G: c #5c5e59",
"H: c #c1c2be",
"I: c #a0a19d",
"J: c #c4c5c1",
"K: c #bfc0bf",
"L: c #afb0ad",
"M: c #929590",
"N: c #8a8d87",
"O: c #768567",
"P: c #5e823d",
"Q: c #558723",
"R: c #6da238",
"S: c #85b952",
"T: c #92c560",
"U: c #9ed06d",
"V: c #aadb7c",
"W: c #b8e68a",
"X: c #bae78e",
"Y: c #afdd82",
"Z: c #a4d277",
"a: c #99c76b",
"b: c #8dbc5e",
"c: c #71a33f",
"d: c #548722",
"e: c #5a7e37",
"f: c #657456",
"g: c #6d6f6a",
"h: c #636561",
"i: c #5b5d59",
"j: c #dbdcd9",
"k: c #9a9c97",
"l: c #d9dad7",
"m: c #c5c6c0",
"n: c #c0c1bd",
"o: c #b4b5b3",
"p: c #a5a7a3",
"q: c #878984",
"r: c #83877f",
"s: c #6b8256",
"t: c #618243",
"u: c #5e843b",
"v: c #5b8532",
"w: c #578529",
"x: c #528421",
"y: c #568528",
"z: c #598431",
"0; c #5c8138",
"1; c #5d7c3f",
"2; c #62784e",
"3; c #6e736b",
"4; c #6f716c",
"5; c #6d706b",
"6; c #6a6c67",
"7; c #61635f",
"8; c #646662",
"9; c #aeafab",
":; c #c7c9c4",
";; c #d7d8d5",
"A; c #8a8c87",
"B; c #babbb7",
"C; c #d3d3cf",
"D; c #c5c7c1",
"E; c #a9aaa8",
"F; c #a4a5a3",
"G; c #9fa19e",
"H; c #9b9c9a",
"I; c #969895",
"J; c #939492",
"K; c #8e908d",
"L; c #8a8b88",
"M; c #858784",
"N; c #81827f",
"O; c #7c7e7b",
"P; c #787a76",
"Q; c #737572",
"R; c #6f706d",
"S; c #6b6d69",
"T; c #676965",
"U; c #626460",
"V; c #5e605c",
"W; c #5a5c58",
"X; c #c3c4be",
"Y; c #c6c7c1",
"Z; c #d3d4d0",
"a; c #bbbcb8",
"b; c #8b8d88",
"c; c #ccccc8",
"d; c #d8d9d5",
"e; c #dbdcd8",
"f; c #dbddd9",
"g; c #dddeda",
"h; c #dedfdc",
"i; c #e1e1de",
"j; c #e0e1de",
"k; c #e0e0dd",
"l; c #dfe0dc",
"m; c #dfdfdc",
"n; c #dedfdb",
"o; c #dededb",
"p; c #dddedb",
"q; c #dcddda",
"r; c #ddddda",
"s; c #dcddd9",
"t; c #d9dad6",
"u; c #cecfcb",
"v; c #8e908b",
"w; c #888a85",
"x; c #898b86",
"y; c #8c8e89",
"                                                                                                ",
"                                                                                                ",
"                                                                                                ",
"                                                                                                ",
"                                                                                                ",
"                                                                                                ",
"                                                                                                ",
"                                                                                                ",
"                                                                                                ",
"                                                                                                ",
"                                                                                                ",
"                                                                                                ",
"                                                                                                ",
"                    y;x;w;w;w;w;w;w;w;w;w;w;w;w;w;w;w;w;w;w;w;w;w;w;w;w;x;y;                    ",
"                  v;u;t;s;r;q;p;o;n;m;m;l;k;j;i;k;k;k;l;m;h;o;g;r;s;f;e;d;c;v;                  ",
"                b;a;Z;Y;X;x;W;V;U;T;S;R;Q;P;O;N;M;L;K;J;I;H;G;F;E;a;D;Y;Y;C;B;y;                ",
"                A;;;:;9;8;7;6;5;4;3;2;1;0;z:y:x:x:w:v:u:t:s:r:q:v;p:o:n:m:Y;l:A;                ",
"                k:j:x;i:h:S;g:f:e:d:c:b:a:Z:Y:X:W:V:U:T:S:R:Q:P:O:N:M:L:K:J:t;I:                ",
"              x;B;H:G:T;F:E:D:C:B:A:;:::9:8:7:6:6:5:4:3:2:1:0:z9y9x9w9v9u9t9s9r9b;              ",
"              b;q9p9o9n9m9l9k9j9i9h9g9f9e9d9c9b9a9Z9Y9X9W9V9U9T9S9R9Q9P9O9N9M9L9b;              ",
"              v;K9J9I9H9G9F9E9D9C9B9A9;9:999897969594939291909z8y8x8w8v8u8t8M9s8r8              ",
"              q8p8o8n8m8l8k8j8i8h8g8f8e8d8c8b8a8Z8Y8X8W8V8U8T8S8R8V9Q8P8O8N8M8L8K8              ",
"            b;J8I8h:H8G8F8j8E8D8C8B8A8;8:89888787868584838281808z7y7x7w7v7u7t7Z;s7y;            ",
"            x;r7q7p7o7n7m7l7k7j7i7h7g7f7e7w;d7c7b7L:a7Z7Y7X7W7z709V7U7T7S7d:R7Z;r7A;            ",
"            Q7P7h:O7N7M7L7K7J7I7K9H7G7F7E7D7C7B7A7B7;7:79787W919776757473727t81707z6            ",
"          A;y6x6p7w6v6u6r7L9t6C7e;s6;7r6q6p6o6n6m6l6k6j6i6h6g6V97767f6e6d6c6b6a6L9Z6A;          ",
"          b;Y6X6W6V6U6T6S6R6Q6P6O6N6M6L6K6J6I6H6G6F6E6D6C6B6A6;6:6968676665646362616b;          ",
"          06z5y5F:x5w5v5b7u5t5s5K9n;r5s;j;r7q5;7p5o5o5n5m5l5k5j5i5h5g5f5e5w5d5c5b5a5Z5          ",
"          Y5X5W5O7V5U5T6T5S5R5f;Q5P5O5e;N5K9M5L5m5K5K5J5I5H5G5F5E5D5C5B5A5;5:595857565          ",
"        b;t;55453525n;1505z4y4x4w4v4j;u4s8I7s6t4s4r4q4p4o4n4m4l4k4j4i4h4g4f4e4d4c4b4;;b;        ",
"        A;a406Z4Y4X4W4W4V4U4K8r9T4I:S4R4Q4P4j;O4N4M4L4K4l4J4I4H4G4F4E4D4C4B4d4c4A4A7;4x;        ",
"        :4z594r8847464544434241404u;z3y3x3w3v3u3t3s3r3q3p3o3n3m3l3k3j3q6i3d4c4A4h3B7g3f3        ",
"      A;e3n;m:d3c3b3a3Z3Y3X3V5W3V3U3T3S3m3R3Q3P3P3Q3O3N3M3L3W;K3J3I3H395d4c4A4B7a3G3f;M9A;      ",
"      b;F3E3n6D3C3K8B3A3;3Z3:39383736383534333231303z2y2x2F;w2v2u2t2d485c4h3h3s2r2q2e4p2b;      ",
"      o264e;n2m2l2k2j2i2h2g2f2e2d2c2b2a2Z2Y2x3v2X2W2V2U2T2S2R2t2d485c4k2h3Q2B7P205G3d;O2;3      ",
"      N2M2I7L2K2K2K2J2L2J2J2J2J2I2I2I2I2I2K2K2K2K2K2K2K2K2K2K2K2K2K2K2K2K2K2K2K2K2H2s8G2F2      ",
"      E2D2C2q:w;w;w;w;w;w;w;w;w;w;w;w;w;w;w;w;w;w;w;w;w;w;w;w;w;w;w;w;w;w;w;w;w;w;q:B2A2;2      ",
"      :29282726252424232221202z1y1x1w1v1u1u1t1s1r1q1p1o1n1m1o1l1k1j1i1h1g1f1f1e1d1c1b1a1:2      ",
"      :2Z1827262524242322212Y1X1W1V1U1T1S1u1R1s1r1Q1P1O1N1M1L1K1J1K1I1H1G1G1F1E1d1c1b1a1:2      ",
"      :2D16272625242C13222B1A1y1;1w1:1u1S1u1R1s1r19181m17161l151k161413121f111e1d1c101z0y0      ",
"      x0w0v0u0t0t0s0Y1r0q0p0V1o0n0m0l0U1k0w1j0l0i0h0g0f0e0d0c0b0b0a0Z0Y0a1Y0X0W0V0U0T012S0      ",
"        R0:2:2:2Q0P0O0N0M0L0K0T1J0I0H0G0F0E0D0C0R1B0A0;0:090809070z060707060504030:2:220        ",
"              10:2:2:2:2:2:2:2:2:2:2:2:2:2:2:2:2:2:2:2:2:2:2:2:2:2:2:2:2:2:2:2:200              ",
"                                                                                                ",
"                                                                                                ",
"                                                                                                ",
"                                                                                                ",
"                                                                                                "};
