/* XPM */
static char *image[] = {
"64 64 481 2",
"   c None",
"00 c #35313a",
"10 c #352e3c",
"20 c #382d3c",
"30 c #392d3d",
"40 c #392c3e",
"50 c #3c2e40",
"60 c #3e2f41",
"70 c #3e2f42",
"80 c #3f2e42",
"90 c #3d2e41",
":0 c #3b2e3f",
";0 c #382e3c",
"A0 c #362f3c",
"B0 c #34303c",
"C0 c #372f3c",
"D0 c #3b2d3f",
"E0 c #3f2e43",
"F0 c #463248",
"G0 c #4d3750",
"H0 c #5d4460",
"I0 c #654a69",
"J0 c #6a4e6f",
"K0 c #6d5070",
"L0 c #6e5173",
"M0 c #705374",
"N0 c #725476",
"O0 c #735678",
"P0 c #75577a",
"Q0 c #795a7e",
"R0 c #7a5c7f",
"S0 c #7d5d81",
"T0 c #7e5f83",
"U0 c #7c5c80",
"V0 c #76577a",
"W0 c #694d6e",
"X0 c #624866",
"Y0 c #5c435e",
"Z0 c #543d57",
"a0 c #4d374f",
"b0 c #463348",
"c0 c #382d3d",
"d0 c #372e3d",
"e0 c #3e2e42",
"f0 c #4a364d",
"g0 c #5b425e",
"h0 c #6a4e6e",
"i0 c #78597c",
"j0 c #84638a",
"k0 c #906e96",
"l0 c #89648f",
"m0 c #7f5f85",
"n0 c #6d5072",
"o0 c #5a3e5d",
"p0 c #453048",
"q0 c #3c2d3f",
"r0 c #402e43",
"s0 c #503954",
"t0 c #705274",
"u0 c #825b87",
"v0 c #805e85",
"w0 c #654869",
"x0 c #3d2b41",
"y0 c #664969",
"z0 c #8b6990",
"01 c #8c6891",
"11 c #88678c",
"21 c #4f3952",
"31 c #412d42",
"41 c #87668c",
"51 c #835d89",
"61 c #825c88",
"71 c #553d58",
"81 c #4a344d",
"91 c #49334c",
":1 c #8e6c93",
";1 c #453047",
"A1 c #694d6c",
"B1 c #815986",
"C1 c #916f96",
"D1 c #816186",
"E1 c #855e8a",
"F1 c #805986",
"G1 c #86608b",
"H1 c #88638d",
"I1 c #87628d",
"J1 c #87618d",
"K1 c #8b698f",
"L1 c #845d8a",
"M1 c #87678d",
"N1 c #7e6082",
"O1 c #6f5472",
"P1 c #664d6a",
"Q1 c #694e6c",
"R1 c #6a4f6e",
"S1 c #6c5171",
"T1 c #6f5373",
"U1 c #735577",
"V1 c #7f5e83",
"W1 c #8a678f",
"X1 c #916e96",
"Y1 c #8a6690",
"Z1 c #77597a",
"a1 c #835c88",
"b1 c #825a88",
"c1 c #87618c",
"d1 c #8f6c94",
"e1 c #8f6d95",
"f1 c #845e8a",
"g1 c #8a658f",
"h1 c #7a5e7c",
"i1 c #4c384e",
"j1 c #443046",
"k1 c #3e2b40",
"l1 c #422d44",
"m1 c #402b42",
"n1 c #4b344d",
"o1 c #583f5b",
"p1 c #674b6a",
"q1 c #735576",
"r1 c #77597b",
"s1 c #745779",
"t1 c #453147",
"u1 c #816285",
"v1 c #835c89",
"w1 c #906f95",
"x1 c #85648a",
"y1 c #77587b",
"z1 c #684c6b",
"02 c #563e59",
"12 c #4f3951",
"22 c #4a344e",
"32 c #47324a",
"42 c #533b56",
"52 c #694e6d",
"62 c #87668b",
"72 c #8b6690",
"82 c #805886",
"92 c #8d6992",
":2 c #604a62",
";2 c #422f45",
"A2 c #3d2a3f",
"B2 c #422e45",
"C2 c #88628d",
"D2 c #89678e",
"E2 c #715475",
"F2 c #563e5a",
"G2 c #3f2c43",
"H2 c #3e2b42",
"I2 c #3f2c41",
"J2 c #795b7c",
"K2 c #8b6790",
"L2 c #815987",
"M2 c #856689",
"N2 c #402c42",
"O2 c #543d56",
"P2 c #836388",
"Q2 c #785a7c",
"R2 c #634866",
"S2 c #4a344c",
"T2 c #3f2c42",
"U2 c #422e44",
"V2 c #8d6c92",
"W2 c #725676",
"X2 c #412c42",
"Y2 c #402d42",
"Z2 c #412d44",
"a2 c #705475",
"b2 c #88638e",
"c2 c #855f8b",
"d2 c #76597a",
"e2 c #422d43",
"f2 c #604562",
"g2 c #8b6791",
"h2 c #815a87",
"i2 c #87678c",
"j2 c #3f2b41",
"k2 c #bababa",
"l2 c #b7b7b7",
"m2 c #0a080a",
"n2 c #2b202d",
"o2 c #85648b",
"p2 c #3e2d42",
"q2 c #484848",
"r2 c #afafaf",
"s2 c #0a090a",
"t2 c #211a22",
"u2 c #79537f",
"v2 c #79597e",
"w2 c #0d0b0d",
"x2 c #404040",
"y2 c #201722",
"z2 c #7a5480",
"03 c #77527d",
"13 c #171218",
"23 c #d9d9d9",
"33 c #0f0e0f",
"43 c #2c1f2e",
"53 c #100f10",
"63 c #d4d4d4",
"73 c #2c2c2c",
"83 c #acacac",
"93 c #100c10",
":3 c #383838",
";3 c #d5d5d5",
"A3 c #2e2030",
"B3 c #d2d2d2",
"C3 c #d3d3d3",
"D3 c #b1b1b1",
"E3 c #858585",
"F3 c #212121",
"G3 c #6f6f6f",
"H3 c #878787",
"I3 c #b6b6b6",
"J3 c #eaeaea",
"K3 c #030203",
"L3 c #6f4c74",
"M3 c #251a26",
"N3 c #414141",
"O3 c #696969",
"P3 c #242424",
"Q3 c #6d6d6d",
"R3 c #181718",
"S3 c #363636",
"T3 c #666666",
"U3 c #171717",
"V3 c #7d7d7d",
"W3 c #717171",
"X3 c #211823",
"Y3 c #6b4970",
"Z3 c #3f3f3f",
"a3 c #dcdcdc",
"b3 c #454545",
"c3 c #9f9f9f",
"d3 c #141414",
"e3 c #080608",
"f3 c #573b5b",
"g3 c #b8b8b8",
"h3 c #69486e",
"i3 c #171617",
"j3 c #2a2a2a",
"k3 c #636363",
"l3 c #aeaeae",
"m3 c #999999",
"n3 c #525252",
"o3 c #070607",
"p3 c #4d3551",
"q3 c #2e2031",
"r3 c #403f40",
"s3 c #0f0f0f",
"t3 c #777777",
"u3 c #9c9c9c",
"v3 c #cdcdcd",
"w3 c #101010",
"x3 c #292829",
"y3 c #3c293f",
"z3 c #2b1e2d",
"04 c #4e4d4e",
"14 c #606060",
"24 c #737373",
"34 c #dfdfdf",
"44 c #a9a9a9",
"54 c #969696",
"64 c #dbdbdb",
"74 c #29292a",
"84 c #332336",
"94 c #3c3b3c",
":4 c #5e5e5e",
";4 c #fdfdfd",
"A4 c #676767",
"B4 c #282728",
"C4 c #3b283e",
"D4 c #2c2b2d",
"E4 c #333333",
"F4 c #2f2f2f",
"G4 c #262526",
"H4 c #422d45",
"I4 c #1d1c1d",
"J4 c #545454",
"K4 c #f8f8f8",
"L4 c #242324",
"M4 c #3b293e",
"N4 c #4a334e",
"O4 c #0d0c0d",
"P4 c #1f1f1f",
"Q4 c #656565",
"R4 c #cecece",
"S4 c #585858",
"T4 c #f6f6f6",
"U4 c #0d0d0e",
"V4 c #47314b",
"W4 c #c6c6c6",
"X4 c #a2a2a2",
"Y4 c #747474",
"Z4 c #f4f4f4",
"a4 c #c7c7c7",
"b4 c #66466a",
"c4 c #7f5784",
"d4 c #0f0b0f",
"e4 c #393939",
"f4 c #dedede",
"g4 c #bfbfbf",
"h4 c #909090",
"i4 c #e7e7e7",
"j4 c #f2f2f2",
"k4 c #8c8c8c",
"l4 c #080708",
"m4 c #7e5683",
"n4 c #322234",
"o4 c #2a292a",
"p4 c #c8c8c8",
"q4 c #c3c3c3",
"r4 c #d1d1d1",
"s4 c #cccccc",
"t4 c #7f7f7f",
"u4 c #939393",
"v4 c #848484",
"w4 c #828282",
"x4 c #f1f1f1",
"y4 c #241a26",
"z4 c #573c5b",
"05 c #cacaca",
"15 c #f0f0f0",
"25 c #646464",
"35 c #060606",
"45 c #8a8a8a",
"55 c #2e2e2e",
"65 c #5f5f5f",
"75 c #efefef",
"85 c #cbcbcb",
"95 c #48314b",
":5 c #7c5581",
";5 c #181219",
"A5 c #303030",
"B5 c #ababab",
"C5 c #4d4d4d",
"D5 c #3d3d3d",
"E5 c #686868",
"F5 c #1a1a1a",
"G5 c #3e3e3e",
"H5 c #e6e6e6",
"I5 c #ededed",
"J5 c #1b151c",
"K5 c #7d5582",
"L5 c #6a496f",
"M5 c #060506",
"N5 c #6a6a6a",
"O5 c #ececec",
"P5 c #090909",
"Q5 c #e4e4e4",
"R5 c #838383",
"S5 c #c5c5c5",
"T5 c #424242",
"U5 c #e5e5e5",
"V5 c #010102",
"W5 c #664e6a",
"X5 c #825a87",
"Y5 c #503953",
"Z5 c #adadad",
"a5 c #c0c0c0",
"b5 c #111111",
"c5 c #797979",
"d5 c #070707",
"e5 c #e9e9e9",
"f5 c #3a3a3a",
"g5 c #282828",
"h5 c #fbfbfb",
"i5 c #131313",
"j5 c #595959",
"k5 c #818181",
"l5 c #1e1e1e",
"m5 c #130d13",
"n5 c #604863",
"o5 c #89648e",
"p5 c #453447",
"q5 c #0c0a0c",
"r5 c #040404",
"s5 c #e0e0e0",
"t5 c #626262",
"u5 c #757575",
"v5 c #050505",
"w5 c #433145",
"x5 c #8b6a90",
"y5 c #805885",
"z5 c #8e6a93",
"06 c #4d384f",
"16 c #3c3c3c",
"26 c #0c0c0c",
"36 c #dddddd",
"46 c #5a5a5a",
"56 c #402d43",
"66 c #6c526f",
"76 c #89658f",
"86 c #825b88",
"96 c #826486",
":6 c #412e43",
";6 c #707070",
"A6 c #9e9e9e",
"B6 c #f3f3f3",
"C6 c #272727",
"D6 c #0a0a0a",
"E6 c #b2b2b2",
"F6 c #412d43",
"G6 c #826387",
"H6 c #86608c",
"I6 c #7f5785",
"J6 c #8d6a93",
"K6 c #533e55",
"L6 c #6b6b6b",
"M6 c #575757",
"N6 c #d7d7d7",
"O6 c #1b1b1b",
"P6 c #949494",
"Q6 c #49344b",
"R6 c #85658a",
"S6 c #8e6b94",
"T6 c #906d95",
"U6 c #715675",
"V6 c #412c43",
"W6 c #ebebeb",
"X6 c #535353",
"Y6 c #f9f9f9",
"Z6 c #e1e1e1",
"a6 c #292929",
"b6 c #3b3b3b",
"c6 c #d0d0d0",
"d6 c #3f2b42",
"e6 c #503b53",
"f6 c #4e3750",
"g6 c #402c43",
"h6 c #a7a7a7",
"i6 c #151515",
"j6 c #fcfcfc",
"k6 c #eeeeee",
"l6 c #515151",
"m6 c #030303",
"n6 c #b0b0b0",
"o6 c #fafafa",
"p6 c #9a909c",
"q6 c #9f969f",
"r6 c #f3f1f3",
"s6 c #e8e8e8",
"t6 c #898989",
"u6 c #232323",
"v6 c #989898",
"w6 c #fefefe",
"x6 c #b5b5b5",
"y6 c #222222",
"z6 c #121212",
"07 c #434343",
"17 c #6c6c6c",
"27 c #919191",
"37 c #959595",
"47 c #929292",
"57 c #8b8b8b",
"67 c #5c5c5c",
"77 c #262626",
"87 c #010101",
"97 c #505050",
":7 c #e3e3e3",
";7 c #f7f7f7",
"A7 c #a4a4a4",
"B7 c #444444",
"C7 c #020202",
"D7 c #000000",
"E7 c #0e0e0e",
"F7 c #6e6e6e",
"G7 c #d8d8d8",
"H7 c #e2e2e2",
"I7 c #a1a1a1",
"J7 c #767676",
"K7 c #4a4a4a",
"L7 c #2b2b2b",
"M7 c #2d2d2d",
"N7 c #313131",
"O7 c #373737",
"P7 c #5b5b5b",
"Q7 c #8e8e8e",
"R7 c #c1c1c1",
"S7 c #f5f5f5",
"T7 c #ffffff",
"                                                                                                                                ",
"                                                                                                                                ",
"                                                                                                                                ",
"                                                                                                                                ",
"                                                                                                                                ",
"                                                                                                                                ",
"                                                        T7T7T7T7T7T7T7                                                          ",
"                                                T7S7R7Q7P7O7N7M7L7K7J7I7H7T7                                                    ",
"                                            T7G7F7E7D7D7D7D7D7D7D7D7D7D7C7B7A7;7T7                                              ",
"                                        T7:79787D7D7877767574737271707z6D7D7D7y6x6T7                                            ",
"                                      w6v6E7D7D7u6t6s6T7r6q6p6    T7T7o6n697m6D7D7l6k6                                          ",
"                                    j667D7D7i6h6w6T7    g6f6e6d6          T7c6b6D7D7a6Z6                                        ",
"                                  Y6l6D7D7X6W6T7      V6U6T6S6R6Q6            w6P6m6D7O6N6                                      ",
"                                T7M6D7D7L6w6          K6J6I6I6H6G6F6            T7E6D6D7C6B6                                    ",
"                              T7A6D7D7;6T7          :69686I6I6I6766656            T7x687D746T7                                  ",
"                              3626D716j6            06z5I6I6I6I6y5x5w5    m687v5D7  T7u5D7D7n6                                  ",
"                            T7t5D7E7s5    D7r5D7D7q5p5o5I6I6I6I6I6o5n5m587l5k5j5i5m6  h5g5D7f5T7                                ",
"                            e5d5D7c5T7  r5b5u5a5Z507D7Y5I6I6I6I6I6X5W5V5J7s6W6W6U5T5r5Z5A6D7D7S5                                ",
"                          T7R5D7v5Q5  m6P5R7O5O5O5W6N5M5L5I6I6I6I6K5J5O7W6I5I5I5I5H5G5r536F5D7E5T7                              ",
"                          T7D5D7C5T7  C7B5k6k6k6I5I5s6A5;5:5I6I6I695d585k67575757575H5i5j565D755T7T7T7                          ",
"                          j6D6D745h535251515757575757505D7z4I6I6I6y497151515x4x4x4x4x4w426v4D787u4t4s4                          ",
"                          r4D7D7q4  D7p4x4x4x4x4x4x4x4x4o4n4I6I6m4l4k4j4j4j4j4B6B6B6B6i426D7D7D7D7D7h4                          ",
"                          g4D7D7f4i6e4B6B6B6B6B6B6B6B6B6c5d4c4I6b4D7a4Z4Z4Z4Z4S7S7S7S7S7J7m6D7D7D7D7Y4T7                        ",
"                        T7g4D7D7p4C7X4S7S7S7S7S7S7S7S7S7W4D7b4I6V4U4B6S7T4T4T4T4;7;7;7;7S5D7D7D7D7D7S4T7                        ",
"                    T7R4A7Q4D7D7P4D7U5;7;7;7;7;7;7;7;7T4T4O4N4I6M4L4;7;7K4K4K4K4K4Y6Y6Y6B6r5D7D7D7D7b6T7                        ",
"                    T7J4D7D7D7D7D7E7Y6Y6Y6Y6Y6Y6Y6Y6K4K4K4I4H4I6M4G4Y6Y6Y6o6o6o6o6o6o6o6o6F4D7D7D7D7P4T7                        ",
"                    T7;6D7D7D7D7D7E4o6h5h5h5h5h5h5o6o6o6o6D4C4I6M4B4o6h5h5j6j6j6j6j6j6j6j6A4v5D7D7D7v5;4                        ",
"                      k4D7D7D7D7r5:4j6j6j6;4;4;4j6j6j6h5h59484I6M474j6j6;4;4w6;464Z4;4;4j654m6D7D7D7D7H5                        ",
"                      44D7D7D7D7d5t4j6;4;4w6342414a5;4;4j604z3I6y3x3j6;4;4w6Z6O7D7w3v3j6j6u3m6D7D7D7D705                        ",
"                      S5D7D7D7D7d5t3j6j6;464s3D7D7m6Z5;4j6r3q3I6p3o3;7j6j6j6K7D7D7D7n3h5h5m3m6D7D7D7D7l3                        ",
"                      Z6D7D7D7D735A4o6h5h5k3D7D7D7D7j3h5h5i3H4I6h3D7p4o6h5g3D7D7D7D7A5Y6Y654r5D7D7D7D727                        ",
"                      h5C7D7D7D7m6M6Y6Y6Q535D7D7D7D7m6Y6W6D7f3I6m4e347Y6Y6P7D7D7D7D7d3K4;7P6r5D7D726N7c3T7                      ",
"                      T7F5D7D7D7D7b3;7;7a3D7D7D7D7D7Z3K4q4D7Y3I6I6X367;7;7u5D7D7D7D7W3T4S7V3U3a3e4T3T7T7                        ",
"                      T7S3D7D7D7D7P4S7S7S7L7D7D7D7D7x6T4v6m6K5I6I6y3R315S754D7D7D7i6i4Z4Z4G5P4T7Q3P3j6                          ",
"                      T7n3D7D7D7D7D7c6Z4Z4S5U3D7D7O3Z4Z4N3M3I6I6I6L3K3v6B6J3O7D7F5I3j4j4O5d5    6435H3T7                        ",
"                      T7G335F3D5j5D6E3j4j4j4e5D3C3j4j4B387f3I6I6I6I6A3u615x4x4;375x41515g3D7    T757D7X6A7s6T7T7                ",
"                        ;7w6T7T7T7f5:3151515151515x4x4;693m4I6I6I6I6L587X4757575757575k6n3r5      T783:3C78773E5A7s5T7          ",
"                                    87l3k6k6k67575756353g6I6I6I6I6I6I64333R7I5I5I5I5I544D7          T7T7e5A6677787D7A4o6        ",
"                                    m6z623O5I5I5I5s5C61303I6I6I6I6I6I6z2y2w3R7W6W6W6B3F5m6                  T7T775m3r5x2B6      ",
"                                      r5D5c6W6W6G716w2v2I6I6I6I6I6I6I6I6u2t2s2C5k425v5r5                          T7r235q2h5    ",
"                                        r5C79716C7m6p2T6I6I6I6I6I6I6I6I6I6o2n2m2C7r5                                T7l2s3k2T7  ",
"                                            35r5    j2i2h2I6I6I6I6I6I6I6I6g2f2                                        T7Z4T7    ",
"                                                    e2d2c2I6I6I6I6I6I6I6I6b2a2Z2                                Z2Y2X2          ",
"                                                    j2W2H6I6I6I6I6I6I6I6I686V2:6                        U2T2S2R2Q2P2O2          ",
"                                                    N2M2L2I6I6I6I6I6I6I6I6I6K2J2Z2I2          H2U2G2d6F2E2D2T6g2H6C2Q2B2        ",
"            e2Z2Z2A2                              ;2:292I6I6I6I6I6I6I6I6I6I6827262524232221202z1y1x1w1J6b2v182h2h286u1H4        ",
"          t1s1r1q1p1o1n1m1d6l1l1g6j2k1    j2U2j1i1h1g182I6I6I6I6I6I6I6I6I6I6I6I6f1g1S6T6e1d1J6g1c1v182I682b1a1a1a1h262F6        ",
"        l1Z1Y1H6b272J6T6X1W1V1U1T1S1R1Q1P1O1N1M1g2L1I6I6I6I6I6I6I6I6I6I6I6I6I6I6I6I6I6I6I6I6I6I6I682L286a1a1a1a1a1h2x5T2        ",
"        I2K1a1I6I6I6I6I68286c2J1I1C2H1b2b2G1X5I6I6I6I6I6I6I6I6I6I6I6I6I6I6I6I6I6I6I6I6I6I682F1h286a1a1a1a1a1a1a186E1D1V6        ",
"        N2C1y5I6I6I6I6I6I6I6I6I6I6I6I6I6I6I6I6I6I6I6I6I6I6I6I6I6I6I6I6I6I68282B1h2h28686a1a1a1a1a1a1a1a1a1a1a1a1h2g1A1N2        ",
"        ;1X1I6I6I6I6I6I6I6I6I6I6I6I6I6I6I6I6I6828282F1F1L2L2h2h2h2X58686a1a1a1a1a1a1a1a1a1a1a1a1a1a1a1a1a1a1a1X5f1:191          ",
"        81e1I6I6I6I6I6I6I68282F1L2h2X58686a1a1a1a1a1a1a1a1a1a1a1a1a1a1a1a1a1a1a1a1a1a1a1a1a1a1a1a1a1a1a1a186F1c2e171X2          ",
"        Y2x5c282h2X58686a1a1a1a1a1a1a1a1a1a1a1a1a1a1a1a1a1a1a1a1a1a1a1a1a1a1a1a1a1a1a1a1a1a1a1a1a1a16186L251J6410231            ",
"        g6211101c1a1h28661a1a1a1a1a1a1a1a1a1a1a1a1a1a1a1a1a1a1a1a1a1a1a1a1a1a1a1a1a1a1a1618686h2L2h2L176e1z0y0j2I2              ",
"          x0F6w0v0d1e172G1u08282F1B1L2h2h2X5868686868686868686868686868686X5h2L2F18282h2L1c1g192T6X141t0s0k1r0                  ",
"              q0Y2p0o0n0m0:1C1T6d1J6017276b2c1G1c2c2G1H6c1J1I1C2b2o5l076g17201J6d1k0C1d1j0i0h0g0f0I2I2e0d0                      ",
"                    c0e056A2U2b0a0Z0Y0X0W0T1V0U0T0S0R0Q0r1P0O0N0M0L0K0J0A1I0H071G0F0N2A2G2E0D0C0B0                              ",
"                                  A0;0c0:090E0r0:6:6:6r0E0E08070609050D04030201000                                              ",
"                                                                                                                                ",
"                                                                                                                                ",
"                                                                                                                                ",
"                                                                                                                                ",
"                                                                                                                                ",
"                                                                                                                                "};
