/* XPM */
static char *image[] = {
"48 48 931 2",
"   c None",
"00 c #868782",
"10 c #8a8c86",
"20 c #bfc0bd",
"30 c #acada9",
"40 c #999a95",
"50 c #898b85",
"60 c #81827c",
"70 c #83847e",
"80 c #80817b",
"90 c #969793",
":0 c #dadad8",
";0 c #c8c9c6",
"A0 c #b7b7b4",
"B0 c #a1a29f",
"C0 c #8d8e89",
"D0 c #7e7f7a",
"E0 c #7e7f79",
"F0 c #777872",
"G0 c #f8f8f8",
"H0 c #d6d7d5",
"I0 c #b3b4b1",
"J0 c #9f9f9b",
"K0 c #8c8d88",
"L0 c #7d7e79",
"M0 c #7a7b75",
"N0 c #90928d",
"O0 c #babab7",
"P0 c #d7dbd3",
"Q0 c #dce0d9",
"R0 c #edefec",
"S0 c #f7f7f6",
"T0 c #d4d4d3",
"U0 c #c3c4c1",
"V0 c #b1b2ae",
"W0 c #9d9e9a",
"X0 c #8b8c86",
"Y0 c #7c7d77",
"Z0 c #7b7c76",
"a0 c #cacbc8",
"b0 c #d9dcd6",
"c0 c #d4d8d0",
"d0 c #e3e5e0",
"e0 c #9a9a96",
"f0 c #9a9b96",
"g0 c #d9d9d8",
"h0 c #fafafa",
"i0 c #f4f5f4",
"j0 c #8f8f8a",
"k0 c #92938e",
"l0 c #989a95",
"m0 c #d5d8d1",
"n0 c #d9dcd5",
"o0 c #fafbfa",
"p0 c #eff0ed",
"q0 c #e4e6e1",
"r0 c #dee1db",
"s0 c #d8dcd5",
"t0 c #d5d9d1",
"u0 c #fefefd",
"v0 c #7f807a",
"w0 c #8a8b86",
"x0 c #959690",
"y0 c #b8b8b5",
"z0 c #d9d9d7",
"01 c #c7c8c5",
"11 c #8f908b",
"21 c #fefffe",
"31 c #f9faf9",
"41 c #f4f5f3",
"51 c #eef0ed",
"61 c #e9ebe7",
"71 c #e3e6e1",
"81 c #dee1da",
"91 c #d8dbd4",
":1 c #d9ddd6",
";1 c #dfe2dc",
"A1 c #e4e7e2",
"B1 c #eaece8",
"C1 c #eff1ee",
"D1 c #f5f6f4",
"E1 c #cacac8",
"F1 c #f1ece4",
"G1 c #d9ccb4",
"H1 c #ccba9a",
"I1 c #eeeeee",
"J1 c #8e8f89",
"K1 c #9b9c98",
"L1 c #faf7e2",
"M1 c #efe293",
"N1 c #f1e49b",
"O1 c #f3e7a6",
"P1 c #f6ebb4",
"Q1 c #f8f0c5",
"R1 c #fbf6dc",
"S1 c #fefefe",
"T1 c #f9f9f8",
"U1 c #f3f4f2",
"V1 c #eeefec",
"W1 c #e8eae6",
"X1 c #e2e5e0",
"Y1 c #dde0da",
"Z1 c #d7dbd4",
"a1 c #d4d8d1",
"b1 c #e1e4df",
"c1 c #e7e7e6",
"d1 c #7d7e78",
"e1 c #c9b694",
"f1 c #b59b6c",
"g1 c #ab8e59",
"h1 c #ab8f5b",
"i1 c #f6f3ee",
"j1 c #93938e",
"k1 c #f5f0cf",
"l1 c #e5d97d",
"m1 c #e0ce56",
"n1 c #e3d15d",
"o1 c #e6d465",
"p1 c #e9d76e",
"q1 c #ecda77",
"r1 c #eedd80",
"s1 c #f0df86",
"t1 c #f1e28a",
"u1 c #f4e494",
"v1 c #f6e79f",
"w1 c #f8ebaf",
"x1 c #faf0c3",
"y1 c #fcf7da",
"z1 c #fdfefd",
"02 c #fbfbfa",
"12 c #d6d6d4",
"22 c #848175",
"32 c #a5864e",
"42 c #a18146",
"52 c #a88a53",
"62 c #dfd3bf",
"72 c #b4b5b1",
"82 c #f0ecc4",
"92 c #ded478",
":2 c #d8c642",
";2 c #d9c63e",
"A2 c #dbc63b",
"B2 c #dcc637",
"C2 c #dfc839",
"D2 c #e1b940",
"E2 c #e5ce4a",
"F2 c #e8d151",
"G2 c #ebd45a",
"H2 c #e1cf66",
"I2 c #f0da6c",
"J2 c #f2dd76",
"K2 c #f3df79",
"L2 c #f5e180",
"M2 c #f6e389",
"N2 c #f8e797",
"O2 c #faeca9",
"P2 c #fbf1be",
"Q2 c #fdf7d9",
"R2 c #fefdf5",
"S2 c #c5c5c3",
"T2 c #82837d",
"U2 c #8e8c82",
"V2 c #c8b592",
"W2 c #92938d",
"X2 c #a1a29e",
"Y2 c #c7c7c5",
"Z2 c #eae7be",
"a2 c #d6d17b",
"b2 c #91953d",
"c2 c #c8bf4e",
"d2 c #d3c64e",
"e2 c #d5c64a",
"f2 c #d6c646",
"g2 c #d8be40",
"h2 c #d96529",
"i2 c #da712b",
"j2 c #dcbd35",
"k2 c #b9ae2f",
"l2 c #7c852c",
"m2 c #99982b",
"n2 c #d4bc27",
"o2 c #e5c82b",
"p2 c #e8cb32",
"q2 c #eace39",
"r2 c #edd142",
"s2 c #efd34a",
"t2 c #f1d652",
"u2 c #f3d859",
"v2 c #f5db60",
"w2 c #f6dd67",
"x2 c #f8df70",
"y2 c #f8e27e",
"z2 c #f9e690",
"03 c #fcf3ca",
"13 c #b3b4b0",
"23 c #b2b3af",
"33 c #a18045",
"43 c #b39a6b",
"53 c #f6f6f6",
"63 c #a5a7a3",
"73 c #d5d5d3",
"83 c #e4e4bc",
"93 c #cecd7f",
":3 c #b5b55a",
";3 c #76802e",
"A3 c #7d8532",
"B3 c #c2bd56",
"C3 c #cfc659",
"D3 c #d0c655",
"E3 c #d4ab46",
"F3 c #dd6b2b",
"G3 c #e36625",
"H3 c #d8722c",
"I3 c #8a8d2d",
"J3 c #a0a72f",
"K3 c #979d2e",
"L3 c #888e2c",
"M3 c #b9ad2f",
"N3 c #e0c62e",
"O3 c #e0c22a",
"P3 c #df9525",
"Q3 c #df8c23",
"R3 c #e6c61e",
"S3 c #e9c616",
"T3 c #d3ba21",
"U3 c #edca22",
"V3 c #f0cd29",
"W3 c #f3d549",
"X3 c #faeaa5",
"Y3 c #9f9f99",
"Z3 c #a09276",
"a3 c #bfa579",
"b3 c #ba9f70",
"c3 c #aa8d58",
"d3 c #efeae1",
"e3 c #9fa09b",
"f3 c #a8aaa5",
"g3 c #e1e2e0",
"h3 c #dfe2be",
"i3 c #c6ca85",
"j3 c #8c943d",
"k3 c #878e2a",
"l3 c #868d2c",
"m3 c #808931",
"n3 c #b1b155",
"o3 c #c4c160",
"p3 c #cfad53",
"q3 c #dc6b2d",
"r3 c #de6727",
"s3 c #c9772a",
"t3 c #8e952c",
"u3 c #b9a733",
"v3 c #da7127",
"w3 c #e06523",
"x3 c #db6525",
"y3 c #e0bb2c",
"z3 c #dcc22b",
"04 c #9d9a2a",
"14 c #78812d",
"24 c #e5c51e",
"34 c #e8c61a",
"44 c #eed34c",
"54 c #faf0c0",
"64 c #8b8a81",
"74 c #84652b",
"84 c #a78952",
"94 c #d9cbb2",
":4 c #c3c4c0",
";4 c #92948e",
"A4 c #eeeeed",
"B4 c #dae0c2",
"C4 c #b1bb7b",
"D4 c #838b2e",
"E4 c #94992a",
"F4 c #909529",
"G4 c #8a902a",
"H4 c #868e2f",
"I4 c #818a2d",
"J4 c #968530",
"K4 c #d6692d",
"L4 c #db6829",
"M4 c #c1892d",
"N4 c #aba22e",
"O4 c #d36826",
"P4 c #e36623",
"Q4 c #ed6520",
"R4 c #db6624",
"S4 c #bb9830",
"T4 c #878e2c",
"U4 c #898f2c",
"V4 c #7e872c",
"W4 c #d5c02d",
"X4 c #e2c629",
"Y4 c #ead55e",
"Z4 c #fbf6dd",
"a4 c #7d7d75",
"b4 c #87611e",
"c4 c #9f7e42",
"d4 c #a4854c",
"e4 c #c4af8b",
"f4 c #e3e3e2",
"g4 c #999b95",
"h4 c #a6a8a4",
"i4 c #f5f7f4",
"j4 c #d2dcc4",
"k4 c #9fac67",
"l4 c #91992f",
"m4 c #93982a",
"n4 c #93902a",
"o4 c #d76930",
"p4 c #ee6923",
"q4 c #ec6824",
"r4 c #d9692b",
"s4 c #c08a2e",
"t4 c #b9952e",
"u4 c #d76929",
"v4 c #e56625",
"w4 c #ed6721",
"x4 c #ed6621",
"y4 c #d86524",
"z4 c #998c2a",
"05 c #91972b",
"15 c #999f2c",
"25 c #8a902d",
"35 c #c4b738",
"45 c #dcc638",
"55 c #e7d76f",
"65 c #f4f4ee",
"75 c #787973",
"85 c #895d10",
"95 c #c0a77c",
":5 c #9f8451",
";5 c #a08759",
"A5 c #b3a07f",
"B5 c #fafaf9",
"C5 c #989993",
"D5 c #acaeaa",
"E5 c #f1f5f1",
"F5 c #c9d8c7",
"G5 c #9eac6b",
"H5 c #989f2d",
"I5 c #969b2b",
"J5 c #92972a",
"K5 c #8f9429",
"L5 c #d26e31",
"M5 c #ec6c29",
"N5 c #f06d27",
"O5 c #ef6d26",
"P5 c #ed6b27",
"Q5 c #da6a2c",
"R5 c #da6a2b",
"S5 c #ea6a27",
"T5 c #ef6b25",
"U5 c #ee6b25",
"V5 c #d96426",
"W5 c #99992b",
"X5 c #9ea32d",
"Y5 c #91972e",
"Z5 c #b6b040",
"a5 c #d7c74b",
"b5 c #e5d982",
"c5 c #7c7b72",
"d5 c #c0a77b",
"e5 c #a08d6a",
"f5 c #a09071",
"g5 c #aea28b",
"h5 c #e9e7e1",
"i5 c #afb0ac",
"j5 c #e7f0ee",
"k5 c #bfd4cd",
"l5 c #9eae6e",
"m5 c #9ca32d",
"n5 c #9da22d",
"o5 c #999e2c",
"p5 c #959a2b",
"q5 c #c17a30",
"r5 c #e66e2e",
"s5 c #f1712b",
"t5 c #f1712a",
"u5 c #f0712a",
"v5 c #f1702a",
"w5 c #f17029",
"x5 c #f07029",
"y5 c #f06f29",
"z5 c #e86c29",
"06 c #cc7029",
"16 c #9a9f2c",
"26 c #939a2f",
"36 c #b8b44c",
"46 c #d3c960",
"56 c #e3dc96",
"66 c #d3d3d1",
"76 c #817b69",
"86 c #bda476",
"96 c #a09784",
":6 c #a09a8a",
";6 c #aaa69c",
"A6 c #d4d3d0",
"B6 c #d0d1ce",
"C6 c #9d9e99",
"D6 c #c4c5c3",
"E6 c #ddeaed",
"F6 c #b5d1d6",
"G6 c #a0bead",
"H6 c #949c30",
"I6 c #a4a92f",
"J6 c #a0a52e",
"K6 c #9ca12d",
"L6 c #b0872f",
"M6 c #de7032",
"N6 c #ef742e",
"O6 c #e0692f",
"P6 c #d15e2e",
"Q6 c #c5552e",
"R6 c #e0692e",
"S6 c #f2752d",
"T6 c #f2742d",
"U6 c #de6c2b",
"V6 c #b5872b",
"W6 c #9ea42d",
"X6 c #a6ac30",
"Y6 c #8f962d",
"Z6 c #c2c163",
"a6 c #cfcb73",
"b6 c #e3e1aa",
"c6 c #c2c2bf",
"d6 c #827559",
"e6 c #8a5c0b",
"f6 c #bba071",
"g6 c #a0a19e",
"h6 c #a1a3a4",
"i6 c #a6abae",
"j6 c #c3c7cd",
"k6 c #ededec",
"l6 c #a0a29c",
"m6 c #d4e6f1",
"n6 c #abcee0",
"o6 c #9dc5d6",
"p6 c #98a862",
"q6 c #979f31",
"r6 c #a9ad30",
"s6 c #b1a132",
"t6 c #bb9134",
"u6 c #c97f36",
"v6 c #d56e37",
"w6 c #e07034",
"x6 c #c0532f",
"y6 c #bd502b",
"z6 c #b34822",
"07 c #ae441e",
"17 c #ba4d2d",
"27 c #c1532f",
"37 c #e97231",
"47 c #f37930",
"57 c #d7682d",
"67 c #a69d2d",
"77 c #a3a92f",
"87 c #a7ad30",
"97 c #a1a72e",
":7 c #979e33",
";7 c #c2c678",
"A7 c #cbcd86",
"B7 c #e4e5be",
"C7 c #afafaa",
"D7 c #836f46",
"E7 c #8e600f",
"F7 c #8c5e0d",
"G7 c #b89d6c",
"H7 c #a1abb7",
"I7 c #a1adbe",
"J7 c #a1afc4",
"K7 c #b6c3d6",
"L7 c #f9fafc",
"M7 c #a2a49f",
"N7 c #dedfdd",
"O7 c #cae2f6",
"P7 c #a0cbeb",
"Q7 c #97c5e5",
"R7 c #99c5de",
"S7 c #94a969",
"T7 c #ae8933",
"U7 c #d5703d",
"V7 c #d6733b",
"W7 c #df763a",
"X7 c #ea7938",
"Y7 c #f17e36",
"Z7 c #d56331",
"a7 c #cb5828",
"b7 c #c6652e",
"c7 c #b96835",
"d7 c #94360e",
"e7 c #b4511e",
"f7 c #cb6434",
"g7 c #cb5b30",
"h7 c #f27b34",
"i7 c #b7902f",
"j7 c #aaa930",
"k7 c #a2a82e",
"l7 c #959b2e",
"m7 c #b3bc77",
"n7 c #bcc588",
"o7 c #c7cd96",
"p7 c #e8ead1",
"q7 c #9b9a92",
"r7 c #8b713f",
"s7 c #976919",
"t7 c #956717",
"u7 c #bc9f6d",
"v7 c #898a84",
"w7 c #a1b4d1",
"x7 c #a1b7d7",
"y7 c #a1b9dd",
"z7 c #b2c8e9",
"08 c #e3ecf9",
"18 c #bebfbb",
"28 c #e9e9e8",
"38 c #c0defe",
"48 c #96c8f8",
"58 c #91c5f4",
"68 c #93c5f0",
"78 c #95a265",
"88 c #d27340",
"98 c #eb7d3d",
":8 c #f7843a",
";8 c #d35f31",
"A8 c #d76025",
"B8 c #e7b27f",
"C8 c #c76f3d",
"D8 c #b24816",
"E8 c #c6652d",
"F8 c #e39f69",
"G8 c #cb5930",
"H8 c #f58038",
"I8 c #ef7b36",
"J8 c #dd7132",
"K8 c #d7692f",
"L8 c #c97632",
"M8 c #b6a267",
"N8 c #b5c59b",
"O8 c #b6c597",
"P8 c #c4cfa6",
"Q8 c #edf0e2",
"R8 c #8c8b83",
"S8 c #97773c",
"T8 c #a07323",
"U8 c #9e7121",
"V8 c #bfa26f",
"W8 c #8c8d87",
"X8 c #a2beea",
"Y8 c #a2c1f1",
"Z8 c #a2c3f7",
"a8 c #adccfd",
"b8 c #d0e2ff",
"c8 c #dcdcda",
"d8 c #f3f3f3",
"e8 c #90a465",
"f8 c #aa9032",
"g8 c #e77e40",
"h8 c #f6883e",
"i8 c #f8893e",
"j8 c #f8883e",
"k8 c #e06b32",
"l8 c #e47c42",
"m8 c #fcf2d0",
"n8 c #d16024",
"o8 c #cf6125",
"p8 c #d46427",
"q8 c #faeac2",
"r8 c #da6c3c",
"s8 c #f6853c",
"t8 c #f7863b",
"u8 c #f7853b",
"v8 c #f5833a",
"w8 c #ec7a37",
"x8 c #d86a30",
"y8 c #b7b290",
"z8 c #b0c5a6",
"09 c #c0d0b4",
"19 c #f3f7f0",
"29 c #80827b",
"39 c #a47e3a",
"49 c #a97c2d",
"59 c #a77a2b",
"69 c #c3a670",
"79 c #8e908a",
"89 c #a6c8ff",
"99 c #c2daff",
":9 c #f5f5f5",
";9 c #f5f9fd",
"A9 c #afd6ff",
"B9 c #91a463",
"C9 c #989d2b",
"D9 c #c6803c",
"E9 c #d47341",
"F9 c #dc7940",
"G9 c #ed8341",
"H9 c #f4843d",
"I9 c #f1b183",
"J9 c #f5c396",
"K9 c #e5712e",
"L9 c #ea8f4a",
"M9 c #e36d2c",
"N9 c #f2bb8f",
"O9 c #ee935a",
"P9 c #f98a40",
"Q9 c #f98a3f",
"R9 c #f8893f",
"S9 c #ee7f3b",
"T9 c #dc7238",
"U9 c #ce7e50",
"V9 c #acbfb0",
"W9 c #aac5b5",
"X9 c #bdd1c1",
"Y9 c #f1f1f1",
"Z9 c #7f807b",
"a9 c #b2883b",
"b9 c #b28637",
"c9 c #b08435",
"d9 c #c7a973",
"e9 c #91928d",
"f9 c #bad5ff",
"g9 c #f3f8ff",
"h9 c #b0b2ad",
"i9 c #eaf4ff",
"j9 c #8eb5b2",
"k9 c #929a34",
"l9 c #9f9e2d",
"m9 c #b18f34",
"n9 c #cd7a3e",
"o9 c #e58042",
"p9 c #fbb073",
"q9 c #f48f50",
"r9 c #ee7938",
"s9 c #f5ad70",
"t9 c #ee7433",
"u9 c #f27e39",
"v9 c #f18641",
"w9 c #e87e3e",
"x9 c #db7639",
"y9 c #d76d35",
"z9 c #cc7635",
"0: c #b1976b",
"1: c #a1c4ca",
"2: c #a3c5c8",
"3: c #a6c6c5",
"4: c #bdd4d1",
"5: c #89877d",
"6: c #bd9144",
"7: c #bb8f42",
"8: c #ba8e40",
"9: c #cdae76",
":: c #949590",
";: c #deebff",
"A: c #c0c2bf",
"B: c #deeeff",
"C: c #91a051",
"D: c #959c2e",
"E: c #9ba02c",
"F: c #9ca02c",
"G: c #a4992f",
"H: c #d57442",
"I: c #fb9449",
"J: c #fc9549",
"K: c #fc9e55",
"L: c #fed8a1",
"M: c #fc9448",
"N: c #e47e40",
"O: c #d0743a",
"P: c #bd8434",
"Q: c #b09331",
"R: c #a7a430",
"S: c #949d34",
"T: c #97b9ae",
"U: c #9bc5db",
"V: c #9dc5d7",
"W: c #a2c8d5",
"X: c #c0d8df",
"Y: c #d4d4d2",
"Z: c #958e7b",
"a: c #c69b4e",
"b: c #c5994c",
"c: c #c3974a",
"d: c #d2b27a",
"e: c #979893",
"f: c #cee1ff",
"g: c #e6e6e5",
"h: c #afb1ae",
"i: c #cccdca",
"j: c #d3e9ff",
"k: c #9eceff",
"l: c #8ec0e8",
"m: c #8fa465",
"n: c #929a33",
"o: c #979c2b",
"p: c #999d2b",
"q: c #9a9e2b",
"r: c #c97c3d",
"s: c #f08b49",
"t: c #fe9a4c",
"u: c #fea760",
"v: c #fed7a7",
"w: c #f7924a",
"x: c #d4723e",
"y: c #a19d2e",
"z: c #a0a62e",
"0; c #a4aa2f",
"1; c #a7ad2f",
"2; c #91982d",
"3; c #93c3e4",
"4; c #95c5ea",
"5; c #97c5e6",
"6; c #9fc9e4",
"7; c #c6deec",
"8; c #c5c6c3",
"9; c #a19377",
":; c #cfa458",
";; c #cea256",
"A; c #cca154",
"B; c #d7b77d",
"C; c #999b96",
"D; c #a2c6ff",
"E; c #a9caff",
"F; c #fafbfb",
"G; c #aeb0ac",
"H; c #d7d8d6",
"I; c #c8e3ff",
"J; c #9acbff",
"K; c #8db8c6",
"L; c #8fab84",
"M; c #90a25b",
"N; c #909d44",
"O; c #9f975b",
"P; c #d57546",
"Q; c #f8974e",
"R; c #ff9e50",
"S; c #fc9a4f",
"T; c #d97942",
"U; c #b58d34",
"V; c #a1a62e",
"W; c #a5ab2f",
"X; c #a8ae30",
"Y; c #97a033",
"Z; c #91a76d",
"a; c #8ec5fd",
"b; c #8fc5f9",
"c; c #91c5f5",
"d; c #9ccaf2",
"e; c #cde4f7",
"f; c #b6b6b1",
"g; c #af9b73",
"h; c #d9ae62",
"i; c #d7ac60",
"j; c #d5aa5e",
"k; c #ddbc82",
"l; c #9c9e99",
"m; c #a5c8ff",
"n; c #adccff",
"o; c #b4d1ff",
"p; c #bcd6ff",
"q; c #c3daff",
"r; c #cfe2ff",
"s; c #fafcff",
"t; c #bdbfbb",
"u; c #e1e2e1",
"v; c #c6e2ff",
"w; c #aed6ff",
"x; c #a5d1ff",
"y; c #91c7ff",
"z; c #8ec5ff",
"0A c #aaa4b5",
"1A c #d4754a",
"2A c #d97c4d",
"3A c #d57343",
"4A c #b7853b",
"5A c #9aa12c",
"6A c #9fa52d",
"7A c #9ea52e",
"8A c #959d35",
"9A c #91a153",
":A c #8dc4f9",
";A c #d7ebfe",
"AA c #a7a69e",
"BA c #c1a776",
"CA c #e2b76c",
"DA c #e0b66a",
"EA c #deb468",
"FA c #e3c286",
"GA c #9fa09c",
"HA c #c1d9ff",
"IA c #cde0ff",
"JA c #ddeaff",
"KA c #f2f6ff",
"LA c #f7f7f7",
"MA c #e2e3e1",
"NA c #cbcdca",
"OA c #b4b5b2",
"PA c #e7e8e7",
"QA c #f1f1f0",
"RA c #f0f6fb",
"SA c #dbedff",
"TA c #cfe7ff",
"UA c #c5e1ff",
"VA c #bbdcff",
"WA c #b1d7ff",
"XA c #a9d3ff",
"YA c #a3d0ff",
"ZA c #9ccdff",
"aA c #99cbff",
"bA c #9bc4f3",
"cA c #a6b1cd",
"dA c #98beeb",
"eA c #8eb7bf",
"fA c #90a771",
"gA c #91a35e",
"hA c #90a568",
"iA c #8eb7bd",
"jA c #8dc4fa",
"kA c #e2f1ff",
"lA c #9a9991",
"mA c #d1b278",
"nA c #e7bd72",
"oA c #eac88c",
"pA c #a2a39e",
"qA c #fafafb",
"rA c #e8e8e7",
"sA c #d2d3d1",
"tA c #bbbcb9",
"uA c #b3b5b1",
"vA c #bec0bc",
"wA c #d4d6d3",
"xA c #dedfde",
"yA c #e8e9e7",
"zA c #f1f2f1",
"0B c #f0f5fb",
"1B c #e7f3ff",
"2B c #cee6ff",
"3B c #c3e0ff",
"4B c #add6ff",
"5B c #a0cfff",
"6B c #9dcdff",
"7B c #9accff",
"8B c #98caff",
"9B c #95c9ff",
":B c #92c8ff",
";B c #90c6ff",
"AB c #8dc5ff",
"BB c #eff6fe",
"CB c #8f908a",
"DB c #ddb976",
"EB c #a4a6a1",
"FB c #b8bab6",
"GB c #d1d2d0",
"HB c #c3bcab",
"IB c #bbb8ad",
"JB c #b4b5b0",
"KB c #b4b4af",
"LB c #bcbcb5",
"MB c #c6c6c1",
"NB c #d0d2ce",
"OB c #dbdcda",
"PB c #e5e6e5",
"QB c #f0f1f0",
"RB c #f1f6fc",
"SB c #e6f3ff",
"TB c #daecff",
"UB c #cde6ff",
"VB c #c2e0ff",
"WB c #b7dbff",
"XB c #add5ff",
"YB c #a4d1ff",
"ZB c #9fceff",
"aB c #a2d0ff",
"bB c #f0f1f2",
"cB c #91918c",
"dB c #e8be74",
"eB c #e9bf74",
"fB c #a7a9a4",
"gB c #edca8d",
"hB c #e7ca92",
"iB c #dfc696",
"jB c #d7c299",
"kB c #cebe9c",
"lB c #c6b9a0",
"mB c #bcb6a4",
"nB c #b2b0a6",
"oB c #a7a8a4",
"pB c #a4a5a1",
"qB c #aaaba4",
"rB c #b4b4ad",
"sB c #bfbfba",
"tB c #cbccc9",
"uB c #d7d7d6",
"vB c #e3e4e2",
"wB c #f0f0ef",
"xB c #f0f6fc",
"yB c #e8f3ff",
"zB c #e4e4e3",
"0C c #9c9b91",
"1C c #edcc8f",
"2C c #edca8c",
"3C c #aaaca7",
"4C c #f5f6f5",
"5C c #eaeae9",
"6C c #dededd",
"7C c #d1d2cf",
"8C c #c4c5c2",
"9C c #b6b7b4",
":C c #a9aaa5",
";C c #9b9d98",
"AC c #979994",
"BC c #a0a29d",
"CC c #a3a4a0",
"DC c #aeafab",
"EC c #ffffff",
"FC c #adaeaa",
"GC c #b4b6b2",
"HC c #afb1ad",
"IC c #acaea9",
"JC c #a7a9a5",
"KC c #aeb0ab",
"LC c #b2b4b0",
"MC c #b1b3af",
"NC c #b0b2ae",
"OC c #b2b3b0",
"PC c #d4d5d3",
"QC c #e0e0df",
"RC c #c8cac7",
"SC c #b5b7b3",
"TC c #b5b7b4",
"UC c #b6b8b4",
"VC c #b7b9b5",
"                                                                                                ",
"                                                                                                ",
"                                                                                                ",
"                                                                                                ",
"                                                                                                ",
"                                                                                                ",
"                                                          VCUC                                  ",
"                                                  TCVCSCRCQCPCUC                                ",
"                  OCNCMCLCLCLCLCKCJCICHCLCLCLCLCLCLCLCLCLCLCLCLCLCLCLCLCLCLCLCLCGC              ",
"                  FCECECECECECECDCCCBCAC;C:C9C8C7C6C5C4CECECECECECECECECECECECECLC              ",
"                  3CEC2C1C1C1C1C0CzByBxBwBvBuBtBsBrBqBpBoBnBmBlBkBjBiBhB1C1CgBECLC              ",
"                  fBEC1CeBeBeBdBcBbBaBZBYBXBWBVBUBTBSBRBQBPBOBNBMBLBKBNCJBIBHBGBLC              ",
"              FBGCEBEC1CeBeBeBDBCBBBZBABAB;B:B9B8B7B6B5BYB4BWB3B2BTB1B0BzAyAxAwARCvASCLCuAUCUC  ",
"      FBGCtAsArAqApAECoAnAeBeBmAlAkA6BABABABABjAiAhAgAfAeAdAcAbAaAZA5BYAXAWAVAUATASA1BRAQAPAsAUC",
"  OANAMALAKAJAIAHAGAECFAEADACABAAA;A7BABABAB:A9A8A7A6A5A4A3A2A1A0AABABABz;y;9BaAZA5Bx;XAw;v;u;UC",
"  t;s;r;q;p;o;n;m;l;ECk;j;i;h;g;f;e;d;c;b;a;Z;Y;X;W;V;U;T;S;R;Q;P;O;N;M;L;K;ABABABABABABJ;I;H;uA",
"  G;F;q;E;D;D;D;D;C;ECB;A;;;:;9;8;7;6;5;4;3;2;1;0;z:y:x:w:v:u:t:s:r:q:p:o:n:m:l:ABABABABk:j:i:  ",
"  h:g:f:n;D;D;D;D;e:ECd:c:b:a:Z:Y:X:W:V:U:T:S:R:Q:P:O:N:M:L:K:J:I:H:G:F:F:E:D:C:ABABABABYAB:A:  ",
"    i:;:o;D;D;D;D;::EC9:8:7:6:5:vB4:3:2:1:0:z9y9x9w9v9u9t9s9r9q9p9o9n9m9l9F:F:k9j9ABABABXAi9VC  ",
"    h9g9f9D;D;D;D;e9ECd9c9b9a9Z9Y9X9W9V9U9T9S9R9Q9P9O9N9M9L9K9J9I9H9G9F9E9D9G:C9B9ABABABA9;9LC  ",
"    oB:99989D;D;D;79EC69594939291909z8y8x8w8v8u8t8s8r8q8p8o8n8m8l8k8j8i8h8g8E9f8e8ABABz;WBd8uA  ",
"    oBc8b8a8Z8Y8X8W8ECV8U8T8S8R8Q8P8O8N8M8L8K8J8I8H8G8F8E8D8C8B8A8;8:8:8u8u89888786858483828UC  ",
"      1808z7y7x7w7v7ECu7t7s7r7q7p7o7n7m7l7k7j7i7K8h7g7f7e7d7c7b7a7Z7Y7X7W7V7U7T7S7R7Q7P7O7N7SC  ",
"      M7L7K7J7I7H7v7ECG7F7E7D7C7B7A7;7:797877767574737271707z6y6x6w6v6u6t6s6r6W;q6p6o6n6m6sANC  ",
"      l6k6j6i6h6g6v7ECf6e6e6d6c6b6a6Z6Y6X6k7W6V6U6T6T6S6R6Q6P6O6N6M6L6K6J6I687X;87H6G6F6E6D6    ",
"      C6B6A6;6:696v7EC86e6e6766656463626k7W61606z5y5x5w5v5u5t5t5s5r5q5p5o5n5V;0;X;m5l5k5j5VC    ",
"        i5h5g5f5e5v7ECd5e6e6c5zBb5a5Z5Y5X516W5V5U5T5T5S5R5Q5P5O5N5M5L5K5J5I516X597H5G5F5E5D5    ",
"        C5B5A5;5:5v7EC95e6857565554535251505z4y4x4w4v4u4t4s4r4q4p4p4o4n4K5K5m4o:E:l4k4j4i4h4    ",
"        g4f4e4d4c4v7EC95e6b4a4Z4Y4X4W4V4U4T4S4R4Q4P4O4N4X;X;M4L4Q4Q4K4J4I4H4G4F4E4D4C4B4A4oB    ",
"        ;4:49484c4v7EC95e67464544434241404z3y3x3w3v3u3t30;X;X;s3r3Q4q3p3o3n3m3l3k3j3i3h3g3f3    ",
"          e3d3c3c4v7ECb3a3Z3Y3X3W3V3U3T3S334R3Q3P3O3N3M3L3K3J3I3H3G3F3E3D3C3B3A3;3:393837363    ",
"          CB534333v7ECECEC231303z2y2x2w2v2u2t2s2r2q2p2o2n2m2l2k2j2i2h2g2f2e2d2c2b2C3a2Z2Y2X2    ",
"          W2H;V2d4U2v7v7v7T2S2ECECECECECR2Q2P2O2N2M2L2K2J2I2H2G2F2E2D2C2B2A2;2:2f2e292829C      ",
"            726252c4c442322212EC02z1ECECECECECECECECECECR2y1x1w1v1u1t1s1r1q1p1o1n1m1l1k1oB      ",
"            j1i1h184g1f1e1d1c1ECb1a1Z1Y1X1W1V1U1T1S1ECECECECECECECECECECR2R1Q1P1O1N1M1L1K1      ",
"            J1I1H1G1F1QAE175T1ECB5S102D1C1B1A1;1:1a19181716151413121ECECECECECECECECEC4CAC      ",
"            1101z0y0x0J1w0v0ECu0:1t0s0r0q061p041B521o0D1C161q0r0n0m0n0r0q061C1D1o0ECECrAl0      ",
"              W8k0        j0ECECECECo0D1p061q0r0n0a1n0r0q061p0i0h021B541p061q0r0n0W1ECg0f0      ",
"                          e0:9ECECECECECECECECECECS131415161d0Y191c0b0;1A1B1C1D1o0ECECa0e:      ",
"                          Z075Y0X0W0V0U0T0g:S0ECECECECECECECECECECS1T1U1R0W1X1Q0P0U1ECO0N0      ",
"                                    M0v0v0Z075L0K0J0I0S2H0c1G0ECECECECECECECECECECECECoB        ",
"                                                    F0E0D0Z075D0C0B0A0;0:05Ch0ECECECEC90        ",
"                                                                    F08070T2605040302010        ",
"                                                                                    00K0        ",
"                                                                                                ",
"                                                                                                ",
"                                                                                                ",
"                                                                                                "};
