/* XPM */
static char *image[] = {
"32 32 520 2",
"   c None",
"00 c #a7afb5",
"10 c #aeb6bc",
"20 c #dddfe2",
"30 c #ced0d4",
"40 c #d3d5d8",
"50 c #bfc5c9",
"60 c #aab2b8",
"70 c #bcc3c7",
"80 c #e2e3e6",
"90 c #dcdee0",
":0 c #aab6a8",
";0 c #879d7d",
"A0 c #859c7b",
"B0 c #9fac9f",
"C0 c #c6c9cc",
"D0 c #cbced2",
"E0 c #b3bbc0",
"F0 c #d6dadc",
"G0 c #eaebed",
"H0 c #a8b7a2",
"I0 c #61864b",
"J0 c #3b7116",
"K0 c #2f660a",
"L0 c #35700d",
"M0 c #3d7418",
"N0 c #5c8147",
"O0 c #91a28e",
"P0 c #c0c5c9",
"Q0 c #d8dcde",
"R0 c #ebecec",
"S0 c #99ad8f",
"T0 c #306c08",
"U0 c #2b6a00",
"V0 c #306d08",
"W0 c #427621",
"X0 c #82977b",
"Y0 c #bdc0c3",
"Z0 c #bdc3c6",
"a0 c #dbdee1",
"b0 c #7b9869",
"c0 c #377010",
"d0 c #2a6800",
"e0 c #387011",
"f0 c #69885a",
"g0 c #babec1",
"h0 c #bcc1c6",
"i0 c #f5f5f5",
"j0 c #a1b497",
"k0 c #366f10",
"l0 c #2b6900",
"m0 c #2b6a01",
"n0 c #377111",
"o0 c #82967c",
"p0 c #bfc3c6",
"q0 c #b4bcc1",
"r0 c #f0f1f2",
"s0 c #bdcab6",
"t0 c #457824",
"u0 c #2d6b02",
"v0 c #2c6b01",
"w0 c #2c6a01",
"x0 c #2c6a00",
"y0 c #2a6900",
"z0 c #437622",
"01 c #92a190",
"11 c #c4c7cb",
"21 c #a9b1b7",
"31 c #f9f9f9",
"41 c #6d9057",
"51 c #306c06",
"61 c #2e6b03",
"71 c #306c05",
"81 c #316e07",
"91 c #336e08",
":1 c #346f08",
";1 c #346f0a",
"A1 c #346f09",
"B1 c #2f6a04",
"C1 c #2e6904",
"D1 c #306e05",
"E1 c #2f6c04",
"F1 c #2d6b03",
"G1 c #316d07",
"H1 c #5e824a",
"I1 c #bec1c6",
"J1 c #b8bec2",
"K1 c #f6f7f8",
"L1 c #bdcab7",
"M1 c #3c7316",
"N1 c #336f08",
"O1 c #37710d",
"P1 c #3a720f",
"Q1 c #3b7411",
"R1 c #3e7614",
"S1 c #3d7613",
"T1 c #467720",
"U1 c #9aad8c",
"V1 c #9fae94",
"W1 c #477724",
"X1 c #37710c",
"Y1 c #36710c",
"Z1 c #326f08",
"a1 c #3e7518",
"b1 c #94a293",
"c1 c #c8cace",
"d1 c #c8cdd1",
"e1 c #f0f3ef",
"f1 c #85a172",
"g1 c #39730e",
"h1 c #3b7311",
"i1 c #3f7615",
"j1 c #417817",
"k1 c #447a1a",
"l1 c #457b1b",
"m1 c #457c1b",
"n1 c #42761a",
"o1 c #aaba9c",
"p1 c #e4e4e4",
"q1 c #d8d7d9",
"r1 c #a2af98",
"s1 c #3f7318",
"t1 c #3d7512",
"u1 c #3a7310",
"v1 c #3a740f",
"w1 c #718e61",
"x1 c #bdc1c3",
"y1 c #b8bec3",
"z1 c #e5e8e9",
"02 c #cdd6c7",
"12 c #588439",
"22 c #417816",
"32 c #467b1c",
"42 c #497e20",
"52 c #4c8023",
"62 c #4e8326",
"72 c #588534",
"82 c #b4c4a7",
"92 c #faf9fa",
":2 c #f1f1f1",
";2 c #e5e5e5",
"A2 c #dddcde",
"B2 c #a4b09a",
"C2 c #527e2f",
"D2 c #437a18",
"E2 c #3f7715",
"F2 c #558135",
"G2 c #a1aca1",
"H2 c #c5c9cd",
"I2 c #eff1f2",
"J2 c #9fb293",
"K2 c #4d7f27",
"L2 c #497e1f",
"M2 c #4d8225",
"N2 c #518528",
"O2 c #54872c",
"P2 c #56892c",
"Q2 c #53832b",
"R2 c #b4c5a8",
"S2 c #f6f7f5",
"T2 c #fcfbfc",
"U2 c #fcfcfc",
"V2 c #ececec",
"W2 c #d9d9da",
"X2 c #a6b29c",
"Y2 c #4a7c24",
"Z2 c #467c1c",
"a2 c #4c7f27",
"b2 c #83997b",
"c2 c #c9ccd1",
"d2 c #adb5ba",
"e2 c #c3c8cd",
"f2 c #f1f1f3",
"g2 c #6e9056",
"h2 c #4f8326",
"i2 c #53872a",
"j2 c #58892f",
"k2 c #5d9035",
"l2 c #669143",
"m2 c #b7c7aa",
"n2 c #f6f8f4",
"o2 c #f7f9f5",
"p2 c #f0f0f0",
"q2 c #e2e1e4",
"r2 c #aab6a1",
"s2 c #5b8737",
"t2 c #4e8225",
"u2 c #66894f",
"v2 c #c4c8cb",
"w2 c #b3babf",
"x2 c #d2d6da",
"y2 c #d9ddd8",
"z2 c #5e893e",
"03 c #55882c",
"13 c #5b8d33",
"23 c #5f9137",
"33 c #629439",
"43 c #61903a",
"53 c #bccbb0",
"63 c #f8f8f8",
"73 c #f0f5ec",
"83 c #a6c28d",
"93 c #adc797",
":3 c #f0f1f0",
";3 c #dedede",
"A3 c #7c9f61",
"B3 c #54882b",
"C3 c #638c45",
"D3 c #b4bbb8",
"E3 c #bec4c8",
"F3 c #e5e7e9",
"G3 c #b2bfac",
"H3 c #5d8d37",
"I3 c #5d8f35",
"J3 c #64953b",
"K3 c #68993f",
"L3 c #709b4c",
"M3 c #bccaae",
"N3 c #fbfbfb",
"O3 c #f0f4ec",
"P3 c #99bc79",
"Q3 c #74a548",
"R3 c #72a346",
"S3 c #9ebf81",
"T3 c #f4f7f1",
"U3 c #f9fbf8",
"V3 c #a7c192",
"W3 c #679740",
"X3 c #6a9845",
"Y3 c #6b9749",
"Z3 c #9aa997",
"a3 c #cccfd3",
"b3 c #e8e9ea",
"c3 c #97ac8b",
"d3 c #629239",
"e3 c #65953c",
"f3 c #6b9c41",
"g3 c #6b9942",
"h3 c #bfceb1",
"i3 c #f5f6f4",
"j3 c #f7f7f7",
"k3 c #f8f7f8",
"l3 c #eff1ec",
"m3 c #abc88e",
"n3 c #7fae50",
"o3 c #80af54",
"p3 c #7ead52",
"q3 c #79a94e",
"r3 c #a8c68c",
"s3 c #b2cc9b",
"t3 c #75a34d",
"u3 c #739f4f",
"v3 c #709d4c",
"w3 c #8ba181",
"x3 c #ced2d4",
"y3 c #dee1df",
"z3 c #82a06d",
"04 c #68993e",
"14 c #6e9e44",
"24 c #78a353",
"34 c #c3d2b5",
"44 c #fefefe",
"54 c #fafafa",
"64 c #f8f8f9",
"74 c #f0f2ed",
"84 c #a5c781",
"94 c #8ab959",
":4 c #8dba5d",
";4 c #8bb95d",
"A4 c #8ab75a",
"B4 c #87b558",
"C4 c #81b055",
"D4 c #83b059",
"E4 c #87b160",
"F4 c #81ac5b",
"G4 c #7ba655",
"H4 c #76a351",
"I4 c #809d6e",
"J4 c #c7cbcc",
"K4 c #b2b9be",
"L4 c #c4cace",
"M4 c #ced4ce",
"N4 c #7a9d5f",
"O4 c #6e9f44",
"P4 c #70a245",
"Q4 c #b0c89a",
"R4 c #f8faf7",
"S4 c #fdfdfd",
"T4 c #f2f4ee",
"U4 c #b6d297",
"V4 c #92c05f",
"W4 c #95c264",
"X4 c #93c162",
"Y4 c #92bf62",
"Z4 c #94c066",
"a4 c #95be6a",
"b4 c #92bc69",
"c4 c #8cb766",
"d4 c #80ab5a",
"e4 c #7ca755",
"f4 c #7d9f64",
"g4 c #bdc4bf",
"h4 c #bec4c9",
"i4 c #bbc5b8",
"j4 c #779f55",
"k4 c #75a54a",
"l4 c #7baa4e",
"m4 c #9ec27b",
"n4 c #e8f0e0",
"o4 c #ffffff",
"p4 c #f4f8ef",
"q4 c #b0d28a",
"r4 c #9ac865",
"s4 c #9fcc6b",
"t4 c #a0cc6c",
"u4 c #a1cc6e",
"v4 c #a3cd72",
"w4 c #a5cd77",
"x4 c #a3cb76",
"y4 c #9fc873",
"z4 c #9bc36f",
"05 c #94be6b",
"15 c #88b261",
"25 c #82ac5b",
"35 c #7ea361",
"45 c #b2bcb1",
"55 c #d4d7db",
"65 c #aebba8",
"75 c #77a252",
"85 c #7aaa4f",
"95 c #82b155",
":5 c #89b75a",
";5 c #a9cc86",
"A5 c #e4efd7",
"B5 c #bdda9c",
"C5 c #9fcc68",
"D5 c #a4d06f",
"E5 c #a9d474",
"F5 c #add67a",
"G5 c #afd77f",
"H5 c #add47e",
"I5 c #aad17b",
"J5 c #9ac46f",
"K5 c #95bf6b",
"L5 c #8db765",
"M5 c #86b15f",
"N5 c #80a75f",
"O5 c #a9b7a5",
"P5 c #cfd2d7",
"Q5 c #d5d8dd",
"R5 c #9caf92",
"S5 c #7ba754",
"T5 c #81b053",
"U5 c #89b65a",
"V5 c #91be60",
"W5 c #96c462",
"X5 c #9eca69",
"Y5 c #a5d170",
"Z5 c #afd87b",
"a5 c #b4dc81",
"b5 c #b8e086",
"c5 c #b9e187",
"d5 c #b9e086",
"e5 c #b5dc83",
"f5 c #b2d980",
"g5 c #acd57e",
"h5 c #a8d079",
"i5 c #a0c974",
"j5 c #9ac370",
"k5 c #92bc6a",
"l5 c #8cb564",
"m5 c #84ad61",
"n5 c #9eb095",
"o5 c #d3d6db",
"p5 c #d4d7dc",
"q5 c #94ab86",
"r5 c #7dab53",
"s5 c #84b356",
"t5 c #8ebb5f",
"u5 c #9ac569",
"v5 c #a2cc72",
"w5 c #acd57b",
"x5 c #b2da80",
"y5 c #b8df86",
"z5 c #bce389",
"06 c #bee58b",
"16 c #bfe68b",
"26 c #bee58a",
"36 c #bbe288",
"46 c #b7de85",
"56 c #b2d981",
"66 c #aed57d",
"76 c #a5ce78",
"86 c #9fc773",
"96 c #96c06c",
":6 c #8fb966",
";6 c #87b162",
"A6 c #98ae8c",
"B6 c #d6d9de",
"C6 c #d2d4d9",
"D6 c #94aa87",
"E6 c #8ab168",
"F6 c #94bb6d",
"G6 c #9dc572",
"H6 c #a7cf79",
"I6 c #add57e",
"J6 c #b4db82",
"K6 c #b9e087",
"L6 c #bee68b",
"M6 c #c2e98e",
"N6 c #c7ed90",
"O6 c #c5ec90",
"P6 c #c1e98d",
"Q6 c #bde48a",
"R6 c #b7df85",
"S6 c #b2da81",
"T6 c #abd47c",
"U6 c #a4cd77",
"V6 c #9bc371",
"W6 c #94bb6f",
"X6 c #8db16c",
"Y6 c #9bb08f",
"Z6 c #dadbe0",
"a6 c #afb7bc",
"b6 c #cfd2d5",
"c6 c #bcc4bd",
"d6 c #b2beae",
"e6 c #aabaa2",
"f6 c #9eb58e",
"g6 c #9bba7e",
"h6 c #a6c97f",
"i6 c #b7de86",
"j6 c #bee68a",
"k6 c #c3eb8d",
"l6 c #c7ee91",
"m6 c #cbf193",
"n6 c #ccf394",
"o6 c #cbf294",
"p6 c #c9f093",
"q6 c #c6ed90",
"r6 c #c2e98c",
"s6 c #bce488",
"t6 c #b5dc85",
"u6 c #a5c87e",
"v6 c #9cbb7f",
"w6 c #a3ba92",
"x6 c #b3c3aa",
"y6 c #bdc8b8",
"z6 c #cad1ca",
"07 c #dddee1",
"17 c #b2babf",
"27 c #acb4ba",
"37 c #cacfd2",
"47 c #cbd0d3",
"57 c #d0d4d8",
"67 c #d7d9dd",
"77 c #dcdee2",
"87 c #d8dadb",
"97 c #c8cfc9",
":7 c #b7c5ae",
";7 c #b6cd9e",
"A7 c #bfe192",
"B7 c #cbf194",
"C7 c #d0f798",
"D7 c #d1f899",
"E7 c #cff697",
"F7 c #c9ef93",
"G7 c #bee092",
"H7 c #bbd1a2",
"I7 c #c2cfb9",
"J7 c #d7ddd6",
"K7 c #eaebec",
"L7 c #ededf0",
"M7 c #e5e7ea",
"N7 c #dddfe3",
"O7 c #d8dbde",
"P7 c #d5d8db",
"Q7 c #b0b8bd",
"R7 c #b6bec2",
"S7 c #c2c7cc",
"T7 c #d7dbde",
"U7 c #e1e4e3",
"V7 c #c8d3c1",
"W7 c #b7d09c",
"X7 c #cef398",
"Y7 c #d8fd9c",
"Z7 c #d7fd9c",
"a7 c #ccf197",
"b7 c #bad39f",
"c7 c #d3ddcb",
"d7 c #eff1ee",
"e7 c #f9f9fa",
"f7 c #e3e5e7",
"g7 c #c9ced2",
"h7 c #b2b9bf",
"i7 c #d0d5d8",
"j7 c #e9e9ec",
"k7 c #e8e9eb",
"l7 c #becdb3",
"m7 c #c2dba0",
"n7 c #c3dba0",
"o7 c #c5d3b9",
"p7 c #f3f5f5",
"q7 c #f2f3f4",
"r7 c #d9dde0",
"s7 c #b5bdc2",
"t7 c #b7bec3",
"u7 c #d3d7da",
"v7 c #eff0f1",
"w7 c #e3e7e3",
"x7 c #e7eae5",
"y7 c #f7f7f8",
"z7 c #d7dbdd",
"08 c #bbc2c7",
"18 c #b7bec2",
"28 c #dcdfe2",
"38 c #dde0e2",
"48 c #b6bec3",
"58 c #a1aab0",
"68 c #a0aab0",
"                              6858                              ",
"                            48382818                            ",
"                        08z7y7x7w7v7u7t7                        ",
"                    s7r7q7p7o7n7m7l7k7j7i7h7                    ",
"                g7f7e7d7c7b7a7Z7Y7X7W7V7U7k7T7S7R7              ",
"    Q7P7O7N7M7L7K7J7I7H7G7F7E7D7D7C7B7A7;7:79787776757473727    ",
"    1707z6y6x6w6v6u6t6s6r6q6p6o6n6m6l6k6j6i6h6g6f6e6d6c6b6a6    ",
"      Z6Y6X6W6V6U6T6S6R6Q6P6O6N6q6O6M6L6K6J6I6H6G6F6E6D6C6      ",
"      B6A6;6:69686766656463626161606z5y5x5w5v5u5t5s5r5q5p5      ",
"      o5n5m5l5k5j5i5h5g5f5e546d5c5b5a5Z5Y5X5W5V5U5T5S5R5Q5      ",
"      P5O5N5M5L5K5J5i576I5H5G5G5F5E5D5C5B5A5;5:59585756555      ",
"      g745352515:605z4y4x4w4v4u4t4s4r4q4p4o4n4m4l4k4j4i457      ",
"      h4g4f4e4d415c4b4a4Z4Y4X4W4W4V4U4T4S4o4R4Q4P4O4N4M4L4      ",
"      K4J4I4H4G4F4E4D4C4B4A4;4:494847464544434241404z3y348      ",
"        x3w3v3u3H4t3s3r3q3p3o3n3m3l3k3j3i3h3g3f3e3d3c3b3        ",
"        a3Z3Y3X3W3V3U3T3S3R3Q3P3O364j3N3M3L3K3J3I3H3G3F3        ",
"        E3D3C3B3A3;3:3S4T39383735463i3534333231303z2y2x2        ",
"        w2v2u2t2s2r2q2p244o2n24454N3m2l2k213j2i2h2g2f2e2        ",
"        d2c2b2a2Z2Y2X2W2V2j3U2T2S2R2Q2P2O2N2M2L2K2J2I2R7        ",
"          H2G2F2E2D2C2B2A2;2:292827262t2524232221202z1          ",
"          y1x1w1v1u1t1s1r1q1p1o1n1m1l1k1j1i1h1g1f1e1d1          ",
"            c1b1a1Z1Y1X1W1V1U1T1S1R1t1Q1P1O1N1M1L1K1            ",
"            J1I1H1G1F1E1D1C1B1A1;1:191817161514131i7            ",
"            211101z0y0x0w0v0u0u0u0u0w0w0x0y0t0s0r0q0            ",
"              w2p0o0n0m0l0x0x0x0x0x0x0l0m0k0j0i0L4              ",
"                h0g0f0e0d0l0x0x0x0x0l0y0c0b0:3a0                ",
"                  Z0Y0X0W0V0U0l0l0U0T0z0S0R0Q0                  ",
"                    P0v2O0N0M0L0K0J0I0H0G0F0                    ",
"                      E0D0C0B0A0;0:0908070                      ",
"                        605040304020g710                        ",
"                            00E3P000                            ",
"                                                                "};
