/* XPM */
static char *image[] = {
"32 32 202 2",
"   c None",
"00 c #848782",
"10 c #9c9e9a",
"20 c #a3a4a0",
"30 c #a1a39f",
"40 c #9a9b97",
"50 c #70726d",
"60 c #6d6f6a",
"70 c #aaaba8",
"80 c #e5e5e4",
"90 c #f6f6f6",
":0 c #e2e2e2",
";0 c #dadad9",
"A0 c #d9d9d8",
"B0 c #dcdcdb",
"C0 c #e1e2e1",
"D0 c #cfcfce",
"E0 c #9ea09c",
"F0 c #70726f",
"G0 c #f3f3f3",
"H0 c #c3c3c3",
"I0 c #828282",
"J0 c #898989",
"K0 c #8b8d8a",
"L0 c #8f908e",
"M0 c #a5a5a5",
"N0 c #b1b1b1",
"O0 c #d2d2d2",
"P0 c #dadada",
"Q0 c #aaaba7",
"R0 c #dfdfde",
"S0 c #eaeaea",
"T0 c #dedede",
"U0 c #dbdbdb",
"V0 c #dfdfdf",
"W0 c #cacbc9",
"X0 c #999b98",
"Y0 c #878983",
"Z0 c #8e8f8b",
"a0 c #9a9b96",
"b0 c #969693",
"c0 c #8e908b",
"d0 c #8a8c86",
"e0 c #878984",
"f0 c #888a86",
"g0 c #878985",
"h0 c #888b86",
"i0 c #898b86",
"j0 c #8b8c88",
"k0 c #8d8e8b",
"l0 c #90928f",
"m0 c #888a85",
"n0 c #949593",
"o0 c #9d9e9b",
"p0 c #8a8b88",
"q0 c #7b7c78",
"r0 c #7c7d7c",
"s0 c #868686",
"t0 c #7c7e7a",
"u0 c #8d8d8b",
"v0 c #918786",
"w0 c #949090",
"x0 c #948989",
"y0 c #90908e",
"z0 c #938989",
"01 c #a08a8a",
"11 c #cf9696",
"21 c #dc6767",
"31 c #d35959",
"41 c #bc7070",
"51 c #987e7d",
"61 c #908888",
"71 c #948d8d",
"81 c #ca9898",
"91 c #ee7171",
":1 c #d41212",
";1 c #c20000",
"A1 c #b20000",
"B1 c #a60909",
"C1 c #a73131",
"D1 c #975353",
"E1 c #8f8a8a",
"F1 c #938c8c",
"G1 c #d9a5a5",
"H1 c #d74646",
"I1 c #c10000",
"J1 c #b50000",
"K1 c #9a0000",
"L1 c #900909",
"M1 c #891818",
"N1 c #781111",
"O1 c #722c2c",
"P1 c #8f8b8b",
"Q1 c #908d8d",
"R1 c #c08c8c",
"S1 c #ca5757",
"T1 c #a90000",
"U1 c #a20000",
"V1 c #970000",
"W1 c #8b0000",
"X1 c #7e0000",
"Y1 c #7b1313",
"Z1 c #a46a6a",
"a1 c #7e3e3e",
"b1 c #4b0303",
"c1 c #5f2d2d",
"d1 c #8f8e8e",
"e1 c #928686",
"f1 c #d59b9b",
"g1 c #920303",
"h1 c #810000",
"i1 c #770000",
"j1 c #6c0000",
"k1 c #600000",
"l1 c #540202",
"m1 c #926666",
"n1 c #b39494",
"o1 c #612121",
"p1 c #898282",
"q1 c #9a8080",
"r1 c #aa5f5f",
"s1 c #710000",
"t1 c #6d0000",
"u1 c #700000",
"v1 c #6e0000",
"w1 c #670000",
"x1 c #630000",
"y1 c #5e0000",
"z1 c #905858",
"02 c #b79999",
"12 c #9f7878",
"22 c #490000",
"32 c #785f5f",
"42 c #977e7e",
"52 c #b04444",
"62 c #b11717",
"72 c #c54343",
"82 c #dd7272",
"92 c #e38080",
":2 c #e07777",
";2 c #d35b5b",
"A2 c #bf3939",
"B2 c #c56d6d",
"C2 c #cf9999",
"D2 c #ca9a9a",
"E2 c #640000",
"F2 c #745454",
"G2 c #9d7c7c",
"H2 c #d54f4f",
"I2 c #d70909",
"J2 c #dc0a0a",
"K2 c #de0606",
"L2 c #db0303",
"M2 c #d50000",
"N2 c #cc0000",
"O2 c #c30000",
"P2 c #d56767",
"Q2 c #df9999",
"R2 c #d78f8f",
"S2 c #8a0000",
"T2 c #816363",
"U2 c #929090",
"V2 c #b66868",
"W2 c #940404",
"X2 c #990303",
"Y2 c #a20101",
"Z2 c #a80000",
"a2 c #a60000",
"b2 c #a00000",
"c2 c #990606",
"d2 c #bc6d6d",
"e2 c #cb9e9e",
"f2 c #b38080",
"g2 c #5d0000",
"h2 c #908e8e",
"i2 c #ababab",
"j2 c #442727",
"k2 c #511b1b",
"l2 c #541515",
"m2 c #570e0e",
"n2 c #530c0c",
"o2 c #602929",
"p2 c #bba5a5",
"q2 c #e4dede",
"r2 c #acacac",
"s2 c #d7d7d7",
"t2 c #999999",
"u2 c #fcfcfc",
"v2 c #ffffff",
"w2 c #f4f4f4",
"x2 c #eeeeee",
"y2 c #ebebeb",
"z2 c #ededed",
"03 c #f2f2f2",
"13 c #f8f8f8",
"23 c #a2a2a2",
"33 c #a1a1a1",
"43 c #949494",
"53 c #8f8f8f",
"63 c #909090",
"73 c #929292",
"83 c #919191",
"                                                                ",
"                      83838383838383738363                      ",
"                    837373            538383                    ",
"                    433383738383838383832373                    ",
"                    83131303z2y2y2y2x2w2x283                    ",
"                    73  v2                83                    ",
"                    83  v2                83                    ",
"                  83    u2                t283                  ",
"                  83    03s2              r263                  ",
"                  83    q2p2o2n2m2l2k2j2  i263                  ",
"                  h2g2f2e2d2c2b2a2Z2Y2X2W2V2U2                  ",
"                  T2S2R2Q2P2O2N2M2L2K2J2I2H2G2                  ",
"                  F2E2D2C2B2A2;2:2928272625242                  ",
"                  32221202z1y1x1w1v1u1t1s1r1q1                  ",
"                  p122o1n1m1l1k1j1i1h1S2g1f1e1                  ",
"                  d1c1b1a1Z1Y1X1W1V1U1T1S1R1Q1                  ",
"                    P1O1N1M1L1K1T1J1I1H1G1F1                    ",
"                      E1D1C1B1A1;1:1918171                      ",
"                        61514131211101z0                        ",
"                          y0x0w0w0v0u0                          ",
"                            t0s0r0q0                            ",
"                            p0o0n0m0                            ",
"                              l0k0                              ",
"                              j0i0                              ",
"                              h0g0                              ",
"                              f0e0                              ",
"                        d0c0b0m0m0a0Z0Y0                        ",
"                      X0W0V0U0m0i0T0S0R0Q0                      ",
"                    h0P0O0N0M0L0K0J0I0H0G0e0                    ",
"                    F0E0D0C0B0A0;0:090807060                    ",
"                        50e0403020100050                        ",
"                                                                "};
