/* XPM */
static char *image[] = {
"48 48 655 2",
"   c None",
"00 c #70c022",
"10 c #80d131",
"20 c #74c524",
"30 c #82d236",
"40 c #82d332",
"50 c #539f09",
"60 c #488a07",
"70 c #4f980c",
"80 c #529d0c",
"90 c #4f9b08",
":0 c #509b08",
";0 c #519c09",
"A0 c #4e9a06",
"B0 c #519d0b",
"C0 c #539c0b",
"D0 c #529a0c",
"E0 c #4c9508",
"F0 c #529e08",
"G0 c #8ad441",
"H0 c #87d43a",
"I0 c #4e960b",
"J0 c #519c08",
"K0 c #63aa1f",
"L0 c #87c64b",
"M0 c #9dd665",
"N0 c #b0e37e",
"O0 c #bbea8c",
"P0 c #c3ef97",
"Q0 c #c7f19f",
"R0 c #c8f19f",
"S0 c #c6f19e",
"T0 c #c5f19a",
"U0 c #beef90",
"V0 c #b6eb84",
"W0 c #abe275",
"X0 c #9eda65",
"Y0 c #92d256",
"Z0 c #86c946",
"a0 c #75bb33",
"b0 c #65ad21",
"c0 c #59a311",
"d0 c #539d0b",
"e0 c #91d74c",
"f0 c #8ed646",
"g0 c #529d09",
"h0 c #509b0b",
"i0 c #61a91c",
"j0 c #98d35d",
"k0 c #bdec8e",
"l0 c #c1f094",
"m0 c #b8ee84",
"n0 c #a4e862",
"o0 c #a6e963",
"p0 c #afeb76",
"q0 c #adea70",
"r0 c #93d851",
"s0 c #9ad561",
"t0 c #c2ef94",
"u0 c #a7ea66",
"v0 c #b1eb78",
"w0 c #478808",
"x0 c #5fa71b",
"y0 c #b5e785",
"z0 c #b4ed7d",
"01 c #5ea719",
"11 c #59a214",
"21 c #b7e888",
"31 c #a6e966",
"41 c #7fc040",
"51 c #509b0a",
"61 c #a5dc6f",
"71 c #b2eb79",
"81 c #a5e964",
"91 c #9ee658",
":1 c #9be455",
";1 c #abea6e",
"A1 c #9dd765",
"B1 c #519c0b",
"C1 c #6bb12a",
"D1 c #beef8d",
"E1 c #9de655",
"F1 c #a7e968",
"G1 c #a3e266",
"H1 c #9dd964",
"I1 c #86a749",
"J1 c #5f6729",
"K1 c #85b656",
"L1 c #a8e56b",
"M1 c #6f9b45",
"N1 c #6e9a44",
"O1 c #6d9a42",
"P1 c #7fb54b",
"Q1 c #9de458",
"R1 c #519b0a",
"S1 c #a0d969",
"T1 c #acea6f",
"U1 c #9be059",
"V1 c #8dc955",
"W1 c #89c052",
"X1 c #83b14e",
"Y1 c #909d3b",
"Z1 c #a18d2a",
"a1 c #6c4d0f",
"b1 c #000000",
"c1 c #666928",
"d1 c #a3e85f",
"e1 c #a0e65c",
"f1 c #c1ef93",
"g1 c #529d0b",
"h1 c #519b09",
"i1 c #beed8f",
"j1 c #9ee558",
"k1 c #93d852",
"l1 c #8dcc4f",
"m1 c #88c34e",
"n1 c #85bd4e",
"o1 c #79ad54",
"p1 c #9b762f",
"q1 c #ba7d17",
"r1 c #b18731",
"s1 c #bda75e",
"t1 c #c8bb76",
"u1 c #483108",
"v1 c #a3d567",
"w1 c #a9ea6b",
"x1 c #9ee35b",
"y1 c #9fe75b",
"z1 c #bbee8a",
"02 c #68ac25",
"12 c #5ea51b",
"22 c #b6e588",
"32 c #90d64d",
"42 c #85bf4c",
"52 c #557b3f",
"62 c #26507f",
"72 c #74838e",
"82 c #faf1b8",
"92 c #bba35a",
":2 c #a38928",
";2 c #749c4e",
"A2 c #89b75c",
"B2 c #aee775",
"C2 c #78a151",
"D2 c #739c4c",
"E2 c #739c4b",
"F2 c #84b654",
"G2 c #a1e55f",
"H2 c #9fe45d",
"I2 c #b5ed7e",
"J2 c #80c242",
"K2 c #73b435",
"L2 c #aee27b",
"M2 c #8dcd4e",
"N2 c #8ac84f",
"O2 c #7fb854",
"P2 c #2e5a81",
"Q2 c #5177a8",
"R2 c #ccd5bc",
"S2 c #fef7bd",
"T2 c #fdf6bd",
"U2 c #b98724",
"V2 c #b2d15c",
"W2 c #b2ec79",
"X2 c #b0ec77",
"Y2 c #a4e762",
"Z2 c #9fe25e",
"a2 c #a1e75e",
"b2 c #91ce55",
"c2 c #89c54e",
"d2 c #a8e070",
"e2 c #91d74d",
"f2 c #8fd24d",
"g2 c #8ece4e",
"h2 c #84c158",
"i2 c #2d5b83",
"j2 c #527aa9",
"k2 c #6390bf",
"l2 c #c2d0c2",
"m2 c #c4bb8f",
"n2 c #b58423",
"o2 c #aeea73",
"p2 c #b1ec78",
"q2 c #b0ec76",
"r2 c #aeeb74",
"s2 c #a8ea69",
"t2 c #a2e660",
"u2 c #a0d968",
"v2 c #54a00b",
"w2 c #509b07",
"x2 c #8fca56",
"y2 c #a7e26e",
"z2 c #94dc4e",
"03 c #98e052",
"13 c #90d55d",
"23 c #2d5c84",
"33 c #5179aa",
"43 c #7297c4",
"53 c #5583ba",
"63 c #709aca",
"73 c #687275",
"83 c #99a95d",
"93 c #afec75",
":3 c #afec74",
";3 c #aaea6b",
"A3 c #a1e363",
"B3 c #a0e360",
"C3 c #abe278",
"D3 c #53a00b",
"E3 c #529f0a",
"F3 c #95d25d",
"G3 c #92d959",
"H3 c #719cca",
"I3 c #70a988",
"J3 c #adeb72",
"K3 c #aeeb73",
"L3 c #aeeb72",
"M3 c #adeb70",
"N3 c #a4e565",
"O3 c #9cdb5f",
"P3 c #6f9e43",
"Q3 c #7fb44b",
"R3 c #9de35b",
"S3 c #6d9d3d",
"T3 c #8ccf4c",
"U3 c #b3e782",
"V3 c #539f0b",
"W3 c #9bd661",
"X3 c #90d856",
"Y3 c #316082",
"Z3 c #719bc9",
"a3 c #3d6ca2",
"b3 c #5c8f7b",
"c3 c #a6e568",
"d3 c #74a04a",
"e3 c #719c49",
"f3 c #729c4a",
"g3 c #86b657",
"h3 c #aceb70",
"i3 c #abeb6e",
"j3 c #a6e767",
"k3 c #9edd61",
"l3 c #a4e763",
"m3 c #9de757",
"n3 c #bbec8a",
"o3 c #4f9c08",
"p3 c #549f0b",
"q3 c #99d560",
"r3 c #9edc6e",
"s3 c #305f82",
"t3 c #709bc9",
"u3 c #406fa4",
"v3 c #6ea984",
"w3 c #a7e966",
"x3 c #aaea6d",
"y3 c #aaea6c",
"z3 c #a9ea6a",
"04 c #9edc61",
"14 c #a3e563",
"24 c #9de756",
"34 c #9be752",
"44 c #beee8f",
"54 c #519f0a",
"64 c #8bc760",
"74 c #335f85",
"84 c #709ac9",
"94 c #528374",
":4 c #80b54c",
";4 c #a3e462",
"A4 c #729f46",
"B4 c #82b651",
"C4 c #a5e567",
"D4 c #73a048",
"E4 c #709b46",
"F4 c #83b652",
"G4 c #a7e867",
"H4 c #9ddb61",
"I4 c #a1e362",
"J4 c #a1e45f",
"K4 c #6f9e40",
"L4 c #7db447",
"M4 c #6b9d3b",
"N4 c #679937",
"O4 c #8fd64a",
"P4 c #beee8e",
"Q4 c #4c921b",
"R4 c #305c83",
"S4 c #6f9ac9",
"T4 c #3f6fa4",
"U4 c #6ba881",
"V4 c #a7e967",
"W4 c #a8ea68",
"X4 c #a7ea67",
"Y4 c #a5e666",
"Z4 c #9bd95f",
"a4 c #a1e361",
"b4 c #bdee8e",
"c4 c #4e9b06",
"d4 c #25517f",
"e4 c #4d75a5",
"f4 c #6f9ac8",
"g4 c #6aa87f",
"h4 c #a6e964",
"i4 c #a3e463",
"j4 c #9ad85d",
"k4 c #a0e260",
"l4 c #a4e962",
"m4 c #a3e860",
"n4 c #9ce654",
"o4 c #b8eb86",
"p4 c #4c73a6",
"q4 c #7599c4",
"r4 c #6e99c8",
"s4 c #3d6ba2",
"t4 c #4f816f",
"u4 c #7bb345",
"v4 c #9de359",
"w4 c #6e9e3f",
"x4 c #7fb44a",
"y4 c #a0e35e",
"z4 c #709f42",
"05 c #7fb54c",
"15 c #a5e962",
"25 c #9fe15f",
"35 c #97d75a",
"45 c #a0e460",
"55 c #a4e961",
"65 c #9fe35e",
"75 c #6e9d40",
"85 c #6b9a3e",
"95 c #6a9a3c",
":5 c #689938",
";5 c #689b37",
"A5 c #94de4b",
"B5 c #9fe75a",
"C5 c #afe67b",
"D5 c #5784bb",
"E5 c #6d99c8",
"F5 c #68a77b",
"G5 c #a2e65e",
"H5 c #98d95a",
"I5 c #96d658",
"J5 c #a0e45e",
"K5 c #a2e85f",
"L5 c #a2e85e",
"M5 c #a2e85d",
"N5 c #a1db69",
"O5 c #214b89",
"P5 c #4a72a6",
"Q5 c #6d98c8",
"R5 c #3f6fa3",
"S5 c #67a779",
"T5 c #9ee758",
"U5 c #a0e85a",
"V5 c #9ce159",
"W5 c #92d355",
"X5 c #98da58",
"Y5 c #a0e75d",
"Z5 c #a1e85d",
"a5 c #a1e85c",
"b5 c #a1e85b",
"c5 c #9fe758",
"d5 c #aceb6f",
"e5 c #8bcd4f",
"f5 c #4f9e07",
"g5 c #2d3741",
"h5 c #4a72a4",
"i5 c #759ac5",
"j5 c #6c98c8",
"k5 c #3f6fa2",
"l5 c #66a777",
"m5 c #95e14d",
"n5 c #689c37",
"o5 c #78b240",
"p5 c #9ce357",
"q5 c #93d652",
"r5 c #91d351",
"s5 c #9ce258",
"t5 c #9de258",
"u5 c #6c9e3d",
"v5 c #69993b",
"w5 c #69993a",
"x5 c #7bb344",
"y5 c #9ae254",
"z5 c #6a9e39",
"06 c #679837",
"16 c #679836",
"26 c #78b33d",
"36 c #95e14c",
"46 c #669b34",
"56 c #6da735",
"66 c #b8ed83",
"76 c #69b027",
"86 c #a5a9aa",
"96 c #3f4546",
":6 c #5f758e",
";6 c #5684bb",
"A6 c #5b8abf",
"B6 c #6b97c8",
"C6 c #6c97c7",
"D6 c #406fa5",
"E6 c #65a675",
"F6 c #9ae352",
"G6 c #92d94f",
"H6 c #8ed14d",
"I6 c #97dd52",
"J6 c #9de657",
"K6 c #9ee757",
"L6 c #9ce655",
"M6 c #2f373e",
"N6 c #909392",
"O6 c #949697",
"P6 c #343b3f",
"Q6 c #5886b8",
"R6 c #6a96c7",
"S6 c #6a97c7",
"T6 c #3e6da2",
"U6 c #71a989",
"V6 c #63982f",
"W6 c #75b13b",
"X6 c #98e54e",
"Y6 c #92da4b",
"Z6 c #8cd049",
"a6 c #92d94d",
"b6 c #9ae452",
"c6 c #9ce653",
"d6 c #9ce754",
"e6 c #99e253",
"f6 c #6b9d3a",
"g6 c #79b241",
"h6 c #98e152",
"i6 c #6a9c38",
"j6 c #78b23f",
"k6 c #96e14f",
"l6 c #689c36",
"m6 c #659834",
"n6 c #659833",
"o6 c #639830",
"p6 c #73b137",
"q6 c #afeb74",
"r6 c #8bcb4d",
"s6 c #539c09",
"t6 c #2e363d",
"u6 c #606463",
"v6 c #8d8e8b",
"w6 c #d5d5d3",
"x6 c #727677",
"y6 c #484f53",
"z6 c #5d7793",
"07 c #3a689e",
"17 c #619b70",
"27 c #93df48",
"37 c #8ad145",
"47 c #8ed648",
"57 c #97e34d",
"67 c #9be651",
"77 c #9ae651",
"87 c #9ae650",
"97 c #9fe759",
":7 c #b4e981",
";7 c #55a00f",
"A7 c #2f3a43",
"B7 c #7b7e7c",
"C7 c #7b7c78",
"D7 c #81837f",
"E7 c #d3d3d1",
"F7 c #d6d7d4",
"G7 c #929491",
"H7 c #48715d",
"I7 c #8dce4e",
"J7 c #a6e965",
"K7 c #91e340",
"L7 c #92e244",
"M7 c #8ad541",
"N7 c #88d142",
"O7 c #92df47",
"P7 c #9ae64f",
"Q7 c #99e64f",
"R7 c #99e64e",
"S7 c #98e54d",
"T7 c #95e548",
"U7 c #98e54c",
"V7 c #b9ed86",
"W7 c #72b62f",
"X7 c #2d3f56",
"Y7 c #474d4f",
"Z7 c #848783",
"a7 c #838580",
"b7 c #7e807c",
"c7 c #717573",
"d7 c #838f9a",
"e7 c #54a00a",
"f7 c #95d457",
"g7 c #a1e85e",
"h7 c #8ee040",
"i7 c #85cf3c",
"j7 c #8bd740",
"k7 c #93e346",
"l7 c #92e147",
"m7 c #669c32",
"n7 c #639831",
"o7 c #649832",
"p7 c #73af39",
"q7 c #689c34",
"r7 c #76b23b",
"s7 c #94e04a",
"t7 c #679b34",
"u7 c #659832",
"v7 c #88cd44",
"w7 c #97e54c",
"x7 c #97e54b",
"y7 c #97e54a",
"z7 c #b7ed83",
"08 c #83c542",
"18 c #529d0a",
"28 c #3c4b5c",
"38 c #4e5253",
"48 c #6b6f6a",
"58 c #555a58",
"68 c #4d5e70",
"78 c #54a009",
"88 c #9fdb64",
"98 c #8cde3c",
":8 c #85d13a",
";8 c #8cdc3e",
"A8 c #96e549",
"B8 c #96e548",
"C8 c #93e445",
"D8 c #a9ea69",
"E8 c #78bc36",
"F8 c #529e09",
"G8 c #4d5b66",
"H8 c #4c5f72",
"I8 c #519d08",
"J8 c #aee577",
"K8 c #8ade38",
"L8 c #85d537",
"M8 c #8ddf3c",
"N8 c #90df42",
"O8 c #649b2f",
"P8 c #62972e",
"Q8 c #82c83e",
"R8 c #669c30",
"S8 c #74b237",
"T8 c #95e547",
"U8 c #95e447",
"V8 c #94e446",
"W8 c #94e445",
"X8 c #9de755",
"Y8 c #adeb71",
"Z8 c #9cd960",
"a8 c #559f0f",
"b8 c #b5ed80",
"c8 c #89df35",
"d8 c #85d734",
"e8 c #8bdf38",
"f8 c #8de33a",
"g8 c #90e33e",
"h8 c #91e441",
"i8 c #92e441",
"j8 c #92e442",
"k8 c #92e443",
"l8 c #93e443",
"m8 c #96e54a",
"n8 c #9ee756",
"o8 c #afeb75",
"p8 c #ade677",
"q8 c #87c947",
"r8 c #58a412",
"s8 c #529e0a",
"t8 c #78bb36",
"u8 c #a9e96c",
"v8 c #86dc33",
"w8 c #88df34",
"x8 c #8be237",
"y8 c #8ce238",
"z8 c #8de239",
"09 c #8ee33b",
"19 c #8ee33c",
"29 c #8fe33d",
"39 c #8fe33e",
"49 c #90e33f",
"59 c #94e447",
"69 c #9be652",
"79 c #a0e85b",
"89 c #a5e963",
"99 c #abea6c",
":9 c #b0eb76",
";9 c #b5ed7f",
"A9 c #baee87",
"B9 c #b7eb84",
"C9 c #a7e170",
"D9 c #93d256",
"E9 c #79bd38",
"F9 c #59a313",
"G9 c #9ad75e",
"H9 c #9ce554",
"I9 c #88df33",
"J9 c #8ae234",
"K9 c #8be235",
"L9 c #92e444",
"M9 c #9be653",
"N9 c #a4e861",
"O9 c #adeb6f",
"P9 c #b3ec7c",
"Q9 c #b9ee87",
"R9 c #b7ec83",
"S9 c #ace474",
"T9 c #a0dd66",
"U9 c #95d357",
"V9 c #87c948",
"W9 c #79bd39",
"X9 c #6aae27",
"Y9 c #58a213",
"Z9 c #5aa316",
"a9 c #b5eb7f",
"b9 c #8de23a",
"c9 c #93e444",
"d9 c #a0e75a",
"e9 c #abea6d",
"f9 c #b6ed80",
"g9 c #b1ea7a",
"h9 c #a2de66",
"i9 c #90d152",
"j9 c #7cc23a",
"k9 c #68b025",
"l9 c #56a110",
"m9 c #4f9b07",
"n9 c #53a10a",
"o9 c #54a10a",
"p9 c #509c08",
"q9 c #519e09",
"r9 c #8fcd54",
"s9 c #b4ec7c",
"t9 c #b2ec7a",
"u9 c #b1e87a",
"v9 c #95d558",
"w9 c #7bc13a",
"x9 c #5ea817",
"y9 c #53a00a",
"z9 c #529f08",
"0: c #5ba416",
"1: c #b0e779",
"2: c #94d457",
"3: c #6db429",
"4: c #519d09",
"5: c #539e0a",
"6: c #509d07",
"7: c #5ba614",
"8: c #519d0a",
"9: c #519e08",
":: c #509d08",
";: c #4f9c07",
"A: c #509c06",
"B: c #509a06",
"                                                                                                ",
"                                                                                                ",
"                                                                                                ",
"                                                                                        B:      ",
"                                                                                    A:;:::      ",
"                                                                                9:8:7:6:        ",
"                                                                          5:4:3:2:1:0:          ",
"                                                                z9y9::x9w9v9u9t9s9r9q9          ",
"                                                p9o9n9q9m9l9k9j9i9h9g9f9e9d9c9b9a9Z9            ",
"                                    n9y9;:Y9X9W9V9U9T9S9R9Q9P9O9N9M9L9K9J9J9I9H9G9q9            ",
"                            6:4:F9E9D9C9B9A9;9:999897969594939291909z8y8x8w8v8u8t8              ",
"                        s8r8q8p8A9o889n8m8c9c9c9c9c9l8k8j8i8h849g82919f8e8d8c8b8a8              ",
"                    8:0:Z8Q9Y8X8c9W8V8V8U8T8T8T8S8R8Q8P8O8N8k8j8h849g8M8L8K8k8J8I8    H8G8      ",
"                  F8E8B9D8T8C8V8U8T8B8A8A8m8m8m8m8A8A8B8T8U8V8c9k8j8;8:89819M98878  6858483828  ",
"                1808z769c9V8T8B8A8y7x7w7v7u7t7s7r7q7p7o7n7m7l7T8k7j7i7h74929g7f7e7d7c7b7a7Z7Y7X7",
"              q9W7V7U7W8U8T7A8x7U7S7R7R7Q7Q7P7P7Q7Q7R7R7U7w7x7O7N7M7L7k8i8K7J7I7H7G7F7E7D7C7B7A7",
"              ;7:797V8T8A8x7U7S7R7P787776769696969677787P757473727A8T8W8c9j8e91707z6y6x6w6v6u6t6",
"            s6r6q6V8p6o6o7n6m6l6k6j6i6h6g6f6e6X8X8d6c6b6a6Z6Y6X6W6o7o6V6O8N8U6T6S6R6Q6P6O6N6M6  ",
"            :::7L6T7m8x7S7Q77769c6X8X8n8K6K6K6K6K6J6I6H6G6F66987Q7S7x7A8T8E6D6C6B6A6;6:69686    ",
"            7666T8564636261606z5y5x5w5v5u5t5d9d9s5r5q5p5K6X8d6o5n5m5S7x7l5k5j5R6A6;6i5h5g5      ",
"          f5e5d5A8x7S78767c6X8n8c59779b5a5Z5Y5X5W5V5b5U597T5n8X8c667P7S5R5Q5B6A6;6i5P5O5        ",
"          e7N589x7S7P767c6X8K697U5a5M5L5K5J5I5H5G5K5L5Z5a5d997K6X8c6F5R5E5B6A6D5i5P5O5          ",
"          s8C5B5U7A5;506:5w5v595857565554535251505z4y4x485w4v4u4w5t4s4r4B6A6;6q4p4O5            ",
"          p9o4n4R78769X8K69779M5K5m4l4k4j4i4J7J7J7h489l4m4L5Z579g4R5f4B6A6D5q4e4d4              ",
"          c4b487Q767n4n8c579Z5K55589a4Z4Y4X4W4W4X4V4J7h415m4L5U4T4S4B6A6D5q4e4R4Q4              ",
"          c4P477O4N4:5M4s5L4K4J489I4H4G4D8F4E4E4D4C4B4A4;4:494T484j5A6D5q4e4746454              ",
"          c4443477c6249779M5m4151404G4z3y3x3e9e9x3y3z3W4w3v3u3t3j5A6D5q4e4s3r3q3p3              ",
"          o3n3m369d6K697a5K555l3k3j3z3y3i3d5h3g3f3e3d3c3b3a3Z3j5A6D5q4e4Y3X3y3W3V3              ",
"          s8U3a569T3w5S3R3Q3P3O3N3z3y3i3M3L3K3L3J3h3i3I3u3H3j5A6D5q4e4Y3G369d5F3E3              ",
"          D3C3l4M9X8c579L5m4B3A3W4;3e9h3L3:39393q6L3837363Q5A6534333231303z2y2x2w2              ",
"          v2u2z3c624c579L5t2k4w3s2y3i3Y8r2q2p2p2q2o2n2m2l2k25343j2i2h2g2f2e2d2c2                ",
"          ;:b2q6c624c579a2Z2Y2w3s2y3d5Y8q6X2W2W2q2V2U2T2S2R243Q2P2O2N2M2f2e2L2K2                ",
"            J2I2c624c579H2G289w3s2F2e3E2D2C2B2A2;2:292S2S28272625242N2M2f2322212                ",
"            02z1M9X8c5y1x1m489J7W4w1e9h3L3r29393v1u1t1s1r1q1p1o1n1m1l1k103j1i1h1                ",
"            g1f1n4X8T5v4e1d1l4J7V4z3y3i3h3Y8L3L3c1b1a1Z1Y1X1W1V1f7U1d9K6X8T1S1R1                ",
"            4:U3L5d6J6Q1a5L5P1O1N1M1E4d3L1d5K1f3J1I1H1G1F1J789m4L5b597n8E1D1C1                  ",
"            B1A1;1c6:19179M5m4l4h4w3W4z3;3y3x3x3y3;3z3W4w381l4d1Z5U5T5X8716151                  ",
"              41p269L6K697a5L5m415h4w3X4s2z3z3z3D8W4X431h4l4m4L5b597K6h32111                    ",
"              01z077c624c5U5Z5L5m4l481J7w3V4V4V4V4w3J789l4m4L5a5d9K5f9y0x0w0                    ",
"              18v08769d6n89779Z5L5m4558989h4J7h4h4891555m4L5a5u0;9t0s0a8                        ",
"            F8r0q0q6:9p0K3h3e9y3s2w3o0n055l4l4l455u0w1J3t9m0l0k0j0i0h0                          ",
"          g0f0m4e0d0c0b0a0Z0Y0X0W0V0U0l0T0S0R0R0Q0P0O0N0M0L0K0J0I0                              ",
"        9:H087G0F0        E0D0C0B0o3A0m9;0;0;0;0:090;0807060                                    ",
"      5040h830I8                                                                                ",
"    ;:2029104:                                                                                  ",
"      ::00;0                                                                                    ",
"        J0                                                                                      ",
"                                                                                                "};
