/* XPM */
static char *image[] = {
"48 48 447 2",
"   c None",
"00 c #222241",
"10 c #262649",
"20 c #262648",
"30 c #21213f",
"40 c #2e2e53",
"50 c #4f517b",
"60 c #686a8e",
"70 c #777d9d",
"80 c #838ba9",
"90 c #828ba8",
":0 c #7c82a3",
";0 c #6a6d91",
"A0 c #4e507b",
"B0 c #282848",
"C0 c #1f203c",
"D0 c #54547e",
"E0 c #7b819f",
"F0 c #6f81a2",
"G0 c #58749b",
"H0 c #496a97",
"I0 c #426897",
"J0 c #446c9c",
"K0 c #4e75a4",
"L0 c #6487b0",
"M0 c #8298b9",
"N0 c #9699a7",
"O0 c #53547a",
"P0 c #18182b",
"Q0 c #2c2c4e",
"R0 c #67698c",
"S0 c #7b8392",
"T0 c #566a85",
"U0 c #3b6090",
"V0 c #3c6598",
"W0 c #3e6da4",
"X0 c #3f70a9",
"Y0 c #3f72ac",
"Z0 c #607388",
"a0 c #b7bbc3",
"b0 c #6b6d92",
"c0 c #20203c",
"d0 c #777777",
"e0 c #737373",
"f0 c #646464",
"g0 c #4b4d63",
"h0 c #6b6e92",
"i0 c #777f8d",
"j0 c #737e8b",
"k0 c #3d6a9f",
"l0 c #3e6fa7",
"m0 c #4074ae",
"n0 c #4679b1",
"o0 c #4a7cb4",
"p0 c #4d7eb5",
"q0 c #4d7cb0",
"r0 c #bcbec0",
"s0 c #929eab",
"t0 c #90a9cb",
"u0 c #707296",
"v0 c #555561",
"w0 c #6d6d6d",
"x0 c #6e6e6e",
"y0 c #969696",
"z0 c #a6a6a6",
"01 c #a8a8a8",
"11 c #acacac",
"21 c #adadad",
"31 c #97979e",
"41 c #5f6188",
"51 c #6d7fa0",
"61 c #7d8085",
"71 c #afafaf",
"81 c #aaacae",
"91 c #3f73ac",
":1 c #4779b2",
";1 c #4e7fb6",
"A1 c #5988bc",
"B1 c #5b88ba",
"C1 c #a9aeb4",
"D1 c #aab1b9",
"E1 c #5c89bc",
"F1 c #9fb3cf",
"G1 c #62648c",
"H1 c #b0b0b2",
"I1 c #818181",
"J1 c #b2b2b2",
"K1 c #b3b3b3",
"L1 c #626385",
"M1 c #7a87a5",
"N1 c #5b6779",
"O1 c #c1c2c3",
"P1 c #4c7db4",
"Q1 c #5484b9",
"R1 c #5c8abd",
"S1 c #6390c1",
"T1 c #6894c4",
"U1 c #678fbb",
"V1 c #eaebeb",
"W1 c #8b9db1",
"X1 c #6e97c5",
"Y1 c #a4aec7",
"Z1 c #7c7e96",
"a1 c #d1d1d1",
"b1 c #bababa",
"c1 c #94949c",
"d1 c #686b8f",
"e1 c #5b779c",
"f1 c #667281",
"g1 c #bdbdbd",
"h1 c #c6c8c9",
"i1 c #5a88bb",
"j1 c #618ec0",
"k1 c #6995c5",
"l1 c #719bc9",
"m1 c #899baf",
"n1 c #f1f1f2",
"o1 c #779bc2",
"p1 c #9db7d6",
"q1 c #6e7095",
"r1 c #b5b5b6",
"s1 c #919191",
"t1 c #83839c",
"u1 c #828ba9",
"v1 c #426795",
"w1 c #7d858e",
"x1 c #c9c9c9",
"y1 c #d6d6d6",
"z1 c #7194ba",
"02 c #6d98c7",
"12 c #779fcc",
"22 c #7fa6d0",
"32 c #86abd4",
"42 c #8eaed1",
"52 c #b6c0cb",
"62 c #f7f8f8",
"72 c #8faecf",
"82 c #8badd3",
"92 c #a0a5be",
":2 c #a9a9b7",
";2 c #a2a2a2",
"A2 c #626488",
"B2 c #7c8dad",
"C2 c #4a617e",
"D2 c #c2c2c3",
"E2 c #9dacbb",
"F2 c #859bb2",
"G2 c #92a5b9",
"H2 c #8cb1d8",
"I2 c #94b7dc",
"J2 c #99bbdf",
"K2 c #9dbee1",
"L2 c #a2b4c8",
"M2 c #edeeef",
"N2 c #dfe2e5",
"O2 c #87acd3",
"P2 c #81a7d1",
"Q2 c #8d8daa",
"R2 c #979797",
"S2 c #63648c",
"T2 c #758cae",
"U2 c #717e8d",
"V2 c #bbbdbf",
"W2 c #a5b8cc",
"X2 c #a5c4e5",
"Y2 c #a9c7e7",
"Z2 c #abc9e9",
"a2 c #adcaea",
"b2 c #abbdcf",
"c2 c #c8ced5",
"d2 c #bec9d4",
"e2 c #acb7c3",
"f2 c #86a4c7",
"g2 c #c4cedf",
"h2 c #8082a2",
"i2 c #878787",
"j2 c #606189",
"k2 c #778aa6",
"l2 c #9da1a5",
"m2 c #8f9ba9",
"n2 c #c6cdd4",
"o2 c #bfd6ef",
"p2 c #c5dbf2",
"q2 c #c4dbf4",
"r2 c #bed8f2",
"s2 c #b9d4f1",
"t2 c #b3cfed",
"u2 c #aac9e8",
"v2 c #9cafc3",
"w2 c #e5e7e9",
"x2 c #dcdfe4",
"y2 c #7c7ea0",
"z2 c #a5a5a5",
"03 c #63658c",
"13 c #98a0ad",
"23 c #aeb1b4",
"33 c #b5b9be",
"43 c #bdc2c6",
"53 c #c5d0dc",
"63 c #cbdff5",
"73 c #d2e5f9",
"83 c #d6e9fb",
"93 c #d7e9fc",
":3 c #cbe1f8",
";3 c #c0daf4",
"A3 c #b4d0ed",
"B3 c #a7c5e3",
"C3 c #94b1cf",
"D3 c #8586a4",
"E3 c #d3d3d3",
"F3 c #cfcfcf",
"G3 c #6a6c8d",
"H3 c #c8c9ca",
"I3 c #abafb2",
"J3 c #dcdcdc",
"K3 c #d3d6d8",
"L3 c #f1f2f3",
"M3 c #f5f5f6",
"N3 c #dde0e3",
"O3 c #cbdef3",
"P3 c #d4e7f9",
"Q3 c #ddedfe",
"R3 c #deefff",
"S3 c #ddeeff",
"T3 c #cde3fb",
"U3 c #a6b7c8",
"V3 c #b3bac3",
"W3 c #d1d4d7",
"X3 c #f2f3f4",
"Y3 c #9c9cb4",
"Z3 c #b5b5b5",
"a3 c #e5e5e5",
"b3 c #a5a5b7",
"c3 c #b2b4b9",
"d3 c #b0b8c1",
"e3 c #8ba4c1",
"f3 c #9bb4ce",
"g3 c #bcc5ce",
"h3 c #c5cad0",
"i3 c #bfcddb",
"j3 c #d0e3f6",
"k3 c #dbebfc",
"l3 c #e0efff",
"m3 c #dfefff",
"n3 c #c6d9ea",
"o3 c #dfe1e2",
"p3 c #cccdd6",
"q3 c #d8d8e0",
"r3 c #d0d0d0",
"s3 c #c7c7ca",
"t3 c #74758f",
"u3 c #dbdbdb",
"v3 c #e9eaec",
"w3 c #d5d8db",
"x3 c #a9b4c0",
"y3 c #cfd2d4",
"z3 c #c7d1dc",
"04 c #d3e5f7",
"14 c #deedfd",
"24 c #e1f0ff",
"34 c #e0f0ff",
"44 c #bec8d3",
"54 c #d2d4d5",
"64 c #9092ac",
"74 c #c7c8cc",
"84 c #dfdfdf",
"94 c #cdd2d7",
":4 c #c5d9ed",
";4 c #d3e4f6",
"A4 c #deedfc",
"B4 c #e2f1ff",
"C4 c #e0effd",
"D4 c #bcc3cb",
"E4 c #dcddde",
"F4 c #dbdce2",
"G4 c #bebecc",
"H4 c #d2d2d3",
"I4 c #686b8a",
"J4 c #e3e3e4",
"K4 c #cbd0d6",
"L4 c #bbc4cd",
"M4 c #b8c3cd",
"N4 c #c3d5e6",
"O4 c #d1e3f5",
"P4 c #daeafa",
"Q4 c #e2effe",
"R4 c #e3f1ff",
"S4 c #c7cbcf",
"T4 c #c8d4e0",
"U4 c #dcdee1",
"V4 c #f7f7f8",
"W4 c #8081a1",
"X4 c #d8d8d8",
"Y4 c #cfcfd7",
"Z4 c #7f8099",
"a4 c #e1e3e4",
"b4 c #dee0e2",
"c4 c #aeb6bf",
"d4 c #dfe2e4",
"e4 c #b7cfe7",
"f4 c #b7c9db",
"g4 c #c7d5e5",
"h4 c #cddded",
"i4 c #bbbfc3",
"j4 c #dae6f4",
"k4 c #c2ccd5",
"l4 c #c2ccd7",
"m4 c #c2cbd4",
"n4 c #f5f6f7",
"o4 c #8889a6",
"p4 c #e1e1e4",
"q4 c #c9c9d4",
"r4 c #6c6e90",
"s4 c #cbcfd7",
"t4 c #cbd2db",
"u4 c #a6c0dc",
"v4 c #b1cae5",
"w4 c #bed2ea",
"x4 c #adb4bd",
"y4 c #e0e1e2",
"z4 c #cfdfec",
"05 c #c9cfd6",
"15 c #e5e8eb",
"25 c #ebecef",
"35 c #767797",
"45 c #dbdbe0",
"55 c #8b8b8b",
"65 c #d6d6db",
"75 c #787a9b",
"85 c #8a8caa",
"95 c #c3cbdc",
":5 c #c2d0e3",
";5 c #c3d5e8",
"A5 c #eaeaec",
"B5 c #f3f4f5",
"C5 c #e5e8ec",
"D5 c #e8eaee",
"E5 c #9b9cb5",
"F5 c #8b8ba6",
"G5 c #e0e0e2",
"H5 c #eeeeee",
"I5 c #d0d0d9",
"J5 c #8e8fab",
"K5 c #747599",
"L5 c #7f7fa0",
"M5 c #9899b3",
"N5 c #9b9cb6",
"O5 c #8384a4",
"P5 c #7b7d9f",
"Q5 c #9a9bb2",
"R5 c #dadae0",
"S5 c #efefef",
"T5 c #e1e1e1",
"U5 c #d2d2d2",
"V5 c #e2e2e2",
"W5 c #e6e6e6",
"X5 c #eeeeef",
"Y5 c #dedee3",
"Z5 c #e1e1e5",
"a5 c #a9a9a9",
"b5 c #d9d9d9",
"c5 c #c6c6c6",
"d5 c #757575",
"e5 c #aeaeae",
"f5 c #5c5c5c",
"g5 c #ededed",
"h5 c #8f8f8f",
"i5 c #d7d7d7",
"j5 c #a3a3a3",
"k5 c #c5c5c5",
"l5 c #c1c1c1",
"m5 c #a7a7a7",
"n5 c #424242",
"o5 c #707070",
"p5 c #e8e8e8",
"q5 c #fbfbfb",
"r5 c #a0a0a0",
"s5 c #e3e3e3",
"t5 c #666666",
"u5 c #dedede",
"v5 c #656565",
"w5 c #e0e0e0",
"x5 c #5f5f5f",
"y5 c #7d7d7d",
"z5 c #686868",
"06 c #f2f2f2",
"16 c #ececec",
"26 c #b7b7b7",
"36 c #4d4d4d",
"46 c #dadada",
"56 c #c7c7c7",
"66 c #636363",
"76 c #b6b6b6",
"86 c #727272",
"96 c #d5d5d5",
":6 c #ababab",
";6 c #767676",
"A6 c #e4e4e4",
"B6 c #bfbfbf",
"C6 c #8d8d8d",
"D6 c #c0c0c0",
"E6 c #f3f3f3",
"F6 c #f0f0f0",
"G6 c #c8c8c8",
"H6 c #fafafa",
"I6 c #cbcbcb",
"J6 c #e7e7e7",
"K6 c #b1b1b1",
"L6 c #aaaaaa",
"M6 c #888888",
"N6 c #cdcdcd",
"O6 c #e9e9e9",
"P6 c #a4a4a4",
"Q6 c #747474",
"R6 c #bebebe",
"S6 c #434343",
"T6 c #b4b4b4",
"U6 c #929292",
"V6 c #787878",
"W6 c #9f9f9f",
"X6 c #cecece",
"Y6 c #f4f4f4",
"Z6 c #444444",
"a6 c #b8b8b8",
"b6 c #f5f5f5",
"c6 c #f9f9f9",
"d6 c #dddddd",
"e6 c #989898",
"f6 c #eaeaea",
"g6 c #f1f1f1",
"h6 c #f6f6f6",
"i6 c #bcbcbc",
"j6 c #f8f8f8",
"k6 c #f7f7f7",
"l6 c #949494",
"m6 c #cacaca",
"n6 c #fcfcfc",
"o6 c #fdfdfd",
"p6 c #fefefe",
"q6 c #ebebeb",
"r6 c #8a8a8a",
"s6 c #838383",
"t6 c #828282",
"u6 c #848484",
"v6 c #868686",
"w6 c #858585",
"x6 c #898989",
"                                                                                                ",
"                                                                                                ",
"                                                                                                ",
"                                                                                                ",
"                                                                                                ",
"                                                                                                ",
"                                                                                                ",
"                                                                                                ",
"                                                                                                ",
"                                                                                                ",
"              x6w6w6w6w6w6w6w6w6w6v6v6v6v6v6v6v6v6v6v6v6v6v6v6v6v6v6v6u6t6t6s6r6                ",
"            x6q6p6p6p6p6p6p6p6p6p6p6o6o6o6o6o6o6o6o6o6o6o6o6n6n6n6n6n6o6p6o6n6m6x6              ",
"            l6p6k6k6k6k6k6k6k6k6k6k6k6k6k6k6k6k6k6k6k6k6k6k6k6k6k6k6k6k6k6k6j6k6v6              ",
"            i6n6h6h6h6h6h6h6h6h6h6h6h6h6h6h6h6h6h6h6h6h6g6f6f6f6f6f6f6f6q6h6h6n6e6              ",
"          v6d6c6b6a6Z6Y6X6W6b6V6U6T6S6R6Q6P6O6x6N6M6L6K6J6m6m6m6m6m6m6m6I6Y6b6H6G6              ",
"          r6F6h6E6D6C6u6B6A6E6;6:6r6968676665646963626d616G6G6G6G6G6G6G6G6q6E6h6J6r6            ",
"          v6n6E606:606z5y50606x5F6w5F6v5W6Q6U606O6u5x6t5g6G656565656565656s506E6c6v6            ",
"          r5q5g6f6s6p5O6o5g6A6n5a6m5l5k5j5i5h5g6g5f5e5d5g6X6c5c5c5c5c5c5c5b5g6g6j6a5            ",
"          c5j6F6F6F6F6F6F6F6Z5Y5X5F6F6F6F6F6F6F6F6F6F6F6F6W5V5V5V5V5V5V5V5J6F6F6b6U5v6          ",
"        x6T5Y6S5S5S5R5Q5P5O5N5M5L5K5J5I5S5S5S5S5S5S5S5S5S5S5S5S5S5S5S5S5S5S5S5S5g616x6          ",
"        x606g6H5G5F5E5D5C5B5p6A5;5:595857565H516q6q6q6q6q6q6q6q6q6q6q6q6q6q6q6H5H5k655          ",
"        x6H6g54535251505z4h6y4x4w4v4u4t4s4r4q4w5b5b5b5b5b5b5b5b5b5b5b5b5b5b5b5q6g5Y676          ",
"        :6j6p4o4n4m4l4k4j4i4h4g4f4e4d4c4b4a4Z4Y4O6O6O6O6O6O6O6O6O6O6O6O6O6O6O6q616g6X4r6        ",
"      s6N6Y6W4V4U4T4o6S4R4Q4P4O4N4M4L4K4k6O6J4I4H4i5i5i5i5i5i5i5i5i5i5i5i5i5i5w5q616F6v6        ",
"      55A6G4F4p6p6o6E4D4C4B4A4;4:494p6p6n6q6847464W5W5W5W5W5W5W5W5W5W5W5W5W5W5W5f6f6Y6e6        ",
"      w6Y6W4n6p6p654443424241404z3y3x3w3v3H5d6u3t3s3r3r3r3r3r3r3r3r3r3r3r3r3r3r3A6O6F6l5        ",
"      U6q3p3p6p6o3n3m3m3l3l3k3j3i3h3g3f3e3d3d6U5c3b3s5s5s5s5s5s5s5s5s5s5s5s5s5s5a3p516u5r6      ",
"      Z3Y3X3W3V3U3T3S3R3R3Q3P3O3N3p6p6M3L3K3J3I3H3G3G6G6G6G6G6G6G6G6G6G6G6G6G6G6F3J6p5g6w6      ",
"    v6E3D3n6C3B3A3;3:39383736353p6p6p6p6j64333231303T5T5T5T5T5T5T5T5T5T5T5T5T5T5T5a3W5S5z2      ",
"    x6f6y2x2w2v2u2t2s2r2q2p2o2n2p6p6p6p606V5m2l2k2j2X6X6X6X6X6X6X6X6X6X6X6X6X6X6X6V5H506X6i2    ",
"    w6k6h2g2f2e2d2c2b2a2Z2Y2X2W2o6p6p6j6f6u3V2U2T2S2p5p5p5p5p5p5p5p5p5p5p5p5p5p5p5p5g5S5W5M6    ",
"    R2g6Q295P2O2N2p6M2L2K2J2I2H2G2F2E2H5w5U5D2C2B2A2B6B6B6B6B6B6B6B6B6B6B6B6B6B6B6D6X4d6f6w6    ",
"    ;2a3:2928272p6p6p662524232221202z1V5y1x1w1v1u1t1G6G6G6G6G6G6G6G6G6G6G6G6565656m6m6m6u5C6    ",
"    s1u5r1q1p1o1n1p6p6p6p6m112l1k1j1i1h1m6g1f1e1d1c1z2z2z2z2z2z2z2z2z2z2z2z2z2z2z2T6a6b1a1u6    ",
"    s6m656Z1Y1X1W116F6E6V1U1T1S1R1Q1P1O1g1K6N1M1L1T6T6T6T6T6T6K1K1K1K1K1K1J1J1J1J1J1T6l5a5I1    ",
"      i2L6H1G1F1E1D184w5C1B1A1Q1;1:19181716151413121212121111111:6:6L6L6a5a5a5010101z0y0t6      ",
"        x0w0v0u0t0s0N6r0q0p0o0n0m0l0k0j0;2i0h0g0f0e0d5d5d5d5d5d5d5d5d5d5d5d5d5;6d5d0V6o5        ",
"              c0b0a0k5Z0m0Y0X0W0k0V0U0T0S0R0Q0                                                  ",
"                P0O0N0M0L0K0J0I0H0G0F0E0D0C0                                                    ",
"                    B0A0;0:0908070605040                                                        ",
"                          30201000                                                              ",
"                                                                                                ",
"                                                                                                ",
"                                                                                                ",
"                                                                                                ",
"                                                                                                ",
"                                                                                                ",
"                                                                                                "};
