/* XPM */
static char *image[] = {
"16 16 78 2",
"   c None",
"00 c #454545",
"10 c #737373",
"20 c #515151",
"30 c #787878",
"40 c #6d6d6d",
"50 c #535353",
"60 c #717171",
"70 c #929292",
"80 c #555555",
"90 c #959595",
":0 c #444444",
";0 c #949494",
"A0 c #838383",
"B0 c #383838",
"C0 c #7b7b7b",
"D0 c #8d8d8d",
"E0 c #767676",
"F0 c #272727",
"G0 c #5d5d5d",
"H0 c #878787",
"I0 c #8a8a8a",
"J0 c #8c8c8c",
"K0 c #909090",
"L0 c #898989",
"M0 c #606060",
"N0 c #868686",
"O0 c #a0a0a0",
"P0 c #a4a4a4",
"Q0 c #6c6c6c",
"R0 c #5c5c5c",
"S0 c #808080",
"T0 c #858585",
"U0 c #919191",
"V0 c #979797",
"W0 c #9c9c9c",
"X0 c #acacac",
"Y0 c #b3b3b3",
"Z0 c #b1b1b1",
"a0 c #757575",
"b0 c #666666",
"c0 c #828282",
"d0 c #8e8e8e",
"e0 c #939393",
"f0 c #969696",
"g0 c #9a9a9a",
"h0 c #9f9f9f",
"i0 c #a3a3a3",
"j0 c #c8c8c8",
"k0 c #d4d4d4",
"l0 c #818181",
"m0 c #525252",
"n0 c #616161",
"o0 c #6a6a6a",
"p0 c #7e7e7e",
"q0 c #999999",
"r0 c #a5a5a5",
"s0 c #b7b7b7",
"t0 c #a1a1a1",
"u0 c #8b8b8b",
"v0 c #7c7c7c",
"w0 c #686868",
"x0 c #3d3d3d",
"y0 c #888888",
"z0 c #aaaaaa",
"01 c #a9a9a9",
"11 c #bcbcbc",
"21 c #9e9e9e",
"31 c #676767",
"41 c #a8a8a8",
"51 c #b6b6b6",
"61 c #c0c0c0",
"71 c #626262",
"81 c #8f8f8f",
"91 c #cccccc",
":1 c #9b9b9b",
";1 c #5b5b5b",
"A1 c #7a7a7a",
"              A1;1              ",
"            :19181              ",
"          7161514131            ",
"          211101z0y0x0          ",
"  w0v0u0t0s0z0r0t0q0p0o0n0m0    ",
"l0k0j0615101i0h0g0f0e0d0y0c0b0  ",
"a0Z0Y0X041r0t0W0V0U0u0T0S0v0R0  ",
"  Q0i041P0O0W0V0U0u0N0c0v0M0    ",
"    71L0U0K0d0J0I0y0H0p0G0F0    ",
"      E0I0u0J0D0D0J0J0C0B0      ",
"      A0K0K0e0;0e0K081A0:0      ",
"    M0J0e0f0908190f0e0J080      ",
"    3170f0K0605040J0e0D0G0      ",
"      A13020      20103000      ",
"                                ",
"                                "};
