/* XPM */
static char *image[] = {
"48 48 883 2",
"   c None",
"00 c #190000",
"10 c #270000",
"20 c #330000",
"30 c #440100",
"40 c #450100",
"50 c #460100",
"60 c #3e0000",
"70 c #360000",
"80 c #2c0000",
"90 c #1c0000",
":0 c #0a0000",
";0 c #000000",
"A0 c #220000",
"B0 c #3a0000",
"C0 c #440201",
"D0 c #4d0804",
"E0 c #520d08",
"F0 c #570d08",
"G0 c #580d08",
"H0 c #5d0d07",
"I0 c #5f0d06",
"J0 c #610d06",
"K0 c #5f0b05",
"L0 c #5d0b05",
"M0 c #590802",
"N0 c #540500",
"O0 c #4a0500",
"P0 c #2b0300",
"Q0 c #250000",
"R0 c #4e0704",
"S0 c #540f0a",
"T0 c #59100a",
"U0 c #670d05",
"V0 c #730a01",
"W0 c #790900",
"X0 c #7a0900",
"Y0 c #7b0800",
"Z0 c #800800",
"a0 c #790901",
"b0 c #6d0a01",
"c0 c #690a00",
"d0 c #610801",
"e0 c #540600",
"f0 c #2f0300",
"g0 c #420000",
"h0 c #4f0503",
"i0 c #580f09",
"j0 c #660d06",
"k0 c #780901",
"l0 c #7a0800",
"m0 c #7d0800",
"n0 c #7e0800",
"o0 c #840b04",
"p0 c #a01f19",
"q0 c #b9322c",
"r0 c #d1453f",
"s0 c #d1443e",
"t0 c #ba302a",
"u0 c #a31c16",
"v0 c #8c0701",
"w0 c #7e0900",
"x0 c #700b00",
"y0 c #670801",
"z0 c #550701",
"01 c #370100",
"11 c #4c0300",
"21 c #5a0d07",
"31 c #620d06",
"41 c #7a0901",
"51 c #7f0800",
"61 c #810700",
"71 c #830700",
"81 c #a6211a",
"91 c #ec5a55",
":1 c #dc4d47",
";1 c #e05049",
"A1 c #da4841",
"B1 c #d9463f",
"C1 c #dd4942",
"D1 c #db4842",
"E1 c #e4524d",
"F1 c #a31611",
"G1 c #900600",
"H1 c #7d0a00",
"I1 c #760a00",
"J1 c #610903",
"K1 c #450702",
"L1 c #450200",
"M1 c #550501",
"N1 c #600c05",
"O1 c #760902",
"P1 c #860700",
"Q1 c #870700",
"R1 c #a31b15",
"S1 c #eb5954",
"T1 c #ce423b",
"U1 c #6b211d",
"V1 c #681914",
"W1 c #c63028",
"X1 c #e4514a",
"Y1 c #a71611",
"Z1 c #8e0700",
"a1 c #7c0b00",
"b1 c #680a03",
"c1 c #510904",
"d1 c #4d0500",
"e1 c #5b0700",
"f1 c #650b02",
"g1 c #7e0700",
"h1 c #890600",
"i1 c #8a0600",
"j1 c #970e08",
"k1 c #eb5953",
"l1 c #c13730",
"m1 c #b62219",
"n1 c #e5504a",
"o1 c #a00b06",
"p1 c #940700",
"q1 c #820b00",
"r1 c #6f0b03",
"s1 c #5d0a05",
"t1 c #490500",
"u1 c #5c0701",
"v1 c #6a0b00",
"w1 c #840700",
"x1 c #8c0600",
"y1 c #8d0600",
"z1 c #8e0600",
"02 c #cb3a35",
"12 c #d43d35",
"22 c #c92b22",
"32 c #cc3732",
"42 c #8a0b00",
"52 c #710c05",
"62 c #5b0b06",
"72 c #400500",
"82 c #590701",
"92 c #6f0b00",
":2 c #850800",
";2 c #900500",
"A2 c #910500",
"B2 c #920500",
"C2 c #930500",
"D2 c #9e0e09",
"E2 c #e7534d",
"F2 c #971b14",
"G2 c #800900",
"H2 c #df4943",
"I2 c #a30a05",
"J2 c #970700",
"K2 c #8e0c01",
"L2 c #700e08",
"M2 c #4e0905",
"N2 c #5a0802",
"O2 c #710901",
"P2 c #7f0900",
"Q2 c #950500",
"R2 c #960500",
"S2 c #c22e29",
"T2 c #cf372f",
"U2 c #c72d26",
"V2 c #b9221d",
"W2 c #960b03",
"X2 c #8c0d05",
"Y2 c #72100a",
"Z2 c #550802",
"a2 c #650803",
"b2 c #770b00",
"c2 c #940500",
"d2 c #970500",
"e2 c #980500",
"f2 c #de4a44",
"g2 c #be1c13",
"h2 c #af1109",
"i2 c #cd3932",
"j2 c #981409",
"k2 c #7f1009",
"l2 c #6d0f0a",
"m2 c #310401",
"n2 c #5f0903",
"o2 c #7b0a00",
"p2 c #8c0800",
"q2 c #a00803",
"r2 c #e5514b",
"s2 c #980900",
"t2 c #8b0600",
"u2 c #9c0601",
"v2 c #9b0f07",
"w2 c #99150c",
"x2 c #7a130d",
"y2 c #3e0906",
"z2 c #5b0903",
"03 c #6a0904",
"13 c #800b00",
"23 c #9e0500",
"33 c #b01813",
"43 c #d54039",
"53 c #6f0601",
"63 c #660601",
"73 c #c9362f",
"83 c #a9140e",
"93 c #990801",
":3 c #a32015",
";3 c #86150d",
"A3 c #74130d",
"B3 c #640b05",
"C3 c #810a01",
"D3 c #8f0800",
"E3 c #bc2620",
"F3 c #c7312b",
"G3 c #bb2821",
"H3 c #b4201a",
"I3 c #9a0700",
"J3 c #a21a10",
"K3 c #9e1c13",
"L3 c #4a0804",
"M3 c #670c06",
"N3 c #890b00",
"O3 c #9a0600",
"P3 c #9d0500",
"Q3 c #9c0500",
"R3 c #9b0500",
"S3 c #c5302a",
"T3 c #bd2620",
"U3 c #ad1d15",
"V3 c #be2b23",
"W3 c #9a0800",
"X3 c #9e1005",
"Y3 c #60110d",
"Z3 c #680c06",
"a3 c #760c05",
"b3 c #8f0b00",
"c3 c #cb3831",
"d3 c #b11c15",
"e3 c #a2150d",
"f3 c #c4312a",
"g3 c #9b0c00",
"h3 c #9f0d02",
"i3 c #b33027",
"j3 c #951d15",
"k3 c #871b15",
"l3 c #6d0e08",
"m3 c #850b04",
"n3 c #950b02",
"o3 c #d13e37",
"p3 c #a5110a",
"q3 c #970f06",
"r3 c #c9362e",
"s3 c #9f0e02",
"t3 c #a00f03",
"u3 c #a11004",
"v3 c #a21005",
"w3 c #a31106",
"x3 c #a41207",
"y3 c #a51307",
"z3 c #b42d23",
"04 c #a7281f",
"14 c #901e18",
"24 c #710f09",
"34 c #900e05",
"44 c #980a03",
"54 c #9a0500",
"64 c #d3403a",
"74 c #9d0c05",
"84 c #8f0b03",
"94 c #cb3930",
":4 c #a31207",
";4 c #a51408",
"A4 c #ab180d",
"B4 c #b62a20",
"C4 c #b7352c",
"D4 c #94211b",
"E4 c #4a0a06",
"F4 c #74100a",
"G4 c #961209",
"H4 c #990802",
"I4 c #990500",
"J4 c #d6433c",
"K4 c #950901",
"L4 c #8a0a01",
"M4 c #cb3931",
"N4 c #a7150a",
"O4 c #aa160b",
"P4 c #ab170c",
"Q4 c #ac180e",
"R4 c #ad190f",
"S4 c #b21c13",
"T4 c #b9281f",
"U4 c #c34339",
"V4 c #98241e",
"W4 c #5f1712",
"X4 c #5c0d08",
"Y4 c #78120c",
"Z4 c #9d180e",
"a4 c #990701",
"b4 c #990600",
"c4 c #9a0a00",
"d4 c #d24138",
"e4 c #910900",
"f4 c #870a02",
"g4 c #c93830",
"h4 c #ae1a0f",
"i4 c #b21c12",
"j4 c #b31d13",
"k4 c #b92218",
"l4 c #bc231a",
"m4 c #bf281f",
"n4 c #ce5048",
"o4 c #a12a24",
"p4 c #7a211c",
"q4 c #69100b",
"r4 c #7c130d",
"s4 c #a21e14",
"t4 c #990700",
"u4 c #990800",
"v4 c #990900",
"w4 c #9c0b00",
"x4 c #9c0c01",
"y4 c #9d0d01",
"z4 c #d13f37",
"05 c #8f0900",
"15 c #850b02",
"25 c #c8352e",
"35 c #b61f15",
"45 c #bb2219",
"55 c #be251c",
"65 c #d55a53",
"75 c #ac332d",
"85 c #902b26",
"95 c #72130d",
":5 c #7f150f",
";5 c #a8241a",
"A5 c #990a00",
"B5 c #9b0b00",
"C5 c #9c0c00",
"D5 c #9d0c01",
"E5 c #9e0d02",
"F5 c #d03e36",
"G5 c #8c0a01",
"H5 c #820b02",
"I5 c #c7352d",
"J5 c #be251b",
"K5 c #bf261d",
"L5 c #c2271f",
"M5 c #c32820",
"N5 c #c92c24",
"O5 c #ce3029",
"P5 c #dc615a",
"Q5 c #b93d37",
"R5 c #a53832",
"S5 c #7a1510",
"T5 c #831711",
"U5 c #ad2a20",
"V5 c #9d0d02",
"W5 c #9e0e02",
"X5 c #9f0f03",
"Y5 c #a00f04",
"Z5 c #a11005",
"a5 c #a21106",
"b5 c #a41206",
"c5 c #a41307",
"d5 c #a61309",
"e5 c #a7140a",
"f5 c #cc3a33",
"g5 c #8a0b02",
"h5 c #800b03",
"i5 c #c5332c",
"j5 c #c72b23",
"k5 c #c82c24",
"l5 c #cb2d25",
"m5 c #ce3028",
"n5 c #cf322a",
"o5 c #d2332c",
"p5 c #d3352d",
"q5 c #e16963",
"r5 c #c64841",
"s5 c #b1423c",
"t5 c #761610",
"u5 c #871913",
"v5 c #b23026",
"w5 c #a11106",
"x5 c #a21206",
"y5 c #a31307",
"z5 c #a41308",
"06 c #a71409",
"16 c #a8150b",
"26 c #a9170b",
"36 c #aa170d",
"46 c #ae190e",
"56 c #cb3a32",
"66 c #880b03",
"76 c #800c03",
"86 c #c3322b",
"96 c #cf3229",
":6 c #d1322b",
";6 c #d4362e",
"A6 c #d83832",
"B6 c #da3a33",
"C6 c #de3c36",
"D6 c #e7726c",
"E6 c #d4544d",
"F6 c #b84943",
"G6 c #741611",
"H6 c #8b1b15",
"I6 c #b8372e",
"J6 c #a8160b",
"K6 c #a9160b",
"L6 c #aa170c",
"M6 c #ab180e",
"N6 c #ac190e",
"O6 c #af1a10",
"P6 c #b01b11",
"Q6 c #b41e13",
"R6 c #b51f15",
"S6 c #c9372f",
"T6 c #8c0f05",
"U6 c #820e06",
"V6 c #c2302a",
"W6 c #d83831",
"X6 c #d93933",
"Y6 c #db3b34",
"Z6 c #df3d38",
"a6 c #e03f39",
"b6 c #e1413a",
"c6 c #e4423c",
"d6 c #e5433d",
"e6 c #e64842",
"f6 c #e15f59",
"g6 c #b84f49",
"h6 c #691511",
"i6 c #8f1e18",
"j6 c #ba3a30",
"k6 c #b02016",
"l6 c #b01a11",
"m6 c #b11c12",
"n6 c #b21d13",
"o6 c #b51f14",
"p6 c #b61f16",
"q6 c #b82117",
"r6 c #bc241a",
"s6 c #bd241b",
"t6 c #c7352e",
"u6 c #8d1008",
"v6 c #851108",
"w6 c #c02f29",
"x6 c #df3e39",
"y6 c #e1403a",
"z6 c #e6443f",
"07 c #e74640",
"17 c #e94742",
"27 c #ea4844",
"37 c #ed544f",
"47 c #f07974",
"57 c #ec6b65",
"67 c #a84d48",
"77 c #59130f",
"87 c #93211b",
"97 c #bb3b32",
":7 c #bc2c23",
";7 c #b72017",
"A7 c #ba2218",
"B7 c #bb2319",
"C7 c #bc241b",
"D7 c #bf251c",
"E7 c #c1271e",
"F7 c #c52920",
"G7 c #c62b22",
"H7 c #c5342d",
"I7 c #93140c",
"J7 c #89140c",
"K7 c #bf2d28",
"L7 c #e7453f",
"M7 c #e94741",
"N7 c #ea4843",
"O7 c #ec4b46",
"P7 c #ef4e49",
"Q7 c #f04f4b",
"R7 c #f3625e",
"S7 c #f57b76",
"T7 c #f67871",
"U7 c #8f4642",
"V7 c #97241d",
"W7 c #b83932",
"X7 c #c73c33",
"Y7 c #c0261d",
"Z7 c #c2281f",
"a7 c #c42920",
"b7 c #c62a21",
"c7 c #c72c23",
"d7 c #ca2d25",
"e7 c #cd3028",
"f7 c #cf312a",
"g7 c #c5322b",
"h7 c #9a1911",
"i7 c #911912",
"j7 c #c02e29",
"k7 c #ed4c47",
"l7 c #ef4d48",
"m7 c #f04f4a",
"n7 c #f2514c",
"o7 c #f55450",
"p7 c #f65551",
"q7 c #f65753",
"r7 c #f87470",
"s7 c #fa7f7a",
"t7 c #fe837d",
"u7 c #9f2a23",
"v7 c #b2362f",
"w7 c #d14e47",
"x7 c #c82d24",
"y7 c #cb2e26",
"z7 c #cc2f27",
"08 c #ce3129",
"18 c #d0322b",
"28 c #d2342c",
"38 c #d3352e",
"48 c #d63630",
"58 c #d73831",
"68 c #c6332b",
"78 c #a52018",
"88 c #9c2018",
"98 c #c4312c",
":8 c #f3534e",
";8 c #f3544f",
"A8 c #f75854",
"B8 c #f95b57",
"C8 c #f95c59",
"D8 c #fb8682",
"E8 c #fe8681",
"F8 c #ff8c86",
"G8 c #a4302a",
"H8 c #af352f",
"I8 c #da5f58",
"J8 c #d1342c",
"K8 c #d3342d",
"L8 c #d5362f",
"M8 c #d73730",
"N8 c #d83932",
"O8 c #db3a34",
"P8 c #dc3c35",
"Q8 c #de3d37",
"R8 c #df3f38",
"S8 c #c9342e",
"T8 c #af2720",
"U8 c #a62620",
"V8 c #cb3733",
"W8 c #f85a56",
"X8 c #f95d59",
"Y8 c #fa5f5c",
"Z8 c #ff9895",
"a8 c #ff928d",
"b8 c #ed8a84",
"c8 c #7f2925",
"d8 c #bb3e38",
"e8 c #da5e58",
"f8 c #dc4842",
"g8 c #dc3b35",
"h8 c #dd3d36",
"i8 c #df3e38",
"j8 c #e14039",
"k8 c #e2413b",
"l8 c #e5443e",
"m8 c #e64640",
"n8 c #d13934",
"o8 c #b82c26",
"p8 c #b12c27",
"q8 c #d33f3b",
"r8 c #fa5e5b",
"s8 c #fc625e",
"t8 c #fc6360",
"u8 c #fd6561",
"v8 c #fe6865",
"w8 c #fe7c79",
"x8 c #ff9a97",
"y8 c #ff9c96",
"z8 c #a56662",
"09 c #c84943",
"19 c #d55650",
"29 c #e66761",
"39 c #e3423c",
"49 c #e4433d",
"59 c #e6453f",
"69 c #e84741",
"79 c #e94743",
"89 c #ea4a44",
"99 c #ec4a45",
":9 c #ee4c47",
";9 c #dc413c",
"A9 c #c0322c",
"B9 c #4a0803",
"C9 c #490a04",
"D9 c #b8302b",
"E9 c #e04c49",
"F9 c #fd6764",
"G9 c #fd6965",
"H9 c #fe6a67",
"I9 c #ff6e6a",
"J9 c #ff716c",
"K9 c #ffa5a0",
"L9 c #c14d46",
"M9 c #d85751",
"N9 c #ec7671",
"O9 c #eb504b",
"P9 c #eb4a45",
"Q9 c #ec4c47",
"R9 c #ee4d48",
"S9 c #ef4f4a",
"T9 c #f0504c",
"U9 c #f1514c",
"V9 c #f2534e",
"W9 c #e84c48",
"X9 c #c5332e",
"Y9 c #5f0b04",
"Z9 c #5e0c06",
"a9 c #be332f",
"b9 c #f05e5b",
"c9 c #fe6d69",
"d9 c #ff706d",
"e9 c #ff726e",
"f9 c #ff7672",
"g9 c #ff7873",
"h9 c #ff8380",
"i9 c #ffb2b0",
"j9 c #e19a96",
"k9 c #e5645d",
"l9 c #ed6f6a",
"m9 c #f26f6a",
"n9 c #f1504c",
"o9 c #f2524d",
"p9 c #f3534f",
"q9 c #f55551",
"r9 c #f65652",
"s9 c #f65854",
"t9 c #f75a55",
"u9 c #c02f2b",
"v9 c #791109",
"w9 c #741008",
"x9 c #bb2f2d",
"y9 c #fe736e",
"z9 c #ff7774",
"0: c #ff7975",
"1: c #ff7b77",
"2: c #ff7d79",
"3: c #ff807d",
"4: c #ffb2ae",
"5: c #ffb6b2",
"6: c #d9645f",
"7: c #f2736d",
"8: c #f78883",
"9: c #f6605c",
":: c #f75954",
";: c #f75955",
"A: c #f85b57",
"B: c #f95c58",
"C: c #f95e5a",
"D: c #fa5f5b",
"E: c #fa605d",
"F: c #cd3b37",
"G: c #a0261f",
"H: c #94241d",
"I: c #c8403d",
"J: c #ff7c79",
"K: c #ff7e7b",
"L: c #ff817c",
"M: c #ff827e",
"N: c #ff8582",
"O: c #ff8884",
"P: c #ff9592",
"Q: c #ffc3c1",
"R: c #ffbdbb",
"S: c #e4aaa8",
"T: c #fb7e78",
"U: c #fb8580",
"V: c #fb8b87",
"W: c #f95f5c",
"X: c #fa605c",
"Y: c #fa615e",
"Z: c #fc635f",
"a: c #fc6561",
"b: c #fd6662",
"c: c #fd6864",
"d: c #e4524e",
"e: c #bc3530",
"f: c #4f0a05",
"g: c #550d07",
"h: c #b43733",
"i: c #e46461",
"j: c #ff8682",
"k: c #ff8783",
"l: c #ff8986",
"m: c #ff8a87",
"n: c #ff8d89",
"o: c #ff8e8a",
"p: c #ffc7c4",
"q: c #934f4b",
"r: c #ff8a84",
"s: c #fe918d",
"t: c #fe817e",
"u: c #fd6663",
"v: c #fd6865",
"w: c #fe6966",
"x: c #fe6b68",
"y: c #fe6d6a",
"z: c #fe6f6b",
"0; c #fd6f6b",
"1; c #c23633",
"2; c #7c140d",
"3; c #79150c",
"4; c #be3c3a",
"5; c #fe8b87",
"6; c #ff8e8b",
"7; c #ff8f8c",
"8; c #ff938f",
"9; c #ff9591",
":; c #ffb8b6",
";; c #ffccca",
"A; c #ffcecc",
"B; c #937877",
"C; c #cf7772",
"D; c #ff9690",
"E; c #ff9e9b",
"F; c #fe827f",
"G; c #ff6f6b",
"H; c #ff716d",
"I; c #ff7370",
"J; c #ff7571",
"K; c #ff7874",
"L; c #ff7976",
"M; c #e15c58",
"N; c #b33632",
"O; c #650e07",
"P; c #660f08",
"Q; c #ad3633",
"R; c #e36e6b",
"S; c #ff9693",
"T; c #ff9794",
"U; c #ff9b97",
"V; c #ff9c9a",
"W; c #ffb2af",
"X; c #ffd3d2",
"Y; c #cfadad",
"Z; c #e78f89",
"a; c #ffa19c",
"b; c #ff8f8b",
"c; c #ff7a77",
"d; c #ff7d78",
"e; c #ff7e7a",
"f; c #ff817d",
"g; c #ff837e",
"h; c #ff8481",
"i; c #d2504e",
"j; c #a22f2a",
"k; c #6a1008",
"l; c #6b1109",
"m; c #a1322d",
"n; c #d15a58",
"o; c #ff9b98",
"p; c #ff9c99",
"q; c #ff9d9b",
"r; c #ffa09c",
"s; c #ffa19d",
"t; c #ffa2a0",
"u; c #ffb5b4",
"v; c #ffd6d6",
"w; c #e1c3c2",
"x; c #e79995",
"y; c #ff9d9a",
"z; c #ff8581",
"0A c #ff8784",
"1A c #ff8885",
"2A c #ff8b88",
"3A c #ff8c89",
"4A c #fd8b88",
"5A c #d65c5a",
"6A c #b73d3b",
"7A c #9b302a",
"8A c #78150c",
"9A c #74130a",
":A c #76130a",
";A c #7b150d",
"AA c #9b302b",
"BA c #b64240",
"CA c #d56562",
"DA c #fd9d9b",
"EA c #ffa29f",
"FA c #ffa4a2",
"GA c #ffa8a4",
"HA c #ffc4c1",
"IA c #ffdbda",
"JA c #ffe0df",
"KA c #d2baba",
"LA c #c68c89",
"MA c #ffb8b4",
"NA c #ffbbb9",
"OA c #ff9a96",
"PA c #ff918e",
"QA c #ff9390",
"RA c #ff9491",
"SA c #ff9793",
"TA c #ff9894",
"UA c #f18784",
"VA c #dd6c69",
"WA c #ce5957",
"XA c #cd5957",
"YA c #ce5a59",
"ZA c #dd716f",
"aA c #f18f8d",
"bA c #ffa6a2",
"cA c #ffa8a6",
"dA c #ffaba8",
"eA c #ffb7b4",
"fA c #ffdcda",
"gA c #ffdfde",
"hA c #ffe6e6",
"iA c #b7a6a6",
"jA c #f0b7b4",
"kA c #ffc5c3",
"lA c #ffc9c6",
"mA c #ffbab8",
"nA c #ff9f9c",
"oA c #ff9d99",
"pA c #ff9e9c",
"qA c #ffa09d",
"rA c #ffa19e",
"sA c #ffa3a0",
"tA c #ffa4a1",
"uA c #ffa6a3",
"vA c #ffa7a4",
"wA c #ffa9a7",
"xA c #ffaba9",
"yA c #ffaeab",
"zA c #ffb3b1",
"0B c #ffd1d0",
"1B c #ffe2e1",
"2B c #ffe8e8",
"3B c #f0dddd",
"4B c #8d7271",
"5B c #f9cbc9",
"6B c #ffcbc9",
"7B c #ffb9b7",
"8B c #ffaaa8",
"9B c #ffa8a5",
":B c #ffa9a6",
";B c #ffaaa7",
"AB c #ffaca8",
"BB c #ffadaa",
"CB c #ffaeac",
"DB c #ffafad",
"EB c #ffb0ad",
"FB c #ffb5b3",
"GB c #ffc6c4",
"HB c #ffdad9",
"IB c #ffe7e7",
"JB c #f9e8e8",
"KB c #8d8484",
"LB c #816e6e",
"MB c #e1c2c1",
"NB c #ffdddc",
"OB c #ffd7d6",
"PB c #ffd8d6",
"QB c #ffd4d3",
"RB c #ffcfcd",
"SB c #ffd5d4",
"TB c #ffd6d5",
"UB c #ffd0cf",
"VB c #ffd9d8",
"WB c #ffdedd",
"XB c #ffe3e2",
"YB c #ffe5e4",
"ZB c #fff0f0",
"aB c #e1d4d4",
"bB c #817a7a",
"cB c #998b8a",
"dB c #c3b2b2",
"eB c #d2c0c0",
"fB c #ffecec",
"gB c #ffeded",
"hB c #ffeeee",
"iB c #ffefef",
"jB c #d2c5c6",
"kB c #c3b8b9",
"lB c #999192",
"                                                                                                ",
"                                      lBkBjBiBhBgBfBeBdBcB                                      ",
"                              bBaBZBYBXBWBVBUBTBSBRBQBPBVBOBNBMBLB                              ",
"                          KBJBIBXBHBGBFBEBDBCBBBAB;B:B9B8B7B6BUBRB5B4B                          ",
"                        3B2B1B0BzAyABBxA8BwA9BvAuAtAsArAqApAoAnAmAlAkAjA                        ",
"                    iAhAgAfAeAdAwAcAvAbAaAZAYAXAWAWAVAUATASARAQAPAOANAmAMALA                    ",
"                  KAJAIAHAGAuAFAsAEADACABAAA;A:A9A8A7A6A5A4A3A2A1A0Az;y;FBABx;                  ",
"                w;HBv;u;t;s;r;q;p;o;n;m;l;            k;j;i;h;g;f;e;d;c;b;xAa;Z;                ",
"              Y;QBX;W;V;U;OAT;S;RAR;Q;P;                O;N;M;L;K;J;I;H;G;F;E;D;C;              ",
"            B;A;;;:;S;9;8;PA7;6;5;4;3;                    2;1;0;z:y:x:w:v:u:t:s:r:q:            ",
"            p:kAkAPAo:n:m:l:k:j:i:h:g:                    f:e:d:c:b:a:Z:Y:X:W:V:U:T:            ",
"          S:R:Q:P:O:N:h;M:L:K:J:I:H:                        G:F:E:D:C:B:A:;:::9:8:7:6:          ",
"          5:4:GA3:K:2:1:0:z9J;y9x9w9                        v9u9t9;:s9r9q9p9o9n9m9l9k9          ",
"        j9ABi9h9g9f9I;e9d9z:c9b9a9Z9                        Y9X9W9V9U9T9S9R9Q9P9O9N9M9L9        ",
"        K9a;qAJ9I9y:x:H9G9F9u:E9D9C9                        B9A9;9:999897969594939291909        ",
"      z8y8x8w8v8F9b:u8t8s8E:r8q8p8                            o8n8m8l849k8j8i8h8g8f8e8d8c8      ",
"      b8a8Z8a:s8E:Y8C:X8A:W8;:V8U8                            T8S8R8Q8P8O8N8M8L8K8J8I8H8G8      ",
"      F8E8D8C8B8W8;:A8r9q9;8:89888                            7868584838281808z7y7x7w7v7u7      ",
"      t7s7r7q7p7o7p9n7n9m7l7k7j7i7                            h7g7f7e7y7d7c7b7a7Z7Y7X7W7V7      ",
"    U7T7S7R7U9Q7P7k7O7P9N7M7L7K7J7                            I7H7G7F7Z7E7D7C7B7A7;7:7978777    ",
"    6757473799271707z64939y6x6w6v6                            u6t6s6r6A7q6p6o6n6m6l6k6j6i6h6    ",
"    g6f6N9e6d6c6b6a6Z6h8Y6X6W6V6U6                            T6S6R6Q6m6P6O6N6M6L6K6J6I6H6G6    ",
"    F6E6D6i8C6Y6B6A6M8;6K8:6968676                            665646M636261606z5y5x5w5v5u5t5    ",
"    s5r5q5M8L8p5o5n5m5z7l5k5j5i5h5                            g5f5e5d5c5b5a5Z5Y5X5W5V5U5T5S5    ",
"    R5Q5P5O5e7y7N5j5b7M5L5K5J5I5H5                            G5F5Z5Y5X5W5E5D5C5B5B5A5;5:595    ",
"    857565G7a7L5E755r645A7;7352515                            05z4y4x4w4B5A5A5v4u4t4t4s4r4q4    ",
"    p4o4n4m4l4k4q6p6o6j4i4P6h4g4f4                            e4d4c4v4u4u4t4t4t4b4b4a4Z4Y4X4    ",
"    W4V4U4T4Q6S4P6O6R4Q4P4O4N4M4L4                            K4J4t4t4t4b4b4I4I4I4I4H4G4F4E4    ",
"      D4C4B4Q4A4261606;4c5:4a59484                            7464b4I4I4545454545454443424      ",
"      1404z3d5y3x3w3v3u3t3s3V5r3q3                            p3o3545454545454545454n3m3l3      ",
"      k3j3i3u3X5W5h3D5C5g3B5c4f3e3                            d3c3545454545454545454b3a3Z3      ",
"      Y3u5U5X3C5B5c4c4v4u4t4W3V3U3                            T3S3R3R3R3R3Q3Q3Q3P3O3N3M3L3      ",
"        T5K3J3u4u4t4t4I3O3O3O3H3G3                            F3E3Q3Q3P3P3P3P3P3P3D3C3B3        ",
"        A3;3:393O3O35454545454837363                        53433323232323P3P3Q3R31303z2        ",
"        y2x2w2v25454545454R3R3u2J4t2                        s2r2q2P3Q3Q3R3R35454p2o2n2m2        ",
"          l2k2j2O354R3R3R3R3R3R3i2h2                        g2f2R35454I4I4e2d2c2b2a2Z2          ",
"            Y2X2W2R3R3R3R3R3P3P3V2U2                        T2S2e2d2d2R2Q2c2c2P2O2N2            ",
"            M2L2K2J2P3P323232323I2H2G2                    F2E2D2Q2c2C2B2A2;2:2928272            ",
"              625242b42323P3P3Q3Q33222                    1202B2A2;2z1y1x1w1v1u1t1              ",
"                s1r1q1p1Q3R3R354I4o1n1m1                l1k1j1y1t2i1i1h1g1f1e1d1                ",
"                  c1b1a1Z1e2e2d2R2Q2Y1X1W1V1        U1T1S1R1i1h1Q1P1w1O1N1M1L1                  ",
"                    K1J1I1H1G1C2B2B2A2F1E1D1C1B1A1;1:19181w17161514131211101                    ",
"                        z0y0x0w0x1y1x1t2v0u0t0s0r0q0p0o0n0m0l0k0j0i0h0g0                        ",
"                          f0e0d0c0b0a0w1w171Z051m0Y0X0W0V0U0T0S0R0g0Q0                          ",
"                              P0O0N0M0L0K0Z9J0J0I0H0G0F0E0D0C0B0A0                              ",
"                                ;0:09080706050504030B0201000:0;0                                ",
"                                                                                                ",
"                                                                                                "};
