/* XPM */
static char *image[] = {
"64 64 304 2",
"   c None",
"00 c #658898",
"10 c #7392a1",
"20 c #7b9aa9",
"30 c #68899b",
"40 c #6b8d9d",
"50 c #809cab",
"60 c #7391a3",
"70 c #6d8d9e",
"80 c #7a98a7",
"90 c #6d8e9f",
":0 c #7c9aa8",
";0 c #678a9b",
"A0 c #67899a",
"B0 c #698b9b",
"C0 c #6c8e9e",
"D0 c #618596",
"E0 c #7a96a6",
"F0 c #69899d",
"G0 c #638699",
"H0 c #5d8195",
"I0 c #64869a",
"J0 c #6a8b9e",
"K0 c #7896a6",
"L0 c #7693a4",
"M0 c #638599",
"N0 c #7191a2",
"O0 c #638498",
"P0 c #658699",
"Q0 c #6a8c9d",
"R0 c #7d9aaa",
"S0 c #618597",
"T0 c #618498",
"U0 c #6b8d9f",
"V0 c #5f8396",
"W0 c #66889b",
"X0 c #67889a",
"Y0 c #678a9c",
"Z0 c #6c8c9e",
"a0 c #64889a",
"b0 c #66899c",
"c0 c #698a9e",
"d0 c #6d8d9f",
"e0 c #6e8fa0",
"f0 c #65899b",
"g0 c #7193a3",
"h0 c #7c99aa",
"i0 c #698b9e",
"j0 c #7d99a9",
"k0 c #6c8ea0",
"l0 c #67899b",
"m0 c #7a98a8",
"n0 c #7897a8",
"o0 c #668a9c",
"p0 c #6c8d9f",
"q0 c #6a8c9e",
"r0 c #678b9c",
"s0 c #6b8c9e",
"t0 c #6d8ea0",
"u0 c #688c9e",
"v0 c #6e8fa1",
"w0 c #7292a2",
"x0 c #6d8fa1",
"y0 c #6d8fa0",
"z0 c #6a8da0",
"01 c #7697a7",
"11 c #698c9e",
"21 c #6e90a2",
"31 c #88a2b2",
"41 c #6b8ea1",
"51 c #7292a4",
"61 c #7192a5",
"71 c #7495a6",
"81 c #7593a6",
"91 c #7091a3",
":1 c #6f90a3",
";1 c #6d8ea2",
"A1 c #8da6b3",
"B1 c #7493a6",
"C1 c #6c8ea2",
"D1 c #7393a5",
"E1 c #6d91a2",
"F1 c #6f91a2",
"G1 c #6f91a3",
"H1 c #6e92a2",
"I1 c #7395a5",
"J1 c #7494a5",
"K1 c #8ba8b4",
"L1 c #7698a7",
"M1 c #87a3b3",
"N1 c #7293a5",
"O1 c #7394a5",
"P1 c #7596a8",
"Q1 c #7596a6",
"R1 c #7195a5",
"S1 c #7294a4",
"T1 c #90aab9",
"U1 c #8fa9b6",
"V1 c #7a9bab",
"W1 c #7294a5",
"X1 c #7899a9",
"Y1 c #7797a8",
"Z1 c #89a4b4",
"a1 c #87a3b2",
"b1 c #94adbb",
"c1 c #88a4b4",
"d1 c #7e9bac",
"e1 c #7c9bac",
"f1 c #7d9aac",
"g1 c #7b9aab",
"h1 c #7998aa",
"i1 c #7b9cac",
"j1 c #809faf",
"k1 c #7f9ead",
"l1 c #7f9dae",
"m1 c #87a5b3",
"n1 c #7d9cad",
"o1 c #7e9ead",
"p1 c #7c9bad",
"q1 c #82a0b1",
"r1 c #809eb0",
"s1 c #839fb0",
"t1 c #81a0b2",
"u1 c #819fb1",
"v1 c #809eaf",
"w1 c #7b9aac",
"x1 c #84a2b2",
"y1 c #84a3b2",
"z1 c #83a1b2",
"02 c #88a6b5",
"12 c #85a3b2",
"22 c #83a0b1",
"32 c #7f9eaf",
"42 c #81a1b2",
"52 c #83a2b2",
"62 c #93aebc",
"72 c #83a1b1",
"82 c #82a1b1",
"92 c #81a2b1",
":2 c #84a2b3",
";2 c #88a5b5",
"A2 c #89a6b6",
"B2 c #89a5b6",
"C2 c #a3b9c7",
"D2 c #8aa6b7",
"E2 c #8caab8",
"F2 c #86a4b4",
"G2 c #85a3b4",
"H2 c #84a2b4",
"I2 c #85a3b3",
"J2 c #87a5b6",
"K2 c #89a7b7",
"L2 c #8ba8b8",
"M2 c #8ba8b7",
"N2 c #8aa7b7",
"O2 c #8daab8",
"P2 c #98b2c0",
"Q2 c #8daab9",
"R2 c #8ca9b8",
"S2 c #86a6b4",
"T2 c #88a6b6",
"U2 c #87a5b5",
"V2 c #88a5b6",
"W2 c #8aa9b8",
"X2 c #8aa8b9",
"Y2 c #8ba9b9",
"Z2 c #90adbb",
"a2 c #94afbe",
"b2 c #8facbd",
"c2 c #8caaba",
"d2 c #8eabbb",
"e2 c #8caab9",
"f2 c #93b0be",
"g2 c #a9bfcd",
"h2 c #90abbb",
"i2 c #91aebc",
"j2 c #92aebd",
"k2 c #8dabbb",
"l2 c #9cb6c3",
"m2 c #90acbc",
"n2 c #8eabb9",
"o2 c #a1b9c6",
"p2 c #97b3c1",
"q2 c #93afbe",
"r2 c #91aebd",
"s2 c #96b1bf",
"t2 c #94b0be",
"u2 c #91adbd",
"v2 c #98b2c2",
"w2 c #a3bbc9",
"x2 c #98b3c2",
"y2 c #94b1bf",
"z2 c #94afbf",
"03 c #a0b9c7",
"13 c #94b0bf",
"23 c #99b3c3",
"33 c #95b0c0",
"43 c #93b0c0",
"53 c #a2b9c8",
"63 c #9bb6c5",
"73 c #9ab6c4",
"83 c #99b4c2",
"93 c #96b3c2",
":3 c #99b4c3",
";3 c #afc5d1",
"A3 c #9cb6c4",
"B3 c #9bb5c4",
"C3 c #9ab4c3",
"D3 c #97b3c2",
"E3 c #97b2c1",
"F3 c #96b3c3",
"G3 c #99b5c4",
"H3 c #a0bac8",
"I3 c #9fb8c7",
"J3 c #9bb7c4",
"K3 c #9cb8c5",
"L3 c #a3bcca",
"M3 c #a1bcc9",
"N3 c #9eb9c6",
"O3 c #a4bcc9",
"P3 c #9bb6c4",
"Q3 c #9ab7c4",
"R3 c #99b6c4",
"S3 c #9ab5c4",
"T3 c #9bb7c5",
"U3 c #9fbac6",
"V3 c #9cb8c6",
"W3 c #9fbac9",
"X3 c #adc3d1",
"Y3 c #a5becc",
"Z3 c #a1bbc9",
"a3 c #9fbac8",
"b3 c #b3c8d3",
"c3 c #a2bcca",
"d3 c #a2bbc9",
"e3 c #a0bac9",
"f3 c #a1bac8",
"g3 c #a2bbca",
"h3 c #a7bfcc",
"i3 c #afc6d0",
"j3 c #a0bbc9",
"k3 c #a3bdcb",
"l3 c #a6c0cd",
"m3 c #b2c8d3",
"n3 c #b2c7d3",
"o3 c #a6bfcc",
"p3 c #a4becb",
"q3 c #a8c0ce",
"r3 c #a2bdcb",
"s3 c #a2bccb",
"t3 c #a3becd",
"u3 c #a4becd",
"v3 c #a5bfcd",
"w3 c #a8c1ce",
"x3 c #aac1cf",
"y3 c #acc3d2",
"z3 c #aac2cf",
"04 c #a7c0ce",
"14 c #acc4d0",
"24 c #a9c1cf",
"34 c #a8bfce",
"44 c #abc3d0",
"54 c #a5c1cd",
"64 c #a6bfcd",
"74 c #a6c0ce",
"84 c #aac3d0",
"94 c #a6c2cf",
":4 c #b5cad5",
";4 c #acc5d1",
"A4 c #aac3d1",
"B4 c #acc4d2",
"C4 c #b0c8d5",
"D4 c #adc6d3",
"E4 c #acc4d3",
"F4 c #aec6d4",
"G4 c #adc5d3",
"H4 c #acc5d2",
"I4 c #acc5d3",
"J4 c #abc4d3",
"K4 c #b0c9d5",
"L4 c #b2cad7",
"M4 c #b0c9d6",
"N4 c #afc9d5",
"O4 c #aec7d5",
"P4 c #afc8d4",
"Q4 c #afc8d5",
"R4 c #b1cad7",
"S4 c #b3cad7",
"T4 c #b6ccd8",
"U4 c #b5ccd8",
"V4 c #b4cbd7",
"W4 c #b1c9d6",
"X4 c #b8cedc",
"Y4 c #b5cdd9",
"Z4 c #b8d0dc",
"a4 c #b9d0dc",
"b4 c #b9d1dc",
"c4 c #b8d1dc",
"d4 c #b8cfdc",
"e4 c #b7cfdc",
"f4 c #b7d0dc",
"g4 c #bad1de",
"h4 c #bbd2de",
"i4 c #bad2de",
"                                                                                                                                ",
"                                                                                                                                ",
"                                                                                                                                ",
"                                                                                                                                ",
"                                                                                                                                ",
"                                                                                                                                ",
"                                                                                                                                ",
"                                                                                                                                ",
"                                                                                                                                ",
"                                                                                                                                ",
"                                                                                                                                ",
"                                                                                                                                ",
"                                                                                                                                ",
"                                                                                                                                ",
"                                                  i4h4h4h4h4h4h4g4                                                              ",
"                                                f4e4d4c4b4a4Z4d4e4d4                                                            ",
"                                              Y4Y4X4d4d4d4d4d4d4X4Y4Y4                                                          ",
"                                            W4V4U4T4T4T4T4T4T4T4T4U4S4R4                                                        ",
"                              Q4P4P4P4O4  N4M4L4L4L4L4L4L4L4L4L4L4L4L4K4Q4                                                      ",
"                            J4I4H4G4F4E4  D4C4C4C4C4C4C4C4C4C4C4C4C4C4C4B4                                                      ",
"                            A4;4H4H4H4:4  ;4H4H4H4H4H4H4H4H4H4H4H4H4H4H4;4                                                      ",
"                          948484848484    84848484848484848484848484848484    74746454                                          ",
"                          443434342414    343434343434343404z3y3y3x3w33434    v3u3t3s3r3                                        ",
"                            q3            p3p3p3p3p3o3n3                m3  l3p3p3p3k3j3j3                                      ",
"                              i3h3g3f3e3  d3d3d3c3b3    1464d3a3a3Z3Y3X3      g3d3d3d3j3W3V3                                    ",
"                            U3T3S3R3Q3P3  O3N3M3    L3K3J3R3P3Q3Q3R3R3J3K3I3    H3N3N3N3N3P3G3                                  ",
"                        F3E3D3C3B3A3A3B3    f3  ;3:393837363A3A3A3A3B3C383E3:3    53A3A3A373D3                                  ",
"                        433323232323232313    03z2y2x223232323232323232323x2y233w2  C3232323v2                                  ",
"                      u2t2s2s2s2s2s2s2s2t2    r2q2s2s2s2s2s2s2s2s2s2s2s2s2s2s2q2r2    s2s2p2o2                                  ",
"                    n2m2q2q2q2q2q2q2q2q2l2  k2j2q2q2q2q2q2q2q2q2q2q2q2q2q2q2q2q2i2h2        g2f2                                ",
"                    e2m2m2m2m2m2m2m2m2m2  d2c2m2m2m2m2m2m2m2m2m2m2m2m2m2m2m2m2m2m2c2b2  a2Z2d2Y2X2X2X2W2                        ",
"          V2U2T2S2  R2Q2Q2Q2Q2Q2Q2Q2Q2P2  T2O2Q2Q2Q2Q2Q2Q2Q2Q2Q2Q2Q2Q2Q2Q2Q2Q2Q2Q2R2T2  N2T2M2L2L2N2K2T2T2J2                    ",
"        I2H2G2F2E2  D2M2M2M2M2M2M2M2M2C2  B2M2M2M2M2M2M2M2M2M2M2M2M2M2M2M2M2M2M2M2M2A2    M2M2M2M2M2M2D2;2G2:2                  ",
"    928272F2U2U262  U2U2U2U2U2U2U2U2U2  ;2U2U2U2U2U2U2U2U2U2U2U2U2U2U2U2U2U2U2U2U2U2U2    U2U2U2U2U2U2U2U2F25242                ",
"    32221212121202  121212121212121212  z112121212121212121212121212121212121212121212y1  121212121212121212x132                ",
"  w1v1u1u1u1u1u1t1  s1u1u1u1u1u1u1u122  r1u1u1u1u1u1u1u1u1u1u1u1u1u1u1u1u1u1u1u1u1u1u1v1  q1u1u1u1u1u1u1u1u1u1r1p1              ",
"  w1o1o1o1o1o1o1n1  m1o1o1o1o1o1o1o1l1  k1o1o1o1o1o1o1o1o1o1o1o1o1o1o1o1o1o1o1o1o1o1o1j1  o1o1o1o1o1o1o1o1o1o1o1i1              ",
"h1g1f1f1f1f1f1f1g1    e1f1f1f1f1d1c1b1  a1f1f1f1f1f1f1f1f1f1f1f1f1f1f1f1f1f1f1f1f1f1f1Z1  f1f1f1f1f1f1f1f1f1f1f1g1              ",
"Y1X1X1X1X1X1X1X1X1W1    X1X1V1      U1  T1X1X1X1X1X1X1X1X1X1X1X1X1X1X1X1X1X1X1X1X1X1X1    X1X1X1X1X1X1X1X1X1X1X1X1    S1R1      ",
"Q1P1P1P1P1P1P1P1P1O1N1  M1L1  K1P1J1N1    P1P1P1P1P1P1P1P1P1P1P1P1P1P1P1P1P1P1P1P1P1P1  I1P1P1P1P1P1P1P1P1P1P1P1P1  H1G1F1F1E1  ",
"e1D1D1D1D1D1D1D1D1N1C1B1    A1;1C1:191;1  81D1D1D1D1D1D1D1D1D1D1D1D1D1D1D1D1D1D1D1D171  G1D1D1D1D1D1D1D1D1D1D1D1D1  61N151:141  ",
"31919191919191919191211101  z0y0919191x0    9191919191919191919191919191919191919191    x09191919191919191919191w0  v0919191x0u0",
"  t0t0t0t0t0t0t0t0t0t0s0r0  q0t0t0t0t0p0o0  n0t0t0t0t0t0t0t0t0t0t0t0t0t0t0t0t0t0t0m0  l0k0t0t0t0t0t0t0t0t0t0t0t0j0  p0t0t0t0t0i0",
"  h0q0q0q0q0q0q0q0q0q0q0g0  q0q0q0q0q0q0f0e0  y0q0q0q0q0q0q0q0q0q0q0q0q0q0q0q0q0d0  c0b0q0q0q0q0q0q0q0q0q0q0q0x0  a0q0q0q0q0q0e0",
"    Z0Y0Y0Y0Y0Y0Y0Y0Y0Y0X0  Y0Y0Y0Y0Y0Y0W0V0    s0Y0Y0Y0Y0Y0Y0Y0Y0Y0Y0Y0Y0Y0Y0U0    T0Y0Y0Y0Y0Y0Y0Y0Y0Y0Y0Y0Y0    S0Y0Y0Y0Y0Y0R0",
"      Q0P0P0P0P0P0P0P0P0O0  N0P0P0P0P0P0P0M0      L0P0P0P0P0P0P0P0P0P0P0P0P0K0      J0P0P0P0P0P0P0P0P0P0P0I0    H0G0P0P0P0P0F0  ",
"        E0D0S0S0S0S0S0S0C0    B0S0S0S0S0S0            A0S0S0S0S0S0S0S0S0;0            :0D0S0S0S0S0S0S0S0Q0        G0S0S0S090    ",
"              80706050            4030R0                    204090R0                        1000D0s080                          ",
"                                                                                                                                ",
"                                                                                                                                ",
"                                                                                                                                ",
"                                                                                                                                ",
"                                                                                                                                ",
"                                                                                                                                ",
"                                                                                                                                ",
"                                                                                                                                ",
"                                                                                                                                ",
"                                                                                                                                ",
"                                                                                                                                ",
"                                                                                                                                ",
"                                                                                                                                ",
"                                                                                                                                ",
"                                                                                                                                ",
"                                                                                                                                "};
