/* XPM */
static char *image[] = {
"48 48 663 2",
"   c None",
"00 c #73477d",
"10 c #8a5c95",
"20 c #804c8a",
"30 c #7e4a8b",
"40 c #804c8c",
"50 c #82518f",
"60 c #906199",
"70 c #92649b",
"80 c #92649e",
"90 c #94679f",
":0 c #966ba1",
";0 c #996da3",
"A0 c #986da4",
"B0 c #9a6da5",
"C0 c #996ca3",
"D0 c #976ca1",
"E0 c #9469a1",
"F0 c #94669e",
"G0 c #95659e",
"H0 c #90629b",
"I0 c #8f5e9c",
"J0 c #8b5a96",
"K0 c #864e90",
"L0 c #82478d",
"M0 c #7e438c",
"N0 c #7b4288",
"O0 c #7b3f89",
"P0 c #80478d",
"Q0 c #895396",
"R0 c #4b2454",
"S0 c #48214f",
"T0 c #73437e",
"U0 c #865792",
"V0 c #814e8d",
"W0 c #7a4587",
"X0 c #7d4789",
"Y0 c #824d8e",
"Z0 c #8e5a9b",
"a0 c #8e5b9b",
"b0 c #905e9d",
"c0 c #93619d",
"d0 c #93629d",
"e0 c #94649f",
"f0 c #9464a0",
"g0 c #9363a0",
"h0 c #92609d",
"i0 c #91609d",
"j0 c #8f5d9c",
"k0 c #8e5b9a",
"l0 c #8e5999",
"m0 c #8b5597",
"n0 c #895297",
"o0 c #814590",
"p0 c #7e3e8e",
"q0 c #7c3c8b",
"r0 c #7a398b",
"s0 c #7c3d8b",
"t0 c #8a5397",
"u0 c #482051",
"v0 c #421d48",
"w0 c #5f336a",
"x0 c #7d4c8a",
"y0 c #804e8c",
"z0 c #794587",
"01 c #834d90",
"11 c #8e569a",
"21 c #915b9c",
"31 c #92609e",
"41 c #93609e",
"51 c #925f9e",
"61 c #915c9d",
"71 c #905a9b",
"81 c #8f589a",
"91 c #8d569a",
":1 c #8b5297",
";1 c #8a5095",
"A1 c #884d95",
"B1 c #813d90",
"C1 c #7e378d",
"D1 c #7d358c",
"E1 c #813c90",
"F1 c #884e94",
"G1 c #461f4e",
"H1 c #431e4b",
"I1 c #71447b",
"J1 c #855590",
"K1 c #9b6da5",
"L1 c #915d9d",
"M1 c #905c9d",
"N1 c #925e9e",
"O1 c #9564a1",
"P1 c #8e599a",
"Q1 c #8c5699",
"R1 c #8a5398",
"S1 c #864c95",
"T1 c #7f3490",
"U1 c #7d308f",
"V1 c #874099",
"W1 c #7b4485",
"X1 c #49224f",
"Y1 c #906899",
"Z1 c #b693bd",
"a1 c #9462a0",
"b1 c #9867a3",
"c1 c #9563a0",
"d1 c #895197",
"e1 c #844393",
"f1 c #813293",
"g1 c #914aa1",
"h1 c #4e2456",
"i1 c #3f1b44",
"j1 c #775280",
"k1 c #bc9cc4",
"l1 c #8e589a",
"m1 c #885196",
"n1 c #914ea1",
"o1 c #884a96",
"p1 c #97739e",
"q1 c #ad86b6",
"r1 c #9b6ca5",
"s1 c #905b9c",
"t1 c #8d579a",
"u1 c #a977b5",
"v1 c #5e3167",
"w1 c #5d3c64",
"x1 c #9664a1",
"y1 c #93609f",
"z1 c #915d9e",
"02 c #8f5a9c",
"12 c #b08fb8",
"22 c #47274d",
"32 c #be9ec5",
"42 c #a57baf",
"52 c #905c9c",
"62 c #aa81b3",
"72 c #896690",
"82 c #3e1c45",
"92 c #47274c",
":2 c #835988",
";2 c #a34d26",
"A2 c #be601f",
"B2 c #945e58",
"C2 c #764d7c",
"D2 c #946c9e",
"E2 c #9563a1",
"F2 c #925f9f",
"G2 c #64436b",
"H2 c #36587d",
"I2 c #3d5e82",
"J2 c #395b80",
"K2 c #31547b",
"L2 c #503156",
"M2 c #bc9bc4",
"N2 c #a67cb0",
"O2 c #876090",
"P2 c #a64e24",
"Q2 c #d4690b",
"R2 c #f2a23e",
"S2 c #e5a454",
"T2 c #97645e",
"U2 c #714976",
"V2 c #9c75a7",
"W2 c #9766a2",
"X2 c #9461a0",
"Y2 c #4b284f",
"Z2 c #4b6b8b",
"a2 c #d1dae2",
"b2 c #e7ebef",
"c2 c #395a81",
"d2 c #614167",
"e2 c #956b9b",
"f2 c #ac501f",
"g2 c #d36709",
"h2 c #f19f3c",
"i2 c #eca953",
"j2 c #8c5d62",
"k2 c #8d6597",
"l2 c #9969a3",
"m2 c #bb9dc2",
"n2 c #506e8e",
"o2 c #f9fafb",
"p2 c #fbfcfe",
"q2 c #cdd6df",
"r2 c #3d6086",
"s2 c #7a5981",
"t2 c #b08cb8",
"u2 c #974c39",
"v2 c #d26407",
"w2 c #ef9d3a",
"x2 c #b0785b",
"y2 c #886291",
"z2 c #a276ac",
"03 c #9f72a9",
"13 c #b393ba",
"23 c #385b80",
"33 c #eff2f4",
"43 c #eaf0f8",
"53 c #f7f9fc",
"63 c #859bb2",
"73 c #94729b",
"83 c #8f5a6e",
"93 c #cc5c02",
":3 c #ce5c00",
";3 c #bb5300",
"A3 c #d16306",
"B3 c #ee9b38",
"C3 c #eea948",
"D3 c #fdb751",
"E3 c #b27a5b",
"F3 c #966fa0",
"G3 c #9a6ba6",
"H3 c #af8eb7",
"I3 c #3f1b46",
"J3 c #385b81",
"K3 c #9daec0",
"L3 c #fafbfd",
"M3 c #557494",
"N3 c #ad8fb4",
"O3 c #ab5022",
"P3 c #c45909",
"Q3 c #a84f22",
"R3 c #ad511f",
"S3 c #ad4e01",
"T3 c #d06004",
"U3 c #ed9937",
"V3 c #ce8b36",
"W3 c #fcb651",
"X3 c #d19356",
"Y3 c #b9815d",
"Z3 c #cd9057",
"a3 c #f7b252",
"b3 c #93636a",
"c3 c #a67daf",
"d3 c #ab8bb3",
"e3 c #3d5f83",
"f3 c #385a80",
"g3 c #31567d",
"h3 c #32577e",
"i3 c #355980",
"j3 c #f1f4f6",
"k3 c #e3ecf6",
"l3 c #43678d",
"m3 c #395e86",
"n3 c #3a5f87",
"o3 c #3a6088",
"p3 c #3d638b",
"q3 c #3d6189",
"r3 c #45264c",
"s3 c #bea0c5",
"t3 c #924a40",
"u3 c #8d648e",
"v3 c #a986b1",
"w3 c #eec6a6",
"x3 c #cf5e02",
"y3 c #ec9735",
"z3 c #fdb854",
"04 c #fee9ca",
"14 c #ede6ee",
"24 c #a27dab",
"34 c #8e668a",
"44 c #9b6a69",
"54 c #9d76a8",
"64 c #a888b0",
"74 c #411c47",
"84 c #4a698b",
"94 c #dae0e7",
":4 c #f5f8fb",
";4 c #d4e2f1",
"A4 c #edf3f9",
"B4 c #fefeff",
"C4 c #c2b7c3",
"D4 c #75557b",
"E4 c #b997c1",
"F4 c #ad87b6",
"G4 c #e5d9e8",
"H4 c #d88a4f",
"I4 c #eb9533",
"J4 c #f3cd9e",
"K4 c #e9e4eb",
"L4 c #c5b6c9",
"M4 c #ae8db7",
"N4 c #a675b1",
"O4 c #9c5fa9",
"P4 c #9b5ea9",
"Q4 c #9e6bab",
"R4 c #a073ab",
"S4 c #ad8eb5",
"T4 c #401c46",
"U4 c #3e6185",
"V4 c #f6f7f9",
"W4 c #d8e5f3",
"X4 c #815c90",
"Y4 c #9a5ba8",
"Z4 c #9e66ac",
"a4 c #ab7db5",
"b4 c #b593be",
"c4 c #8d5f78",
"d4 c #c77c3e",
"e4 c #937095",
"f4 c #ba9ac2",
"g4 c #b894bf",
"h4 c #a168ae",
"i4 c #b586bf",
"j4 c #ebdeee",
"k4 c #ede1ef",
"l4 c #ae7bb9",
"m4 c #9c62a9",
"n4 c #b495bb",
"o4 c #acbaca",
"p4 c #f4f7fb",
"q4 c #bfb2d8",
"r4 c #aa75b6",
"s4 c #efe5f1",
"t4 c #f7f2f8",
"u4 c #d2b9d9",
"v4 c #a56eb1",
"w4 c #a775b3",
"x4 c #b395bb",
"y4 c #c1a4c8",
"z4 c #be9fc5",
"05 c #a979b4",
"15 c #b485bf",
"25 c #fdfcfe",
"35 c #efe7f2",
"45 c #fbf9fc",
"55 c #a772b3",
"65 c #9a66a6",
"75 c #ba9cc1",
"85 c #3e1b44",
"95 c #436488",
":5 c #eaeef2",
";5 c #e2ebf6",
"A5 c #a073b1",
"B5 c #e0cfe4",
"C5 c #aa7cb6",
"D5 c #af83ba",
"E5 c #a36ab0",
"F5 c #ae85b8",
"G5 c #bb9ac3",
"H5 c #bfa0c6",
"I5 c #bc9dc4",
"J5 c #ba99c1",
"K5 c #9a5fa8",
"L5 c #efe6f1",
"M5 c #a26eaf",
"N5 c #6b1a80",
"O5 c #b187bc",
"P5 c #d9c5de",
"Q5 c #935a9f",
"R5 c #bfa1c6",
"S5 c #3d1a43",
"T5 c #41648a",
"U5 c #dae6f3",
"V5 c #d3e1f1",
"W5 c #8b5498",
"X5 c #f3edf4",
"Y5 c #fefdfe",
"Z5 c #702283",
"a5 c #3a263f",
"b5 c #d5bddb",
"c5 c #9f6aac",
"d5 c #ba99c2",
"e5 c #bc9cc2",
"f5 c #bb9bc2",
"g5 c #b999c1",
"h5 c #b490bd",
"i5 c #985fa4",
"j5 c #f9f6fa",
"k5 c #691a7d",
"l5 c #533d59",
"m5 c #752a89",
"n5 c #f0e9f2",
"o5 c #8a5197",
"p5 c #9868a4",
"q5 c #c1a3c8",
"r5 c #3c1a42",
"s5 c #3e6288",
"t5 c #fcfdfd",
"u5 c #d9e5f3",
"v5 c #d6e3f2",
"w5 c #834f8f",
"x5 c #762b89",
"y5 c #b99fbf",
"z5 c #7f3991",
"06 c #f2ecf4",
"16 c #91579d",
"26 c #b693be",
"36 c #b896c0",
"46 c #b897c0",
"56 c #b795bf",
"66 c #8d549a",
"76 c #f6f2f7",
"86 c #fdfbfd",
"96 c #732785",
":6 c #cab0d1",
";6 c #803a92",
"A6 c #f1ebf2",
"B6 c #844f91",
"C6 c #9a6aa5",
"D6 c #bea0c6",
"E6 c #3c1a43",
"F6 c #3a6188",
"G6 c #d8e4f2",
"H6 c #8b6599",
"I6 c #dfd3e2",
"J6 c #c19fca",
"K6 c #79308c",
"L6 c #c9abd1",
"M6 c #efe9f1",
"N6 c #875193",
"O6 c #b490bb",
"P6 c #b591bc",
"Q6 c #b592be",
"R6 c #b490bc",
"S6 c #b28ebb",
"T6 c #94639f",
"U6 c #bda0c4",
"V6 c #cbaed2",
"W6 c #8d4e9d",
"X6 c #d6c0dc",
"Y6 c #d8c9dc",
"Z6 c #82508f",
"a6 c #9b6da7",
"b6 c #b99ac0",
"c6 c #3d1a44",
"d6 c #3c628a",
"e6 c #dbe6f3",
"f6 c #a08bb0",
"g6 c #a486ab",
"h6 c #c4adc9",
"i6 c #8a5a96",
"j6 c #af8ab8",
"k6 c #b18dba",
"l6 c #b18cb9",
"m6 c #af89b8",
"n6 c #824f8e",
"o6 c #dbcdde",
"p6 c #9974a2",
"q6 c #8b5a97",
"r6 c #a67cb1",
"s6 c #a07ea8",
"t6 c #3e648d",
"u6 c #dde8f4",
"v6 c #d4dbea",
"w6 c #775081",
"x6 c #b19ab6",
"y6 c #e9e1ea",
"z6 c #c4b0c8",
"07 c #a076a9",
"17 c #ac86b5",
"27 c #ae87b7",
"37 c #ac85b5",
"47 c #9c71a6",
"57 c #794985",
"67 c #bca4c2",
"77 c #efe9f0",
"87 c #f0eaf1",
"97 c #a687ae",
":7 c #7b4b88",
";7 c #9767a2",
"A7 c #b38fbc",
"B7 c #7d5885",
"C7 c #40668f",
"D7 c #e0e9f5",
"E7 c #d5d9e9",
"F7 c #623a6b",
"G7 c #6e4177",
"H7 c #70447a",
"I7 c #7a4e85",
"J7 c #9a6fa3",
"K7 c #ab83b3",
"L7 c #ab84b5",
"M7 c #ab84b4",
"N7 c #aa82b3",
"O7 c #a980b2",
"P7 c #9d72a8",
"Q7 c #85568f",
"R7 c #784884",
"S7 c #774683",
"T7 c #84538f",
"U7 c #9766a1",
"V7 c #9c6ea8",
"W7 c #bc9dc3",
"X7 c #45224c",
"Y7 c #426892",
"Z7 c #e2ebf5",
"a7 c #aeaabd",
"b7 c #5a3862",
"c7 c #a87fb2",
"d7 c #a67caf",
"e7 c #a77eb0",
"f7 c #a87eb0",
"g7 c #a87fb1",
"h7 c #a67db0",
"i7 c #a47aaf",
"j7 c #a277ac",
"k7 c #9f73aa",
"l7 c #b591bd",
"m7 c #855f8d",
"n7 c #3f1b45",
"o7 c #436b94",
"p7 c #e5edf6",
"q7 c #654b6e",
"r7 c #7e5986",
"s7 c #a378ac",
"t7 c #a47aae",
"u7 c #a379ae",
"v7 c #a378ad",
"w7 c #a277ad",
"x7 c #9a6aa4",
"y7 c #9766a3",
"z7 c #ad86b5",
"08 c #a684ae",
"18 c #3f1e46",
"28 c #466d97",
"38 c #e7eef7",
"48 c #dbdfeb",
"58 c #4f2f56",
"68 c #906a99",
"78 c #bd9dc4",
"88 c #a57bb0",
"98 c #a074ab",
":8 c #9969a4",
";8 c #9867a4",
"A8 c #ae88b7",
"B8 c #ae8eb6",
"C8 c #45244d",
"D8 c #476f99",
"E8 c #e9f0f8",
"F8 c #cdcedb",
"G8 c #4d2e55",
"H8 c #7d5686",
"I8 c #bd9ec4",
"J8 c #af88b8",
"K8 c #9f72aa",
"L8 c #9e71a9",
"M8 c #9e71a8",
"N8 c #9d70a8",
"O8 c #9d6fa9",
"P8 c #9c6ea7",
"Q8 c #9b6ca6",
"R8 c #9a6ba5",
"S8 c #9868a3",
"T8 c #a073aa",
"U8 c #b694bf",
"V8 c #a381ab",
"W8 c #442049",
"X8 c #49719b",
"Y8 c #ecf2f9",
"Z8 c #dee1ea",
"a8 c #63486a",
"b8 c #5c3964",
"c8 c #a380ab",
"d8 c #bd9ec5",
"e8 c #b28dbb",
"f8 c #a77db0",
"g8 c #a175ac",
"h8 c #9d6fa8",
"i8 c #9e70a8",
"j8 c #a175ab",
"k8 c #aa82b4",
"l8 c #b692bd",
"m8 c #b595bc",
"n8 c #73517b",
"o8 c #3f1c46",
"p8 c #4b739e",
"q8 c #eef3f9",
"r8 c #edf2f8",
"s8 c #ada5b7",
"t8 c #4b2b52",
"u8 c #613e67",
"v8 c #87638f",
"w8 c #ab8ab3",
"x8 c #b696be",
"y8 c #be9fc6",
"z8 c #ba9bc1",
"09 c #b091b7",
"19 c #96759e",
"29 c #67456f",
"39 c #3f1d46",
"49 c #4d75a0",
"59 c #f1f5fa",
"69 c #eceff5",
"79 c #bdb6c5",
"89 c #7f6987",
"99 c #4e2756",
":9 c #431f4a",
";9 c #3b1941",
"A9 c #411d48",
"B9 c #482050",
"C9 c #54245d",
"D9 c #61286b",
"E9 c #4f78a3",
"F9 c #f3f7fb",
"G9 c #d7bfe1",
"H9 c #8f439d",
"I9 c #7f368b",
"J9 c #73327e",
"K9 c #6d68a4",
"L9 c #662a72",
"M9 c #5a2663",
"N9 c #4d2055",
"O9 c #401b46",
"P9 c #527ba5",
"Q9 c #f6f9fc",
"R9 c #e1d6e8",
"S9 c #8c5c96",
"T9 c #632a6d",
"U9 c #562760",
"V9 c #4a1f51",
"W9 c #5a81ab",
"X9 c #f9fafc",
"Y9 c #f8fafc",
"Z9 c #f8f9fb",
"a9 c #d0c3d3",
"b9 c #5a5381",
"c9 c #3b1a41",
"d9 c #3b1940",
"e9 c #6085ae",
"f9 c #f0f3f7",
"g9 c #fcfdfe",
"h9 c #f3f6f9",
"i9 c #7ba5d1",
"j9 c #b4c6d9",
"k9 c #fdfefe",
"l9 c #c2d3e7",
"m9 c #628ab3",
"n9 c #f7f8fa",
"o9 c #f8fafb",
"p9 c #7aa4d1",
"q9 c #7b9dc1",
"r9 c #fbfcfc",
"s9 c #fefefe",
"t9 c #fbfcfd",
"u9 c #8cb1d7",
"v9 c #6e94be",
"w9 c #d9e2ec",
"x9 c #fdfdfd",
"y9 c #ffffff",
"z9 c #fdfdfe",
"0: c #dde7f1",
"1: c #80a8d3",
"2: c #6a95bf",
"3: c #6a94c0",
"4: c #6792bf",
"5: c #6591bf",
"6: c #6692c0",
"7: c #6793c1",
"8: c #6894c3",
"9: c #6995c4",
":: c #6a96c5",
";: c #6b97c6",
"A: c #6c98c8",
"B: c #6d99c9",
"C: c #6e9bca",
"D: c #6f9ccb",
"E: c #709dcd",
"F: c #719ece",
"G: c #729fcf",
"H: c #74a0d0",
"I: c #78a3d1",
"J: c #79a5d2",
"                                                                                                ",
"                                    J:I:H:G:G:G:G:G:G:F:E:D:C:B:A:;:::9:8:7:6:5:4:3:2:          ",
"                                  1:0:z9y9y9y9y9y9y9y9y9y9y9y9y9y9y9y9y9y9y9y9y9y9x9w9v9        ",
"                                u9t9y9y9y9y9y9y9y9y9y9y9y9y9y9y9y9y9y9y9y9y9y9y9y9y9s9r9q9      ",
"                              p9o9y9y9y9y9y9y9y9y9y9y9y9y9y9y9y9y9y9y9y9y9y9y9y9y9y9y9y9n9m9    ",
"                              l9s9k9k9k9k9k9k9k9k9k9k9k9k9k9k9k9k9k9k9k9k9k9k9k9k9k9k9k9s9j9    ",
"                            i9h9g9t9t9t9t9t9t9t9t9t9t9t9t9t9t9t9t9t9t9t9t9t9t9t9t9t9t9t9g9f9e9  ",
"                        d9c9b9a9Z9Y9Y9Y9Y9Y9Y9Y9Y9Y9Y9Y9Y9Y9Y9Y9Y9Y9Y9Y9Y9Y9Y9Y9Y9Y9Y9Y9X9z9W9  ",
"                          V9U9T9S9R9Q9Q9Q9Q9Q9Q9Q9Q9Q9Q9Q9Q9Q9Q9Q9Q9Q9Q9Q9Q9Q9Q9Q9Q9Q9Q9Q9y9P9  ",
"                    O9N9M9L9K9J9I9H9G9F9F9F9F9F9F9F9F9F9F9F9F9F9F9F9F9F9F9F9F9F9F9F9F9F9F9y9E9  ",
"                        D9C9B9A9;9:9998979695959595959595959595959595959595959595959595959y949  ",
"                      39291909z8y8x8w8v8u8t8s8r8q8q8q8q8q8q8q8q8q8q8q8q8q8q8q8q8q8q8q8q8q8y9p8  ",
"                  o8n8m8l8k8j8i8h8g8f8e8d8c8b8a8Z8Y8Y8Y8Y8Y8Y8Y8Y8Y8Y8Y8Y8Y8Y8Y8Y8Y8Y8Y8Y8y9X8  ",
"                W8V8U8T8S8R8Q8P8O8N8M8L8K8J8I8H8G8F8E8E8E8E8E8E8E8E8E8E8E8E8E8E8E8E8E8E8E8y9D8  ",
"              C8B8A8;8:8Q8h8M8K89898g8g8j8988878685848383838383838383838383838383838383838y928  ",
"            1808z7y7x7Q8i8K898w7v7u7t7t7u7v7s7t7d8r7q7p7p7p7p7p7p7p7p7p7p7p7p7p7p7p7p7p7p7y9o7  ",
"          n7m7l7y7:8Q8N8k7j7v7i7h7f8g7g7f7e7d7u7c7y8b7a7Z7Z7Z7Z7Z7Z7Z7Z7Z7Z7Z7Z7Z7Z7Z7Z7Z7y9Y7  ",
"          X7W7V7U7T7S7R7Q7P7h7c7O7N7M7L7K7N7O7J7I7H7G7F7E7D7D7D7D7D7D7D7D7D7D7D7D7D7D7D7D7y9C7  ",
"          B7A7;7:7978777675747M73727A8A8271707I7z677y6x6w6v6u6u6u6u6u6u6u6u6u6u6u6u6u6u6u6y9t6  ",
"        39s6r6q6p6s9y9y9y9o6n6g7m6l6k6k6l6j6i6h6y9y9y9y9g6f6e6e6e6e6e6e6e6e6e6e6e6e6e6e6e6y9d6  ",
"        c6b6a6Z6Y6y9X6W6V6y9U6T6S6R6Q6Q6P6O6N6M6L6K6J6y9I6H6G6G6G6G6G6G6G6G6G6G6G6G6G6G6G6y9F6  ",
"        E6D6C6B6A6y9;6:696867666R656464636261606z5y5x5y976w5v5v5v5v5v5v5v5v5v5v5v5v5v5v5u5t5s5  ",
"        r5q5p5o5n5y9m5l5k5j5y9i5h5g5f5e5d536c5b5K6a5Z5Y5X5W5V5V5V5V5V5V5V5V5V5V5V5V5V5V5U5Z9T5  ",
"        S5R5Q8Q5P5y9O5N5M5y9L5K5J5I5D6H5d8G5F5E5D5N5C5y9B5A5V5V5V5V5V5V5V5V5V5V5V5V5V5V5;5:595  ",
"        8575O8655545s93525s91505G5z4y4x4H5I546w4v4u4t4s4r4q4V5V5V5V5V5V5V5V5V5V5V5V5V5V5p4o4    ",
"        n7n4K8h8m4l4k4Y5j4i4h4g4f4D6e4d4c4I546b4a4Z4Y4K5X4V5V5V5V5V5V5V5V5V5V5V5V5V5W4Y8V4U4    ",
"        T4S4g8P8R4Q4P4Y4O4N4R6M4L4K4J4I4H4K4G4Q6k6F4E4D4C4y9y9y9y9y9B4A4V5;4:4y9y9y9t59484      ",
"        7464v7a6K8w78854443424b41404z3y3x3w3A6v3u3t3s3r3q3p3d6o3n3m3l3B4V5k3j3i3h3g3f3e3        ",
"        O9d3j8Q8L8g8t7c3b3a3Z3Y3X3W3V3U3T3S3R3Q3P3O3N339            M3g9;4L3K3J3                ",
"        I3H3K8G3O898v7h7F3E3D3D3D3D3C3B3A3;3:3:3938373E6            6353433323                  ",
"        n713h8:8a603z2t7f7y2x2W3D3D3D3w2v2:3:3:3u2t2s2            r2q2p2o2n2                    ",
"        E6m2l2;8Q8i8k7v788g7k2j2i2D3D3h2g2:3:3f2e246d2            c2b2a2Z2                      ",
"        Y278X2W2:8Q8M898v7i7f8V2U2T2S2R2Q2:3P2O2N2M2L2          K2J2I2H2                        ",
"        G2A7F2E2y7C6a6L898s7t7N2f8D2C2B2A2;2:2i7v77892                                          ",
"      82726252F2E2;8R8a6M8k7z2v7u7428888i7t7v7w7983222                                          ",
"      8512;802z1y1x1;8C6Q8O803k7j8z2w7w7j7g898K8M856w1                                          ",
"      v1u1W5t1s1z1y1E2y7:8r1a6O8M803K8K803L8i8P8Q8q1p1n7                                        ",
"    n7o1n1m1W5l102z1F2E2W2;8:8G3Q8Q8a6a6a6Q8r1C6S8:8k1j1i1                                      ",
"    h1g1f1e1d1W5t10252F2X2c1W2y7S8l2p5p5p5S8b1y7x1a1:8Z1Y1X1o8                                  ",
"    W1V1U1T1S1d1R1Q1P1s1z1F2y1a1c1x1O1O1x1E2E2X2F2N1M1L1K1J1I1H1                                ",
"  G1F1E1D1C1B1A1;1:1918171s161N1514131314151N1N1s121811101z0y0x0w0v0                            ",
"  u0t0s0r0q0p0o0n0m0l0k0j0i0h0g0f0f0f0e0f0f0f0d0c0b0a0Z0Y0X0W0V0U0T0S0                          ",
"  R0Q0P0O0N0M0L0K0J0I0H0G0F0E0D0C0B0A0A0A0C0;0:09080706050Z64030201000                          ",
"                                                                                                ",
"                                                                                                ",
"                                                                                                ",
"                                                                                                ",
"                                                                                                "};
