/* XPM */
static char *image[] = {
"48 48 389 2",
"   c None",
"00 c #383b3b",
"10 c #373a3a",
"20 c #484d4e",
"30 c #eff0ed",
"40 c #eeefed",
"50 c #eef0ed",
"60 c #eeefeb",
"70 c #edeeeb",
"80 c #eceeeb",
"90 c #eceeea",
":0 c #eaece9",
";0 c #ebece9",
"A0 c #ebede9",
"B0 c #ecedea",
"C0 c #5e6362",
"D0 c #4c5050",
"E0 c #edefeb",
"F0 c #e1e4df",
"G0 c #e0e3dc",
"H0 c #e0e2dc",
"I0 c #daddd7",
"J0 c #d5d8d1",
"K0 c #ebedea",
"L0 c #626565",
"M0 c #4e5353",
"N0 c #eeefec",
"O0 c #e2e4e0",
"P0 c #e1e3dd",
"Q0 c #e0e3dd",
"R0 c #e0e2dd",
"S0 c #dfe2dc",
"T0 c #dfe1dc",
"U0 c #dee1db",
"V0 c #dde0da",
"W0 c #dde0d9",
"X0 c #dcdfd9",
"Y0 c #dbdfd8",
"Z0 c #dbded8",
"a0 c #daded7",
"b0 c #daddd6",
"c0 c #d9ddd6",
"d0 c #d9dcd5",
"e0 c #d8dcd5",
"f0 c #d8dbd4",
"g0 c #d7dbd4",
"h0 c #d7dad3",
"i0 c #d6dad3",
"j0 c #d6d9d2",
"k0 c #d6dad1",
"l0 c #d6d9d1",
"m0 c #d5d9d1",
"n0 c #d4d8d1",
"o0 c #d4d8d0",
"p0 c #d3d7cf",
"q0 c #edefec",
"r0 c #646867",
"s0 c #515555",
"t0 c #f0f0f0",
"u0 c #585c5b",
"v0 c #535756",
"w0 c #545857",
"x0 c #515655",
"y0 c #e4e5e5",
"z0 c #585b5b",
"01 c #4c504f",
"11 c #dcdddd",
"21 c #5b5e5d",
"31 c #444746",
"41 c #d3d4d4",
"51 c #f3f3f3",
"61 c #f1f1f1",
"71 c #e8e8e8",
"81 c #e0e0e0",
"91 c #cac9c8",
":1 c #b1a696",
";1 c #615543",
"A1 c #48443e",
"B1 c #c4c5c3",
"C1 c #d5d5d3",
"D1 c #c2c3c1",
"E1 c #d1d2cf",
"F1 c #c4c5c2",
"G1 c #efefef",
"H1 c #5a5e5c",
"I1 c #3b3e3c",
"J1 c #cacbca",
"K1 c #f6f6f6",
"L1 c #eeeeee",
"M1 c #ebebea",
"N1 c #e2e2e2",
"O1 c #d5d5d5",
"P1 c #c5c5c4",
"Q1 c #b8b8b7",
"R1 c #bcab99",
"S1 c #cba271",
"T1 c #dba867",
"U1 c #e6b46a",
"V1 c #d3a15e",
"W1 c #0b0905",
"X1 c #8c806e",
"Y1 c #575b5a",
"Z1 c #383c3a",
"a1 c #bdbebe",
"b1 c #ececec",
"c1 c #dadad9",
"d1 c #cfcfcf",
"e1 c #c9c9c9",
"f1 c #c4c4c3",
"g1 c #bebebe",
"h1 c #bda088",
"i1 c #d57823",
"j1 c #e4ad61",
"k1 c #eab872",
"l1 c #f1d1a0",
"m1 c #f5e0bf",
"n1 c #d7ab66",
"o1 c #edeae6",
"p1 c #e3e4e3",
"q1 c #525554",
"r1 c #343838",
"s1 c #b2b3b3",
"t1 c #f4f4f4",
"u1 c #e8e8e7",
"v1 c #acadab",
"w1 c #a6a7a6",
"x1 c #a9aaa8",
"y1 c #c6c6c6",
"z1 c #af927a",
"02 c #cd620a",
"12 c #efc082",
"22 c #f6e2c3",
"32 c #fbf3e7",
"42 c #efc99a",
"52 c #dcb277",
"62 c #d5d5d4",
"72 c #c3c4c2",
"82 c #c3c4c1",
"92 c #cecfcd",
":2 c #c2c3c0",
";2 c #d0d1cf",
"A2 c #dadbda",
"B2 c #494c4b",
"C2 c #333533",
"D2 c #a6a8a7",
"E2 c #ebebeb",
"F2 c #e5e5e5",
"G2 c #dededd",
"H2 c #d7d7d7",
"I2 c #d2d2d2",
"J2 c #cdb098",
"K2 c #d0650d",
"L2 c #f3a748",
"M2 c #fef3e2",
"N2 c #e8b36a",
"O2 c #f5e5d0",
"P2 c #cecfce",
"Q2 c #454645",
"R2 c #969896",
"S2 c #ededec",
"T2 c #e6e6e5",
"U2 c #e3e3e3",
"V2 c #e6e6e6",
"W2 c #e6c9b0",
"X2 c #f3c285",
"Y2 c #e6ae64",
"Z2 c #bec0be",
"a2 c #404341",
"b2 c #878988",
"c2 c #fafafa",
"d2 c #eed1b9",
"e2 c #d1660e",
"f2 c #e29145",
"g2 c #ec9f48",
"h2 c #d46c16",
"i2 c #f0d2b5",
"j2 c #afb1af",
"k2 c #3c3e3c",
"l2 c #797b7a",
"m2 c #eed1b8",
"n2 c #fdbd60",
"o2 c #f6f6f4",
"p2 c #fcfcfb",
"q2 c #a0a1a0",
"r2 c #6d706d",
"s2 c #edd0b7",
"t2 c #d36912",
"u2 c #eed4be",
"v2 c #f9f9f8",
"w2 c #d3d3d1",
"x2 c #d0d1ce",
"y2 c #dddddb",
"z2 c #fdfdfc",
"03 c #919292",
"13 c #6d706e",
"23 c #eccfb6",
"33 c #ec9f49",
"43 c #f29c30",
"53 c #fdbd61",
"63 c #eed4bd",
"73 c #f7f7f7",
"83 c #fefefd",
"93 c #858684",
":3 c #6f7370",
";3 c #f0d3bb",
"A3 c #e29044",
"B3 c #787b78",
"C3 c #8a6d51",
"D3 c #d1650d",
"E3 c #edd3bc",
"F3 c #cccdcb",
"G3 c #d2d2d0",
"H3 c #cbccc9",
"I3 c #e2e2df",
"J3 c #fffffe",
"K3 c #747674",
"L3 c #cc5f07",
"M3 c #ec9f4a",
"N3 c #f3af59",
"O3 c #ecd2bb",
"P3 c #f2f2f2",
"Q3 c #777a76",
"R3 c #cd5e03",
"S3 c #c4aa92",
"T3 c #d1d1d0",
"U3 c #cccdca",
"V3 c #d1d1cf",
"W3 c #c1c2bf",
"X3 c #cbccca",
"Y3 c #cfd0cd",
"Z3 c #bfc0be",
"a3 c #e8e8e5",
"b3 c #787a77",
"c3 c #e29043",
"d3 c #fdbe62",
"e3 c #777875",
"f3 c #cf5f03",
"g3 c #eca04b",
"h3 c #ebd1ba",
"i3 c #f4f4f3",
"j3 c #f4f4f2",
"k3 c #f5f5f3",
"l3 c #ededed",
"m3 c #727370",
"n3 c #bb6b28",
"o3 c #e28f42",
"p3 c #fdbe63",
"q3 c #f3ae58",
"r3 c #d16710",
"s3 c #ead0b9",
"t3 c #f3f3f2",
"u3 c #d0d0ce",
"v3 c #c0c1be",
"w3 c #cfcfce",
"x3 c #cfcfcd",
"y3 c #c9cac7",
"z3 c #c3c4c0",
"04 c #e7e7e6",
"14 c #6d6e6b",
"24 c #8a8984",
"34 c #bf8d5c",
"44 c #eca04c",
"54 c #fbae3e",
"64 c #d26811",
"74 c #e9cfb8",
"84 c #f3f3f1",
"94 c #f2f2f1",
":4 c #dedfde",
";4 c #646663",
"A4 c #af6c4e",
"B4 c #8d8a83",
"C4 c #8f8f8b",
"D4 c #b1936d",
"E4 c #f29c31",
"F4 c #fbaf3f",
"G4 c #cf650e",
"H4 c #f0d6bf",
"I4 c #f2f2f0",
"J4 c #bfc0bd",
"K4 c #c7c8c6",
"L4 c #cecfcc",
"M4 c #cecfcb",
"N4 c #c7c8c5",
"O4 c #cdcecb",
"P4 c #bebfbc",
"Q4 c #c6c7c4",
"R4 c #d4d5d3",
"S4 c #656663",
"T4 c #8c8882",
"U4 c #999998",
"V4 c #8d8c84",
"W4 c #d9a454",
"X4 c #fdbf64",
"Y4 c #f3ae57",
"Z4 c #cd6005",
"a4 c #b79e84",
"b4 c #fbfbfb",
"c4 c #f1f1f0",
"d4 c #eeeeed",
"e4 c #cacbc8",
"f4 c #e92f28",
"g4 c #8c8883",
"h4 c #7a7a79",
"i4 c #a1a1a1",
"j4 c #c3c3c2",
"k4 c #97968f",
"l4 c #9a9485",
"m4 c #9a856c",
"n4 c #99734f",
"o4 c #a7a9a4",
"p4 c #f0f0ef",
"q4 c #efefee",
"r4 c #c0c1bf",
"s4 c #e83028",
"t4 c #d45756",
"u4 c #a67875",
"v4 c #938d89",
"w4 c #d4d4d4",
"x4 c #e1e1e1",
"y4 c #8e8e88",
"z4 c #98846e",
"05 c #9b9d9a",
"15 c #fdfdfd",
"25 c #f7f7f5",
"35 c #f1f1ef",
"45 c #fafaf9",
"55 c #f6f6f5",
"65 c #efefed",
"75 c #f9f9f9",
"85 c #fbfbfa",
"95 c #b4b5b2",
":5 c #ee2c2b",
";5 c #d58787",
"A5 c #d08484",
"B5 c #9f817c",
"C5 c #a09894",
"D5 c #97928d",
"E5 c #998271",
"F5 c #8f918c",
"G5 c #c1c2c0",
"H5 c #626460",
"I5 c #afb0af",
"J5 c #f0f0ee",
"K5 c #fcfcfc",
"L5 c #a5a7a3",
"M5 c #ee2c2c",
"N5 c #e88e8e",
"O5 c #e39494",
"P5 c #d48686",
"Q5 c #b56e6c",
"R5 c #b26764",
"S5 c #aa7263",
"T5 c #8b8c88",
"U5 c #f7f7f6",
"V5 c #f5f5f5",
"W5 c #f5f5f4",
"X5 c #8e8f8c",
"Y5 c #b4b8b1",
"Z5 c #80827e",
"a5 c #eeeeec",
"b5 c #fefefe",
"c5 c #979894",
"d5 c #ee2f2f",
"e5 c #f04040",
"f5 c #ec7a7a",
"g5 c #e06969",
"h5 c #eb312d",
"i5 c #e33a1e",
"j5 c #8e908b",
"k5 c #dedfdd",
"l5 c #ffffff",
"m5 c #dcdfda",
"n5 c #9c9d9a",
"o5 c #f8f8f8",
"p5 c #e9eae9",
"q5 c #8f908b",
"r5 c #ef3131",
"s5 c #ec312e",
"t5 c #8e918b",
"u5 c #8a8c87",
"v5 c #b5b6b3",
"w5 c #f8f8f7",
"x5 c #d2d3d1",
"y5 c #8c8d89",
"z5 c #8e918c",
"06 c #c8c9c6",
"16 c #dddfdc",
"26 c #d1d2d1",
"36 c #aaaba9",
"                                                                                                ",
"                                                                                                ",
"                                                                                                ",
"                                                                                                ",
"                                                                                                ",
"                  36      36      36      36      36      36      36                            ",
"                261606  261606  261606  261606  261606  261606  261606                          ",
"            z5y5x5w5v5y5x5w5v5y5x5w5v5y5x5w5v5y5x5w5v5y5x5w5v5y5x5w5v5u5t5              s5r5    ",
"          q5p5o5n5m5n5o5n5m5n5o5n5m5n5o5n5m5n5o5n5m5n5o5n5m5n5o5n5m5n5l5k5j5        i5h5g5f5e5d5",
"          c5b5a5Z5Y5X5W5Z5Y5X5W5Z5Y5X5W5Z5Y5X5W5Z5Y5X5V5Z5Y5X5V5Z5Y5X5U5b5T5      S5R5Q5P5O5N5M5",
"          L5K5J5I5H5G5U5I5H5G5U5I5H5G5w5I5H5G5w5I5H5G5w5I5H5G5w5I5H5G5U5b5F5    E5D5G5C5B5A5;5:5",
"          9585a5W5757565W57575J5557545J5557545352575453525754535257545351505  z4y4x4K5w4v4u4t4s4",
"          r445a5a5a5a5a565656565q4J5J5J5J5J5J5p4p4p4p43535353535p4p4p4p4K5o4n4m4l4k4j4i4h4g4f4  ",
"          e4o5a5a5d4656565q4J5J5J5J5p435353535353535c4c4c4c4c4c4c4353535b4a4Z4Y4X4W4V4h4U4T4    ",
"        S4R4U5a5Q4P4P4P4P4O4q4N4M4J5N4L4K4J4J4J4L4I43506L43506J4J4J4L4I4H4G4Y4X4F4E4D4C4B4A4    ",
"        ;4:45565q4J5J5J5p4353535c4c4I4I4I494949494948484848484848494947464Y4X454E4443424        ",
"        1404W5a5z3O4p4y3J4J4x3I4e4w394e4v3v3u3t3t3t3t3t3t3t3t3t3t3t3s3r3q3p354E444o3n3          ",
"        m3l3k3J5p43535c4I4I49494848484t3t3t3j3j3j3i3i3i3i3i3i3i3i3h3r3q3p354E4g3o3f3            ",
"        e3i3i33535c4I4I494948484t3t3j3j3i3i3i3i3i3k3k3k3k3k3k3k3h3r3q3d354E4g3c3f3              ",
"        b3o5t3a3J4J4Z3Z3v3v3v3Y3j3i3X3r4W3V3U3T3W5U3W3T3W5U3W3S3G4q3d354E4g3c3R3                ",
"        Q3K5P3I4I4948484t3t3j3i3i3k3W5W5W5W5W555555555555555O364N3d354E4M3c3L3                  ",
"        K3J3I4I3Z3v3Y3t3H3V3i3U3W3W3T3U3G35555F3G3U5U5U5U5E364N3d354E4M3c3D3C3                  ",
"        B3b5949484t3j3i3i3i3W5W5W555555555U5U5U5U5U5U5U5E364N3d354E4M3A3D3;3:3                  ",
"        93839484t3j3i3i3k3W5W555555555U5U5U573w5w5w5w56364N353544333A3D323b513                  ",
"        03z284y2v3x2i3U3T3U3G5G5G3U5O4w2w5w5w5w5o5v2u2t2N353544333A3D3s2w5l5r2                  ",
"        q2p2t3j3i3i3W5W5o25555U5U5U5w5w5w5o5v2v2v2u2t2N3n2544333A3D3m2v2v2b5l2                  ",
"      k2j2b4t3i3i3W5W5W55555U5U5U5w5w5o5v2v27575i2h2N3n25443g2f2e2d245V5t3c2b2                  ",
"      a2Z2c2j3i3k3W5W55555U5U573w5w5v2v2v2754545Y2X2d35443g2f2e2W2V2U2T2S2o5R2                  ",
"      Q2P245i3i3W5W55555U5U5U5w5w5v2v2754545c2O2N2l5M2L2g2f2K2J2I2H2G2F2E273D2C2                ",
"      B2A2v2t3e4;2W5F3G5:2w2w5w59282727262c2x25242322212f202z1y1x1w1v1Z3u1t1s1r1                ",
"      q1p1w5i3W5W55555U5U573w5o5v2v24545c285o1n1m1l1k1j1i1h1g1f1e1d1c104b173a1Z1                ",
"      Y1p5U5i3W5W55555U5U5w5w5v2v27545c285c2X1W1V1U1T1S1R1Q1P1O1N1M1l3L1L1K1J1I1                ",
"      H1G15535F1W3G5E1U5O4D1D18282C14575L4B1A1;1:191w4817161V5t15151t3P394K14131                ",
"      2151V5k3W5W55555U5U5w5w5v2v24545c285b4p2K515K5K5b4K5b4c275v2o5w573U5751101                ",
"      z0U5W5k3W5W55555U5U5w5w5v2v24545c285b4p2K5z21583b5b5b5b5b51515z2K5p2K5y0x0                ",
"      w0c2i3i3W5W55555U5U5w5w5v2v27545c285b4p2K5K515151583b5831515z2K5K5b4K5E2v0                ",
"      u0b4i3i3W5W55555U5U573w5o5v2754545c285b4p2K5K5z21515151515z2K5K5p2b485t0s0                ",
"      r0q0p0p0p0p0p0o0n0m0l0k0j0i0h0g0f0e0d0c0b0a0Z0Y0X0W0V0U0U0T0S0R0Q0P0O0N0M0                ",
"      L0K0p0p0p0p0p0o0J0m0l0m0j0i0h0g0f0e0d0c0I0a0Z0Y0X0W0V0U0U0T0S0H0G0R0F0E0D0                ",
"      C0B0A0A0;0:0;0A0A0A0A0A0A0K0B0K0B0908080808070E0q060N050N04050505030508020                ",
"      10101010101010101010101010101010101010101010101010101010101010101010101000                ",
"                                                                                                ",
"                                                                                                ",
"                                                                                                ",
"                                                                                                ",
"                                                                                                ",
"                                                                                                ",
"                                                                                                "};
