/* XPM */
static char *image[] = {
"16 16 5 1",
"  c None",
"0 c #ffffff",
"1 c #c1c1c1",
"2 c #008181",
"3 c #818181",
"     322223     ",
"   3222222223   ",
"  222222222222  ",
" 32222222222223 ",
" 22222222222222 ",
"3210001221000123",
"2102220110222012",
"2022222002202202",
"2020002002000202",
"2022222002202202",
"3102220110222013",
" 21000122100012 ",
" 32222222222223 ",
"  222222222222  ",
"   3222222223   ",
"     322223     "};
