/* XPM */
static char *image[] = {
"32 32 331 2",
"   c None",
"00 c #444545",
"10 c #404346",
"20 c #3d424a",
"30 c #3f4348",
"40 c #434444",
"50 c #424444",
"60 c #32445c",
"70 c #294972",
"80 c #285180",
"90 c #2a5688",
":0 c #2b5c91",
";0 c #2c5f95",
"A0 c #2a578b",
"B0 c #295283",
"C0 c #284b78",
"D0 c #2d4565",
"E0 c #3b414c",
"F0 c #3f4246",
"G0 c #2c4365",
"H0 c #2a5283",
"I0 c #3272af",
"J0 c #388fcd",
"K0 c #3ca3dd",
"L0 c #3dabe4",
"M0 c #3eb2e9",
"N0 c #3eb3ea",
"O0 c #3daee6",
"P0 c #3ba7e0",
"Q0 c #3996d3",
"R0 c #347dbb",
"S0 c #2d5d93",
"T0 c #29466f",
"U0 c #39414d",
"V0 c #344157",
"W0 c #2a4f7d",
"X0 c #3879b7",
"Y0 c #41a3dc",
"Z0 c #44b4ea",
"a0 c #46bcf0",
"b0 c #47c1f5",
"c0 c #47c4f7",
"d0 c #48c6f9",
"e0 c #48c7f9",
"f0 c #47c6f8",
"g0 c #47c3f6",
"h0 c #46bef2",
"i0 c #45b7ec",
"j0 c #43ace3",
"k0 c #3c89c6",
"l0 c #2e5b8e",
"m0 c #2b4264",
"n0 c #434343",
"o0 c #2e4160",
"p0 c #315e94",
"q0 c #469bd4",
"r0 c #4cb3e6",
"s0 c #4fbef0",
"t0 c #50c3f4",
"u0 c #4fc3f4",
"v0 c #4fc2f3",
"w0 c #50c1f2",
"x0 c #4db6ea",
"y0 c #49a6dd",
"z0 c #3875af",
"01 c #2a446c",
"11 c #3d4047",
"21 c #444444",
"31 c #2b3e5f",
"41 c #386ca4",
"51 c #4da3d9",
"61 c #55b8e9",
"71 c #56bdee",
"81 c #387c9b",
"91 c #10232c",
":1 c #060d10",
";1 c #060d11",
"A1 c #060e11",
"B1 c #255166",
"C1 c #56beee",
"D1 c #57bdee",
"E1 c #55bbec",
"F1 c #50ace0",
"G1 c #4182bd",
"H1 c #29426d",
"I1 c #313d56",
"J1 c #376198",
"K1 c #54a4d9",
"L1 c #5bb6e6",
"M1 c #56abda",
"N1 c #2c5870",
"O1 c #091116",
"P1 c #19313e",
"Q1 c #5cb7e8",
"R1 c #5bb7e8",
"S1 c #57abdf",
"T1 c #427db7",
"U1 c #2a3f65",
"V1 c #3b3f48",
"W1 c #314f81",
"X1 c #549ad0",
"Y1 c #5fb1e1",
"Z1 c #13232c",
"a1 c #010303",
"b1 c #020405",
"c1 c #61b3e2",
"d1 c #60b2e2",
"e1 c #5ba6d9",
"f1 c #3d6ba3",
"g1 c #2d3c5a",
"h1 c #293d63",
"i1 c #4e84be",
"j1 c #61aada",
"k1 c #15242e",
"l1 c #020304",
"m1 c #5da0cd",
"n1 c #63acdc",
"o1 c #62acdc",
"p1 c #5999ce",
"q1 c #2c4676",
"r1 c #373e4b",
"s1 c #36598b",
"t1 c #619fd1",
"u1 c #05090b",
"v1 c #385c76",
"w1 c #65a6d6",
"x1 c #63a4d5",
"y1 c #4776b1",
"z1 c #28395c",
"02 c #29395e",
"12 c #5180b9",
"22 c #659ed0",
"32 c #05080b",
"42 c #111b24",
"52 c #263c4f",
"62 c #0a1015",
"72 c #090e12",
"82 c #466f92",
"92 c #659fd1",
":2 c #5e94c9",
";2 c #2b416d",
"A2 c #2a406c",
"B2 c #6091c5",
"C2 c #334d67",
"D2 c #2d435a",
"E2 c #16212d",
"F2 c #000001",
"G2 c #3a5775",
"H2 c #6497ca",
"I2 c #6496c9",
"J2 c #3a5a90",
"K2 c #363d4b",
"L2 c #375489",
"M2 c #618cc1",
"N2 c #618ac0",
"O2 c #3c5677",
"P2 c #45658b",
"Q2 c #040507",
"R2 c #618cc2",
"S2 c #4b70ab",
"T2 c #24375e",
"U2 c #313a50",
"V2 c #3e5e98",
"W2 c #597db3",
"X2 c #06090d",
"Y2 c #151e2b",
"Z2 c #1b2738",
"a2 c #3e597f",
"b2 c #5b81b9",
"c2 c #5175b1",
"d2 c #233661",
"e2 c #2c3956",
"f2 c #42619e",
"g2 c #2f4262",
"h2 c #0c1119",
"i2 c #4f6ea3",
"j2 c #5372a8",
"k2 c #0d131c",
"l2 c #05070a",
"m2 c #131a28",
"n2 c #3a5078",
"o2 c #3a4f75",
"p2 c #151e2c",
"q2 c #5778b2",
"r2 c #5373af",
"s2 c #233763",
"t2 c #28385b",
"u2 c #4764a1",
"v2 c #445a88",
"w2 c #010202",
"x2 c #080b11",
"y2 c #5570a9",
"z2 c #151d2b",
"03 c #06080d",
"13 c #070a0f",
"23 c #5774af",
"33 c #5473ad",
"43 c #223766",
"53 c #2a3859",
"63 c #445e99",
"73 c #242f48",
"83 c #1b2235",
"93 c #4e679f",
":3 c #3a4d75",
";3 c #394b73",
"A3 c #435988",
"B3 c #5671ad",
"C3 c #526eab",
"D3 c #223665",
"E3 c #2c3853",
"F3 c #3f5893",
"G3 c #26314a",
"H3 c #415580",
"I3 c #41547f",
"J3 c #020305",
"K3 c #06070b",
"L3 c #556da4",
"M3 c #5973ae",
"N3 c #516baa",
"O3 c #203563",
"P3 c #385083",
"Q3 c #5d73a6",
"R3 c #020203",
"S3 c #050609",
"T3 c #5f75aa",
"U3 c #0a0c12",
"V3 c #030406",
"W3 c #425378",
"X3 c #0b0e14",
"Y3 c #242d41",
"Z3 c #637bb2",
"a3 c #4d67a2",
"b3 c #263a68",
"c3 c #6c83b7",
"d3 c #0b0e12",
"e3 c #010102",
"f3 c #495778",
"g3 c #080a0e",
"h3 c #37435c",
"i3 c #090a0e",
"j3 c #6f86b8",
"k3 c #3d5489",
"l3 c #223662",
"m3 c #6379af",
"n3 c #5a6a8c",
"o3 c #65789f",
"p3 c #030405",
"q3 c #060709",
"r3 c #1c212c",
"s3 c #7a8fbe",
"t3 c #788cbd",
"u3 c #253c6e",
"v3 c #3c5283",
"w3 c #181b22",
"x3 c #07080a",
"y3 c #040405",
"z3 c #8598c2",
"04 c #525d76",
"14 c #4e5971",
"24 c #879ac4",
"34 c #5c73a7",
"44 c #203564",
"54 c #7287b7",
"64 c #8a9bbf",
"74 c #67738f",
"84 c #010101",
"94 c #68748f",
":4 c #13151a",
";4 c #060608",
"A4 c #7b8aaa",
"B4 c #92a3ca",
"C4 c #8c9dc6",
"D4 c #283e6f",
"E4 c #334779",
"F4 c #98a7cd",
"G4 c #656f84",
"H4 c #030304",
"I4 c #000101",
"J4 c #09090b",
"K4 c #818ca9",
"L4 c #9eaccd",
"M4 c #020202",
"N4 c #a0aed1",
"O4 c #536a9c",
"P4 c #495e8f",
"Q4 c #acb7d6",
"R4 c #7d869c",
"S4 c #000000",
"T4 c #6b7385",
"U4 c #585e6d",
"V4 c #adb9d7",
"W4 c #7286b3",
"X4 c #1e3464",
"Y4 c #5b6f9f",
"Z4 c #b7c1dc",
"a4 c #717786",
"b4 c #6b717f",
"c4 c #bbc5de",
"d4 c #8394bd",
"e4 c #203666",
"f4 c #495d8d",
"g4 c #bac4dd",
"h4 c #c9d0e4",
"i4 c #c7cee4",
"j4 c #7184b0",
"k4 c #1e3363",
"l4 c #2b4171",
"m4 c #8595bd",
"n4 c #d1d6e8",
"o4 c #d7dbeb",
"p4 c #a4b0d0",
"q4 c #445887",
"r4 c #1d3363",
"s4 c #1e3364",
"t4 c #364b7a",
"u4 c #7c8db4",
"v4 c #b8c1dc",
"w4 c #e2e6f1",
"x4 c #e5e7f2",
"y4 c #cbd1e6",
"z4 c #909ec3",
"05 c #4f6390",
"15 c #1e3465",
"25 c #1e3466",
"35 c #293f71",
"45 c #425684",
"55 c #5a6d97",
"65 c #60729c",
"75 c #4a5d89",
"85 c #324878",
"95 c #1e3567",
"                                                                ",
"                        9585756555453525                        ",
"                  1505z4y4x4x4x4x4x4w4v4u4t4s4                  ",
"              r4q4p4o4o4o4o4o4o4o4o4o4o4o4n4m4l4                ",
"            k4j4i4h4h4h4h4h4h4h4h4h4h4h4h4h4h4g4f4r4            ",
"          e4d4c4c4c4c4c4c4c4c4b4a4c4c4c4c4c4c4c4Z4Y4s4          ",
"        X4W4V4V4V4V4U4V4V4V4V4T4S4R4V4V4V4V4V4V4V4Q4P4          ",
"        O4N4N4N4N4N4M4L4N4N4K4J4I4H4G4N4N4N4N4N4N4N4F4E4        ",
"      D4C4B4B4B4B4A4S4;4:4B49484S4S4M474B4B4B4B464B4B45444      ",
"    X434242424242414S4S48404z3y3S4S4S4x324242424w3242424v3      ",
"    u3t3s3s3s3s3s3r3S4S4S4q3s3q3S4S4S4p3s3s3s3o3S4n3s3s3m3l3    ",
"    k3j3j3j3j3j3j3i3S4S4S484h3g3S4S4S4g3j3j3f3e3S4d3j3j3c3b3    ",
"  X4a3Z3Z3Z3Z3Z3Z3Y3S4S4S4S4X3W3V3p3U3T3Z3Z3S3S4S4R3Q3Z3Z3P3    ",
"  O3N3M3M3M3M3M3M3L3K38484J3I3M3M3M3M3M3M3H3e3S4S4S4G3M3M3F3E3  ",
"  D3C3B3B3A3B3B3B3B3B3;3:393B3B3B3B3B3B3B383S4S4S4S473B3B36353  ",
"  433323231303p3z2y22323232323232323232323x2S4S4S4w2v22323u2t2  ",
"  s2r2q2q2p2S4S4S4p3o2q2q2q2q2n2m2l2l2k2j2i2h2V3x2g2q2q2q2f2e2  ",
"  d2c2b2b2a2I4S4S4S4e3Z2b2b2Y2e3S4S4S4S4X2W2b2b2b2b2b2b2b2V2U2  ",
"  T2S2R2R2R2V3S4S4S4S4Q2R2P284S4S4S4S4S4S4X2O2N2R2R2R2R2M2L2K2  ",
"    J2I2H2H2G2e3S4S4F2E2H2D2S4S4S4S4S4S4S4S4I4p3C2H2H2H2B2A2    ",
"    ;2:292929282726252929242S4S4S4S4S4S4S4S4S4S4329292221202    ",
"    z1y1x1w1w1w1w1w1w1w1v1w2S4S4S4S4S4S4S4S4S4S4u1w1w1t1s1r1    ",
"      q1p1o1n1n1n1n1n1m1l1S4S4S4S4S4S4S4S4S4S4F2k1n1j1i1h1      ",
"      g1f1e1d1c1c1c1c1c1b1S4S4S4S4S4S4S4S4S4a1Z1c1Y1X1W1V1      ",
"        U1T1S1R1Q1Q1Q1Q1P1I4S4S4S4S484b1O1N1M1Q1L1K1J1I1        ",
"          H1G1F1E1D1C1C1C1B1A1;1:19181C1C171D16151413121        ",
"          1101z0y0x0w0v0u0t0t0t0t0t0t0v0v0s0r0q0p0o0n0          ",
"              m0l0k0j0i0h0g0f0e0d0c0b0a0Z0Y0X0W0V0n0            ",
"                U0T0S0R0Q0P0O0N0M0L0K0J0I0H0G0F0                ",
"                    E0D0C0B0A0;0:090807060F0n0                  ",
"                        504030E020100040                        ",
"                                                                "};
