/* XPM */
static char *image[] = {
"64 64 2 1",
"0 c #ffffff",
"1 c #000000",
"1111111111111111111111111111111111111111111111111111111111111111",
"1111111111111111111111111111111111111111111111111111111111111111",
"1111111111111111111111111111111111111111111111111111111111111111",
"1111111111111111111111111111111111111111111111111111111111111111",
"1111111111111111111111111111111111111111111111111111111111111111",
"1111111111111111111111111111111111111111111111111111111111111111",
"1111111111111111111111111111111111111111111111111111111111111111",
"1111111111111111111111111111111111111111111111111111111111111111",
"1111111111111111111111111111111111111111111111111111111111111111",
"1111111111111111111111111111111111111111111111111111111111111111",
"1111111111111111111111111111111111111111111111111111111111111111",
"1111111111111111111111111111111111111111111111111111111111111111",
"1111111111111111111111111111111111111111111111111111111111111111",
"1111111111111111111111111111111111111111111111111111111111111111",
"1111111111111111111111111111111111111111111111111111111111111111",
"1111111111111111111111111111111111101011001111111111111111111111",
"1111111111111111111111111010011110111101111011111111111111111111",
"1111111111111111111111101101101111100000011011111111111111111111",
"1111111111111111111110110101011010010111010101111111111111111111",
"1111111111111111111101010010100101001000000110011111111111111111",
"1111111111111111111011010100010000100010101011011111111111111111",
"1111111111111111110110100101010110001010010001101111111111111111",
"1111111111111110111101001000100000101000001010110111111111111111",
"1111111111111101010010010010010101010011101010110111111111111111",
"1111111111111011010101001010010010001000000000011011111111111111",
"1111111111110110010010010001000100100101010101001101111111111111",
"1111111111111010010000100100101001010010001001010101111111111111",
"1111111111101100100101001001001001001000100100010110111111111111",
"1111111111101010010100101010010010010010101010100110111111111111",
"1111111111111001001001000010010100100101000001010011011111111111",
"1111111110101010100100010100100001001000101100010011101001111111",
"1111111011110100001001010010001010010101000010001000111110111111",
"1111111110010010101001000100101001001010011001100101000101101111",
"1111101010100100100010010101000100100000100100010100101010110111",
"1111011001001001001001010000101010010101000101000001001001010111",
"1111110010010100101000010101000001010000101010010100100010011011",
"1110101010010010000010100010101010001010100000100101001010101011",
"1110101001000100101010010100001001010010010110010100101000011111",
"1111100010010010101001000010100100100001010001000001000010100111",
"1110101001010100100001010100100100101010000100101010010100101011",
"1110101010000010001100001010010010000001010010010010010010101111",
"1110110001010100100001100001001001011000101001010010100100101011",
"1111011001001010010100010100101001000101000101001000100101010111",
"1111101100100001010010100101000100100010101000010101001000110111",
"1111101010101010010010010010010010011000000010100010010011101111",
"1111110111101011010101010010010010100101010101001010101110001111",
"1111111001011101111010101001001001000001001000011011110101111111",
"1111111111000010010111101101110110111010000111101100001011111111",
"1111111111111111111100010110111111111101111010100011111111111111",
"1111111111111111111111111011000110100010101001111111111111111111",
"1111111111111111111111111111111111111111111111111111111111111111",
"1111111111111111111111111111111111111111111111111111111111111111",
"1111111111111111111111111111111111111111111111111111111111111111",
"1111111111111111111111111111111111111111111111111111111111111111",
"1111111111111111111111111111111111111111111111111111111111111111",
"1111111111111111111111111111111111111111111111111111111111111111",
"1111111111111111111111111111111111111111111111111111111111111111",
"1111111111111111111111111111111111111111111111111111111111111111",
"1111111111111111111111111111111111111111111111111111111111111111",
"1111111111111111111111111111111111111111111111111111111111111111",
"1111111111111111111111111111111111111111111111111111111111111111",
"1111111111111111111111111111111111111111111111111111111111111111",
"1111111111111111111111111111111111111111111111111111111111111111",
"1111111111111111111111111111111111111111111111111111111111111111"};
