/* XPM */
static char *image[] = {
"48 48 900 2",
"   c None",
"00 c #1b284f",
"10 c #28365a",
"20 c #324166",
"30 c #384563",
"40 c #35405a",
"50 c #323a57",
"60 c #0f163c",
"70 c #243255",
"80 c #3d5177",
"90 c #4b6287",
":0 c #566d93",
";0 c #677da2",
"A0 c #7184aa",
"B0 c #798aaf",
"C0 c #7886a3",
"D0 c #65708e",
"E0 c #293355",
"F0 c #030935",
"G0 c #243558",
"H0 c #3b5072",
"I0 c #5b6b8d",
"J0 c #72819e",
"K0 c #7988a4",
"L0 c #8590ab",
"M0 c #8d97b2",
"N0 c #98a3bc",
"O0 c #aeb8cf",
"P0 c #c1c9df",
"Q0 c #d4d9f1",
"R0 c #d5d7f0",
"S0 c #8c93ad",
"T0 c #202547",
"U0 c #010834",
"V0 c #32456b",
"W0 c #44628c",
"X0 c #8092b3",
"Y0 c #92a2c2",
"Z0 c #8798b9",
"a0 c #7683a7",
"b0 c #5b6685",
"c0 c #5c6782",
"d0 c #66718c",
"e0 c #7c85a1",
"f0 c #aeb7cc",
"g0 c #ccd2df",
"h0 c #e3e4ef",
"i0 c #f9f9ff",
"j0 c #cfd6e2",
"k0 c #414a67",
"l0 c #010635",
"m0 c #374976",
"n0 c #566c94",
"o0 c #889cc2",
"p0 c #8c9dc5",
"q0 c #6576a0",
"r0 c #4d5c85",
"s0 c #2f395a",
"t0 c #415273",
"u0 c #9cb2ce",
"v0 c #dbdee4",
"w0 c #757e94",
"x0 c #5e6789",
"y0 c #9aa2c1",
"z0 c #c1c7db",
"01 c #dcdfea",
"11 c #f8f9fc",
"21 c #dce4ee",
"31 c #3d4664",
"41 c #030b3e",
"51 c #223159",
"61 c #465d85",
"71 c #7f95bb",
"81 c #758ab4",
"91 c #546893",
":1 c #39476f",
";1 c #212b4a",
"A1 c #506489",
"B1 c #7a9cc9",
"C1 c #a0b7d6",
"D1 c #fff6f2",
"E1 c #f2ecec",
"F1 c #979bac",
"G1 c #595e80",
"H1 c #9094b5",
"I1 c #bdc1d8",
"J1 c #d9dbe8",
"K1 c #f5f6fc",
"L1 c #b6c2d5",
"M1 c #141f41",
"N1 c #07104a",
"O1 c #18244b",
"P1 c #425781",
"Q1 c #6e87b2",
"R1 c #6b83ad",
"S1 c #4c618c",
"T1 c #2c3b60",
"U1 c #253150",
"V1 c #647da7",
"W1 c #7ea0cc",
"X1 c #6e91bd",
"Y1 c #9bb2d0",
"Z1 c #efe6e4",
"a1 c #f5eded",
"b1 c #bdbdc8",
"c1 c #626583",
"d1 c #8385a7",
"e1 c #b9bbd3",
"f1 c #d6d9e7",
"g1 c #e5ecf7",
"h1 c #576989",
"i1 c #050c41",
"j1 c #27375d",
"k1 c #5b739c",
"l1 c #536794",
"m1 c #445986",
"n1 c #354465",
"o1 c #7591be",
"p1 c #799bc9",
"q1 c #7093be",
"r1 c #678cb8",
"s1 c #98afcf",
"t1 c #fbf2ee",
"u1 c #eee4e3",
"v1 c #ebe2e3",
"w1 c #f2e9ea",
"x1 c #dad6dd",
"y1 c #777992",
"z1 c #767798",
"02 c #b0b3ce",
"12 c #daddeb",
"22 c #99a8c0",
"32 c #0b153b",
"42 c #091351",
"52 c #08134e",
"62 c #010739",
"72 c #35496b",
"82 c #4e6088",
"92 c #374973",
":2 c #233153",
";2 c #4b5d82",
"A2 c #7d9acc",
"B2 c #7495c5",
"C2 c #6d91bc",
"D2 c #6c91bc",
"E2 c #6287b5",
"F2 c #94abcb",
"G2 c #fcf3ee",
"H2 c #ede3e1",
"I2 c #f1e6e6",
"J2 c #eae0e3",
"K2 c #ede3e6",
"L2 c #ebe4e8",
"M2 c #9394a8",
"N2 c #696d8c",
"O2 c #a4a9c4",
"P2 c #b7c0d4",
"Q2 c #263655",
"R2 c #081350",
"S2 c #08114b",
"T2 c #010933",
"U2 c #394b70",
"V2 c #243354",
"W2 c #6076a1",
"X2 c #7d9bd0",
"Y2 c #7091c2",
"Z2 c #6c90c0",
"a2 c #6f91ba",
"b2 c #6484ac",
"c2 c #5d83b3",
"d2 c #90a8c9",
"e2 c #fdf3ee",
"f2 c #f3e7e3",
"g2 c #bbbdc7",
"h2 c #d9d5d9",
"i2 c #efe4e5",
"j2 c #e8dee2",
"k2 c #f0e8ec",
"l2 c #b3b2c0",
"m2 c #646a86",
"n2 c #8993ae",
"o2 c #40506b",
"p2 c #09124e",
"q2 c #07114d",
"r2 c #071047",
"s2 c #040a2f",
"t2 c #253355",
"u2 c #3a4a6b",
"v2 c #728cbc",
"w2 c #7997cf",
"x2 c #6c8ec2",
"y2 c #6f93c4",
"z2 c #6e8db5",
"03 c #304d73",
"13 c #3e5f8a",
"23 c #5d83b5",
"33 c #8ea5c7",
"43 c #fdf4ee",
"53 c #fbede7",
"63 c #74829a",
"73 c #2c496f",
"83 c #c3c3cd",
"93 c #f3e7e8",
":3 c #e6dce0",
";3 c #efe6e9",
"A3 c #cfccd5",
"B3 c #747b91",
"C3 c #4f5977",
"D3 c #06114b",
"E3 c #061147",
"F3 c #040c3c",
"G3 c #060822",
"H3 c #50648c",
"I3 c #7d99d0",
"J3 c #7392cb",
"K3 c #6b8dc4",
"L3 c #7395c7",
"M3 c #617ea5",
"N3 c #224068",
"O3 c #41628f",
"P3 c #5a7eb2",
"Q3 c #8ba3c5",
"R3 c #fdf5ee",
"S3 c #fbeee5",
"T3 c #808da1",
"U3 c #012554",
"V3 c #1a3a63",
"W3 c #959fb2",
"X3 c #efe5e7",
"Y3 c #e7dde1",
"Z3 c #eae0e4",
"a3 c #e5dee6",
"b3 c #717989",
"c3 c #000026",
"d3 c #08124c",
"e3 c #061048",
"f3 c #030839",
"g3 c #080c34",
"h3 c #596e9b",
"i3 c #7e9cd6",
"j3 c #7090ca",
"k3 c #6c8fc8",
"l3 c #7595c5",
"m3 c #14345e",
"n3 c #40608e",
"o3 c #577ab0",
"p3 c #8aa2c3",
"q3 c #fef6ef",
"r3 c #fceee5",
"s3 c #808da0",
"t3 c #637692",
"u3 c #dfd9de",
"v3 c #ebe0e3",
"w3 c #e3dae0",
"x3 c #ebe2e9",
"y3 c #b3b4c3",
"z3 c #12143a",
"04 c #07124e",
"14 c #071147",
"24 c #000633",
"34 c #202c4d",
"44 c #6e89bb",
"54 c #7594ce",
"64 c #7191cb",
"74 c #7193cd",
"84 c #718fbb",
"94 c #365379",
":4 c #10305a",
";4 c #173660",
"A4 c #3f5f8d",
"B4 c #5477ae",
"C4 c #89a0c2",
"D4 c #fff6ef",
"E4 c #fcefe4",
"F4 c #828ea1",
"G4 c #bfc0cc",
"H4 c #eee2e5",
"I4 c #e0d7de",
"J4 c #cbcad6",
"K4 c #414765",
"L4 c #061046",
"M4 c #000531",
"N4 c #394971",
"O4 c #789dd4",
"P4 c #7798d5",
"Q4 c #7293cf",
"R4 c #7a99d0",
"S4 c #647fa8",
"T4 c #214066",
"U4 c #11315b",
"V4 c #193761",
"W4 c #1b3761",
"X4 c #1a3761",
"Y4 c #3d5d8d",
"Z4 c #5274ad",
"a4 c #889fc2",
"b4 c #fcf0e3",
"c4 c #828ea0",
"d4 c #183963",
"e4 c #909cb0",
"f4 c #e8dfe3",
"g4 c #e0d6dd",
"h4 c #ddd3db",
"i4 c #d8d3dd",
"j4 c #787d93",
"k4 c #071148",
"l4 c #040c36",
"m4 c #506895",
"n4 c #7aa1df",
"o4 c #769ad8",
"p4 c #7798d4",
"q4 c #7e9bcd",
"r4 c #4e6a8f",
"s4 c #14335c",
"t4 c #1a3862",
"u4 c #1d3761",
"v4 c #1f3761",
"w4 c #1c3862",
"x4 c #3d5c8d",
"y4 c #5071ac",
"z4 c #879ec2",
"05 c #0b2e5b",
"15 c #5d728f",
"25 c #d6d2d9",
"35 c #e3d9de",
"45 c #dbd4dd",
"55 c #a4a7b5",
"65 c #111b50",
"75 c #496094",
"85 c #739dde",
"95 c #769cdb",
":5 c #7e9fda",
";5 c #7994c0",
"A5 c #355177",
"B5 c #0f305a",
"C5 c #1b3a64",
"D5 c #1f3a64",
"E5 c #223a64",
"F5 c #223c66",
"G5 c #1d3b65",
"H5 c #3c5b8d",
"I5 c #4d6fac",
"J5 c #869ec3",
"K5 c #fff7ef",
"L5 c #fdf0e2",
"M5 c #8490a0",
"N5 c #0b2d5a",
"O5 c #0a2c59",
"P5 c #324e73",
"Q5 c #b3b7c4",
"R5 c #e5dbe0",
"S5 c #dad1da",
"T5 c #dbd2da",
"U5 c #bebbc9",
"V5 c #2b3d6e",
"W5 c #739ad8",
"X5 c #779fe0",
"Y5 c #84a5de",
"Z5 c #6883ab",
"a5 c #1f3d64",
"b5 c #10325c",
"c5 c #183a64",
"d5 c #203d67",
"e5 c #233e68",
"f5 c #26416b",
"g5 c #26436d",
"h5 c #1e3d67",
"i5 c #3b5b8e",
"j5 c #4a6dad",
"k5 c #869ec4",
"l5 c #fff7f0",
"m5 c #fdf0e3",
"n5 c #8592a8",
"o5 c #e1d9e0",
"p5 c #dcd2da",
"q5 c #cfc9d6",
"r5 c #3c5283",
"s5 c #78a2e2",
"t5 c #7a9cd3",
"u5 c #4e698e",
"v5 c #13325b",
"w5 c #1b3e68",
"x5 c #24426c",
"y5 c #28446e",
"z5 c #2a4872",
"06 c #3a5a8e",
"16 c #476cad",
"26 c #859dc5",
"36 c #fdf0e5",
"46 c #8591a1",
"56 c #556b89",
"66 c #ccc7d1",
"76 c #d6d0db",
"86 c #4a6097",
"96 c #7ba5e4",
":6 c #5e7dab",
";6 c #0d2c53",
"A6 c #193f69",
"B6 c #1f426c",
"C6 c #284771",
"D6 c #2a4973",
"E6 c #395a8f",
"F6 c #446aad",
"G6 c #859ec6",
"H6 c #fff8f0",
"I6 c #fdf1e6",
"J6 c #0a2d5a",
"K6 c #052855",
"L6 c #8d93a5",
"M6 c #dbd5de",
"N6 c #5770a7",
"O6 c #7ba5e2",
"P6 c #5674a0",
"Q6 c #173a64",
"R6 c #173f69",
"S6 c #1c426c",
"T6 c #24456f",
"U6 c #1f3f68",
"V6 c #38598f",
"W6 c #4269ae",
"X6 c #849ec6",
"Y6 c #fff7f1",
"Z6 c #fdf1e7",
"a6 c #8792a3",
"b6 c #818a9e",
"c6 c #ddd4de",
"d6 c #5f7bb1",
"e6 c #7aa4e0",
"f6 c #4e6b95",
"g6 c #12325a",
"h6 c #173b65",
"i6 c #1a3f69",
"j6 c #21436d",
"k6 c #274872",
"l6 c #37598f",
"m6 c #3f67ad",
"n6 c #839dc6",
"o6 c #fff8f1",
"p6 c #fdf1e8",
"q6 c #8893a4",
"r6 c #25456e",
"s6 c #737e95",
"t6 c #dbd2dd",
"u6 c #6a88bb",
"v6 c #77a1de",
"w6 c #45628a",
"x6 c #11325b",
"y6 c #183b65",
"z6 c #1e406a",
"07 c #173762",
"17 c #15345d",
"27 c #36588d",
"37 c #3d65ab",
"47 c #829cc6",
"57 c #fff8f2",
"67 c #fdf1e9",
"77 c #8792a4",
"87 c #092d59",
"97 c #0d2f5c",
":7 c #65738b",
";7 c #d9d0db",
"A7 c #d1cfe6",
"B7 c #6b8ec2",
"C7 c #749edb",
"D7 c #3d5981",
"E7 c #12325c",
"F7 c #1a3b65",
"G7 c #1e3f68",
"H7 c #15345b",
"I7 c #3a5b91",
"J7 c #3a62a8",
"K7 c #7f99c5",
"L7 c #fff9f2",
"M7 c #fcf1e9",
"N7 c #939cab",
"O7 c #022654",
"P7 c #566781",
"Q7 c #d7cfdb",
"R7 c #d0d6e4",
"S7 c #7093ca",
"T7 c #719ad8",
"U7 c #365279",
"V7 c #13335d",
"W7 c #14345c",
"X7 c #385990",
"Y7 c #4468a9",
"Z7 c #30589f",
"a7 c #7792c1",
"b7 c #fffbf3",
"c7 c #f2e8e2",
"d7 c #ece3df",
"e7 c #8f98a8",
"f7 c #1f3e66",
"g7 c #0b2e5a",
"h7 c #10315d",
"i7 c #495c79",
"j7 c #d4cdda",
"k7 c #d1d4e2",
"l7 c #7497cf",
"m7 c #6e95d4",
"n7 c #2f4a71",
"o7 c #15355e",
"p7 c #16365f",
"q7 c #2d4d7d",
"r7 c #4366a5",
"s7 c #4267ab",
"t7 c #335a9f",
"u7 c #4a6ba9",
"v7 c #c0cbe2",
"w7 c #fffffb",
"x7 c #f3ece6",
"y7 c #f0e6e1",
"z7 c #faeee8",
"08 c #d2cdd0",
"18 c #586c88",
"28 c #0d2f5b",
"38 c #3d5372",
"48 c #cec9d5",
"58 c #d3d3e1",
"68 c #749ad2",
"78 c #688fcb",
"88 c #27436a",
"98 c #153660",
":8 c #22426d",
";8 c #3e5f97",
"A8 c #4669ad",
"B8 c #395fa4",
"C8 c #3c60a1",
"D8 c #8ba0c6",
"E8 c #eef1f6",
"F8 c #fefdfd",
"G8 c #f6f0ed",
"H8 c #ede3df",
"I8 c #f1e5e0",
"J8 c #f1e5e2",
"K8 c #a1a5b4",
"L8 c #2d496f",
"M8 c #0a2d59",
"N8 c #284872",
"O8 c #143560",
"P8 c #31496a",
"Q8 c #c8c4d0",
"R8 c #d1d1e0",
"S8 c #7198d1",
"T8 c #6287c3",
"U8 c #233f67",
"V8 c #193962",
"W8 c #375687",
"X8 c #4a6bab",
"Y8 c #4165a9",
"Z8 c #365b9e",
"a8 c #6883b4",
"b8 c #d1d9e8",
"c8 c #fbf8f7",
"d8 c #efe7e4",
"e8 c #e8deda",
"f8 c #f0e3e1",
"g8 c #d7cfd5",
"h8 c #6d7b95",
"i8 c #0e305c",
"j8 c #274164",
"k8 c #c2becd",
"l8 c #cfcfde",
"m8 c #6f94ce",
"n8 c #5b80ba",
"o8 c #1f3c63",
"p8 c #14345d",
"q8 c #294875",
"r8 c #4968a1",
"s8 c #4c6db0",
"t8 c #385da3",
"u8 c #4c6ca8",
"v8 c #adbbd5",
"w8 c #fcfdfe",
"x8 c #c3ced8",
"y8 c #c1ccd7",
"z8 c #feffff",
"09 c #f6f2f0",
"19 c #e8e0dc",
"29 c #e4dad9",
"39 c #e9dde0",
"49 c #afafbf",
"59 c #3e5679",
"69 c #0b2d59",
"79 c #163762",
"89 c #213d62",
"99 c #bab7c7",
":9 c #cecedf",
";9 c #5e7ca5",
"A9 c #6a8fcc",
"B9 c #5478b0",
"C9 c #1c395f",
"D9 c #13335c",
"E9 c #1d3d66",
"F9 c #3c5d8f",
"G9 c #5070ae",
"H9 c #4265aa",
"I9 c #3c5fa4",
"J9 c #869bc4",
"K9 c #e8edf4",
"L9 c #f9ffff",
"M9 c #e0e6ec",
"N9 c #6c819b",
"O9 c #11315d",
"P9 c #0f305b",
"Q9 c #687d99",
"R9 c #dfe4ea",
"S9 c #fcfcfa",
"T9 c #eeeae7",
"U9 c #e0d9d8",
"V9 c #e3d8dc",
"W9 c #dacfda",
"X9 c #818ba4",
"Y9 c #1d3d65",
"Z9 c #0c2f5a",
"a9 c #1b3960",
"b9 c #b1b0c2",
"c9 c #cfcee0",
"d9 c #627da8",
"e9 c #658ac7",
"f9 c #4e71a5",
"g9 c #17345a",
"h9 c #15355f",
"i9 c #2e4f7c",
"j9 c #496ca4",
"k9 c #496cac",
"l9 c #3a5ea3",
"m9 c #627eb6",
"n9 c #cad3e6",
"o9 c #f4ffff",
"p9 c #faffff",
"q9 c #edf7f9",
"r9 c #8d9fb4",
"s9 c #214068",
"t9 c #203f67",
"u9 c #8c9cb1",
"v9 c #f4f6f8",
"w9 c #f8f6f5",
"x9 c #e5e0df",
"y9 c #dbd3d8",
"z9 c #e2d7e1",
"0: c #bebacc",
"1: c #526686",
"2: c #0d2f5a",
"3: c #103058",
"4: c #aaa9bd",
"5: c #cfcce0",
"6: c #697fac",
"7: c #6185c1",
"8: c #486898",
"9: c #234068",
":: c #3f6396",
";: c #4c71ac",
"A: c #3e63a4",
"B: c #4c6caa",
"C: c #a5b5d4",
"D: c #f3f9fc",
"E: c #f3ffff",
"F: c #f0ffff",
"G: c #aabdcc",
"H: c #385478",
"I: c #092a57",
"J: c #14345f",
"K: c #082a57",
"L: c #365276",
"M: c #b0bbc9",
"N: c #fefefe",
"O: c #f0eded",
"P: c #dbd6db",
"Q: c #dad1dd",
"R: c #dbd2e2",
"S: c #949ab4",
"T: c #254166",
"U: c #9a9cb1",
"V: c #cdcbdf",
"W: c #6a84ac",
"X: c #5c7eb7",
"Y: c #5173a8",
"Z: c #4d71a6",
"a: c #466ca7",
"b: c #4265a2",
"c: c #8398c2",
"d: c #dfe7f1",
"e: c #f4feff",
"f: c #e8f9ff",
"g: c #eeffff",
"h: c #c2d5e1",
"i: c #536e8d",
"j: c #0d2e5a",
"k: c #10315c",
"l: c #546c8b",
"m: c #cfd6df",
"n: c #fafafa",
"o: c #e5e2e7",
"p: c #d3cedc",
"q: c #dad1e4",
"r: c #c0bcd2",
"s: c #b8b7cc",
"t: c #c3c5da",
"u: c #d9dfee",
"v: c #6d86af",
"w: c #5a7ab0",
"x: c #4f72a9",
"y: c #4368a1",
"z: c #6682b0",
"0; c #c4d0e2",
"1; c #f2faff",
"2; c #e5f5ff",
"3; c #e9faff",
"4; c #d4e6f1",
"5; c #728aa4",
"6; c #183761",
"7; c #0c2d59",
"8; c #7588a1",
"9; c #e8ebf0",
":; c #f2f1f5",
";; c #d7d5e2",
"A; c #cdc9de",
"B; c #cac7de",
"C; c #c0c1d9",
"D; c #d7dfec",
"E; c #738cb3",
"F; c #4e6fa5",
"G; c #5776a7",
"H; c #a4b5cf",
"I; c #e8f2fa",
"J; c #e1f2ff",
"K; c #deeefd",
"L; c #90a5bc",
"M; c #29476d",
"N; c #153560",
"O; c #092b57",
"P; c #27456c",
"Q; c #98a7ba",
"R; c #f8fafd",
"S; c #ffffff",
"T; c #fdffff",
"U; c #fcfcfd",
"V; c #e6e5ee",
"W; c #c9c8dd",
"X; c #bcc0d6",
"Y; c #d9deec",
"Z; c #7d94ba",
"a; c #7d96ba",
"b; c #d3e0ee",
"c; c #e5f4ff",
"d; c #d4e9fe",
"e; c #d7eafc",
"f; c #aabdd3",
"g; c #415c7f",
"h; c #12325d",
"i; c #264670",
"j; c #12335d",
"k; c #092b58",
"l; c #405b7d",
"m; c #b9c4d2",
"n; c #fafcff",
"o; c #f8fbfe",
"p; c #fcfeff",
"q; c #f3f5f9",
"r; c #ced1e2",
"s; c #d5dceb",
"t; c #b0bfcf",
"u; c #d4e6f9",
"v; c #cfe5fd",
"w; c #cce3fb",
"x; c #d9ecfe",
"y; c #90a3ba",
"z; c #042653",
"0A c #163660",
"1A c #21416b",
"2A c #294973",
"3A c #2a4a74",
"4A c #274771",
"5A c #24446e",
"6A c #20406a",
"7A c #072957",
"8A c #022450",
"9A c #7f8ea2",
":A c #f7f9fc",
";A c #f1f5fb",
"AA c #f3f7fb",
"BA c #f2f7fb",
"CA c #e6f3fb",
"DA c #cee1f8",
"EA c #cee2f9",
"FA c #aabbd0",
"GA c #576f8e",
"HA c #17365f",
"IA c #0b2c58",
"JA c #14355f",
"KA c #22426c",
"LA c #25456f",
"MA c #23436d",
"NA c #1f3f69",
"OA c #163761",
"PA c #0e2f5c",
"QA c #0d2d57",
"RA c #3c5372",
"SA c #97a2b1",
"TA c #dce1e9",
"UA c #eff3fb",
"VA c #ecf2f9",
"WA c #c9d6e9",
"XA c #cedff7",
"YA c #d6e9ff",
"ZA c #dcecff",
"aA c #b9c9dd",
"bA c #677d9a",
"cA c #1f3d65",
"dA c #13345f",
"eA c #1a3a64",
"fA c #1c3c66",
"gA c #1e3e68",
"hA c #1d3d67",
"iA c #1b3b65",
"jA c #163661",
"kA c #0c2e5a",
"lA c #123059",
"mA c #4a5f7b",
"nA c #a9b3c0",
"oA c #ebeff7",
"pA c #f7fbff",
"qA c #edf3fc",
"rA c #e9f1fb",
"sA c #c8d4e7",
"tA c #cbdef4",
"uA c #d3e9ff",
"vA c #dcf0ff",
"wA c #c4d6e7",
"xA c #778ca7",
"yA c #29466c",
"zA c #0a2b57",
"0B c #12335e",
"1B c #183862",
"2B c #193963",
"3B c #153661",
"4B c #0b2d58",
"5B c #18355c",
"6B c #5a6d87",
"7B c #b7c0cd",
"8B c #eef4fe",
"9B c #f2f8ff",
":B c #e9f1fd",
";B c #e7f0fa",
"AB c #c8dbf1",
"BB c #d0eaff",
"CB c #dcf3ff",
"DB c #ccdeee",
"EB c #869ab3",
"FB c #324e72",
"GB c #0c2d58",
"HB c #0f305c",
"IB c #173761",
"JB c #12335f",
"KB c #1f3c60",
"LB c #6b7c94",
"MB c #c1cbd9",
"NB c #eef6ff",
"OB c #edf6ff",
"PB c #e6f1ff",
"QB c #e6f1fd",
"RB c #c9daf0",
"SB c #d0e8ff",
"TB c #d8f1ff",
"UB c #d1e3f5",
"VB c #94a7be",
"WB c #3e587b",
"XB c #0f2f59",
"YB c #0e2f5b",
"ZB c #11325d",
"aB c #0b2c57",
"bB c #2a4567",
"cB c #798aa0",
"dB c #c9d4e4",
"eB c #e9f4ff",
"fB c #e6f3ff",
"gB c #e3efff",
"hB c #cfdff3",
"iB c #d0e6ff",
"jB c #d6efff",
"kB c #d5e8fa",
"lB c #a0b3c9",
"mB c #486182",
"nB c #354e70",
"oB c #8698ad",
"pB c #cedced",
"qB c #e4f3ff",
"rB c #deeeff",
"sB c #deedfd",
"tB c #d7e6fb",
"uB c #d0e6fd",
"vB c #d5edff",
"wB c #d3e8fc",
"xB c #d0e2f6",
"yB c #ddf0ff",
"zB c #d9ecff",
"0C c #dcebfd",
"1C c #d2e7fd",
"2C c #d5e8fd",
"                                                                                                ",
"                                      2C1C                                                      ",
"                                0CzByBxBwBvBuBtB                                                ",
"                            sBrBqBpBoBnBmBlBkBjBiBhB                                            ",
"                        gBfBeBdBcBbBaBZBYBXBWBVBUBTBSBRB                                        ",
"                  QBPBOBNBMBLBKBaBJBIBIBIBIBHBGBFBEBDBCBBBAB                                    ",
"              ;B:B9B8B7B6B5B4B3B2B2B2B1B1B2B2B1B0BzAyAxAwAvAuAtAsA                              ",
"          rAqApAoAnAmAlAkAjA2BiAhAgAgAgAgAgAgAfAeA2BdAzAcAbAaAZAYAXAWA                          ",
"        VAUATASARAQAPAOAIB1B2BfANAMALALALALAKANAfAeA1BIBJAIAHAGAFAxBEADA                        ",
"  CABAAA;A:A9A8A7AIBIBIBIBIB2BhA6A5A4A3A2A4A5A1AhAeAIBIBIBIB0Az;QAy;x;w;v;u;t;                  ",
"  s;r;q;p;o;n;m;l;k;j;IBIB1BeAhA6A5Ai;4A4A4A5A1AgAiA1BIBIBh;aBg;f;e;d;c;b;a;Z;                  ",
"  Y;X;W;V;U;T;S;R;Q;P;O;N;1BeAfANA1AKAMAMAMAKA1AhAeA2BN;zAM;L;K;J;c;I;H;G;F;E;                  ",
"  D;C;B;A;;;:;S;S;S;9;8;0A7;1BeAiAhANA6A1A6ANAhAeA1B7;6;5;4;3;2;1;0;z:y:x:w:v:                  ",
"  u:t:s:r:q:p:o:n:S;S;S;m:l:7;k:2BeAfAgAgAhAiA2Bk:j:i:h:g:f:e:d:c:b:a:Z:Y:X:W:                  ",
"    V:U:T:S:R:Q:P:O:N:S;S;S;M:L:K:J:2BeA2B2BJ:I:H:G:F:g:E:D:C:B:A:;:::9:8:7:6:                  ",
"    5:4:3:2:1:0:z9y9x9w9S;S;S;v9u9t9k;0A0AO;s9r9q9p9o9T;n9m9l9k9j9i9h9g9f9e9d9                  ",
"    c9b9a93BZ9Y9X9W9V9U9T9S9S;S;S;R9Q9P9O9N9M9S;L9S;K9J9I9H9G9F9E9D90AC9B9A9;9                  ",
"    :9998979eAJA69594939291909z8z8S;S;y8x8S;S;S;w8v8u8t8s8r8q8p80A1BjAo8n8m8                    ",
"    l8k8j83B6ANA2Bi8JAh8g8f8e8d8c8S;z8S;S;S;S;b8a8Z8Y8X8W8V8p81BiAiA0AU8T8S8                    ",
"    R8Q8P8O8KAN8KAiAOAM8L8K8J8I8H8G8F8z8S;E8D8C8B8A8;8:8D90A2BfANAfA98887868                    ",
"    584838JB6AN8N8MAhA2BZB281808z7y7x7w7v7u7t7s7r7q7p7o71BeAhA6A6AfAJ:n7m7l7                    ",
"    k7j7i7h7NA4AN84AMAfAV8jAg7f7e7d7c7b7a7Z7Y7X7hAW7IB1BiAgAKAKA6AiAV7U7T7S7                    ",
"    R7Q7P7i8hALAN8N8i;6AeAIBIBdAO7N7M7L7K7J7I7H7h91B2BiAG7MALA5A6AF7E7D7C7B7                    ",
"    A7;7:797fAMA4A2AN8MAhA1BIBIB8777675747372717072BiANAMA4AN85Az6y6x6w6v6u6                    ",
"      t6s6kAiA1Ar6N83Ai;6AeAIBIBM8q6p6o6n6m6l6171BiANA5A4A3Ak6j6i6h6g6f6e6d6                    ",
"      c6b6692BNA6A1Ai;N85AhA1BIBM8a6Z6Y6X6W6V6W72BU6LAN83A2AT6S6R6Q6lAP6O6N6                    ",
"      M6L6K6IBiAhAiAhA5ALA1AiA1BJ6a6I6H6G6F6E6W7iAMA2AD6C6LAB6A6h6OA;6:69686                    ",
"      7666566998eA2B1BhAMAMAgA2BJ64636H6261606p8hA4Az5y5x51Aw5y6JAv5u5t5s5r5                    ",
"      q5p5o5n5jAk:1BIBeA6A5A6AeAJ646m5l5k5j5i5p8h5g5f5e5d5fAc5b5a5Z5Y5X5W5V5                    ",
"      U5T5S5R5Q5P5O5IB2BgAMAKAiAN5M5L5K5J5I5H5p8G5F5E5D5C5IBB5A5;5:595857565                    ",
"        5545S535251569J:iA6A1AhA05M5L5K5z4y4x4p8w4v4u4t4J:s4r4q4p4o4n4m4l4k4                    ",
"          j4i4h4g4f4e4d4HBfAgAfA05c4b4K5a4Z4Y4s4X4W4V4U4T4S4R4Q4P4O4N4M4L4                      ",
"            K4J4I4g4H4G4L:O52BeAN5F4E4D4C4B4A4D96;;4:494847464544434241404                      ",
"              z3y3x3w3v3u3t3N5J:N5s3r3q3p3o3n3D9m317r4l3k3j3i3h3g3f3e3d3                        ",
"                c3b3a3Z3Y3X3W3V3U3T3S3R3Q3P3O3QAN3M3L3K3J3I3H3G3F3E3D3                          ",
"                  C3B3A3;3:393837363534333231303z2y2x2w2v2u2t2s2r2q2p2                          ",
"                  o2n2m2l2k2j2i2h2g2f2e2d2c2b2a2Z2Y2X2W2V2t2U2T2S2R2                            ",
"                  Q2P2O2N2M2L2K2J2I2H2G2F2E2D2C2B2A2;2:2928272625242                            ",
"                  32221202z1y1x1w1v1u1t1s1r1q1p1o1n1t2m1l1k1j1i142                              ",
"                    h1g1f1e1d1c1b1a1Z1t1Y1X1W1V1U1T1S1R1Q1P1O1N1                                ",
"                    M1L1K1J1I1H1G1F1E1D1C1B1A1;1:1918171615141                                  ",
"                      31211101z0y0x0w0v0u0t0s0r0q0p0o0n0m0l0                                    ",
"                        k0j0i0h0g0f0e0d0c0b0a0Z0Y0X0W0V0U0                                      ",
"                          T0S0R0Q0P0O0N0M0L0K0J0I0H0G0F0                                        ",
"                              E0D0C0B0A0;0:090807060                                            ",
"                                    504030201000                                                ",
"                                                                                                ",
"                                                                                                "};
