/* XPM */
static char *image[] = {
"32 32 479 2",
"   c None",
"00 c #898c86",
"10 c #9e9f9c",
"20 c #a9aaa6",
"30 c #a5a7a3",
"40 c #a2a29f",
"50 c #929490",
"60 c #878984",
"70 c #868a84",
"80 c #b1b2af",
"90 c #e8e9e8",
":0 c #cbcbcb",
";0 c #bdbdbd",
"A0 c #d5d5d3",
"B0 c #caccc9",
"C0 c #8b8e89",
"D0 c #848682",
"E0 c #afb0ad",
"F0 c #e2e2e2",
"G0 c #d7d7d7",
"H0 c #b9b9b8",
"I0 c #b9b9b7",
"J0 c #d9d9d9",
"K0 c #c1c3c0",
"L0 c #8a8d87",
"M0 c #182d32",
"N0 c #868983",
"O0 c #929390",
"P0 c #939691",
"Q0 c #8f918c",
"R0 c #8b8d88",
"S0 c #22444a",
"T0 c #284f56",
"U0 c #27535b",
"V0 c #214348",
"W0 c #21454a",
"X0 c #1c3940",
"Y0 c #152b2e",
"Z0 c #183134",
"a0 c #21444a",
"b0 c #254c53",
"c0 c #44747c",
"d0 c #70a2aa",
"e0 c #70b8c5",
"f0 c #76b6c2",
"g0 c #56949e",
"h0 c #3e7884",
"i0 c #2c5b64",
"j0 c #22474e",
"k0 c #214951",
"l0 c #1e4249",
"m0 c #162d31",
"n0 c #888a85",
"o0 c #727470",
"p0 c #1f3e44",
"q0 c #21444c",
"r0 c #2a5861",
"s0 c #5b8e97",
"t0 c #72a4ae",
"u0 c #53909b",
"v0 c #307988",
"w0 c #3399ac",
"x0 c #4fa8b8",
"y0 c #62b1bf",
"z0 c #74bac7",
"01 c #62a1ad",
"11 c #51919d",
"21 c #498995",
"31 c #356d77",
"41 c #25525a",
"51 c #224951",
"61 c #224b52",
"71 c #1b3b3f",
"81 c #787c76",
"91 c #8c8e8a",
":1 c #6b7775",
";1 c #264d54",
"A1 c #45747e",
"B1 c #73a3ab",
"C1 c #387581",
"D1 c #418490",
"E1 c #359aad",
"F1 c #369bae",
"G1 c #379cae",
"H1 c #3d8f9e",
"I1 c #5baebd",
"J1 c #6db7c5",
"K1 c #7ebfcb",
"L1 c #7ab8c5",
"M1 c #5999a4",
"N1 c #214a51",
"O1 c #7d817e",
"P1 c #90908f",
"Q1 c #848b87",
"R1 c #77a6b0",
"S1 c #56929d",
"T1 c #367d8a",
"U1 c #256976",
"V1 c #2c7785",
"W1 c #379bae",
"X1 c #389caf",
"Y1 c #399db0",
"Z1 c #3b9eb0",
"a1 c #348b9b",
"b1 c #358c9c",
"c1 c #4aa6b8",
"d1 c #87c4cf",
"e1 c #214c54",
"f1 c #868483",
"g1 c #958b8b",
"h1 c #898987",
"i1 c #548188",
"j1 c #307987",
"k1 c #2f7886",
"l1 c #256876",
"m1 c #2c7685",
"n1 c #287483",
"o1 c #32646b",
"p1 c #399caf",
"q1 c #368c9c",
"r1 c #46a4b6",
"s1 c #88c5d1",
"t1 c #214e57",
"u1 c #948b8b",
"v1 c #af7979",
"w1 c #bd5f5f",
"x1 c #a66f6f",
"y1 c #918b8b",
"z1 c #538188",
"02 c #2e7886",
"12 c #2b7685",
"22 c #2a7584",
"32 c #297583",
"42 c #287280",
"52 c #2f6169",
"62 c #368c9b",
"72 c #3b9daf",
"82 c #378d9d",
"92 c #388d9d",
":2 c #44a4b6",
";2 c #48a6b8",
"A2 c #8ac6d1",
"B2 c #215159",
"C2 c #8d8989",
"D2 c #9a8989",
"E2 c #d75f5f",
"F2 c #ca0606",
"G2 c #b50000",
"H2 c #a10303",
"I2 c #983535",
"J2 c #8d8282",
"K2 c #5c8289",
"L2 c #256875",
"M2 c #2b7684",
"N2 c #2b717f",
"O2 c #316b75",
"P2 c #356870",
"Q2 c #478089",
"R2 c #346c76",
"S2 c #29616b",
"T2 c #30727c",
"U2 c #368594",
"V2 c #3e98a9",
"W2 c #388e9e",
"X2 c #398e9e",
"Y2 c #4aa7b9",
"Z2 c #8bc6d2",
"a2 c #21535c",
"b2 c #958d8d",
"c2 c #c44646",
"d2 c #b10000",
"e2 c #a20000",
"f2 c #850c0c",
"g2 c #974a4a",
"h2 c #651b1b",
"i2 c #8b8989",
"j2 c #427179",
"k2 c #356a75",
"l2 c #3a6c75",
"m2 c #609da7",
"n2 c #7fc4d0",
"o2 c #83c8d5",
"p2 c #7cc0cd",
"q2 c #65a6b3",
"r2 c #4b8994",
"s2 c #306e78",
"t2 c #2c6872",
"u2 c #337e8b",
"v2 c #419aaa",
"w2 c #47a3b5",
"x2 c #49a7b8",
"y2 c #8dc8d3",
"z2 c #21555f",
"03 c #8f8c8c",
"13 c #ae7575",
"23 c #910000",
"33 c #860000",
"43 c #780000",
"53 c #690000",
"63 c #590202",
"73 c #986f6f",
"83 c #8f6262",
"93 c #643737",
":3 c #788487",
";3 c #296069",
"A3 c #407c85",
"B3 c #609fab",
"C3 c #7abec9",
"D3 c #85c9d5",
"E3 c #84c8d4",
"F3 c #6cabb6",
"G3 c #457d84",
"H3 c #35676f",
"I3 c #2e676f",
"J3 c #397e8a",
"K3 c #3b8f9e",
"L3 c #388795",
"M3 c #3b8b9a",
"N3 c #4296a6",
"O3 c #80bac6",
"P3 c #215862",
"Q3 c #944444",
"R3 c #800000",
"S3 c #8d0000",
"T3 c #8e0101",
"U3 c #880101",
"V3 c #810000",
"W3 c #a96363",
"X3 c #c9aaaa",
"Y3 c #561111",
"Z3 c #8c8d8d",
"a3 c #3898ab",
"b3 c #348a9a",
"c3 c #357b88",
"d3 c #2e6c76",
"e3 c #377782",
"f3 c #4e8d96",
"g3 c #3a6f76",
"h3 c #366c75",
"i3 c #286c78",
"j3 c #1f6e7c",
"k3 c #3e8592",
"l3 c #4ba8ba",
"m3 c #4da8b9",
"n3 c #49a3b3",
"o3 c #4699a9",
"p3 c #66a3ad",
"q3 c #205a65",
"r3 c #c45050",
"s3 c #dd3c3c",
"t3 c #ed4e4e",
"u3 c #ed4949",
"v3 c #e13636",
"w3 c #d22121",
"x3 c #d67171",
"y3 c #e1b0b0",
"z3 c #801414",
"04 c #8f8e8e",
"14 c #3a9db0",
"24 c #3c9eb1",
"34 c #3fa0b2",
"44 c #3d97a7",
"54 c #316b74",
"64 c #266c79",
"74 c #206f7e",
"84 c #1f6e7e",
"94 c #276874",
":4 c #3f8693",
";4 c #4da9ba",
"A4 c #4faabb",
"B4 c #53acbe",
"C4 c #91cad5",
"D4 c #205c68",
"E4 c #918e8e",
"F4 c #ac5a5a",
"G4 c #9e0d0d",
"H4 c #a40606",
"I4 c #a60505",
"J4 c #a40707",
"K4 c #9b0a0a",
"L4 c #be7879",
"M4 c #d0aeae",
"N4 c #70393b",
"O4 c #8b8d8d",
"P4 c #3b9eb1",
"Q4 c #3d9fb1",
"R4 c #41a1b4",
"S4 c #1e6e7e",
"T4 c #1d6d7d",
"U4 c #408693",
"V4 c #4faabc",
"W4 c #50abbc",
"X4 c #52acbd",
"Y4 c #92cbd6",
"Z4 c #205f6a",
"a4 c #9a9a9a",
"b4 c #747371",
"c4 c #765e5d",
"d4 c #5e5659",
"e4 c #7a7576",
"f4 c #6e7579",
"g4 c #adb7b9",
"h4 c #c2d3d6",
"i4 c #83a4a9",
"j4 c #818b8c",
"k4 c #3c9fb1",
"l4 c #236e7c",
"m4 c #1e6e7d",
"n4 c #1c6d7d",
"o4 c #51abbd",
"p4 c #94ccd7",
"q4 c #20616d",
"r4 c #909090",
"s4 c #9c9c9b",
"t4 c #838383",
"u4 c #5f7579",
"v4 c #7e9ea2",
"w4 c #b3c8cb",
"x4 c #b7cfd3",
"y4 c #869ea2",
"z4 c #6d8184",
"05 c #3d9fb2",
"15 c #3fa0b3",
"25 c #41a2b4",
"35 c #43a3b5",
"45 c #346b73",
"55 c #226e7c",
"65 c #266874",
"75 c #418794",
"85 c #53acbd",
"95 c #54adbe",
":5 c #59b0c1",
";5 c #95cdd7",
"A5 c #206370",
"B5 c #989898",
"C5 c #a4a4a4",
"D5 c #bebebc",
"E5 c #8a9ea1",
"F5 c #b2c2c5",
"G5 c #aac2c6",
"H5 c #c6d9dc",
"I5 c #b1cccf",
"J5 c #86979a",
"K5 c #567579",
"L5 c #3ea0b2",
"M5 c #40a1b3",
"N5 c #42a2b4",
"O5 c #44a3b5",
"P5 c #46a5b7",
"Q5 c #1f6f7e",
"R5 c #1d6e7d",
"S5 c #1c6d7c",
"T5 c #2a6f7b",
"U5 c #3a8693",
"V5 c #4ea6b7",
"W5 c #55aebf",
"X5 c #57afc0",
"Y5 c #5bb1c2",
"Z5 c #96cdd8",
"a5 c #206673",
"b5 c #969696",
"c5 c #e7e7e7",
"d5 c #d6d6d6",
"e5 c #cacaca",
"f5 c #c4c4c4",
"g5 c #cdcdcd",
"h5 c #dadcdc",
"i5 c #e1e4e4",
"j5 c #909494",
"k5 c #3a6e76",
"l5 c #347b86",
"m5 c #378c9b",
"n5 c #409cae",
"o5 c #45a4b6",
"p5 c #47a5b7",
"q5 c #356b73",
"r5 c #226d7c",
"s5 c #226e7e",
"t5 c #2c7480",
"u5 c #307e8c",
"v5 c #36828f",
"w5 c #4f9caa",
"x5 c #3b909f",
"y5 c #368e9d",
"z5 c #4099a9",
"06 c #54a6b6",
"16 c #80c0cc",
"26 c #206875",
"36 c #979797",
"46 c #b0b0b0",
"56 c #7c979c",
"66 c #a8bfc3",
"76 c #85a1a5",
"86 c #86989b",
"96 c #8d9293",
":6 c #7dbac3",
";6 c #71b0ba",
"A6 c #52929d",
"B6 c #337683",
"C6 c #347a87",
"D6 c #3a8a9a",
"E6 c #326e77",
"F6 c #2d737f",
"G6 c #2f7987",
"H6 c #3e848f",
"I6 c #71b2bd",
"J6 c #90ceda",
"K6 c #90ced9",
"L6 c #93d0da",
"M6 c #99d0da",
"N6 c #8cc4cf",
"O6 c #5ba2ae",
"P6 c #2e7b8b",
"Q6 c #206b78",
"R6 c #929292",
"S6 c #919191",
"T6 c #909191",
"U6 c #909292",
"V6 c #959c9d",
"W6 c #9abdc3",
"X6 c #98d1dc",
"Y6 c #90cfda",
"Z6 c #91cfda",
"a6 c #90ced8",
"b6 c #6caab5",
"c6 c #458792",
"d6 c #337582",
"e6 c #3b7b87",
"f6 c #5e9da7",
"g6 c #72b0bb",
"h6 c #7fbdc8",
"i6 c #97cfd8",
"j6 c #addbe3",
"k6 c #afdae2",
"l6 c #72aeb9",
"m6 c #337c89",
"n6 c #267280",
"o6 c #255e68",
"p6 c #296570",
"q6 c #24626c",
"r6 c #306d79",
"s6 c #528f98",
"t6 c #78aeb7",
"u6 c #a1cdd5",
"v6 c #b2dbe3",
"w6 c #88bbc4",
"x6 c #5e97a2",
"y6 c #5c98a3",
"z6 c #76b3be",
"07 c #92ced9",
"17 c #93cfda",
"27 c #87c4ce",
"37 c #82bac4",
"47 c #7eb1ba",
"57 c #619aa4",
"67 c #3f8691",
"77 c #257483",
"87 c #287786",
"97 c #296a78",
":7 c #256774",
";7 c #266a75",
"A7 c #3c7d8a",
"B7 c #6ca6b0",
"C7 c #9acbd2",
"D7 c #b9dfe6",
"E7 c #b6dfe7",
"F7 c #b0dde5",
"G7 c #b9e0e7",
"H7 c #89bec7",
"I7 c #448d99",
"J7 c #257482",
"K7 c #237280",
"L7 c #246d79",
"M7 c #27717d",
"N7 c #236d7b",
"O7 c #38808c",
"P7 c #5395a1",
"Q7 c #287482",
"R7 c #277583",
"                                                                ",
"                                                                ",
"                                                                ",
"                                                                ",
"                                                                ",
"                                                                ",
"                      R7Q7P7O7N7M7L7                            ",
"                K7J7I7H7G7F7E7D7C7B7A7;7:797                    ",
"            877767574737271707z6y6x6w6v6u6t6s6r6q6p6o6          ",
"        n6m6l6k6j6i6h6g6f6e6d6c6b6a6Z6Y6X6W6V6U6T6T6T6S6R6      ",
"    Q6P6O6N6M6L6K6J6I6H6G6F6E6D6C6B6A6;6:6T696867666564636S6    ",
"    261606z5y5x5w5v5u5t5s5r5q5p5o5n5m5l5k5j5i5h5g5f5e5d5c5b5    ",
"    a5Z5Y5X5W5V5U5T5S5R5Q5r5q5P5O5N5M5L5K5J5I5H5G5F5E5D5C5B5    ",
"    A5;5:5W595857565S5R5Q55545o535251505z4y4x4w4v4E5u4t4t4s4r4  ",
"    q4p4X59585o47565n4m4Q5l445O5N5M5L5k4j4i4h4g4f4e4d4c4b4a4S6  ",
"    Z4Y4W5X4W4V4U465T4S4Q5l445N5R415Q4P4O4N4M4L4K4J4I4H4G4F4E4  ",
"    D4C4B4W4A4;4:494R5847464544434L5241404z3y3x3w3v3u3t3s3r3E4  ",
"    q3p3o3n3m3l3k394j3i3h3g3f3e3d3c3b3a3Z3Y3X3W3V3U3T3S3R3Q3E4  ",
"    P3O3N3M3L3K3J3I3H3G3F3E3D3D3C3B3A3;3:393837363534333231303  ",
"    z2y2;4x2w2v2u2t2s2r2q2p2o2o2n2m2l2k2j2i2h2g2f223e2d2c2b2    ",
"    a2Z2Y2p5P5o5X2W2V2U2T2S2R2Q2P2O2N2M2L2K2J2I2H2G2F2E2D2C2    ",
"    B2A2;2o5:2359282M5340572625242322212L202z1y1x1w1v1u1        ",
"    t1s1r135N525q1q1L5Q42414p1o1n132M2m1l1k1j1i1h1g1f1          ",
"    e1d1c1R4M515b1a1k4Z1Y1X1W1o1n122M2V1U1T1S1R1Q1P1O1          ",
"    N1M1L1K1J1I1H1b314p1G1F1E1o1322212D1C1B1A1;1:19181          ",
"    7161514131211101z0y0x014w0o1v0u0t0s0r0q0p0  o0n0            ",
"            m0l0k0j0i0h0g0f0e0o1d0c0b0a0Z0        n0            ",
"                    Y0X0W0V0U0T0S0p0        n0R0Q0n0P0O0N0      ",
"                              M0          L0K0J0I0n0H0G0F0E0D0  ",
"                                          C0B0G0A0;0:0J0908070  ",
"                                            60504030201000      ",
"                                                                "};
