/* XPM */
static char *image[] = {
"48 48 736 2",
"   c None",
"00 c #1a1a1a",
"10 c #353535",
"20 c #373737",
"30 c #1a1a28",
"40 c #353552",
"50 c #4d4d73",
"60 c #52527c",
"70 c #52527b",
"80 c #4e4e76",
"90 c #3f3f5e",
":0 c #1f1f30",
";0 c #0a0a0a",
"A0 c #212121",
"B0 c #3c3c3c",
"C0 c #525252",
"D0 c #616161",
"E0 c #b3b3b3",
"F0 c #cfcfcf",
"G0 c #7a7a7a",
"H0 c #484848",
"I0 c #8f8fb6",
"J0 c #a7a7c6",
"K0 c #c3c3e6",
"L0 c #bfbfe6",
"M0 c #bbbbe6",
"N0 c #a2a2cf",
"O0 c #8b8bbf",
"P0 c #6c6c9c",
"Q0 c #5e5e8b",
"R0 c #393955",
"S0 c #121212",
"T0 c #595959",
"U0 c #7a7a7b",
"V0 c #959697",
"W0 c #babcbd",
"X0 c #d5d8d9",
"Y0 c #fafdff",
"Z0 c #e4e5e6",
"a0 c #959595",
"b0 c #7878a6",
"c0 c #bebed9",
"d0 c #e5e5f5",
"e0 c #9a9ad9",
"f0 c #7070a6",
"g0 c #52527d",
"h0 c #37373e",
"i0 c #4e4e4e",
"j0 c #636363",
"k0 c #787e85",
"l0 c #8f9daa",
"m0 c #c1c3c7",
"n0 c #e4e8ec",
"o0 c #f6faff",
"p0 c #e2e4e7",
"q0 c #646464",
"r0 c #ababf9",
"s0 c #7f7fbc",
"t0 c #83a0c6",
"u0 c #9fceff",
"v0 c #d0e7ff",
"w0 c #f1f8ff",
"x0 c #e1e4e8",
"y0 c #cacaca",
"z0 c #cbcbcb",
"01 c #7c7c7c",
"11 c #8989d9",
"21 c #696c9f",
"31 c #8fb7ec",
"41 c #99caff",
"51 c #e7f3ff",
"61 c #ecf6ff",
"71 c #dfe4e8",
"81 c #9d9d9d",
"91 c #2d2d46",
":1 c #e2e2ec",
";1 c #6c72a6",
"A1 c #96c2f9",
"B1 c #99c8ff",
"C1 c #cae3ff",
"D1 c #e9f1f6",
"E1 c #aeddbf",
"F1 c #74c680",
"G1 c #49b550",
"H1 c #e8f3ff",
"I1 c #dde3e9",
"J1 c #a1a1a1",
"K1 c #a3a3a3",
"L1 c #1a1a26",
"M1 c #606092",
"N1 c #d9d9e6",
"O1 c #d8d8ff",
"P1 c #7676b3",
"Q1 c #7c90c6",
"R1 c #73bbbf",
"S1 c #56b28f",
"T1 c #43af60",
"U1 c #31ae34",
"V1 c #079d04",
"W1 c #e3f1ff",
"X1 c #dbe2e9",
"Y1 c #cccccc",
"Z1 c #cdcdcd",
"a1 c #a4a4a4",
"b1 c #575782",
"c1 c #b3b3cc",
"d1 c #a4a4f2",
"e1 c #0d9313",
"f1 c #13a60d",
"g1 c #16a80f",
"h1 c #dfefff",
"i1 c #dae2ea",
"j1 c #999999",
"k1 c #a5a5a5",
"l1 c #2f2f45",
"m1 c #ebebff",
"n1 c #8585bf",
"o1 c #407960",
"p1 c #1aaa11",
"q1 c #23b017",
"r1 c #daecff",
"s1 c #d8dfe6",
"t1 c #a6a6a6",
"u1 c #c4c4ff",
"v1 c #b9b3ff",
"w1 c #adadec",
"x1 c #60698f",
"y1 c #18a910",
"z1 c #30b920",
"02 c #d5eaff",
"12 c #d7dde2",
"22 c #a7a7a7",
"32 c #222231",
"42 c #eedfff",
"52 c #fbd6ff",
"62 c #f4d3ff",
"72 c #c9bdff",
"82 c #7373a6",
"92 c #1a8c26",
":2 c #1ead14",
";2 c #3dc128",
"A2 c #d1e8ff",
"B2 c #d7dde3",
"C2 c #a9a9a9",
"D2 c #46466b",
"E2 c #a9a9c6",
"F2 c #fffeff",
"G2 c #fad6ff",
"H2 c #eac5ff",
"I2 c #edc4ff",
"J2 c #d3ccff",
"K2 c #33804d",
"L2 c #25b118",
"M2 c #49ca31",
"N2 c #cce5ff",
"O2 c #d7dde4",
"P2 c #aaaaaa",
"Q2 c #5b5b8a",
"R2 c #d1d1e1",
"S2 c #f7f7fa",
"T2 c #fafafc",
"U2 c #fefefe",
"V2 c #ffecff",
"W2 c #bcbaf2",
"X2 c #8a8ad2",
"Y2 c #8d8ddf",
"Z2 c #b3a9ff",
"a2 c #f9e0ff",
"b2 c #bdbdff",
"c2 c #9b9bcc",
"d2 c #467663",
"e2 c #2db71e",
"f2 c #59d43b",
"g2 c #c7e3ff",
"h2 c #d7dee5",
"i2 c #ababab",
"j2 c #ebedf4",
"k2 c #eceef4",
"l2 c #f5f6f9",
"m2 c #fff1ff",
"n2 c #7d85af",
"o2 c #75769f",
"p2 c #7a7abf",
"q2 c #b9b9e6",
"r2 c #33bb22",
"s2 c #66dd44",
"t2 c #c3e1ff",
"u2 c #d6dee5",
"v2 c #adadad",
"w2 c #7d7ea9",
"x2 c #e3e5ef",
"y2 c #eff1f6",
"z2 c #f0edf7",
"03 c #98aac9",
"13 c #e5e4a9",
"23 c #706f98",
"33 c #9b9be9",
"43 c #d0d0ff",
"53 c #b8b8e6",
"63 c #4d7373",
"73 c #009900",
"83 c #3abf26",
"93 c #73e54c",
":3 c #bedfff",
";3 c #d6dee6",
"A3 c #aeaeae",
"B3 c #8383ad",
"C3 c #d8dce9",
"D3 c #ecedf4",
"E3 c #d6d7ee",
"F3 c #eeeaa6",
"G3 c #838096",
"H3 c #acace6",
"I3 c #f2f2ff",
"J3 c #b3b3e6",
"K3 c #86697c",
"L3 c #a99020",
"M3 c #51c52f",
"N3 c #83f057",
"O3 c #b9dcff",
"P3 c #d6dfe8",
"Q3 c #242434",
"R3 c #8282af",
"S3 c #d2d4f3",
"T3 c #cdcff6",
"U3 c #cacbf9",
"V3 c #c5c6f9",
"W3 c #c0c1f9",
"X3 c #b9b9fc",
"Y3 c #b6b3ff",
"Z3 c #a6c4ec",
"a3 c #d0cea7",
"b3 c #d2cff9",
"c3 c #9f9fd2",
"d3 c #866976",
"e3 c #dbc54f",
"f3 c #a2ea5b",
"g3 c #8ff85f",
"h3 c #b5daff",
"i3 c #d6dfe9",
"j3 c #242436",
"k3 c #8181b3",
"l3 c #d2caff",
"m3 c #8080cc",
"n3 c #7983b3",
"o3 c #6b6d9f",
"p3 c #fff0ff",
"q3 c #fff2ff",
"r3 c #cfcfff",
"s3 c #9393c6",
"t3 c #a66d60",
"u3 c #f99030",
"v3 c #ecbe4f",
"w3 c #ccd555",
"x3 c #b3e85c",
"y3 c #b0d8ff",
"z3 c #d6e0ea",
"04 c #b1b1b1",
"14 c #262637",
"24 c #7272a3",
"34 c #c7c7ff",
"44 c #c0c0ff",
"54 c #f9f4ff",
"64 c #c4baff",
"74 c #9797e2",
"84 c #8b8bc6",
"94 c #c5c5f2",
":4 c #ffe5ff",
";4 c #fff4ff",
"A4 c #ececff",
"B4 c #d9d9ff",
"C4 c #b56e4e",
"D4 c #f99132",
"E4 c #ffb34d",
"F4 c #acd5ff",
"G4 c #d6e0eb",
"H4 c #b2b2b2",
"I4 c #babaf5",
"J4 c #babaff",
"K4 c #c0bdff",
"L4 c #ffeeff",
"M4 c #ffe3ff",
"N4 c #efd0ff",
"O4 c #e7c6ff",
"P4 c #f5c9ff",
"Q4 c #ffe7ff",
"R4 c #fffdff",
"S4 c #c6c6f9",
"T4 c #d26d30",
"U4 c #f99737",
"V4 c #ffb04a",
"W4 c #ff9f39",
"X4 c #a7d3ff",
"Y4 c #d5e0eb",
"Z4 c #b4b4b4",
"a4 c #575785",
"b4 c #9f9fdc",
"c4 c #b5b5ff",
"d4 c #c2bcff",
"e4 c #f5dcff",
"f4 c #ffd9ff",
"g4 c #ffcfff",
"h4 c #ffccff",
"i4 c #fbdfff",
"j4 c #fffaff",
"k4 c #b6b6d2",
"l4 c #79617b",
"m4 c #df6923",
"n4 c #f99c3c",
"o4 c #ffab45",
"p4 c #ffa640",
"q4 c #ffa23c",
"r4 c #eea85e",
"s4 c #dcaf81",
"t4 c #a2d1ff",
"u4 c #d5e1ec",
"v4 c #add3ec",
"w4 c #3aadf9",
"x4 c #cde0ed",
"y4 c #b5b5b5",
"z4 c #464668",
"05 c #8383bf",
"15 c #b0b0ff",
"25 c #aaaaff",
"35 c #c7bfff",
"45 c #cfc3ff",
"55 c #ccc6ff",
"65 c #d5d5ff",
"75 c #a65646",
"85 c #ce7e5a",
"95 c #d1b392",
":5 c #c2c0b9",
";5 c #b6c4cf",
"A5 c #9eceff",
"B5 c #d5e1ed",
"C5 c #aed1eb",
"D5 c #0099ff",
"E5 c #a3d3f3",
"F5 c #b6b6b6",
"G5 c #212133",
"H5 c #a5a5f9",
"I5 c #a4a4ff",
"J5 c #c6c6d9",
"K5 c #6c6ea6",
"L5 c #99a6ff",
"M5 c #99c5ff",
"N5 c #d5e2ee",
"O5 c #b0d0e9",
"P5 c #0091f7",
"Q5 c #78c4f7",
"R5 c #b8b8b8",
"S5 c #545480",
"T5 c #8585cc",
"U5 c #9e9eff",
"V5 c #9999ff",
"W5 c #f5f5f9",
"X5 c #70709f",
"Y5 c #868cd2",
"Z5 c #94bbff",
"a5 c #94caff",
"b5 c #d5e2f0",
"c5 c #b0cfe8",
"d5 c #0088ed",
"e5 c #78bff2",
"f5 c #b9b9b9",
"g5 c #252539",
"h5 c #6a6a9f",
"i5 c #9393f2",
"j5 c #9b9bff",
"k5 c #a1a1ff",
"l5 c #fdfdff",
"m5 c #8c8cb3",
"n5 c #7375ac",
"o5 c #8db8ff",
"p5 c #89c7ff",
"q5 c #d3e2f0",
"r5 c #b2cee7",
"s5 c #007fe4",
"t5 c #78bbed",
"u5 c #bababa",
"v5 c #4a4a71",
"w5 c #7070ac",
"x5 c #9d9df9",
"y5 c #a7a7ff",
"z5 c #adadff",
"06 c #6a6fa3",
"16 c #82b1f9",
"26 c #7bc2ff",
"36 c #d1e2f2",
"46 c #b3cce6",
"56 c #006bd1",
"66 c #0075db",
"76 c #79b8eb",
"86 c #bbbbbb",
"96 c #575783",
":6 c #7272ac",
";6 c #a9a9f9",
"A6 c #b3b3ff",
"B6 c #b9b9ff",
"C6 c #9f9fbf",
"D6 c #666b99",
"E6 c #6dade6",
"F6 c #70beff",
"G6 c #cfe3f3",
"H6 c #96bde3",
"I6 c #1e7cd6",
"J6 c #7ab3e6",
"K6 c #bcbcbc",
"L6 c #5d5d88",
"M6 c #7474ac",
"N6 c #afaff2",
"O6 c #bebeff",
"P6 c #c5c5ff",
"Q6 c #cbcbff",
"R6 c #ececf2",
"S6 c #8383ac",
"T6 c #6576ac",
"U6 c #64abe6",
"V6 c #65bbff",
"W6 c #cde2f3",
"X6 c #dee5eb",
"Y6 c #c7dbee",
"Z6 c #bebebe",
"a6 c #53537e",
"b6 c #6b6b9f",
"c6 c #9595cc",
"d6 c #c5c5f9",
"e6 c #ccccff",
"f6 c #d2d2ff",
"g6 c #d6d6ff",
"h6 c #dbdbff",
"i6 c #e1e1ff",
"j6 c #e5e5ff",
"k6 c #e1e1f2",
"l6 c #b0b0cc",
"m6 c #617fb3",
"n6 c #5ab2f5",
"o6 c #44b0ff",
"p6 c #39acff",
"q6 c #2ea9ff",
"r6 c #129fff",
"s6 c #0c9dff",
"t6 c #54b5ff",
"u6 c #5ab7ff",
"v6 c #cbe2f4",
"w6 c #e7e7e7",
"x6 c #d3d3d3",
"y6 c #5d5d8c",
"z6 c #8e8ebf",
"07 c #acacd9",
"17 c #bebee6",
"27 c #d1d1f2",
"37 c #c4c4e6",
"47 c #c8c8e6",
"57 c #b2b2d2",
"67 c #9191b9",
"77 c #666699",
"87 c #6079ac",
"97 c #539fdf",
":7 c #3cadff",
";7 c #32aaff",
"A7 c #29a7ff",
"B7 c #16a0ff",
"C7 c #0b9dff",
"D7 c #1da3fd",
"E7 c #3baefa",
"F7 c #77c3f6",
"G7 c #96cff6",
"H7 c #b5dbf5",
"I7 c #e3edf3",
"J7 c #99d2f9",
"K7 c #23a5ff",
"L7 c #4fb3ff",
"M7 c #c9e2f5",
"N7 c #c7c7c7",
"O7 c #dadada",
"P7 c #c0c0c0",
"Q7 c #4d4d6f",
"R7 c #56567d",
"S7 c #62628a",
"T7 c #666696",
"U7 c #666693",
"V7 c #5f74a9",
"W7 c #5b7db6",
"X7 c #528fcf",
"Y7 c #37a1ef",
"Z7 c #2ca8ff",
"a7 c #24a5ff",
"b7 c #139fff",
"c7 c #0a9cff",
"d7 c #2aa7f9",
"e7 c #47b0f6",
"f7 c #72bff2",
"g7 c #9eceee",
"h7 c #aed4ee",
"i7 c #7cc8fb",
"j7 c #38acff",
"k7 c #c8e3f6",
"l7 c #c1c1c1",
"m7 c #6f6f6f",
"n7 c #25a5ff",
"o7 c #1ea3ff",
"p7 c #119fff",
"q7 c #089cff",
"r7 c #36a9f5",
"s7 c #52b1f1",
"t7 c #6ebaed",
"u7 c #98c8e8",
"v7 c #b5d1e5",
"w7 c #5ebdfe",
"x7 c #c6e3f8",
"y7 c #e1e1e1",
"z7 c #c2c2c2",
"08 c #363636",
"18 c #434343",
"28 c #565656",
"38 c #818181",
"48 c #9f9f9f",
"58 c #6cb7e9",
"68 c #9fc5df",
"78 c #bbcedb",
"88 c #eef8fe",
"98 c #cbdeeb",
":8 c #f8f8f8",
";8 c #fafafa",
"A8 c #787878",
"B8 c #b0b0b0",
"C8 c #cecece",
"D8 c #d0d0d0",
"E8 c #f3f3f3",
"F8 c #f5f5f5",
"G8 c #d6d6e3",
"H8 c #cfcfdf",
"I8 c #b6b6d0",
"J8 c #9c9cbf",
"K8 c #9292b8",
"L8 c #6c6c9f",
"M8 c #9d9db6",
"N8 c #ebebeb",
"O8 c #fbfbfb",
"P8 c #c5c5c5",
"Q8 c #676767",
"R8 c #afafaf",
"S8 c #d4d4d4",
"T8 c #e6e6e6",
"U8 c #e8e8e8",
"V8 c #eaeaea",
"W8 c #e5e5e8",
"X8 c #d3d3e0",
"Y8 c #c0c0d6",
"Z8 c #b9b9d2",
"a8 c #9c9cc2",
"b8 c #8c8cb9",
"c8 c #7979a6",
"d8 c #d6d6d6",
"e8 c #c6c6c6",
"f8 c #9e9e9e",
"g8 c #d1d1d1",
"h8 c #d7d7d7",
"i8 c #d9d9d9",
"j8 c #dbdbdb",
"k8 c #dddddd",
"l8 c #dedede",
"m8 c #e0e0e0",
"n8 c #dddde0",
"o8 c #bbbbd5",
"p8 c #b1b1d1",
"q8 c #a5a5cb",
"r8 c #7777aa",
"s8 c #7575a8",
"t8 c #7272a5",
"u8 c #7070a3",
"v8 c #6e6ea1",
"w8 c #c0c0cd",
"x8 c #dcdcdc",
"y8 c #c4c4c4",
"z8 c #0e0e0e",
"09 c #e3e3e5",
"19 c #ededed",
"29 c #f0f0f0",
"39 c #f7f7f7",
"49 c #cecedb",
"59 c #8989bc",
"69 c #8787ba",
"79 c #8585b8",
"89 c #8383b6",
"99 c #8181b4",
":9 c #7f7fb2",
";9 c #7d7db0",
"A9 c #7b7bae",
"B9 c #7979ac",
"C9 c #7881b4",
"D9 c #7788bd",
"E9 c #7093cc",
"F9 c #6493d1",
"G9 c #8ab7e2",
"H9 c #e2e2e2",
"I9 c #888888",
"J9 c #0d0d0d",
"K9 c #a8a8ac",
"L9 c #e7e7ff",
"M9 c #eaeaff",
"N9 c #f8f8ff",
"O9 c #f9f9f9",
"P9 c #f1f1f1",
"Q9 c #d5d5e2",
"R9 c #9696c9",
"S9 c #9494c7",
"T9 c #9191c4",
"U9 c #9090c3",
"V9 c #8e8ec1",
"W9 c #8c8cbf",
"X9 c #8b8dc0",
"Y9 c #9098cb",
"Z9 c #929fd2",
"a9 c #93a7da",
"b9 c #95b0e3",
"c9 c #97b9ec",
"d9 c #98c2f5",
"e9 c #61b9fd",
"f9 c #dfe5ea",
"g9 c #e9e9e9",
"h9 c #4c4c4c",
"i9 c #cfcfd6",
"j9 c #eeeeff",
"k9 c #ddddff",
"l9 c #dcdcff",
"m9 c #e3e3ff",
"n9 c #e7e7fa",
"o9 c #dcdded",
"p9 c #a4a8db",
"q9 c #a9b1e4",
"r9 c #a9b3e6",
"s9 c #adbdf0",
"t9 c #acc1f4",
"u9 c #b7daf5",
"v9 c #efefef",
"w9 c #e4e4e4",
"x9 c #8b8b8b",
"y9 c #d7d7ff",
"z9 c #d3d3ff",
"0: c #b9bee4",
"1: c #8fcbfc",
"2: c #f6f6f6",
"3: c #303030",
"4: c #c9c9c9",
"5: c #f9f9ff",
"6: c #efefff",
"7: c #e8e8ff",
"8: c #dedeff",
"9: c #c7c7e4",
":: c #a0a2af",
";: c #99d0fd",
"A: c #bee1fc",
"B: c #f2f7fc",
"C: c #fcfcfc",
"D: c #d5d5d5",
"E: c #000000",
"F: c #707070",
"G: c #f2f2f2",
"H: c #fbfbff",
"I: c #f5f5ff",
"J: c #e9e9ff",
"K: c #e4e4ff",
"L: c #a0a0a9",
"M: c #727272",
"N: c #69bcff",
"O: c #57b6ff",
"P: c #d8d8d8",
"Q: c #8e8e8e",
"R: c #242424",
"S: c #b7b7b7",
"T: c #f0f0ff",
"U: c #d1d1de",
"V: c #696969",
"W: c #555555",
"X: c #bfc2eb",
"Y: c #abccff",
"Z: c #a9ccff",
"a: c #a7ccff",
"b: c #a4ccff",
"c: c #a1ccff",
"d: c #9eccff",
"e: c #9cccff",
"f: c #99ccff",
"g: c #95cbff",
"h: c #84c5ff",
"i: c #75c0ff",
"j: c #6eb7f2",
"k: c #939393",
"l: c #a0a0a0",
"m: c #d2d2d2",
"n: c #e5e5e5",
"o: c #ffffff",
"p: c #fcfcff",
"q: c #f6f6ff",
"r: c #a3a3a5",
"s: c #222222",
"t: c #b4b5d2",
"u: c #c8ccff",
"v: c #c6ccff",
"w: c #c4ccff",
"x: c #c1ccff",
"y: c #beccff",
"z: c #bbccff",
"0; c #b9ccff",
"1; c #b6ccff",
"2; c #b3ccff",
"3; c #b1ccff",
"4; c #aeccff",
"5; c #a6bfe5",
"6; c #a5bfe5",
"7; c #a1b9d8",
"8; c #9eb2cc",
"9; c #9cb2cc",
":; c #9aa8b8",
";; c #99a5b2",
"A; c #929eaa",
"B; c #909090",
"C; c #8a8a8a",
"D; c #a8a8a8",
"E; c #bfbfbf",
"F; c #bebebf",
"G; c #a3a3b3",
"H; c #c2c2ec",
"I; c #bcbfe6",
"J; c #bbbfe6",
"K; c #aeb3cc",
"L; c #adb3cc",
"M; c #a6acbf",
"N; c #a0a5b2",
"O; c #9da2b3",
"P; c #95969a",
"Q; c #8d8d8d",
"R; c #8f8f8f",
"S; c #919191",
"                                                S;                                              ",
"                          R;Q;S;P;O;N;M;L;K;J;I;H;G;      F;E;D;C;                              ",
"      B;B;S;A;;;:;9;8;7;6;5;4;3;2;1;0;z:y:x:w:v:u:t:s:  r:q:p:o:o:n:m:E;l:                      ",
"k:  S;j:i:h:g:f:e:d:c:b:a:Z:Y:4;3;2;1;0;z:y:x:w:v:X:W:V:U:T:q:p:o:o:o:o:S:R:                    ",
"Q:P:S:O:N:i:h:g:f:e:d:c:b:a:Z:Y:4;3;2;1;0;z:y:x:w:v:M:L:K:J:T:I:H:o:o:G:F:E:                    ",
"  D:C:B:A:;:i:h:g:f:e:d:c:b:a:Z:Y:4;3;2;1;0;z:y:x:w:::9:8:K:7:6:I:5:o:4:3:                      ",
"  D;2:2:2:2:1:i:h:g:f:e:d:c:b:a:Z:Y:4;3;2;1;0;z:y:x:0:z9y98:K:7:6:I:5:x9E:                      ",
"    w9v9v9v9u9N:i:h:g:f:e:d:c:b:a:Z:Y:4;3;t9s9r9q9p9o9n9m9l9k9m97:j9i9h9E:                      ",
"    S:g9g9g9f9e9N:i:h:g:f:d9c9b9a9Z9Y9X9W9V9U9T9S9R9Q9P9O9o:N9T:M9L9K9J9                        ",
"    I9H9H9H9H9G9F9E9D9C9B9A9;9:99989796959W9V9U9T9S949g9P92:39291909R;z8                        ",
"      y8x8x8x8w8v8u8t8s8r8B9A9;9:99989796959W9q8p8o8n8H9m8l8k8j8i8h8g8f8                        ",
"      e829j8d8d8c8v8u8t8s8r8B9A9b8a8Z8Y8X8W8V8U8T8w9H9m8l8k8j8i8h8D:S8m:R8Q8                    ",
"      P8C:O8N8D:M8L8K8J8I8H8G8F8E8P9v919N8V8U8T8w9H9m8l8k8j8i8h8D:S8m:D8C8B8A8                  ",
"      y8O8;8O9:89888C:;8:82:F8E8P9v919N8V8U8T8w9H9m8l8k8j8i8h87868584838281808                  ",
"      z7x8y7:82:x7w7;8:82:F8E8P9v919N8V8U8T8w9H9m8v7u7t7s7r7q7p7o7n7m7E:E:                      ",
"      l7D:48B8w9k7j7i72:F8E8P9v919N8V8h7g7f7e7d7c7b7a7Z7Y7X7W7V7U7T7S7R7Q7                      ",
"      P7O7i8N7e8M7L7K7J7I7H7G7F7E7D7C7B7A7;7:7L7L7L797877767574737271707z6L8y6                  ",
"      E;x648B8w6v6u6t6s6r6o7q6p6o6u6u6u6u6u6u6u6n6m677l6k66:J:j6i6h6g6f6e6d6c6b6a6              ",
"      Z6Y6X6P8D:W6V6V6V6V6V6V6V6V6V6V6V6V6V6V6U6T6S6R6p:6:J:j6i6h6g6f6e6Q6P6O6N6M6L6            ",
"      K6J6I6H6v9G6F6F6F6F6F6F6F6F6F6F6F6F6F6E6D6C6o:o:o:j9j6i6h6g6f6e6Q6P6O6B6A6;6:696          ",
"      8676665646362626262626262626262626261606C6o:o:o:o:I:i6h6g6f6e6Q6P6O6B6A6z5y5x5w5v5        ",
"      u5t5s566r5q5p5p5p5p5p5p5p5p5p5p5p5o5n5m5o:o:o:o:o:l58:g6f6e6Q6P6O6B6A6z5y5k5j5i5h5g5      ",
"      f5e5d5s5c5b5a5a5a5a5a5a5a5a5a5a5Z5Y5X5W5o:o:o:o:o:o:j6f6e6Q6P6O6B6A6z5y5k5j5V5U5T5S5      ",
"      R5Q5P5d5O5N5f:f:f:f:f:f:f:f:f:M5L5K5J5o:o:o:o:o:o:o:q:e6Q6P6O6B6A6z5y5k5j5V5U5I5H5b6G5    ",
"      F5E5D5P5C5B5A5A5A5A5A5A5;5:5958575c8o:o:o:o:o:o:o:o:o:65554535A6z5y5k5j5V5U5I5251505z4    ",
"      y4N8x4w4v4u4t4t4t4s4r4q4p4o4n4m4l4k4o:o:o:o:o:o:o:o:j4i4h4g4f4e4d4k5j5V5U5I52515c4b4a4    ",
"      Z4V8g9w6T8Y4X4X4X4W4q4p4o4V4U4T477S4f6J:5:o:o:o:o:R4Q4f4P4O4N4M4L4K4V5U5I52515c4J4I477    ",
"      H4g9w6T8n:G4F4F4F4q4p4o4V4E4D4C4B9e6e6e6e6B4A4p:o:;4:4L494847464L454I5I52515c4J444342414  ",
"      04w6T8n:w9z3y3y3y3x3w3v3E4E4u3t3s3e6e6e6e6e6e6r3A4q3p3J5o3n3o3m3l3j4342515c4J44434Q6k3j3  ",
"      B8T8n:w9H9i3h3h3h3g3g3g3f3e3u3d3c3e6e6e6e6e6e6e66:q3b3X5a3h3Z377Y3j46515X3W3V3U3T3S3R3Q3  ",
"      R8n:w9H9y7P3O3O3O3N3N3N3N3M3L3K3J3e6e6e6e6e6e6e6I3q3H3G3F3O3O377E3j4D3C3C3C3C3C3C3C3B3Q3  ",
"      A3w9H9y7m8;3:3:3:39393939383736353f643e6Q6P6O6B6A4q3332313:303X5z2j4y2x2x2x2x2x2x2x2w2Q3  ",
"      v2H9y7m8l8u2t2t2t2s2s2s2s2r27363q2f6e6Q6P6O6B6A6i6q364p2o2n277J5m2j4l2k2j2j2j2j2j2j277E:  ",
"      i2y7m8l8x8h2g2g2g2f2f2f2f2e273d2c2e6Q6P6O6B6A6z5b2q3a2Z2Y2X2W2V2L4j4o:U2T2S2W5W5W5R2Q2E:  ",
"      P2m8l8x8x8O2N2N2N2M2M2M2M2L273K2W9Q6P6O6B6A6z5y5k5J2:4f4I2H2G2M4p3F2o:o:o:o:o:o:o:E2D2E:  ",
"      C2l8x8x8j8B2A2A2A2;2;2;2;2:2739282P6O6B6A6z5y5k5j5V57262h4g45242F2o:o:o:o:o:o:o:o:c832    ",
"      22x8x8j8i812020202z1z1z1z1y17373x1w1B6A6z5y5k5j5V5U5I525v164J4u1o:o:o:o:o:o:o:o:J5Q2E:    ",
"      t1N7m:i8P:s1r1r1r1q1q1q1q1p17373o1n1A6z5y5k5j5V5U5I52515c4J44434m1o:o:o:o:o:o:o:c8l1E:    ",
"      k1z7j1y4m:i1h1h1h1g1g1g1g1f17373e177d1y5k5j5V5U5I52515c4J44434Q6k9o:o:o:o:o:o:c1b1E:      ",
"      a1Z1Y1B886X1W1W1W1V1V1V1V1U1T1S1R1Q1P1k5j5V5U5I52515c4J44434Q6f6O1H:o:o:o:o:N1M1L1        ",
"      K1y4J1e8x6I1H1H1H1G1F1E1D1H1C1B1B1A1;1m3V5U5I52515c4J44434Q6f6O1k9j9o:o:o::1X591E:        ",
"      J1d88681P771616161616161616151d:4141312111I52515c4J44434Q6f6O1k9m9J:o:o::1X591E:          ",
"      01N7x6z0y0x0w0w0w0w0w0w0w0w0w0v0f:f:u0t0T7s0r0c4J44434Q6f6O1k9m97:j9H:c17791E:            ",
"        q004g8D8p0o0o0o0o0o0o0o0o0n0m0l0k0j0i0h0g0f0e04434Q6f6O1k9m97:d0c0b0b1L1E:              ",
"          W:a0C8Z0Y0Y0Y0Y0X0W0V0U0T0183:S0E:E:    R0Q0P0O0N0M0L0K0J0I0T7Q2l1E:                  ",
"            H0G0i8F0E0Q;D0C0B0A0;0E:E:                :09080706060504030E:E:                    ",
"              20T0H01000E:E:                                                                    ",
"                                                                                                "};
