/* XPM */
static char *image[] = {
"32 32 201 2",
"   c None",
"00 c #a3a2a2",
"10 c #9e9e9e",
"20 c #9d9d9d",
"30 c #ababab",
"40 c #fafafa",
"50 c #b8b8b8",
"60 c #595858",
"70 c #070707",
"80 c #adadad",
"90 c #d8d8d8",
":0 c #7b7b7b",
";0 c #898989",
"A0 c #e3e3e3",
"B0 c #929392",
"C0 c #aaaaaa",
"D0 c #bdbcbd",
"E0 c #313131",
"F0 c #323232",
"G0 c #2c2c2c",
"H0 c #131313",
"I0 c #0a0a0a",
"J0 c #f4f4f4",
"K0 c #f2f2f2",
"L0 c #adacac",
"M0 c #5c5c5c",
"N0 c #2b2b2b",
"O0 c #3f3f3f",
"P0 c #585858",
"Q0 c #525252",
"R0 c #2a2a2a",
"S0 c #010101",
"T0 c #101010",
"U0 c #303030",
"V0 c #dddddd",
"W0 c #959595",
"X0 c #535353",
"Y0 c #484848",
"Z0 c #040404",
"a0 c #515151",
"b0 c #d2d2d2",
"c0 c #d1d1d1",
"d0 c #8a8a8a",
"e0 c #13a407",
"f0 c #06c90b",
"g0 c #15d114",
"h0 c #13a507",
"i0 c #0daa09",
"j0 c #07ae0a",
"k0 c #00c00b",
"l0 c #1dec2c",
"m0 c #64e663",
"n0 c #11a607",
"o0 c #0caa09",
"p0 c #05b00b",
"q0 c #00b80d",
"r0 c #00c10d",
"s0 c #04de15",
"t0 c #6bfc75",
"u0 c #bbf1ba",
"v0 c #10a707",
"w0 c #0bab09",
"x0 c #04b10b",
"y0 c #00b50d",
"z0 c #00b90d",
"01 c #00c20e",
"11 c #00cf0f",
"21 c #00de10",
"31 c #00ec11",
"41 c #12f923",
"51 c #8bfd93",
"61 c #d0fad1",
"71 c #0fad09",
"81 c #0ab009",
"91 c #01b90c",
":1 c #00be0c",
";1 c #00bf0c",
"A1 c #00c20b",
"B1 c #00c70c",
"C1 c #00d20d",
"D1 c #00e10f",
"E1 c #00ee11",
"F1 c #00f612",
"G1 c #00fa12",
"H1 c #00fb13",
"I1 c #2ffb3e",
"J1 c #81fd8a",
"K1 c #58bb42",
"L1 c #0fcd0b",
"M1 c #1edc20",
"N1 c #3ef64a",
"O1 c #52ff60",
"P1 c #5afe66",
"Q1 c #60fe6b",
"R1 c #5cfe68",
"S1 c #4dfd5a",
"T1 c #35fc44",
"U1 c #1dfb2d",
"V1 c #0bfa1d",
"W1 c #02fa14",
"X1 c #00fb12",
"Y1 c #19fa29",
"Z1 c #18fa29",
"a1 c #17b404",
"b1 c #6cd261",
"c1 c #78de72",
"d1 c #90f493",
"e1 c #9bffa3",
"f1 c #92fe9b",
"g1 c #85fc8d",
"h1 c #72fc7c",
"i1 c #58fc64",
"j1 c #3bfb49",
"k1 c #21fb31",
"l1 c #10fb21",
"m1 c #00f30f",
"n1 c #01d60f",
"o1 c #68d05b",
"p1 c #76dc6f",
"q1 c #8bf08d",
"r1 c #9cffa5",
"s1 c #94ff9d",
"t1 c #87fd90",
"u1 c #75fc7f",
"v1 c #54fc60",
"w1 c #17f227",
"x1 c #01d30b",
"y1 c #64cd56",
"z1 c #75db6d",
"02 c #86eb85",
"12 c #9fffa7",
"22 c #a6ffad",
"32 c #70fd7a",
"42 c #22e025",
"52 c #65c955",
"62 c #8eda84",
"72 c #9fe99b",
"82 c #6cd964",
"92 c #ffffff",
":2 c #c4c4c4",
";2 c #c3c3c3",
"A2 c #868686",
"B2 c #202020",
"C2 c #e0e0e0",
"D2 c #848484",
"E2 c #191919",
"F2 c #505050",
"G2 c #4c4c4c",
"H2 c #b7b6b6",
"I2 c #f9f9f9",
"J2 c #a1a1a1",
"K2 c #494949",
"L2 c #696969",
"M2 c #5f5f5f",
"N2 c #c1c0c0",
"O2 c #5e5e5e",
"P2 c #000000",
"Q2 c #373737",
"R2 c #767676",
"S2 c #737373",
"T2 c #f0f0f0",
"U2 c #e1e1e1",
"V2 c #949494",
"W2 c #4a4a4a",
"X2 c #1f1f1f",
"Y2 c #272727",
"Z2 c #282828",
"a2 c #1e1e1e",
"b2 c #232323",
"c2 c #222222",
"d2 c #4d4d4d",
"e2 c #7a7a7a",
"f2 c #797979",
"g2 c #747474",
"h2 c #c9c9c9",
"i2 c #d7d7d7",
"j2 c #8e8d8e",
"k2 c #3c3c3c",
"l2 c #2e2e2e",
"m2 c #343434",
"n2 c #333333",
"o2 c #3e3e3e",
"p2 c #5a5a5a",
"q2 c #595959",
"r2 c #707070",
"s2 c #757575",
"t2 c #fdfefe",
"u2 c #bfbebe",
"v2 c #727272",
"w2 c #2d2d2d",
"x2 c #414141",
"y2 c #565656",
"z2 c #555555",
"03 c #676767",
"13 c #787878",
"23 c #cbcbcb",
"33 c #eeeeee",
"43 c #b7b7b7",
"53 c #bababa",
"63 c #c5c4c4",
"73 c #f1f1f1",
"        7363535353535353535353535353535353534333                ",
"      231303z2y2y2y2y2y2y2y2y2y2y2y2y2y2y2y2x2w2v2u2t2          ",
"    53s213r2q2q2q2q2q2q2q2q2q2q2q2q2q2q2q2p2o2n2m2l2k2j2i2      ",
"  h2g2f2e2d2c2b2b2b2b2b2b2b2b2b2b2b2b2b2b2b2a2Z2Z2Z2Z2Y2X2W2V2U2",
"T2S2R2f2Q2P2P2P2P2P2P2P2P2P2P2P2P2P2P2P2P2P2P2P2P2P2P2P2P2O253  ",
"N2M2L2K2P2P2P2P2P2P2P2P2P2P2P2P2P2P2P2P2P2P2P2P2P2P2k2J2I2      ",
"H2G2F2X2P2P2P2P2P2P2P2P2P2P2P2P2P2P2P2P2P2P2P2E2D2C2            ",
"43G2F2B2P2P2P2P2A2;2:2:2:2:2:2:2:2:2:2:2:2:22392                ",
"43G2F2B2P2P2P2P2J2                                              ",
"43G2F2B2P2P2P2P2J2                                              ",
"43G2F2B2P2P2P2P2J2                                              ",
"43G2F2B2P2P2P2P2J2  82726252                                    ",
"43G2F2B2P2P2P2P2J2    4232221202z1y1                            ",
"43G2F2B2P2P2P2P2J2      x1w1v1u1t1s1r1q1p1o1                    ",
"43G2F2B2P2P2P2P2J2        n1m1l1k1j1i1h1g1f1e1d1c1b1            ",
"43G2F2B2P2P2P2P2J2        a1Z1Y1X1X1W1V1U1T1S1R1Q1P1O1N1M1L1    ",
"43G2F2B2P2P2P2P2J2        K1J1I1H1H1G1F1E1D1C1B1A1;1:1918171    ",
"43G2F2B2P2P2P2P2J2        61514131211101z0y0y0x0w0v0            ",
"43G2F2B2P2P2P2P2J2      u0t0s0r0q0y0y0p0o0n0                    ",
"43G2F2B2P2P2P2P2J2    m0l0k0y0j0i0h0                            ",
"43G2F2B2P2P2P2P2J2  g0f0i0e0                                    ",
"43G2F2B2P2P2P2P2J2                                              ",
"43G2F2B2P2P2P2P2J2                                              ",
"43G2F2B2P2P2P2P2J2                                              ",
"43G2F2B2P2P2P2P2d0c0b0b0b0b0b0b0b0b0b0b0b0b0b092                ",
"43d2a0X2P2P2P2Z0Y0X0X0X0X0X0X0X0X0X0X0X0X0X0o2x2W0V0            ",
"H2U0Y2T0P2P2S0R0Q0P0P0P0P0P0P0P0P0P0P0P0P0q2O0n2n2N0M0L0K0      ",
"J0E2I0P2P2P2P2H0G0F0F0F0F0F0F0F0F0F0F0F0F0F0Z2U0E0U0U0l2G0s2D073",
"  C0P2P2P2P2P2P2P2P2P2P2P2P2P2P2P2P2P2P2P2P2P2P2P2P2P2P2P2E0B0A0",
"    ;0P2P2P2P2P2P2P2P2P2P2P2P2P2P2P2P2P2P2P2P2P2P2P2T0:090      ",
"      8070P2P2P2P2P2P2P2P2P2P2P2P2P2P2P2P2P2P2P2605092          ",
"        40302010101010101010101010202020202000J0                "};
