/* XPM */
static char *image[] = {
"48 48 183 2",
"   c None",
"00 c #019dd7",
"10 c #018abd",
"20 c #016990",
"30 c #01729c",
"40 c #0199d0",
"50 c #018abb",
"60 c #019ed7",
"70 c #0190c3",
"80 c #0184b4",
"90 c #019ed8",
":0 c #016084",
";0 c #019bd3",
"A0 c #019fd8",
"B0 c #0195cc",
"C0 c #016285",
"D0 c #0191c7",
"E0 c #019fd9",
"F0 c #0179a5",
"G0 c #019fda",
"H0 c #015b7d",
"I0 c #019bd4",
"J0 c #01a0da",
"K0 c #016489",
"L0 c #0175a1",
"M0 c #01a0db",
"N0 c #01658a",
"O0 c #01a1db",
"P0 c #015f81",
"Q0 c #7fd0ed",
"R0 c #bfe7f6",
"S0 c #cfedf8",
"T0 c #afe2f4",
"U0 c #70caeb",
"V0 c #21ade0",
"W0 c #01a1dc",
"X0 c #019cd6",
"Y0 c #31b4e3",
"Z0 c #bfe8f6",
"a0 c #41b9e6",
"b0 c #0190c4",
"c0 c #70caec",
"d0 c #9fdcf2",
"e0 c #01a2dd",
"f0 c #016c94",
"g0 c #bfe8f7",
"h0 c #01a2de",
"i0 c #21afe2",
"j0 c #41bae6",
"k0 c #71cbec",
"l0 c #b0e2f5",
"m0 c #61c6ea",
"n0 c #01a3de",
"o0 c #016d96",
"p0 c #90d7f1",
"q0 c #41bae7",
"r0 c #31b4e5",
"s0 c #dff3fb",
"t0 c #01a3df",
"u0 c #0197cf",
"v0 c #018cbe",
"w0 c #61c6eb",
"x0 c #11aae1",
"y0 c #d0eef9",
"z0 c #01a4df",
"01 c #01a0dc",
"11 c #21afe4",
"21 c #f0fafd",
"31 c #c0e9f7",
"41 c #01a4e0",
"51 c #01739c",
"61 c #0194cd",
"71 c #31b5e7",
"81 c #b0e3f6",
"91 c #21afe5",
":1 c #01a4e1",
";1 c #0190c5",
"A1 c #e0f4fb",
"B1 c #cfeef9",
"C1 c #11abe3",
"D1 c #01a5e1",
"E1 c #019ad2",
"F1 c #a0ddf4",
"G1 c #60c7ed",
"H1 c #21b0e6",
"I1 c #01a5e2",
"J1 c #41bce9",
"K1 c #afe3f6",
"L1 c #70cdef",
"M1 c #31b7e7",
"N1 c #01a6e2",
"O1 c #dff4fb",
"P1 c #9fddf4",
"Q1 c #40bcea",
"R1 c #90d8f3",
"S1 c #bfe9f8",
"T1 c #30b7e9",
"U1 c #00a6e4",
"V1 c #40bdeb",
"W1 c #c0e9f8",
"X1 c #30b8e9",
"Y1 c #00a7e4",
"Z1 c #20b2e8",
"a1 c #b0e4f7",
"b1 c #e0f4fc",
"c1 c #eff9fd",
"d1 c #10ade7",
"e1 c #00a7e5",
"f1 c #009ad2",
"g1 c #20b3e8",
"h1 c #50c3ed",
"i1 c #90d9f4",
"j1 c #d0effa",
"k1 c #70cef0",
"l1 c #00a8e5",
"m1 c #009dd6",
"n1 c #0095ce",
"o1 c #10ade8",
"p1 c #70cef1",
"q1 c #f0fafe",
"r1 c #00a8e6",
"s1 c #0096cf",
"t1 c #20b4ea",
"u1 c #7fd4f3",
"v1 c #5fc9f0",
"w1 c #30b9ec",
"x1 c #00a4e0",
"y1 c #60c9f0",
"z1 c #cfeffa",
"02 c #10aee9",
"12 c #007da9",
"22 c #009ed9",
"32 c #dff4fc",
"42 c #afe4f8",
"52 c #20b4eb",
"62 c #c0eaf9",
"72 c #00a9e8",
"82 c #0098d1",
"92 c #e0f5fc",
":2 c #30baec",
";2 c #20b5eb",
"A2 c #90daf5",
"B2 c #00aae8",
"C2 c #00a6e3",
"D2 c #80d5f4",
"E2 c #cfeffb",
"F2 c #8fdaf5",
"G2 c #7fd4f4",
"H2 c #bfeaf9",
"I2 c #20b5ec",
"J2 c #d0f0fb",
"K2 c #00a2e0",
"L2 c #10b0eb",
"M2 c #b0e5f8",
"N2 c #80d5f5",
"O2 c #c0eafa",
"P2 c #40c0f0",
"Q2 c #00abeb",
"R2 c #ffffff",
"S2 c #e0f5fd",
"T2 c #b0e5f9",
"U2 c #70d0f4",
"V2 c #20b6ee",
"W2 c #00aceb",
"X2 c #00a0dc",
"Y2 c #0093ca",
"Z2 c #009dd7",
"a2 c #00a7e6",
"b2 c #00adee",
"c2 c #00a8e7",
"d2 c #00abea",
"e2 c #00aeee",
"f2 c #00acec",
"g2 c #00aeef",
"h2 c #00aae9",
"i2 c #00a9e7",
"j2 c #00acea",
"k2 c #00aae7",
"l2 c #00afef",
"m2 c #00aded",
"n2 c #00a6e2",
"o2 c #00aff0",
"p2 c #00aaea",
"                                                                                                ",
"                                                                                                ",
"                    p2o2o2o2o2o2p2                                                              ",
"              n2m2l2l2l2l2l2l2l2l2l2m2k2j2l2l2l2l2l2l2j2i2                                      ",
"            h2g2g2g2g2g2g2g2g2g2g2g2g2g2g2g2g2g2g2g2g2g2g2g2g2p2                                ",
"          f2e2e2e2e2e2e2e2e2e2e2e2e2e2e2e2e2e2e2e2e2e2e2e2e2e2e2e2d2                            ",
"        c2b2b2b2b2b2b2b2b2b2b2b2b2b2b2b2b2b2b2b2b2b2b2b2b2b2b2b2b2b2b2a2                        ",
"      Z2m2m2m2m2m2m2m2m2m2m2m2m2m2m2m2m2m2m2m2m2m2m2m2m2m2m2m2m2m2m2m2m2d2                      ",
"      d2m2m2m2m2m2m2m2m2m2m2m2m2m2m2m2m2m2m2m2m2m2m2m2m2m2m2m2m2m2m2m2m2m2m2                    ",
"    Y2f2f2f2f2f2f2f2f2f2f2f2f2f2f2f2f2f2f2f2f2f2f2f2f2f2f2f2f2f2f2f2f2f2f2f2f2                  ",
"    X2W2W2W2W2W2W2W2W2W2W2W2W2W2W2W2V2U2T2S2R2R2R2S2T2U2V2W2W2W2W2W2W2W2W2W2W2W2                ",
"    Q2Q2Q2Q2Q2Q2Q2Q2Q2Q2Q2Q2Q2Q2P2O2R2R2R2R2R2R2R2R2R2R2R2O2P2Q2Q2Q2Q2Q2Q2Q2Q2Q2c2              ",
"    d2d2d2d2d2d2d2d2d2d2d2d2d2N2R2R2R2R2R2R2R2R2R2R2R2R2R2R2R2M2L2d2d2d2d2d2d2d2d2K2            ",
"    d2d2d2d2d2d2d2d2d2d2d2d2N2R2R2R2R2R2R2R2R2R2R2R2R2R2R2R2R2R2J2L2d2d2d2d2d2d2d2d2            ",
"    h2h2h2h2h2h2h2h2h2h2h2I2R2R2R2R2R2R2R2H2G2G2F2E2R2R2R2R2R2R2R2D2h2h2h2h2h2h2h2h2C2          ",
"    B2B2B2B2B2B2B2B2B2B2B2A2R2R2R2R2R2E2;2B2B2B2B2B2:2E2R2R2R2R2R292B2B2B2B2B2B2B2B2B2          ",
"    827272727272727272727262R2R2R2R2R252727272727272727242R2R2R2R23272727272727272727222        ",
"    12i2i2i2i2i2i2i2i2i2i2R2R2R2R2R2R2i2i2i2i2i2i2i2i2i202z1R2R2R2y1i2i2i2i2i2i2i2i2i2i2        ",
"      x1i2i2i2i2i2i2i2i2i2R2R2R2R2R2R2w1i2i2i2i2i2i2i2i2i2i2v1u1t1i2i2i2i2i2i2i2i2i2i2i2        ",
"      s1r1r1r1r1r1r1r1r1r162R2R2R2R2R2q1p1o1r1r1r1r1r1r1r1r1r1r1r1r1r1r1r1r1r1r1r1r1r1r1n1      ",
"      m1l1l1l1l1l1l1l1l1l1k1R2R2R2R2R2R2R2R2j1i1h1g1l1l1l1l1l1l1l1l1l1l1l1l1l1l1l1l1l1l1f1      ",
"      e1e1e1e1e1e1e1e1e1e1d1c1R2R2R2R2R2R2R2R2R2R2R2b1a1k1Z1e1e1e1e1e1e1e1e1e1e1e1e1e1e1e1      ",
"      Y1Y1Y1Y1Y1Y1Y1Y1Y1Y1Y1X1c1R2R2R2R2R2R2R2R2R2R2R2R2R2R2W1V1Y1Y1Y1Y1Y1Y1Y1Y1Y1Y1Y1Y1Y1      ",
"      U1U1U1U1U1U1U1U1U1U1U1U1T1S1R2R2R2R2R2R2R2R2R2R2R2R2R2R2R2R1U1U1U1U1U1U1U1U1U1U1U1U1      ",
"      C2C2C2C2C2C2C2C2C2C2C2C2C2C2Q1P1O1R2R2R2R2R2R2R2R2R2R2R2R2R2R1C2C2C2C2C2C2C2C2C2C2C2      ",
"      N1N1N1N1N1N1N1N1N1N1N1N1N1N1N1N1N1M1L1K1O1R2R2R2R2R2R2R2R2R2R2J1N1N1N1N1N1N1N1N1N1N1      ",
"      I1I1I1I1I1I1I1I1I1I1I1I1I1I1I1I1I1I1I1I1I1H1G1P1R2R2R2R2R2R2R2F1I1I1I1I1I1I1I1I1I1I1      ",
"      E1D1D1D1D1D1D1D1D1D1D1D1D1D1D1D1D1D1D1D1D1D1D1D1C1B1R2R2R2R2R2A1D1D1D1D1D1D1D1D1D1E1      ",
"      ;1:1:1:1:1:1:1:1:1:19181R2W171:1:1:1:1:1:1:1:1:1:171R2R2R2R2R2R2:1:1:1:1:1:1:1:1:161      ",
"      5141414141414141414131R2R2R2211141414141414141414141R2R2R2R2R2R241414141414141414101      ",
"        z0z0z0z0z0z0z0z0z0R2R2R2R2R2y0x0z0z0z0z0z0z0z0z0w0R2R2R2R2R2B1z0z0z0z0z0z0z0z0z0z0v0    ",
"        u0t0t0t0t0t0t0t0t0s0R2R2R2R2R2y0r0t0t0t0t0t0t0q021R2R2R2R2R2p0t0t0t0t0t0t0t0t0t0t0u0    ",
"        o0n0n0n0n0n0n0n0n0m0R2R2R2R2R2R2R2l0k0j0j0k0l0R2R2R2R2R2R2R2i0n0n0n0n0n0n0n0n0n0n0n0    ",
"          E1h0h0h0h0h0h0h0h0g0R2R2R2R2R2R2R2R2R2R2R2R2R2R2R2R2R2R2k0h0h0h0h0h0h0h0h0h0h0h0h0    ",
"          f0e0e0e0e0e0e0e0e0e0d0R2R2R2R2R2R2R2R2R2R2R2R2R2R2R2R2c0e0e0e0e0e0e0e0e0e0e0e0e0e0    ",
"            b0e0e0e0e0e0e0e0e0e0a0Z0R2R2R2R2R2R2R2R2R2R2R2R2Z0Y0e0e0e0e0e0e0e0e0e0e0e0e0e0e0    ",
"              X0W0W0W0W0W0W0W0W0W0W0V0U0T0S0R2R2R2R2R0T0Q0V0W0W0W0W0W0W0W0W0W0W0W0W0W0W0W0W0    ",
"              P0O0O0O0O0O0O0O0O0O0O0O0O0O0O0O0O0O0O0O0O0O0O0O0O0O0O0O0O0O0O0O0O0O0O0O0O0O0;1    ",
"                N0M0M0M0M0M0M0M0M0M0M0M0M0M0M0M0M0M0M0M0M0M0M0M0M0M0M0M0M0M0M0M0M0M0M0M0M0L0    ",
"                  K0J0J0J0J0J0J0J0J0J0J0J0J0J0J0J0J0J0J0J0J0J0J0J0J0J0J0J0J0J0J0J0J0J0J0I0      ",
"                    H0I0G0G0G0G0G0G0G0G0G0G0G0G0G0G0G0G0G0G0G0G0G0G0G0G0G0G0G0G0G0G0G0G0F0      ",
"                        v0E0E0E0E0E0E0E0E0E0E0E0E0E0E0E0E0E0E0E0E0E0E0E0E0E0E0E0E0E0E0D0        ",
"                          C0B0A0A0A0A0A0A0A0A0A0A0A0A0A0A0A0A0A0A0A0A0A0A0A0A0A0A0A0;0          ",
"                              :0b0909090909090909090909090909090909090909090909090;1            ",
"                                    :08070606060606060705040606060606060606060E130              ",
"                                                            201000000000001020                  ",
"                                                                                                ",
"                                                                                                "};
