/* XPM */
static char *image[] = {
"32 32 129 2",
"   c None",
"00 c #0c0c0c",
"10 c #171717",
"20 c #969696",
"30 c #393939",
"40 c #2c2c2c",
"50 c #1a1a1a",
"60 c #313131",
"70 c #1e1e1e",
"80 c #888888",
"90 c #ebebeb",
":0 c #616161",
";0 c #353535",
"A0 c #222222",
"B0 c #262626",
"C0 c #e8e8e8",
"D0 c #2a2a2a",
"E0 c #2d2d2d",
"F0 c #909090",
"G0 c #e9e9e9",
"H0 c #303030",
"I0 c #454545",
"J0 c #343434",
"K0 c #727272",
"L0 c #494949",
"M0 c #383838",
"N0 c #979797",
"O0 c #f1f1f1",
"P0 c #747474",
"Q0 c #4c4c4c",
"R0 c #3c3c3c",
"S0 c #999999",
"T0 c #777777",
"U0 c #3f3f3f",
"V0 c #9b9b9b",
"W0 c #f2f2f2",
"X0 c #525252",
"Y0 c #434343",
"Z0 c #464646",
"a0 c #f4f4f4",
"b0 c #5a5a5a",
"c0 c #4a4a4a",
"d0 c #a2a2a2",
"e0 c #f0f0f0",
"f0 c #4d4d4d",
"g0 c #a4a4a4",
"h0 c #515151",
"i0 c #a6a6a6",
"j0 c #f3f3f3",
"k0 c #666666",
"l0 c #585858",
"m0 c #b0b0b0",
"n0 c #8d8d8d",
"o0 c #4f4f4f",
"p0 c #f5f5f5",
"q0 c #595959",
"r0 c #606060",
"s0 c #d0d0d0",
"t0 c #5d5d5d",
"u0 c #555555",
"v0 c #e6e6e6",
"w0 c #949494",
"x0 c #e1e1e1",
"y0 c #656565",
"z0 c #f7f7f7",
"01 c #989898",
"11 c #6f6f6f",
"21 c #828282",
"31 c #fbfbfb",
"41 c #dbdbdb",
"51 c #636363",
"61 c #eaeaea",
"71 c #7a7a7a",
"81 c #626262",
"91 c #e3e3e3",
":1 c #e0e0e0",
";1 c #9d9d9d",
"A1 c #696969",
"B1 c #676767",
"C1 c #6b6b6b",
"D1 c #fdfdfd",
"E1 c #fafafa",
"F1 c #9f9f9f",
"G1 c #6c6c6c",
"H1 c #6a6a6a",
"I1 c #f8f8f8",
"J1 c #e7e7e7",
"K1 c #dddddd",
"L1 c #a3a3a3",
"M1 c #7d7d7d",
"N1 c #717171",
"O1 c #707070",
"P1 c #848484",
"Q1 c #e4e4e4",
"R1 c #767676",
"S1 c #6d6d6d",
"T1 c #ededed",
"U1 c #fefefe",
"V1 c #fcfcfc",
"W1 c #a5a5a5",
"X1 c #878787",
"Y1 c #808080",
"Z1 c #737373",
"a1 c #858585",
"b1 c #f6f6f6",
"c1 c #ececec",
"d1 c #a9a9a9",
"e1 c #8a8a8a",
"f1 c #838383",
"g1 c #797979",
"h1 c #787878",
"i1 c #8f8f8f",
"j1 c #f9f9f9",
"k1 c #e2e2e2",
"l1 c #757575",
"m1 c #d4d4d4",
"n1 c #d9d9d9",
"o1 c #9a9a9a",
"p1 c #8c8c8c",
"q1 c #a8a8a8",
"r1 c #7e7e7e",
"s1 c #7f7f7f",
"t1 c #eeeeee",
"u1 c #ffffff",
"v1 c #efefef",
"w1 c #939393",
"x1 c #7b7b7b",
"y1 c #7c7c7c",
"z1 c #b3b3b3",
"      z1y1x1x1x1x1x1x1x1x1x1x1x1x1x1w1v1u1t1y1s1s1s1s1s1r1q1    ",
"      p1o1n1m1m1m1m1m1m1m1m1m1m1m1m1l1s1k1j1i1h1g1g1g1g1g1f1    ",
"      e1d1u1u1u1u1u1u1u1u1u1u1u1u1u1k1g1r1c1b1a1Z1l1l1l1l1Y1    ",
"      X1W1u1V1V1V1V1V1V1V1V1V1V1V1V1U1T1S1R1Q1b1P1O1N1N1N1M1    ",
"      f1L1u1V1V1V1V1V1V1V1V1V1V1V1V1V1V1K1Z1N1J1I1f1H1S1G1g1    ",
"      Y1F1u1E1E1E1E1E1E1E1E1E1E1E1E1E1E1D1t1H1C1Q1E1s1B1A1l1    ",
"      M1;1u1E1E1E1E1E1E1E1E1E1E1E1E1E1E1E1j1:1H1A191b1M181N1    ",
"      71o1u1E1E1E1E1E1E1E1E1E1E1E1E1E1E1E1E1V161515141312111    ",
"      R101u1z0z0z0z0z0z0z0z0z0z0z0z0z0z0z0z0z0z0J1y051x0u1D1    ",
"      Z1w0U1z0z0z0z0z0z0z0z0z0z0z0z0z0z0z0z0z0z0j1v0u0t0s0u1    ",
"      O1w1U1b1z0z0z0z0z0z0z0z0z0z0z0z0z0z0z0z0z0z0b1J1r0q0:1    ",
"      S1i1V1p0p0p0p0p0p0p0p0p0p0p0p0p0p0p0p0p0p0p0p0z061o0C1    ",
"      H1n0V1p0p0p0p0p0p0p0p0p0p0p0p0p0p0p0p0p0p0p0p0p0I1m0l0    ",
"      k0e131j0j0j0j0j0j0j0j0j0j0j0j0j0j0j0j0j0j0j0j0j0z0q1u0    ",
"      51X1E1j0j0j0j0j0j0j0j0j0j0j0j0j0j0j0j0j0j0j0j0j0z0i0h0    ",
"      r0P131j0j0j0j0j0j0j0j0j0j0j0j0j0j0j0j0j0j0j0j0j0b1g0f0    ",
"      t021I1e0e0e0e0e0e0e0e0e0e0e0e0e0e0e0e0e0e0e0e0e0p0d0c0    ",
"      b0s1I1e0e0e0e0e0e0e0e0e0e0e0e0e0e0e0e0e0e0e0e0e0a0F1Z0    ",
"      u0y1I1v1e0e0e0e0e0e0e0e0e0e0e0e0e0e0e0e0e0e0e0e0j0;1Y0    ",
"      X071z0t1t1t1t1t1t1t1t1t1t1t1t1t1t1t1t1t1t1t1t1t1W0V0U0    ",
"      o0T0z0t1t1t1t1t1t1t1t1t1t1t1t1t1t1t1t1t1t1t1t1t1W0S0R0    ",
"      Q0P0p0c1c1c1c1c1c1c1c1c1c1c1c1c1c1c1c1c1c1c1c1c1O0N0M0    ",
"      L0K0p0c1c1c1c1c1c1c1c1c1c1c1c1c1c1c1c1c1c1c1c1c1e0w0J0    ",
"      I011a0c1c1c1c1c1c1c1c1c1c1c1c1c1c1c1c1c1c1c1c1c1e0w1H0    ",
"      Y0G1j0G0G0G0G0G0G0G0G0G0G0G0G0G0G0G0G0G0G0G0G0G0t1F0E0    ",
"      U0H1W0G0G0G0G0G0G0G0G0G0G0G0G0G0G0G0G0G0G0G0G0G0t1n0D0    ",
"      R0B1O0C0G0G0G0G0G0G0G0G0G0G0G0G0G0G0G0G0G0G0G0C0T1n0B0    ",
"      M051O0J1J1J1J1J1J1J1J1J1J1J1J1J1J1J1C0C0C0C0C0C0T1e1A0    ",
"      ;0:0e0J1J1J1J1J1J1J1J1J1J1J1J1J1J1J1v0v0v0v0v0v0908070    ",
"      60r0j0616161616161616161616161616161616161616161v18050    ",
"      4030S0w1w1w1w1w1w1w1w1w1w1w1w1w1w1w1w1w1w1w1w1w120o010    ",
"      C100000000000000000000000000000000000000000000000000q0    "};
