/* XPM */
static char *image[] = {
"16 16 143 2",
"   c None",
"00 c #333d50",
"10 c #263f68",
"20 c #2a5c8b",
"30 c #317aaf",
"40 c #327fb5",
"50 c #2b6091",
"60 c #28436e",
"70 c #2c3b57",
"80 c #29395c",
"90 c #3379ad",
":0 c #45c2f6",
";0 c #46c8fb",
"A0 c #46c7fb",
"B0 c #45c6f9",
"C0 c #3789bf",
"D0 c #273b64",
"E0 c #283c61",
"F0 c #4a9fd4",
"G0 c #459dc4",
"H0 c #2d657e",
"I0 c #1a3b4a",
"J0 c #173340",
"K0 c #3a83a4",
"L0 c #55c0f0",
"M0 c #55bfef",
"N0 c #4eabdf",
"O0 c #27436e",
"P0 c #303a51",
"Q0 c #457eaf",
"R0 c #55a3cd",
"S0 c #182d39",
"T0 c #010304",
"U0 c #192f3c",
"V0 c #5fb4e4",
"W0 c #4e91c3",
"X0 c #28375b",
"Y0 c #35517a",
"Z0 c #6bacda",
"a0 c #4b7898",
"b0 c #000101",
"c0 c #375971",
"d0 c #66a3ce",
"e0 c #4e7e9f",
"f0 c #6caddb",
"g0 c #6caedb",
"h0 c #40648f",
"i0 c #52749d",
"j0 c #3f5970",
"k0 c #0a0f12",
"l0 c #040608",
"m0 c #709ec8",
"n0 c #2b3c4c",
"o0 c #324659",
"p0 c #78a9d5",
"q0 c #5f86b2",
"r0 c #6c87b2",
"s0 c #6a85a6",
"t0 c #5b718d",
"u0 c #6d89aa",
"v0 c #252f3a",
"w0 c #27313d",
"x0 c #536882",
"y0 c #84a5ce",
"z0 c #637c9b",
"01 c #11151b",
"11 c #040506",
"21 c #7390b3",
"31 c #7897c1",
"41 c #24365e",
"51 c #768bb5",
"61 c #889dc5",
"71 c #14171d",
"81 c #010101",
"91 c #6a7a9a",
":1 c #8ba0c9",
";1 c #8a9fc8",
"A1 c #8a9fc7",
"B1 c #8498c0",
"C1 c #6a7a99",
"D1 c #7182a3",
"E1 c #859ac3",
"F1 c #203563",
"G1 c #62749c",
"H1 c #8596bb",
"I1 c #0b0c0f",
"J1 c #171a20",
"K1 c #8b9dc5",
"L1 c #7a89ac",
"M1 c #5a667f",
"N1 c #7685a7",
"O1 c #13161b",
"P1 c #191c23",
"Q1 c #8293b8",
"R1 c #8d9fc7",
"S1 c #7284b0",
"T1 c #57668c",
"U1 c #3f4452",
"V1 c #737c94",
"W1 c #30343e",
"X1 c #030304",
"Y1 c #768098",
"Z1 c #191b20",
"a1 c #78819a",
"b1 c #a3b0d2",
"c1 c #6b7aa0",
"d1 c #2b3e6b",
"e1 c #a6b2cf",
"f1 c #aab4cc",
"g1 c #555965",
"h1 c #000000",
"i1 c #606673",
"j1 c #6e7383",
"k1 c #1e1f24",
"l1 c #b2bcd5",
"m1 c #b9c3dd",
"n1 c #b2bcd8",
"o1 c #364974",
"p1 c #4f5f86",
"q1 c #ced5e7",
"r1 c #c9cfe2",
"s1 c #414349",
"t1 c #a2a7b6",
"u1 c #a1a5b4",
"v1 c #cfd5e8",
"w1 c #69789c",
"x1 c #687599",
"y1 c #d8ddeb",
"z1 c #e3e5f0",
"02 c #e5e7f2",
"12 c #e0e2ef",
"22 c #7e8bab",
"32 c #3b4d79",
"42 c #acb4cc",
"52 c #dcdfec",
"62 c #faf9fd",
"72 c #fcfafd",
"82 c #e2e5ef",
"92 c #b7bfd4",
":2 c #495c83",
";2 c #2d416f",
"A2 c #344975",
"B2 c #1d3363",
"            B2A2;2              ",
"        :292827262524232        ",
"      22120202z1020202y1x1      ",
"    w1v1v1u1v1t1s1r1v1v1q1p1    ",
"  o1n1m1l1k1j1i1h1g1m1m1f1e1d1  ",
"  c1b1b1a1h1Z1Y1X1W1b1V1U1b1T1  ",
"  S1R1R1Q1P1O1N1M1L1K1J1I1H1G1  ",
"F1E1D1C1B1A1;1:1:1:19181716151  ",
"4131211101z0y0x0w0v0u0t0s0y0r0  ",
"  q0p0o0h1n0m0l0h1h1k0j0p0p0i0  ",
"  h0g0f0e0d0c0h1h1h1h1b0a0Z0Y0  ",
"  X0W0V0V0V0U0h1h1h1T0S0R0Q0P0  ",
"    O0N0M0L0K0J0I0H0G0M0F0E0    ",
"      D0C0B0A0;0;0A0:09080      ",
"        7060504030201000        ",
"                                "};
