/* XPM */
static char *image[] = {
"32 32 351 2",
"   c None",
"00 c #444f5d",
"10 c #2c4a69",
"20 c #dfeaf6",
"30 c #dde9fb",
"40 c #dde9fc",
"50 c #dde9f7",
"60 c #cad8e9",
"70 c #4f5457",
"80 c #c8dbfb",
"90 c #d8e6fb",
":0 c #b7cae3",
";0 c #accaf8",
"A0 c #b2cdfb",
"B0 c #c4d9fb",
"C0 c #8ca4c3",
"D0 c #b4cef6",
"E0 c #98bdf7",
"F0 c #9dbff8",
"G0 c #a9c8f8",
"H0 c #a8bcd1",
"I0 c #abbed6",
"J0 c #b4c8e0",
"K0 c #a7c4f4",
"L0 c #93b9f5",
"M0 c #96baf6",
"N0 c #b2ccf0",
"O0 c #bccadc",
"P0 c #d7e5fb",
"Q0 c #c3d8fb",
"R0 c #c3d8f8",
"S0 c #bacee6",
"T0 c #b2c6e0",
"U0 c #b7cdea",
"V0 c #b6d0f4",
"W0 c #95b9f3",
"X0 c #88b1f0",
"Y0 c #8bb3f2",
"Z0 c #8eb5f3",
"a0 c #b6cded",
"b0 c #394e68",
"c0 c #424d59",
"d0 c #525457",
"e0 c #dce9fc",
"f0 c #c4d9fc",
"g0 c #b3cdfb",
"h0 c #a1c3f8",
"i0 c #96bcf6",
"j0 c #83a8e2",
"k0 c #86adec",
"l0 c #7ea9eb",
"m0 c #7ea8e9",
"n0 c #81aaec",
"o0 c #83aced",
"p0 c #7a99cc",
"q0 c #acc9f4",
"r0 c #b3c7df",
"s0 c #bac9dc",
"t0 c #c8d6e8",
"u0 c #ccddfc",
"v0 c #b7d1fb",
"w0 c #a4c6f8",
"x0 c #91b6f4",
"y0 c #799dd2",
"z0 c #80a9ea",
"01 c #648ac1",
"11 c #6c93d0",
"21 c #79a3e9",
"31 c #81aaeb",
"41 c #80a7e3",
"51 c #7c9dd1",
"61 c #97bcf7",
"71 c #aeccf8",
"81 c #cadcf8",
"91 c #ddeafc",
":1 c #edf4fb",
";1 c #aabdd5",
"A1 c #c9ddfb",
"B1 c #acc9f8",
"C1 c #99bef8",
"D1 c #8cb3f2",
"E1 c #415675",
"F1 c #79a3e8",
"G1 c #6e9be1",
"H1 c #192430",
"I1 c #2d415d",
"J1 c #729ee5",
"K1 c #7aa4e9",
"L1 c #7ea7e8",
"M1 c #6080ad",
"N1 c #95b9f4",
"O1 c #b1cdfb",
"P1 c #e6eefd",
"Q1 c #e3ebf4",
"R1 c #bdcee5",
"S1 c #aac8f8",
"T1 c #95baf6",
"U1 c #87aeee",
"V1 c #7299db",
"W1 c #6591d6",
"X1 c #1d2b3e",
"Y1 c #283a54",
"Z1 c #6c99e0",
"a1 c #74a0e5",
"b1 c #84abea",
"c1 c #9bb9e6",
"d1 c #b7cef5",
"e1 c #e1ebfd",
"f1 c #f2f6fc",
"g1 c #bfd3ee",
"h1 c #93b7f5",
"i1 c #8bb2f2",
"j1 c #83abed",
"k1 c #6e96d8",
"l1 c #6794dc",
"m1 c #121b27",
"n1 c #202f43",
"o1 c #8aade5",
"p1 c #aac6f0",
"q1 c #aac3eb",
"r1 c #c1d8fc",
"s1 c #d0e1fd",
"t1 c #dde9fd",
"u1 c #eaf2fe",
"v1 c #3c4b5b",
"w1 c #8fb6f4",
"x1 c #4c6b9b",
"y1 c #6997e0",
"z1 c #405f8e",
"02 c #000200",
"12 c #8ea8ce",
"22 c #71829b",
"32 c #ccdffc",
"42 c #e1ebf6",
"52 c #96b9f3",
"62 c #6b94d3",
"72 c #6795df",
"82 c #4f7dc1",
"92 c #426cab",
":2 c #4c7ecc",
";2 c #4b7ac3",
"A2 c #446aa2",
"B2 c #94b2e2",
"C2 c #586578",
"D2 c #d6e2f3",
"E2 c #4a5258",
"F2 c #9dbef4",
"G2 c #5f8dd3",
"H2 c #5d8cd9",
"I2 c #487cce",
"J2 c #729bdc",
"K2 c #9db9e9",
"L2 c #96aed6",
"M2 c #aec8f2",
"N2 c #3c4c5e",
"O2 c #b4c9e3",
"P2 c #8db4f3",
"Q2 c #84aded",
"R2 c #7da7ea",
"S2 c #74a0e6",
"T2 c #5d83bf",
"U2 c #5b8cd9",
"V2 c #5486d5",
"W2 c #4c80d1",
"X2 c #457cce",
"Y2 c #5888d5",
"Z2 c #93b3e3",
"a2 c #9bb9e9",
"b2 c #a1beeb",
"c2 c #93a9cd",
"d2 c #d3e2f8",
"e2 c #565656",
"f2 c #3a5e86",
"g2 c #bad1f2",
"h2 c #8eb4f3",
"i2 c #86adee",
"j2 c #7ea8ea",
"k2 c #75a1e6",
"l2 c #6e9be2",
"m2 c #5e8edb",
"n2 c #5788d7",
"o2 c #5284d3",
"p2 c #598ad5",
"q2 c #8fb1e3",
"r2 c #99b6e8",
"s2 c #9db9e3",
"t2 c #b1c9f3",
"u2 c #b5cdf5",
"v2 c #bfd6fb",
"w2 c #d3e1f3",
"x2 c #4b5258",
"y2 c #385d82",
"z2 c #bdd0e6",
"03 c #a1c1f7",
"13 c #8fb5f4",
"23 c #88aeee",
"33 c #80a9eb",
"43 c #78a2e8",
"53 c #719ee3",
"63 c #6594dc",
"73 c #749edf",
"83 c #88abe2",
"93 c #97b6e6",
":3 c #99b7e8",
";3 c #9dbae9",
"A3 c #a0bdea",
"B3 c #96b1d8",
"C3 c #bcd2f8",
"D3 c #d2e0f4",
"E3 c #444f5b",
"F3 c #d5e2f4",
"G3 c #b5d0fb",
"H3 c #9dbef8",
"I3 c #9ebff6",
"J3 c #a0c0f3",
"K3 c #a4c1f2",
"L3 c #a8c4f0",
"M3 c #a7c1ee",
"N3 c #9bb6e2",
"O3 c #9ebae9",
"P3 c #9fbce9",
"Q3 c #a0bdeb",
"R3 c #a2bfec",
"S3 c #a1bce6",
"T3 c #aec9f2",
"U3 c #b4ccf4",
"V3 c #c1d7fc",
"W3 c #d5e3f7",
"X3 c #bed5fb",
"Y3 c #c0d7fc",
"Z3 c #aac0e5",
"a3 c #a1bde5",
"b3 c #a2beeb",
"c3 c #a2bfeb",
"d3 c #a4c0ec",
"e3 c #a7c1ed",
"f3 c #aac4ee",
"g3 c #acc3e5",
"h3 c #bed6fb",
"i3 c #c7dbfc",
"j3 c #d6e5fc",
"k3 c #bdccdd",
"l3 c #becedf",
"m3 c #d9e6fc",
"n3 c #8c9eb5",
"o3 c #b1c6e9",
"p3 c #a8c3ee",
"q3 c #9eb7e2",
"r3 c #a7c1ec",
"s3 c #a9c4ee",
"t3 c #abc6f0",
"u3 c #adc8f2",
"v3 c #1e2224",
"w3 c #ffffff",
"x3 c #aec4e3",
"y3 c #e5edfc",
"z3 c #a8bace",
"04 c #eaf0fc",
"14 c #dfebfd",
"24 c #d3e3fd",
"34 c #79879b",
"44 c #acc7f0",
"54 c #9bb3d7",
"64 c #9db4d8",
"74 c #adc8f0",
"84 c #aec9f3",
"94 c #b3ccf3",
":4 c #798aa2",
";4 c #000000",
"A4 c #dce9fb",
"B4 c #ebf3fe",
"C4 c #ecf3fb",
"D4 c #54779d",
"E4 c #ccd8e6",
"F4 c #e6eefc",
"G4 c #e0eafb",
"H4 c #d7e5f6",
"I4 c #d1e0f4",
"J4 c #c9dbf6",
"K4 c #b3c8ea",
"L4 c #b2caf3",
"M4 c #95abcd",
"N4 c #93a8c9",
"O4 c #b3ccf4",
"P4 c #b4cdf4",
"Q4 c #b9d1f6",
"R4 c #a0b4d5",
"S4 c #758399",
"T4 c #8694aa",
"U4 c #9ba9bc",
"V4 c #c8d5e8",
"W4 c #e6eefe",
"X4 c #f3f6fe",
"Y4 c #ebf2f7",
"Z4 c #3a608c",
"a4 c #c3d5e9",
"b4 c #cedff8",
"c4 c #b6cef5",
"d4 c #8294ad",
"e4 c #99adcd",
"f4 c #b6d0f6",
"g4 c #b7d0f6",
"h4 c #cddffb",
"i4 c #d3e3fc",
"j4 c #e3ecfd",
"k4 c #edf4fe",
"l4 c #f6fbfd",
"m4 c #c9d6e3",
"n4 c #8ca7c4",
"o4 c #cddff6",
"p4 c #bad2f7",
"q4 c #a8bedf",
"r4 c #9eb2d0",
"s4 c #bcd3f8",
"t4 c #bdd3f8",
"u4 c #c1d7fb",
"v4 c #d3e2f6",
"w4 c #c0d2e8",
"x4 c #d0dceb",
"y4 c #e9f0fb",
"z4 c #f2f6fd",
"05 c #dbe5ee",
"15 c #9db3cc",
"25 c #cee0fb",
"35 c #c0d6fb",
"45 c #bed5f8",
"55 c #b7ccee",
"65 c #c0d7fb",
"75 c #c9dcfb",
"85 c #c8d8ea",
"95 c #d8e5f5",
":5 c #cddffc",
";5 c #c9ddfc",
"A5 c #caddfc",
"B5 c #d0e1fc",
"C5 c #c1d2e5",
"D5 c #d7e3f2",
"E5 c #d9e8fd",
"F5 c #d7e5fd",
"G5 c #d8e6fd",
"H5 c #dfeaf7",
"I5 c #cdd9e9",
"J5 c #e8eefd",
"K5 c #e5edfd",
"L5 c #e5eefd",
"M5 c #d6e2f0",
"N5 c #c9d6e6",
"O5 c #e3ecf5",
"P5 c #e5edf6",
"Q5 c #e0e9f4",
"R5 c #4c6f98",
"                              R5R5R5R5                          ",
"                            R5Q5P5O5N5R5                        ",
"                          R5M5L5K5L5J5I5R5                      ",
"                          R5H5G5F5G5E5D5R5                      ",
"                        R5C5B5A5;5A5:595R5                      ",
"        R5R5R5R5    R5R5857565554535652515R5                    ",
"      R505z4y4x4R5R5w4v4u4t4s4r4q4p4s4t4o4n4R5                  ",
"    R5m4l4k4j4G5i4h4u4t4p4g4f4e4d4c4f4g4p4b4a4R5R5R5R5R5R5      ",
"    Z4Y4X4W4V4U4T4S4R4Q4c4P4O4N4M4L4O4P4c4Q4K4J4I4H4G4F4E4R5    ",
"    D4C4B4A4;4;4;4;4;4:4948474645444748434;4;4;4;4;4241404R5    ",
"    R5z3y3E5:5x3;4w3w3v3u3t3s3r3q3p3s3t3;4w3w3;4o3n3:5G5m3l3R5  ",
"      R5k3j3i3h3g3;4;4;4f3e3d3c3b3c3d3a3;4;4;4Z3p4h3Y3X3:5M5R5  ",
"        R5W3V3t4g4U3T3;4S3R3Q3P3O3P3Q3N3;4M3L3K3J3I3H3G3F3R5E3  ",
"        R5D335C3c4L444;4B3A3;3:393837363;4534333231303z2y2x2    ",
"        R5w2v2p4u2t2t3;4s2O3r2q2p2o2n2m2;4l2k2j2i2h2g2f2e2      ",
"        R5d2h3p4P4t2c2;4b2a2Z2Y2X2W2V2U2;4T2S2R2Q2P2O2N2        ",
"        R5A5h3p4P4M2;4L2b2K2J2W2I2W2V2H2G2;4S2R2Q2F2R5E2        ",
"      R5D2;5v2p4u2C2;4e3b3B2A2;2:29282m272;462j2i252R5E2        ",
"    R542E53265s4c4;422s312;4;4;4;4;402z1y1x1;43323w1R5v1        ",
"  R5C4u1t1s1r1t4g4;4q1p1o1n1;4;4;4;4m1l1l2k1;4j1i1h1g1R5        ",
"  R5f1k4e124i3h3d1;4c1b1a1Z1Y1;4;4X1W1l2a1V1;4U1h2T1S1R1R5      ",
"  R5Q1X4P1E5:5O1N1;4M1L1K1k2J1I1H1G1J1k2F1E1;4D1h1C1B1A1;1R5    ",
"    R5:1B49181716151;44131R22111014321R2z0;4y0x061w0v0u0t0R5    ",
"      R5s0R5R5R5r0q0p0D1U1o0n0m0l033n0o0k0j0x0i0h0g0f0e0R5d0    ",
"        c0d0e2  b0R5a0h1Z0Y0X0U1U1U1X0W0V0U0T0S0R0Q0P0O0R5      ",
"                    R5N0M0L0x013Z013K0J0R5R5R5R5R5I0H0R5e2      ",
"                      R5G0F0E06161D0C0R5e2        R5R5e2        ",
"                      R5B0A0;0S1G0:0R5e2                        ",
"                      R590i3r1v280R570                          ",
"                      R56050403020R5                            ",
"                        10R5R5R5R500                            ",
"                              e2                                "};
