/* XPM */
static char *image[] = {
"48 48 799 2",
"   c None",
"00 c #3a3c38",
"10 c #474846",
"20 c #4f504d",
"30 c #50524e",
"40 c #4d4e4c",
"50 c #444542",
"60 c #373937",
"70 c #4f524e",
"80 c #525451",
"90 c #70736f",
":0 c #7f827d",
";0 c #828680",
"A0 c #848782",
"B0 c #818580",
"C0 c #828580",
"D0 c #838782",
"E0 c #828681",
"F0 c #7d807c",
"G0 c #696b67",
"H0 c #50514f",
"I0 c #646662",
"J0 c #848983",
"K0 c #868b86",
"L0 c #a4a6a3",
"M0 c #e4e5e3",
"N0 c #dcdedc",
"O0 c #c3c5c2",
"P0 c #a0a39f",
"Q0 c #858984",
"R0 c #838681",
"S0 c #474a46",
"T0 c #4b4d4a",
"U0 c #757874",
"V0 c #939690",
"W0 c #b6b9b5",
"X0 c #c4c7c2",
"Y0 c #bdbfbb",
"Z0 c #babcb7",
"a0 c #b6b9b3",
"b0 c #bbbdb8",
"c0 c #bec1bc",
"d0 c #c7c9c5",
"e0 c #b3b6b1",
"f0 c #8f928d",
"g0 c #626561",
"h0 c #3f413e",
"i0 c #4e504e",
"j0 c #989c95",
"k0 c #b3b5b0",
"l0 c #b5b8b2",
"m0 c #afb2ac",
"n0 c #acafa9",
"o0 c #b1b3ae",
"p0 c #babdb8",
"q0 c #b1b5af",
"r0 c #8a8d88",
"s0 c #4f504c",
"t0 c #4c4e4c",
"u0 c #acaea9",
"v0 c #999b96",
"w0 c #939590",
"x0 c #939591",
"y0 c #a6a8a3",
"z0 c #a9aca6",
"01 c #6d706c",
"11 c #434542",
"21 c #727470",
"31 c #a3a6a1",
"41 c #949691",
"51 c #8c8e8a",
"61 c #a4a7a1",
"71 c #adb0aa",
"81 c #9a9d97",
"91 c #61655f",
":1 c #4c4d4b",
";1 c #424442",
"A1 c #4e4f4d",
"B1 c #60615e",
"C1 c #838581",
"D1 c #858783",
"E1 c #7b7e79",
"F1 c #575b56",
"G1 c #4d4f4c",
"H1 c #3c3c3a",
"I1 c #525252",
"J1 c #515151",
"K1 c #4d4d4d",
"L1 c #4e4e4e",
"M1 c #4f4f4f",
"N1 c #505050",
"O1 c #535353",
"P1 c #616261",
"Q1 c #656665",
"R1 c #666766",
"S1 c #686867",
"T1 c #696968",
"U1 c #474746",
"V1 c #4b4b4a",
"W1 c #5f5f5e",
"X1 c #606060",
"Y1 c #616161",
"Z1 c #636363",
"a1 c #676967",
"b1 c #6a6b6a",
"c1 c #6b6c6b",
"d1 c #6d6f6d",
"e1 c #707170",
"f1 c #727472",
"g1 c #747574",
"h1 c #737373",
"i1 c #4e4f4e",
"j1 c #a0a19f",
"k1 c #bbbcb9",
"l1 c #bcbdba",
"m1 c #bcbeba",
"n1 c #bdbebb",
"o1 c #bdbfbc",
"p1 c #bec0bd",
"q1 c #bfc0bd",
"r1 c #c1c2bf",
"s1 c #c1c3bf",
"t1 c #c3c5c1",
"u1 c #c4c6c2",
"v1 c #c5c6c4",
"w1 c #c5c7c4",
"x1 c #c6c8c5",
"y1 c #c7c9c6",
"z1 c #c8cac7",
"02 c #c9cac7",
"12 c #b8b9b6",
"22 c #282828",
"32 c #cccdca",
"42 c #cdcecb",
"52 c #cecfcc",
"62 c #ced0cd",
"72 c #cfd0cd",
"82 c #d0d2ce",
"92 c #d0d2cf",
":2 c #d2d3d0",
";2 c #d3d4d1",
"A2 c #d4d5d2",
"B2 c #d5d6d4",
"C2 c #d4d5d3",
"D2 c #abaca9",
"E2 c #767676",
"F2 c #81817f",
"G2 c #d4d6d1",
"H2 c #b1b4ae",
"I2 c #b2b5af",
"J2 c #b3b6b0",
"K2 c #b3b7b1",
"L2 c #b4b7b2",
"M2 c #b5b7b2",
"N2 c #b6b7b2",
"O2 c #b6b8b2",
"P2 c #b7b8b3",
"Q2 c #b7b9b3",
"R2 c #b7b9b4",
"S2 c #b8bab4",
"T2 c #020202",
"U2 c #b8bbb5",
"V2 c #b8bcb5",
"W2 c #b9bcb6",
"X2 c #b9bdb6",
"Y2 c #babdb7",
"Z2 c #babeb7",
"a2 c #bbbeb8",
"b2 c #bbbfb8",
"c2 c #bcbfb8",
"d2 c #c0c3bd",
"e2 c #808080",
"f2 c #8c8d8b",
"g2 c #d5d7d2",
"h2 c #c8cbc4",
"i2 c #c9ccc5",
"j2 c #cacdc6",
"k2 c #696b66",
"l2 c #71736f",
"m2 c #060706",
"n2 c #040404",
"o2 c #d1d5cd",
"p2 c #d2d5ce",
"q2 c #d2d6ce",
"r2 c #d3d7cf",
"s2 c #e9eae7",
"t2 c #858584",
"u2 c #d6d9d3",
"v2 c #c8cbc6",
"w2 c #bec1c3",
"x2 c #bfc2c4",
"y2 c #c0c3c5",
"z2 c #c1c5c5",
"03 c #000000",
"13 c #c2c6c6",
"23 c #c3c6c7",
"33 c #c3c7c7",
"43 c #c4c7c8",
"53 c #c4c8c8",
"63 c #c5c8c9",
"73 c #c5c9c9",
"83 c #c6c9ca",
"93 c #c6caca",
":3 c #c7cacb",
";3 c #c7cbcb",
"A3 c #cbcecd",
"B3 c #868686",
"C3 c #7b7c7b",
"D3 c #d9dbd6",
"E3 c #cbcec7",
"F3 c #8f91b0",
"G3 c #333388",
"H3 c #41418c",
"I3 c #40418c",
"J3 c #40418b",
"K3 c #0f0f20",
"L3 c #0e0e1f",
"M3 c #40408b",
"N3 c #40408a",
"O3 c #3f408a",
"P3 c #3e3f89",
"Q3 c #3f3f89",
"R3 c #3e3e89",
"S3 c #3e3e88",
"T3 c #38398d",
"U3 c #d6dad2",
"V3 c #818181",
"W3 c #747473",
"X3 c #daddd8",
"Y3 c #cbcfc7",
"Z3 c #9a9db5",
"a3 c #3d3d86",
"b3 c #51518a",
"c3 c #505089",
"d3 c #13131f",
"e3 c #4f4f87",
"f3 c #12121f",
"g3 c #12121e",
"h3 c #4e4e85",
"i3 c #474891",
"j3 c #d7dad3",
"k3 c #eeefec",
"l3 c #7e7e7e",
"m3 c #6d6d6d",
"n3 c #dddfda",
"o3 c #a9abbb",
"p3 c #3a3b85",
"q3 c #4e4e86",
"r3 c #4d4d85",
"s3 c #4d4d84",
"t3 c #4c4c84",
"u3 c #4c4c83",
"v3 c #4c4a7c",
"w3 c #574b4f",
"x3 c #afa798",
"y3 c #b7b7c2",
"z3 c #4a4b92",
"04 c #d7dbd3",
"14 c #7f807f",
"24 c #dfe1dc",
"34 c #cccfc8",
"44 c #b5b8bf",
"54 c #393a85",
"64 c #4b4b83",
"74 c #4b4b82",
"84 c #4b4b81",
"94 c #4a4a81",
":4 c #4a4a80",
";4 c #494980",
"A4 c #4b4872",
"B4 c #59473d",
"C4 c #553d14",
"D4 c #604517",
"E4 c #49487c",
"F4 c #47477d",
"G4 c #47477c",
"H4 c #46467c",
"I4 c #45457b",
"J4 c #444478",
"K4 c #4e4f94",
"L4 c #daddd6",
"M4 c #828282",
"N4 c #e1e3de",
"O4 c #c2c6c5",
"P4 c #373785",
"Q4 c #49497f",
"R4 c #48487f",
"S4 c #c0c0c7",
"T4 c #c1bdb6",
"U4 c #8e7a53",
"V4 c #7c612a",
"W4 c #2d2410",
"X4 c #ab9870",
"Y4 c #a59a84",
"Z4 c #d2d2d2",
"a4 c #b6b6c0",
"b4 c #47477a",
"c4 c #4c4c7d",
"d4 c #4b4b7c",
"e4 c #525397",
"f4 c #dbdfd8",
"g4 c #e8e9e7",
"h4 c #868685",
"i4 c #585858",
"j4 c #cdd0c9",
"k4 c #cdd1c9",
"l4 c #cccfc9",
"m4 c #353584",
"n4 c #46467b",
"o4 c #45457a",
"p4 c #444479",
"q4 c #494462",
"r4 c #624923",
"s4 c #86672e",
"t4 c #c8a559",
"u4 c #dbc07a",
"v4 c #ceb275",
"w4 c #634b20",
"x4 c #414176",
"y4 c #414175",
"z4 c #414174",
"05 c #454577",
"15 c #4d4d7c",
"25 c #50507f",
"35 c #494979",
"45 c #565798",
"55 c #dde0d9",
"65 c #e5e6e4",
"75 c #878887",
"85 c #555555",
"95 c #e3e5e1",
":5 c #373886",
";5 c #434377",
"A5 c #424277",
"B5 c #424276",
"C5 c #4d4350",
"D5 c #624715",
"E5 c #b89345",
"F5 c #dfc889",
"G5 c #dfce93",
"H5 c #e0d097",
"I5 c #94783c",
"J5 c #4a4152",
"K5 c #3f3f72",
"L5 c #3e3e70",
"M5 c #3e3e71",
"N5 c #464677",
"O5 c #4f4f7d",
"P5 c #51517f",
"Q5 c #535380",
"R5 c #484877",
"S5 c #5e5f9d",
"T5 c #dfe2dc",
"U5 c #e1e3e0",
"V5 c #8a8b8a",
"W5 c #595959",
"X5 c #e0e2df",
"Y5 c #ced1ca",
"Z5 c #3b3b87",
"a5 c #404074",
"b5 c #404073",
"c5 c #3f3f73",
"d5 c #514342",
"e5 c #664916",
"f5 c #9e701b",
"g5 c #cc942a",
"h5 c #ddc582",
"i5 c #e5ddad",
"j5 c #dac78d",
"k5 c #5f451c",
"l5 c #3d3d6f",
"m5 c #3c3c6f",
"n5 c #3c3c6e",
"o5 c #3b3b6d",
"p5 c #414172",
"q5 c #4e4e7a",
"r5 c #52527e",
"s5 c #53537f",
"t5 c #555580",
"u5 c #434376",
"v5 c #6e6fa3",
"w5 c #e1e4de",
"x5 c #dedfdd",
"y5 c #5d5d5d",
"z5 c #dcddda",
"06 c #d1d4cd",
"16 c #3f4089",
"26 c #3d3d70",
"36 c #58452f",
"46 c #715116",
"56 c #a7761c",
"66 c #cf9832",
"76 c #dcb46b",
"86 c #d9b672",
"96 c #7c632e",
":6 c #423c53",
";6 c #3a3a6c",
"A6 c #3a3a6b",
"B6 c #39396b",
"C6 c #39396a",
"D6 c #3d3d6d",
"E6 c #4c4c78",
"F6 c #53537e",
"G6 c #54547f",
"H6 c #55557f",
"I6 c #565680",
"J6 c #575780",
"K6 c #3f3f75",
"L6 c #7d80ab",
"M6 c #e3e5e0",
"N6 c #dadbd9",
"O6 c #5f5f5f",
"P6 c #d8dad6",
"Q6 c #d3d6cf",
"R6 c #cfd2cb",
"S6 c #43438b",
"T6 c #3b3b6c",
"U6 c #3c3b68",
"V6 c #5b4525",
"W6 c #755416",
"X6 c #b17d1e",
"Y6 c #d09a37",
"Z6 c #ddb66e",
"a6 c #d5af69",
"b6 c #755926",
"c6 c #4a3e43",
"d6 c #383869",
"e6 c #373767",
"f6 c #373768",
"g6 c #434370",
"h6 c #52527c",
"i6 c #54547e",
"j6 c #56567f",
"k6 c #57577f",
"l6 c #58587f",
"m6 c #595980",
"n6 c #3a3a72",
"o6 c #9092b4",
"p6 c #e4e7e1",
"q6 c #d5d6d3",
"r6 c #8c8c8c",
"s6 c #626261",
"t6 c #d4d6d3",
"u6 c #d5d7d1",
"v6 c #cfd3cb",
"w6 c #46478d",
"x6 c #3c3960",
"y6 c #5e441c",
"z6 c #7f5916",
"07 c #b9841f",
"17 c #d29f3f",
"27 c #d1ac65",
"37 c #6f5321",
"47 c #413a4b",
"57 c #353565",
"67 c #353564",
"77 c #343464",
"87 c #3d3d6a",
"97 c #50507a",
":7 c #55557e",
";7 c #56567e",
"A7 c #57577e",
"B7 c #59597f",
"C7 c #5a5a80",
"D7 c #5b5b80",
"E7 c #363671",
"F7 c #a1a4be",
"G7 c #e6e8e3",
"H7 c #d1d2cf",
"I7 c #888888",
"J7 c #656564",
"K7 c #d0d1ce",
"L7 c #d7dad4",
"M7 c #d0d3cc",
"N7 c #d0d4cc",
"O7 c #4d497d",
"P7 c #604618",
"Q7 c #896117",
"R7 c #c18920",
"S7 c #d3a145",
"T7 c #c9a45e",
"U7 c #684e1c",
"V7 c #3b3650",
"W7 c #323262",
"X7 c #323261",
"Y7 c #333362",
"Z7 c #464671",
"a7 c #57577d",
"b7 c #58587d",
"c7 c #58587e",
"d7 c #5c5c81",
"e7 c #5d5d82",
"f7 c #373775",
"g7 c #b0b2c5",
"h7 c #e8eae5",
"i7 c #676767",
"j7 c #cbccca",
"k7 c #d8dad5",
"l7 c #bcbeb9",
"m7 c #ada998",
"n7 c #63481b",
"o7 c #916718",
"p7 c #c58c21",
"q7 c #cb9023",
"r7 c #d6a852",
"s7 c #c19b56",
"t7 c #62481b",
"u7 c #363253",
"v7 c #30305f",
"w7 c #30305e",
"x7 c #2f2f5e",
"y7 c #31315e",
"z7 c #42426c",
"08 c #56567b",
"18 c #5d5d81",
"28 c #5e5e82",
"38 c #606083",
"48 c #373777",
"58 c #bcc0ca",
"68 c #e9ece7",
"78 c #c6c6c5",
"88 c #656765",
"98 c #c7c8c5",
":8 c #dbded8",
";8 c #a29981",
"A8 c #6f531d",
"B8 c #9a6d19",
"C8 c #c98e22",
"D8 c #cc9225",
"E8 c #d8ad5b",
"F8 c #b48f4f",
"G8 c #5d441b",
"H8 c #323055",
"I8 c #2d2d5b",
"J8 c #2e2e5b",
"K8 c #3d3d67",
"L8 c #535378",
"M8 c #5a5a7d",
"N8 c #5b5b7e",
"O8 c #5e5e81",
"P8 c #5f5f82",
"Q8 c #36377a",
"R8 c #c8ccce",
"S8 c #c0c0bf",
"T8 c #656565",
"U8 c #c0c2bf",
"V8 c #a49779",
"W8 c #72551c",
"X8 c #a2721b",
"Y8 c #cd942a",
"Z8 c #dab062",
"a8 c #deb873",
"b8 c #a58344",
"c8 c #59411e",
"d8 c #2e2c55",
"e8 c #2b2b58",
"f8 c #30305c",
"g8 c #42426a",
"h8 c #56567a",
"i8 c #5c5c7f",
"j8 c #5f5f81",
"k8 c #606082",
"l8 c #616182",
"m8 c #36377b",
"n8 c #d6dad5",
"o8 c #626260",
"p8 c #847049",
"q8 c #7b5822",
"r8 c #b17e1e",
"s8 c #ce972f",
"t8 c #dcb469",
"u8 c #ddb772",
"v8 c #937239",
"w8 c #533e25",
"x8 c #2b2a54",
"y8 c #363660",
"z8 c #4b4b70",
"09 c #5c5c7e",
"19 c #5d5d7e",
"29 c #5d5d7f",
"39 c #5e5e80",
"49 c #5f5f80",
"59 c #606081",
"69 c #636382",
"79 c #646483",
"89 c #676785",
"99 c #35357c",
":9 c #dce0d8",
";9 c #b3b4b2",
"A9 c #674b1a",
"B9 c #a1796b",
"C9 c #b37d62",
"D9 c #cb9022",
"E9 c #cf9934",
"F9 c #ddb56d",
"G9 c #dbb56e",
"H9 c #86682f",
"I9 c #544331",
"J9 c #4a4a6e",
"K9 c #59597b",
"L9 c #646482",
"M9 c #656583",
"N9 c #676784",
"O9 c #686885",
"P9 c #686886",
"Q9 c #6a6a87",
"R9 c #6c6c89",
"S9 c #36377e",
"T9 c #eff1ee",
"U9 c #acadac",
"V9 c #67460e",
"W9 c #9d381f",
"X9 c #afafaf",
"Y9 c #b6aeae",
"Z9 c #d49264",
"a9 c #deb871",
"b9 c #d6b068",
"c9 c #775a25",
"d9 c #61544d",
"e9 c #616180",
"f9 c #666683",
"g9 c #696986",
"h9 c #6c6c88",
"i9 c #70708a",
"j9 c #38387f",
"k9 c #f1f2ef",
"l9 c #a4a4a3",
"m9 c #67430d",
"n9 c #a4250e",
"o9 c #c61111",
"p9 c #c48787",
"q9 c #b9b9b9",
"r9 c #bebebe",
"s9 c #c9bbb8",
"t9 c #83693e",
"u9 c #453c55",
"v9 c #61617f",
"w9 c #626280",
"x9 c #636381",
"y9 c #646481",
"z9 c #656582",
"0: c #666682",
"1: c #686884",
"2: c #6b6b87",
"3: c #6e6e87",
"4: c #3b3c81",
"5: c #f2f4f1",
"6: c #9d9d9d",
"7: c #a03911",
"8: c #cf1313",
"9: c #f71b1b",
":: c #fe4848",
";: c #ea8e8e",
"A: c #dcac9f",
"B: c #7e6436",
"C: c #a4a19f",
"D: c #3c3c76",
"E: c #656581",
"F: c #666681",
"G: c #676782",
"H: c #676783",
"I: c #696984",
"J: c #696985",
"K: c #6a6a86",
"L: c #6f6f88",
"M: c #3e3f84",
"N: c #f3f5f2",
"O: c #969696",
"P: c #a34515",
"Q: c #ff1f1f",
"R: c #ff5151",
"S: c #ff8383",
"T: c #e7a488",
"U: c #775c2a",
"V: c #b1aea3",
"W: c #c3c6c9",
"X: c #3d3d7a",
"Y: c #686883",
"Z: c #696983",
"a: c #6a6a84",
"b: c #6a6a85",
"c: c #6b6b86",
"d: c #6c6c87",
"e: c #6d6d88",
"f: c #6e6e88",
"g: c #6f6f89",
"h: c #707089",
"i: c #71718a",
"j: c #72728b",
"k: c #73738b",
"l: c #74748c",
"m: c #74748d",
"n: c #75758d",
"o: c #76768e",
"p: c #77778f",
"q: c #787890",
"r: c #797990",
"s: c #7a7a91",
"t: c #7b7b92",
"u: c #7c7c93",
"v: c #7b7b93",
"w: c #7c7c94",
"x: c #7d7d95",
"y: c #777790",
"z: c #444588",
"0; c #dde1d9",
"1; c #f4f5f3",
"2; c #909090",
"3; c #67480d",
"4; c #b15c30",
"5; c #de8567",
"6; c #be8d66",
"7; c #826b3c",
"8; c #c4c4b9",
"9; c #b9bcb7",
":; c #d1d4cf",
";; c #32337b",
"A; c #54547a",
"B; c #55557b",
"C; c #56567c",
"D; c #57577c",
"E; c #58587c",
"F; c #59597d",
"G; c #59597e",
"H; c #5a5a7f",
"I; c #5b5b7f",
"J; c #5c5c80",
"K; c #5d5d80",
"L; c #5e5e7f",
"M; c #5f5f7f",
"N; c #606080",
"O; c #616181",
"P; c #626281",
"Q; c #626282",
"R; c #636383",
"S; c #646484",
"T; c #656584",
"U; c #666684",
"V; c #5e5e7e",
"W; c #48498c",
"X; c #dee2da",
"Y; c #f2f3f1",
"Z; c #929292",
"a; c #7d786c",
"b; c #d4d8d0",
"c; c #d5d8d1",
"d; c #d5d9d1",
"e; c #7b7ea9",
"f; c #7173a3",
"g; c #7174a3",
"h; c #7274a3",
"i; c #7374a4",
"j; c #7375a4",
"k; c #7376a4",
"l; c #7476a4",
"m; c #7476a5",
"n; c #7577a6",
"o; c #7677a6",
"p; c #a2a4bd",
"q; c #dfe3dc",
"r; c #eff0ee",
"s; c #929392",
"t; c #787878",
"u; c #eef0ed",
"v; c #e9eae6",
"w; c #e9ebe6",
"x; c #e9ebe7",
"y; c #eaebe8",
"z; c #eaece8",
"0A c #ebece9",
"1A c #ebede9",
"2A c #ecedea",
"3A c #eceeea",
"4A c #edeeeb",
"5A c #edefeb",
"6A c #eef0ec",
"7A c #e6e7e4",
"8A c #959595",
"9A c #7b7b7a",
":A c #8b8b8b",
";A c #adaeac",
"AA c #aeaead",
"BA c #aeb0ae",
"CA c #b0b1ae",
"DA c #b1b2b0",
"EA c #b2b2b1",
"FA c #b2b4b2",
"GA c #b3b5b2",
"HA c #b4b5b3",
"IA c #b5b5b4",
"JA c #b5b6b5",
"KA c #b6b7b5",
"LA c #b7b8b6",
"MA c #b8b9b7",
"NA c #b9bab9",
"OA c #bcbcba",
"PA c #bcbcbb",
"QA c #babbb9",
"RA c #989898",
"                                                                                                ",
"                                                                                                ",
"                                                                                                ",
"                                                                                                ",
"                                                                                                ",
"            RAQAPAPAPAPAPAPAPAPAPAPAOAOAOAQANANAMAMALAKAJAIAHAGAFAEADADACABAAA;A;A:A9A          ",
"          8A7A6A5A5A5A5A5A5A5A5A4A3A3A3A3A3A2A1A1A1A1A1A0Az;z;z;z;z;y;x;x;x;w;w;v;u;t;          ",
"          s;r;q;p;o;o;o;o;o;o;n;n;n;m;m;m;m;l;l;l;k;k;j;j;j;i;h;h;h;g;g;f;e;d;c;b;u;a;          ",
"          Z;Y;X;W;V;U;T;T;S;R;Q;P;P;O;N;M;M;L;K;J;I;H;G;G;F;E;D;D;C;B;A;A;;;:;9;8;7;6;5;4;3;    ",
"          2;1;0;z:y:x:w:v:u:t:s:r:q:p:o:n:m:l:k:j:i:h:g:f:e:d:c:b:b:a:Z:Y:X:W:V:U:T:S:R:Q:P:    ",
"          O:N:0;M:p:r:q:p:o:n:m:l:k:j:i:h:L:f:e:d:c:K:b:J:I:I:Y:H:G:F:E:E:D:C:B:A:;:::9:8:7:    ",
"          6:5:0;4:m:l:k:j:i:h:L:L:3:e:d:d:2:K:J:J:I:1:1:H:0:z9E:y9x9w9w9v9u9t9s9r9q9p9o9n9m9    ",
"          l9k90;j9i9g:g:f:e:h9d:c:K:K:g9J:I:1:H:H:f9z9y9y9x9w9e9e9N;M;M;d9c9b9a9Z9Y9X9W9V9      ",
"          U9T90;S9R9h92:Q9g9g9P9O9O9N9f9f9M9z9L9x9x9P;O;N;N;M;L;L;K9J9I9H9G9F9E9D9C9B9A9        ",
"          ;96A:999g9P9g9O989U;U;M9797969x9P;P;O;5949M;39291909z8y8x8w8v8u8t8s8D9r8q8p8o8        ",
"          NA3An8m889U;T;M979R;69Q;l8k8k8j849393929i81909h8g8f8e8d8c8b8a8Z8Y8D9X8W8V8U8T8        ",
"          S81AR8Q8S;R;Q;Q;l8k8P8j8O8O8K;K;29i8i8N8M8L8K8J8I8I8H8G8F8a8E8D8C8B8A8;8:89888        ",
"          78685848l838P828O81818K;K;J;I;N8H;G;F;08z7y7x7w7v7u7t7s7a8r7q7p7o7n7m7l7k7j7i7        ",
"          j7h7g7f7e71818K;d7J;I;H;H;G;G;c7b7a7Z7Y7X7X7W7Y7V7U7T7a8S7D9R7Q7P7O7N7M7L7K7J7        ",
"        I7H7G7F7E7d7D7D7C7B7B7B7c7A7A7;7:797877777675757473727a917D907z6y6x6w6M7v6u6t6s6        ",
"        r6q6p6o6n6m6m6B7l6k6j6j6:7i6i6h6g6f6e6e6f6f6d6c6b6a6Z6Y6D9X6W6V6U6T6S6v6R6Q6P6O6        ",
"        r6N6M6L6K6J6I6H6H6H6G6i6i6F6E6D6C6C6B6A6;6;6:696867666D9564636D6262616R6R606z5y5        ",
"        :Ax5w5v5u5t5G6G6s5F6F6r5q5p5o5o5n5n5n5m5l526k5j5i5h5g5f5e5d5c5b5b5a5Z5R6Y5R6X5W5        ",
"        V5U5T5S5R5Q5s5r5P5r5O5N5M5L5M5M5M5K5K5c5c5J5I5H5G5F5E5D5C5B5B5A5;5;5:5Y5Y5Y59585        ",
"        7565554535P5P5251505z4b5a5a5z4y4y4x4B5B5B5w4v4u4t4s4r4q4p4o4o4o4n4n4m4l4k4j495i4        ",
"        h4g4f4e4d4c4b4a4Z4Z4Z4Z4Z4Z4Z4Z4Z4Z4Z4Z4Y4X4W4V4U4T4Z4Z4Z4Z4Z4S4R4Q4P4O4j4j4N4O6        ",
"        M40AL4K4J4p4p4p4o4o4o4I4n4n4H4G4F4F4F4E4D4C4B4A4Q4;4:4:49494847474645444j43424T8        ",
"        144A04z3H4G4F4y3Z4Z4Z4Z4Z4Z4Z4Z4Z4Z4Z4x3w3v374u3u3u3t3s3s3r3r3q3q3q3p3o33434n3m3        ",
"        l3k3j3i3;4;4:4949484747474u3u3t3t3s3r3r3h3g3f3q3e3e3e3f3d3c3c3c3b3b3a3Z334Y3X3W3        ",
"        V34AU3T3S3R3Q3Q3P3P3P3P3P3P31616O3N3N3M3M3L3K3M3M3J3J3L3K3J3I3I3H3H3G3F3E3E3D3C3        ",
"        B3z;U3A3;3;3:3938383736363534343332323130303z203030303y2y2x2x2x2w2w2w2v2E3E3u2t2        ",
"        :As2r2r2Q6Q6q2p2p2o20606N7M7M7v6n2m2l20303030303030303030303k2j2j2j2i2i2i2h2g2f2        ",
"        e2x;d2c2b2b2a2Z2Z2Y2Y2X2W2W2V2U2T203S2R2Q2P2P2O2N2M2L2L2L2K2J2J2I2I2I2H2H2I2G2F2        ",
"        E2D2C2B2t6A2;2:2:29282726252423222031202z1y1x1w1v1u1t1t1s1r1r1q1p1o1n1m1l1k1j1i1        ",
"          h1g1f1e1d1c1b1a1T8Z1Y1X1W1y5Y1V103U1T1S1R1R1Q1P1O1N1N1N1M1L1K1L1M1N1J1I1I1M1          ",
"                                H1G1F1E1D1D1D1D1D1D1D1D1C1B1A1;1                                ",
"                              :191817161515151515151515141713121G1                              ",
"                            1101z07171y0x0w0w0w0w0w0w0w0v07171u0D1t0                            ",
"                            s0r0q0p0o0n0n0n0n0n0n0n0n0n0n0m0l0k0j0i0                            ",
"                            h0g0f0e0t6q6d0c0b0R2a0Z0Y0X082:2W0V0U0T0                            ",
"                              S0F1R0Q0P0O0B2N0M0M0N0C2w1L0K0J0I0t0                              ",
"                                  i0H0G0F0E0D0C0B0A0;0:090807060                                ",
"                                        504030303030201000                                      ",
"                                                                                                ",
"                                                                                                ",
"                                                                                                ",
"                                                                                                ",
"                                                                                                "};
