/* XPM */
static char *image[] = {
"16 16 15 1",
"  c None",
"0 c #e5e5e5",
"1 c #cecece",
"2 c #b8b8b8",
"3 c #efefef",
"4 c #e2e2e2",
"5 c #e7e7e7",
"6 c #ababab",
"7 c #c7c7c7",
"8 c #e3e3e3",
"9 c #000000",
": c #f2f2f2",
"; c #ffffff",
"A c #dcdcdc",
"B c #f3f3f3",
"                ",
"                ",
" BAA ; :AA;     ",
";9999;;999A     ",
" :9999:;99;     ",
" ;99999 99;     ",
" ;99999999;     ",
" ;99899999; ;;  ",
" ;99;899999799  ",
" 6995  9999493; ",
" 299B   99992   ",
"  ;;;   99999   ",
"       9919999  ",
"       9909999  ",
"      ;;; ;;;;  ",
"                "};
