/* XPM */
static char *image[] = {
"32 32 8 1",
"  c None",
"0 c #00ff00",
"1 c #00ffff",
"2 c #ffff00",
"3 c #000000",
"4 c #c0c0c0",
"5 c #ffffff",
"6 c #808080",
"              6666666666666666  ",
"             655555555555555463 ",
"             653333333333335463 ",
"             653333333333335463 ",
"             653335533333335463 ",
"             653355553333335463 ",
"             653333355555335463 ",
"             653333355555335463 ",
"        66666353333353353335463 ",
"       655553653333353353335463 ",
"      6666633653333333333335463 ",
"     66666343653333333333335463 ",
"6666666663443655555555555555463 ",
" 655555634443644444444444444463 ",
"  666663444433333333333333333343",
"  666663444436666666666666666463",
"  655553444435566666655555555563",
"  655553444436622244433666664463",
"  655553444461122244545333334463",
"  65555346460111224545643444443 ",
"  6555536466401112545646333333  ",
"  655553466114011255646463      ",
"  654543646411401336464643      ",
"  645453466444113  3646463      ",
"  654543646646463  3111443      ",
"  645453466464646330411113      ",
"  654543646646465420444113      ",
"  64545346366465442004443       ",
"  65454363 64654522000443       ",
"  6454533   654544220003        ",
"  333333     6644222033         ",
"               666333           "};
