/* XPM */
static char *image[] = {
"48 48 445 2",
"   c None",
"00 c #cfcebb",
"10 c #bfb2a4",
"20 c #c6b18b",
"30 c #c6b28c",
"40 c #c6b28d",
"50 c #c6b28e",
"60 c #c6b38e",
"70 c #c6b38f",
"80 c #e5d0ba",
"90 c #d3bb93",
":0 c #d2ba92",
";0 c #ceb891",
"A0 c #cab590",
"B0 c #c6b290",
"C0 c #c2af8f",
"D0 c #beac8e",
"E0 c #baaa8d",
"F0 c #b6a78c",
"G0 c #b2a48b",
"H0 c #aea18a",
"I0 c #ab9f89",
"J0 c #a79c89",
"K0 c #a39988",
"L0 c #9f9687",
"M0 c #9b9386",
"N0 c #979085",
"O0 c #938e84",
"P0 c #8f8b83",
"Q0 c #8b8882",
"R0 c #878582",
"S0 c #838281",
"T0 c #8c6417",
"U0 c #8c6519",
"V0 c #8c651a",
"W0 c #8d661b",
"X0 c #936920",
"Y0 c #543c12",
"Z0 c #4c3610",
"a0 c #007c9f",
"b0 c #0099c4",
"c0 c #1c1406",
"d0 c #08272b",
"e0 c #0097c1",
"f0 c #0088af",
"g0 c #00151b",
"h0 c #8d651b",
"i0 c #8d661c",
"j0 c #8d661d",
"k0 c #8e6720",
"l0 c #008db5",
"m0 c #00c5fd",
"n0 c #00e1ff",
"o0 c #00e0ff",
"p0 c #2a1e09",
"q0 c #1e1f13",
"r0 c #0293ba",
"s0 c #00d6ff",
"t0 c #00d9ff",
"u0 c #00c1e2",
"v0 c #8d661e",
"w0 c #8d671f",
"x0 c #8e6721",
"y0 c #8e6822",
"z0 c #00c0f6",
"01 c #39280c",
"11 c #156976",
"21 c #00c4fb",
"31 c #00edff",
"41 c #00e2ff",
"51 c #090602",
"61 c #010100",
"71 c #b5b4a0",
"81 c #a09f77",
"91 c #a5a37a",
":1 c #8e6821",
";1 c #8e6823",
"A1 c #8f6925",
"B1 c #86601d",
"C1 c #7e5a1b",
"D1 c #00fdff",
"E1 c #47320f",
"F1 c #07a1ca",
"G1 c #069fc7",
"H1 c #0abcc8",
"I1 c #171005",
"J1 c #0f0b03",
"K1 c #070501",
"L1 c #a2a178",
"M1 c #a7a67b",
"N1 c #acab7e",
"O1 c #b1af81",
"P1 c #b6b484",
"Q1 c #8e6924",
"R1 c #8f6926",
"S1 c #8f6a27",
"T1 c #946a20",
"U1 c #8d641f",
"V1 c #654816",
"W1 c #553d12",
"X1 c #3c4a35",
"Y1 c #3d391e",
"Z1 c #1499ae",
"a1 c #00e3ff",
"b1 c #00deff",
"c1 c #261b08",
"d1 c #1e1506",
"e1 c #160f04",
"f1 c #060401",
"g1 c #a5a47a",
"h1 c #aaa97d",
"i1 c #afad7f",
"j1 c #b4b282",
"k1 c #bebc88",
"l1 c #c3c08b",
"m1 c #8f6a28",
"n1 c #8f6a29",
"o1 c #906b2a",
"p1 c #906b2c",
"q1 c #906c2d",
"r1 c #916d2f",
"s1 c #a37423",
"t1 c #9b6e22",
"u1 c #00fcff",
"v1 c #8b631e",
"w1 c #835d1c",
"x1 c #634715",
"y1 c #5b4114",
"z1 c #533b12",
"02 c #198498",
"12 c #00cfff",
"22 c #34250b",
"32 c #2c1f09",
"42 c #241a08",
"52 c #0d0902",
"62 c #f0efe6",
"72 c #a8a77b",
"82 c #b2b081",
"92 c #b7b584",
":2 c #c1be89",
";2 c #c6c38c",
"A2 c #906b2b",
"B2 c #906c2c",
"C2 c #916d30",
"D2 c #996d21",
"E2 c #916820",
"F2 c #89621e",
"G2 c #725119",
"H2 c #6a4b17",
"I2 c #624615",
"J2 c #1e6a73",
"K2 c #00a1ce",
"L2 c #0085ab",
"M2 c #422f0e",
"N2 c #3a290c",
"O2 c #32240b",
"P2 c #140e04",
"Q2 c #fffef4",
"R2 c #aba97d",
"S2 c #b5b383",
"T2 c #bab886",
"U2 c #bfbc88",
"V2 c #c4c18b",
"W2 c #906c2e",
"X2 c #0082a6",
"Y2 c #916e32",
"Z2 c #926f36",
"a2 c #a07223",
"b2 c #986c21",
"c2 c #90671f",
"d2 c #805b1c",
"e2 c #78561a",
"f2 c #705018",
"g2 c #227078",
"h2 c #00b0e2",
"i2 c #00a4d2",
"j2 c #503911",
"k2 c #483410",
"l2 c #402e0e",
"m2 c #1c1305",
"n2 c #b3b181",
"o2 c #b8b684",
"p2 c #bdba87",
"q2 c #c2bf8a",
"r2 c #c7c48d",
"s2 c #0089b0",
"t2 c #916d31",
"u2 c #916e33",
"v2 c #926e34",
"w2 c #926f35",
"x2 c #926f37",
"y2 c #927038",
"z2 c #937039",
"03 c #a67624",
"13 c #8e651f",
"23 c #596846",
"33 c #54684b",
"43 c #27a4b2",
"53 c #00faff",
"63 c #13cfca",
"73 c #4f3811",
"83 c #231807",
"93 c #f8f8e6",
":3 c #c4c28c",
";3 c #c9c68e",
"A3 c #9c7022",
"B3 c #2197aa",
"C3 c #00abdb",
"D3 c #18d7cb",
"E3 c #5d4214",
"F3 c #2a1e08",
"G3 c #f9f8e8",
"H3 c #94723e",
"I3 c #7f753e",
"J3 c #67734c",
"K3 c #20aec9",
"L3 c #00d5ff",
"M3 c #7b581b",
"N3 c #735219",
"O3 c #6b4c17",
"P3 c #30230a",
"Q3 c #00c2f8",
"R3 c #93713b",
"S3 c #93713d",
"T3 c #77f5ff",
"U3 c #94723f",
"V3 c #947340",
"W3 c #a77725",
"X3 c #35b6b5",
"Y3 c #00feff",
"Z3 c #00f7ff",
"a3 c #5b8f69",
"b3 c #815c1c",
"c3 c #7a571a",
"d3 c #38280c",
"e3 c #00a6d5",
"f3 c #0091ba",
"g3 c #00a7d6",
"h3 c #00ccff",
"i3 c #00e7ff",
"j3 c #947240",
"k3 c #947341",
"l3 c #b5a583",
"m3 c #708650",
"n3 c #88611e",
"o3 c #3f2c0d",
"p3 c #fbfbee",
"q3 c #00a8d8",
"r3 c #00c1f7",
"s3 c #00c6fe",
"t3 c #00cbff",
"u3 c #00dbff",
"v3 c #00e4ff",
"w3 c #bffbff",
"x3 c #947342",
"y3 c #957443",
"z3 c #957444",
"04 c #957547",
"14 c #32d1c2",
"24 c #00ffff",
"34 c #5bd4c0",
"44 c #819354",
"54 c #9e7122",
"64 c #966b21",
"74 c #46310f",
"84 c #fcfcf0",
"94 c #957445",
":4 c #957546",
";4 c #967649",
"A4 c #43c1ae",
"B4 c #43c2ae",
"C4 c #868560",
"D4 c #a47524",
"E4 c #4d3710",
"F4 c #fdfcf1",
"G4 c #967548",
"H4 c #96764a",
"I4 c #96764b",
"J4 c #96774c",
"K4 c #cca174",
"L4 c #644f39",
"M4 c #96774b",
"N4 c #97774d",
"O4 c #97784e",
"P4 c #977851",
"Q4 c #97784f",
"R4 c #977850",
"S4 c #977951",
"T4 c #987a54",
"U4 c #987952",
"V4 c #987953",
"W4 c #f9f9e9",
"X4 c #987a55",
"Y4 c #4b3c2a",
"Z4 c #faf9ea",
"a4 c #7f6548",
"b4 c #3e3123",
"c4 c #fbfaec",
"d4 c #c8c68e",
"e4 c #5c5b42",
"f4 c #ccc88f",
"g4 c #a19f77",
"h4 c #5e5d43",
"i4 c #6b683f",
"j4 c #9e9d76",
"k4 c #a4a279",
"l4 c #aaa87c",
"m4 c #b0ae80",
"n4 c #5f5e44",
"o4 c #a7a57b",
"p4 c #adab7e",
"q4 c #b3b182",
"r4 c #b9b785",
"s4 c #bfbd89",
"t4 c #616045",
"u4 c #c8c8c8",
"v4 c #b6b483",
"w4 c #bcba87",
"x4 c #c2c08a",
"y4 c #626146",
"z4 c #c5c38c",
"05 c #646246",
"15 c #9c9c9c",
"25 c #787767",
"35 c #e2e0ce",
"45 c #6f6e65",
"55 c #fbfbed",
"65 c #7d7c71",
"75 c #fcfbef",
"85 c #e1dec3",
"95 c #f7f7e3",
":5 c #efefca",
";5 c #282828",
"A5 c #efefc8",
"B5 c #f0f0cb",
"C5 c #f7f7e5",
"D5 c #f8f8e7",
"E5 c #7b7b6f",
"F5 c #f1f1ce",
"G5 c #828282",
"H5 c #171717",
"I5 c #1d1d1d",
"J5 c #222222",
"K5 c #f0f0cc",
"L5 c #f2f1cf",
"M5 c #f3f2d1",
"N5 c #b9b9b9",
"O5 c #202020",
"P5 c #242424",
"Q5 c #f7f6d9",
"R5 c #191919",
"S5 c #262626",
"T5 c #212121",
"U5 c #292929",
"V5 c #919191",
"W5 c #fffde9",
"X5 c #f2f2d0",
"Y5 c #787868",
"Z5 c #141414",
"a5 c #1b1b1b",
"b5 c #1e1e1e",
"c5 c #181818",
"d5 c #1c1c1c",
"e5 c #1f1f1f",
"f5 c #232323",
"g5 c #313131",
"h5 c #333333",
"i5 c #353535",
"j5 c #373737",
"k5 c #fefce8",
"l5 c #f3f2d2",
"m5 c #818181",
"n5 c #060606",
"o5 c #0c0c0c",
"p5 c #161616",
"q5 c #1a1a1a",
"r5 c #2b2b2b",
"s5 c #2d2d2d",
"t5 c #2f2f2f",
"u5 c #323232",
"v5 c #343434",
"w5 c #363636",
"x5 c #fcfae4",
"y5 c #fdfbe7",
"z5 c #f3f3d3",
"06 c #f5f4d5",
"16 c #f6f5d7",
"26 c #f7f6da",
"36 c #f8f7dc",
"46 c #d7d7d7",
"56 c #070707",
"66 c #0a0a0a",
"76 c #040404",
"86 c #080808",
"96 c #0b0b0b",
":6 c #0e0e0e",
";6 c #050505",
"A6 c #090909",
"B6 c #0d0d0d",
"C6 c #727272",
"D6 c #252525",
"E6 c #272727",
"F6 c #2a2a2a",
"G6 c #2c2c2c",
"H6 c #2e2e2e",
"I6 c #303030",
"J6 c #afafaf",
"K6 c #f9f8de",
"L6 c #faf9e1",
"M6 c #fbfae3",
"N6 c #fdfbe6",
"O6 c #c4be87",
"P6 c #f4f3d4",
"Q6 c #f5f4d6",
"R6 c #f6f5d8",
"S6 c #f7f6db",
"T6 c #f8f7dd",
"U6 c #faf8df",
"V6 c #fbf9e2",
"W6 c #020202",
"X6 c #000000",
"Y6 c #010101",
"Z6 c #030303",
"a6 c #383838",
"b6 c #0f0f0f",
"c6 c #101010",
"d6 c #111111",
"e6 c #121212",
"f6 c #131313",
"g6 c #151515",
"h6 c #565656",
"i6 c #7a7a6d",
"j6 c #7b7a6e",
"k6 c #7c7b6f",
"l6 c #605d42",
"m6 c #797869",
"n6 c #79796a",
"o6 c #7a796b",
"p6 c #7a7a6c",
"q6 c #7b7a6d",
"r6 c #7b7b6e",
"s6 c #7c7b70",
"t6 c #7c7c71",
"u6 c #7d7c72",
"v6 c #7e7d73",
"v6u6t6s6r6q6p6o6n6m6l6l6s6k6j6i6h6h6g6f6e6d6c6b6a6a6Z6Y6X6X6X6X6h6h6W6Y6X6X6X6X6a6a6Y6X6X6X6X6X6",
"s6V6U6T6S6R6Q6P6O6O6N6M6L6K6J6J6I6H6G6F6E6D6C6C6c6B6A6;6X6X6J6J6:6968676Y6X6C6C66656;6Z6X6X6J646",
"q636261606z5O6O6y5x5V6U6J6J6w5v5u5t5s5r5C6C6q5p5e6:6X6X6J6J6p5f6c6o5A6n5C6C6b6B69686X6X6J6J6Y6m5",
"n6Q6P6l5O6O6k5N6M6L6J6J6j5j5j5i5h5g5C6C6f5e5d5c5X6X6J6J6b5a5c5Z5d6:6C6C6g6f6c6:6X6X6J6J686;6W6m5",
"Y5X5O6O6W5y5x5V6U6T6J6a6V5V5j5w5C6C6G6U5D6T5X6X6J6J6S5f5e5d5R5p5C6C6q5c5p5Z5X6X6J6J6:6o5A6n5Z6m5",
"l6O6W5k5N6M6L6K636Q5J6a6a6a6V5V5w5u5H6F6X6X6J6J6H6r5E6P5T5b5C6C6O5b5d5R5X6X6J6J6g6e6c6B66656C6N5",
"v6W5y5x5V6U6T626R606J6X6a6a6a6C6j5v5X6X6J6J6w5h5t5G6U5S5C6C6S5f5T5e5X6X6J6J6d5R5p5f6d6:6C6C6;6m5",
"u6N6M6L6K636Q5Q6P6M5L5K5X6X6a6C6X6X6J6J6j5j5j5v5g5H6C6C6r5U5E6P5X6X6J6J6J5O5I5q5H5g6C6C6o5A656G5",
"s6V6U6T626R606z5X5F5O6O6N6M6X6X636Q5J6a6V5V5j5w5C6C6g5t5G6F6X6X6J6J6U5S5P5T5b5a5C6C6f6c6:696X6m5",
"E5K636Q5Q6P6M5L5O6O6y5x5V6U6T626R606J6a6a6a6V5V5w5v5u5I6X6X6J6J6I6s5F6E6D6J5C6C6q5H5Z5e6X6X6M5D5",
"i626R606z5X5O6O6k5N6M6L6K636Q5Q6P6M5J6X6a6a6a6C6j5i5X6X6J6J6w5v5g5H6r5U5C6C6T5b5d5R5X6X6z5X5F5C5",
"o6Q6P6M5O6O6W5y5x5V6U6T626R606z5X5F5B5A5X6X6a6C6X6X6J6J6j5j5j5i5u5t5C6C6;5D6f5O5X6X6P6M5L5K5:595",
"m6z5O6O6W5k5N6M6L6K636Q5Q6P6M5L5K5:5O6O6N6M6X6X636Q5J6a6V5V5j5w5C6C6t5G6U5E6X6X606z5X5F5B5A5A595",
"l6O6W5W5y5x5V6U6T626R606z5X5F5B5O6O6y5x5V6U6T626R606J6a6a6a6V5V5w5h5g5H6X6X6Q6P6M5L5K5:5A5A5A595",
"v6W5k5N6M6L6K636Q5Q6P6M5L5K5O6O6k5N6M6L6K636Q5Q6P6M5J6X6a6a6a6C6j5i5X6X6R606z5X5F5B5A5A5A5A5O685",
"v6y5x5V6U6T626R606z5X5F5O6O6W5y5x5V6U6T626R606z5X5F5B5A5X6X6a6C6X6X6Q5Q6P6M5L5K5:5A5A5A5O6O6V675",
"65M6L6K636Q5Q6P6M5L5O6O6W5k5N6M6L6K636Q5Q6P6M5L5K5:5O6O6x5V6X6X626R606z5X5F5B5A5A5A5O6O6M6L6K655",
"4535T626R606z5X5O6O6W5W5y5x5V6U6T626R606z5X5F5B5O6O6N6M6L6K636Q5Q6P6M5L5K5:5A5A5O6O6x5V6U6T6J646",
"25M53535P6M5O6O6W5W5k5N6M6L6K636Q5Q6P6M5L5K5O6O6y5x5V6U6T626R606z5X5F5B5A5A5O6O6N6M6L6K6J6J6a615",
"l6O6M5M53535W5W5W5y5x5V6U6T626R606z5X5F5O6O6k5N6M6L6K636Q5Q6P6M5L5K5:5A5O6O6y5x5V6U6J6J6a6a6a615",
"05z4O6O6M5M53535N6M6L6K636Q5Q6P6M5L5O6O6W5y5x5V6U6T626R606z5X5F5B5A5O6O6k5N6M6L6K636J6a6V5V5a615",
"y4x4w4v4O6O6M5M53535T626R606z5X5O6O6W5k5N6M6L6K636Q5Q6P6M5L5K5:5O6O6W5y5x5V6U6T626R6J6a6a6a6V5u4",
"t4s4r4q4p4o4O6O6M5M53535P6M5O6O6W5W5y5x5V6U6T626R606z5X5F5B5O6O6W5k5N6M6L6K636Q5Q6P6J6X6a6a6a6N5",
"n4w4v4m4l4k4j4i4O6O6M5M53535W5W5k5N6M6L6K636Q5Q6P6M5L5K5O6O6W5W5y5x5V6U6T626R606z5X5F5B5X6X6a6N5",
"h4r4q4p4o4g4j4i4f4z4O6O6M5M53535x5V6U6T626R606z5X5F5O6O6W5W5k5N6M6L6K636Q5Q6P6M5L5K5O6O6N6M6X6m5",
"e4v4m4l4k4j4j4i4d4x4w4v4O6O6M5M5353536Q5Q6P6M5L5O6O6W5W5W5y5x5V6U6T626R606z5X5F5O6O6y5x5V6U6T6c4",
"b4a4p4o4g4j4j4i4z4s4r4q4p4o4O6O6M5M53535z5X5O6O6W5W5W5k5N6M6L6K636Q5Q6P6M5L5O6O6k5N6M6L6K636Q5Z4",
"Y4X4a4a4j4j4j4i4x4w4v4m4l4k4j4i4O6O6M5M53535W5W5W5W5y5x5V6U6T626R606z5X5O6O6W5y5x5V6U6T626R606W4",
"Y4X4V4U4a4a4j4i4s4r4q4p4o4g4j4i4f4z4O6O6M5M53535k5N6M6L6K636Q5Q6P6M5O6O6W5k5N6M6L6K636Q5Q6P6M5D5",
"Y4T4V4S4R4Q4a4a4w4v4m4l4k4j4j4i4d4x4w4v4O6O6M5M53535U6T626R606z5O6O6W5W5y5x5V6U6T626R606z5X5F5C5",
"Y4V4U4P4Q4O4N4M4a4a4p4o4g4j4j4i4z4s4r4q4p4o4O6O6M5M53535Q6P6O6O6W5W5k5N6M6L6K636Q5Q6P6M5L5K5O685",
"L4K4S4R4Q4N4J4I4H4G4a4a4j4j4j4i4x4w4v4m4l4k4j4i4O6O6M5M53535W5W5W5y5x5V6U6T626R606z5X5F5O6O6y5F4",
"E4D4K4K4O4C4B4A4;4G4:494a4a4j4i4s4r4q4p4o4g4j4i4f4f4O6O6M5M53535N6M6L6K636Q5Q6P6M5L5O6O6k5N6M684",
"7464544434242414G404:4z3y3x3a4w3v3u3t3s3s3s3s3r3q3f4f4z4O6O6M5M53535T626R606z5X5O6O6W5y5x5V6U6p3",
"o3n3m324242424l3G4:494z3x3k3j3w3i3h3g3f3f3f3f3g3e3f4d4x4w4v4O6O6M5M53535P6M5O6O6W5k5N6M6L6K636c4",
"d3c3b3a3Z3Y3X3W3K4K4z3y3x3V3U3T3S3R3a4a4j4j4j4i4Q3f4z4s4r4q4p4i4O6O6M5M53535W5W5y5x5V6U6T626R6Z4",
"P3O3N3M3L3u3K3J3I3W3K4K4k3j3H3T3v3u3t3s3s3s3s3r3q3d4x4w4v4m4l4i4f4f4O6O6M5M53535M6L6K636Q5Q6P6G3",
"F3E324D32424v3C3B3A3D4W3K4K4H3v3i3h3g3f3f3f3f3g3e3z4s4r4q4p4o4i4f4;3:3s4O6O6M5M5353526R606z5X593",
"83736324245343332313645403W3K4v3R3z2y2x2w2v2u2t2s2a4w4v4m4l4k4i4f4r2q2p2o2n2O6O6M5M53535M5L5O685",
"m2l2k2j2i2h2g2f2e2d2n3c2b2a2W3T3K4K4x2Z2w2u2Y2t2X2W2a4a4p4o4g4i4;3V2U2T2S2m4R2i4O6O6M5M53535W5Q2",
"P2O2N2M2L2K2J2I2H2G2c3b3F2E2D2T3W3W3K4K4v2u2t2C2r3W2B2A2a4a4j4i4;2:2w49282p472i4f4z4O6O6M5M53562",
"52423222r31202z1y1x1O3N3M3w1v1u1t1s1W3W3K4K4t2r1u1q1p1o1n1m1a4a4l1k1r4j1i1h1g1i4d4x4w4v4O6O6M5G3",
"f1e1d1c1b1a1Z1Y1X1W1E3V124242424U1T1A3D4W324242424B2A2o1m1S1R1Q1a4a4P1O1N1M1L1i4z4s4r4q4p4o4O685",
"X6K1J1I1b1v3H1G1F1E17324242424D1C1B1136424242424D1K4o1n1m1R1A1Q1;1:1a4a4l49181i4x4w4v4m4l4k4j471",
"X6X66151b14131211101l2532424Z3z0f2e2d2n3532424Z3z0W3K4K4S1R1Q1;1y0x0w0v0a4a4j4i4s4r4q4p4o4g4j471",
"X6X6X6X6u0t0s0r0q0p0O2o0n041m0l0I2H2G2c3o0n041m0l0W3W3W3K4K4Q1;1:1k0w0j0i0h0a4a4w4v4m4l4k4j4j471",
"X6X6X6X6g0f0e0d0P2c04232h2b0a0Z0Y0y1x1O3N3h2b0a0X0t1s1W3W3W3K4K4x0w0v0j0W0V0U0T0a4a4p4o4g4j4j471",
"X6m5m5m5m5m5m5m5S0R0Q0P0O0N0M0L0K0J0I0H0G0F0E0D0C0B0A0;0:090909080807060504030302020101000000071"};
