/* XPM */
static char *image[] = {
"48 48 680 2",
"   c None",
"00 c #2c2c2a",
"10 c #444542",
"20 c #50534e",
"30 c #52544f",
"40 c #464844",
"50 c #323432",
"60 c #595b57",
"70 c #8c8e8b",
"80 c #939591",
"90 c #989996",
":0 c #9d9e9b",
";0 c #a6a8a4",
"A0 c #a9aba7",
"B0 c #a9aaa7",
"C0 c #a9aaa6",
"D0 c #a8a9a6",
"E0 c #a8a9a5",
"F0 c #a7a9a5",
"G0 c #a7a8a5",
"H0 c #a6a7a4",
"I0 c #a5a6a2",
"J0 c #a4a5a1",
"K0 c #a1a39f",
"L0 c #a0a19d",
"M0 c #9ea09d",
"N0 c #9d9f9a",
"O0 c #9d9e99",
"P0 c #9a9c98",
"Q0 c #979995",
"R0 c #949692",
"S0 c #5c5e5a",
"T0 c #2d2d2b",
"U0 c #6f716e",
"V0 c #80817e",
"W0 c #686a65",
"X0 c #6b6d68",
"Y0 c #71736e",
"Z0 c #7a7c77",
"a0 c #787a75",
"b0 c #777974",
"c0 c #767873",
"d0 c #757772",
"e0 c #737570",
"f0 c #73746f",
"g0 c #71736d",
"h0 c #70726c",
"i0 c #6f716b",
"j0 c #8f928e",
"k0 c #6c6d6a",
"l0 c #515350",
"m0 c #6c6e6a",
"n0 c #747671",
"o0 c #696b66",
"p0 c #6c6e69",
"q0 c #72746f",
"r0 c #797b76",
"s0 c #848681",
"t0 c #868883",
"u0 c #848682",
"v0 c #838581",
"w0 c #828480",
"x0 c #82847f",
"y0 c #81837e",
"z0 c #80827d",
"01 c #7f817c",
"11 c #7e807b",
"21 c #7d7f7a",
"31 c #7b7d78",
"41 c #7a7c76",
"51 c #797b75",
"61 c #787a74",
"71 c #777973",
"81 c #767872",
"91 c #757771",
":1 c #73756f",
";1 c #72746e",
"A1 c #80837f",
"B1 c #646663",
"C1 c #575955",
"D1 c #515450",
"E1 c #6f706e",
"F1 c #777976",
"G1 c #939390",
"H1 c #9e9f9d",
"I1 c #a2a3a0",
"J1 c #a5a6a4",
"K1 c #aaaaa8",
"L1 c #b0b1af",
"M1 c #b3b3b1",
"N1 c #b3b5b2",
"O1 c #b4b6b3",
"P1 c #b8bab7",
"Q1 c #babab7",
"R1 c #babbb9",
"S1 c #bbbdba",
"T1 c #bdbdbc",
"U1 c #bec0bc",
"V1 c #bfc1be",
"W1 c #c5c6c3",
"X1 c #d1d2d0",
"Y1 c #d6d6d3",
"Z1 c #d8dad7",
"a1 c #dcddda",
"b1 c #d8d9d7",
"c1 c #d5d6d4",
"d1 c #d3d4d1",
"e1 c #cfd0cd",
"f1 c #c9cbc8",
"g1 c #afb0ae",
"h1 c #6b6d6b",
"i1 c #525350",
"j1 c #949593",
"k1 c #d2d2d1",
"l1 c #e1e1e0",
"m1 c #dcdddb",
"n1 c #d3d4d2",
"o1 c #cacbc9",
"p1 c #c6c6c4",
"q1 c #c1c2bf",
"r1 c #bcbdbb",
"s1 c #b3b4b1",
"t1 c #afb0ac",
"u1 c #aaaba8",
"v1 c #a1a29e",
"w1 c #9c9e9a",
"x1 c #939590",
"y1 c #8f928c",
"z1 c #949791",
"02 c #999c96",
"12 c #9ea09a",
"22 c #a3a59f",
"32 c #a7aaa4",
"42 c #b6b9b2",
"52 c #bbbdb7",
"62 c #acadaa",
"72 c #c4c5c4",
"82 c #dbdcda",
"92 c #dfdfde",
":2 c #e4e4e3",
";2 c #e0e0de",
"A2 c #dbdbda",
"B2 c #d6d7d5",
"C2 c #d2d2d0",
"D2 c #c9c9c7",
"E2 c #c4c5c2",
"F2 c #bfc0be",
"G2 c #bbbcb9",
"H2 c #b1b3af",
"I2 c #adaeab",
"J2 c #a8aaa6",
"K2 c #a4a5a2",
"L2 c #9b9c98",
"M2 c #92938f",
"N2 c #8c8f89",
"O2 c #9a9c96",
"P2 c #9ea09b",
"Q2 c #a3a5a0",
"R2 c #a7aba3",
"S2 c #acafa8",
"T2 c #b0b3ad",
"U2 c #b7bab3",
"V2 c #babdb6",
"W2 c #c4c7c1",
"X2 c #52534f",
"Y2 c #b5b6b4",
"Z2 c #d4d5d3",
"a2 c #d7d7d6",
"b2 c #a3a5a1",
"c2 c #8b8d88",
"d2 c #8a8c88",
"e2 c #979993",
"f2 c #afb1ab",
"g2 c #b9bcb5",
"h2 c #bbbeb7",
"i2 c #bdc0ba",
"j2 c #4d4e4a",
"k2 c #8e8f8c",
"l2 c #cfcfce",
"m2 c #cfcfcd",
"n2 c #a5a6a3",
"o2 c #afb0ad",
"p2 c #ebebea",
"q2 c #eaeae9",
"r2 c #e9e9e8",
"s2 c #e8e8e7",
"t2 c #e7e7e6",
"u2 c #e2e3e0",
"v2 c #e7e7e5",
"w2 c #e8e9e6",
"x2 c #eaeae8",
"y2 c #ebebe9",
"z2 c #e2e2df",
"03 c #a4a6a1",
"13 c #b1b4ad",
"23 c #b9bcb6",
"33 c #9ea19c",
"43 c #4f524d",
"53 c #70706e",
"63 c #cacbc8",
"73 c #c7c7c5",
"83 c #939490",
"93 c #dededc",
":3 c #f1f1ef",
";3 c #e9e9e7",
"A3 c #7e7e7d",
"B3 c #0b0b0b",
"C3 c #696968",
"D3 c #e6e6e4",
"E3 c #d2d3d0",
"F3 c #a9aca6",
"G3 c #b8bab5",
"H3 c #838580",
"I3 c #c6c7c5",
"J3 c #bfc0bd",
"K3 c #d9dad8",
"L3 c #a7a7a6",
"M3 c #191919",
"N3 c #161818",
"O3 c #24292a",
"P3 c #171918",
"Q3 c #181819",
"R3 c #b1b1b0",
"S3 c #cccdca",
"T3 c #90918c",
"U3 c #a1a49e",
"V3 c #bdbeba",
"W3 c #6d6e6b",
"X3 c #545652",
"Y3 c #b8b8b6",
"Z3 c #b8b9b6",
"a3 c #9ea09c",
"b3 c #fcfcfb",
"c3 c #cccccb",
"d3 c #373838",
"e3 c #121313",
"f3 c #252a2b",
"g3 c #33393a",
"h3 c #242829",
"i3 c #555555",
"j3 c #dfdfdd",
"k3 c #babbb7",
"l3 c #8e918b",
"m3 c #9a9d97",
"n3 c #c3c5c1",
"o3 c #4f514e",
"p3 c #969794",
"q3 c #a2a49f",
"r3 c #a2a39f",
"s3 c #606060",
"t3 c #0c0c0c",
"u3 c #232626",
"v3 c #393e3e",
"w3 c #3a3f3f",
"x3 c #373c3c",
"y3 c #111212",
"z3 c #a1a1a0",
"04 c #a2a4a0",
"14 c #8b8d87",
"24 c #9a9c97",
"34 c #bdbebc",
"44 c #4a4c48",
"54 c #7a7b77",
"64 c #b4b5b1",
"74 c #a0a19f",
"84 c #8c8e89",
"94 c #8d8d8d",
":4 c #0e0e0e",
";4 c #212322",
"A4 c #3e4040",
"B4 c #4c4e4d",
"C4 c #434746",
"D4 c #323535",
"E4 c #111111",
"F4 c #434343",
"G4 c #d8d8d7",
"H4 c #eeeeec",
"I4 c #90928d",
"J4 c #a3a4a1",
"K4 c #50514e",
"L4 c #656662",
"M4 c #999b98",
"N4 c #8b8c88",
"O4 c #dcdddc",
"P4 c #252525",
"Q4 c #060606",
"R4 c #0f0f0f",
"S4 c #484949",
"T4 c #60625f",
"U4 c #606360",
"V4 c #545654",
"W4 c #1b1c1b",
"X4 c #0d0e0e",
"Y4 c #000000",
"Z4 c #0d0d0d",
"a4 c #8f8f8e",
"b4 c #f0f0ee",
"c4 c #efefed",
"d4 c #e8e8e6",
"e4 c #898b88",
"f4 c #b5b6b3",
"g4 c #4c4d4a",
"h4 c #b6b7b4",
"i4 c #90918e",
"j4 c #c4c5c3",
"k4 c #383939",
"l4 c #3a3c3a",
"m4 c #565756",
"n4 c #575857",
"o4 c #575856",
"p4 c #505350",
"q4 c #09090a",
"r4 c #eeeeed",
"s4 c #f3f3f1",
"t4 c #f2f2f0",
"u4 c #d8d8d6",
"v4 c #8b8d89",
"w4 c #8d8e8a",
"x4 c #cdcecc",
"y4 c #71746f",
"z4 c #525450",
"05 c #9fa09e",
"15 c #90928e",
"25 c #888986",
"35 c #adaeac",
"45 c #616161",
"55 c #343633",
"65 c #696b67",
"75 c #6f716d",
"85 c #4c4e4b",
"95 c #1d1f1f",
":5 c #fafaf9",
";5 c #f6f6f5",
"A5 c #f5f5f4",
"B5 c #f4f4f3",
"C5 c #c6c7c4",
"D5 c #8e908c",
"E5 c #e5e5e4",
"F5 c #5e605c",
"G5 c #4d504c",
"H5 c #858683",
"I5 c #959694",
"J5 c #80817d",
"K5 c #e5e5e5",
"L5 c #8a8b8b",
"M5 c #303130",
"N5 c #4b4f4e",
"O5 c #3f4345",
"P5 c #3f4445",
"Q5 c #4b4f50",
"R5 c #3e403d",
"S5 c #494b4b",
"T5 c #f8f8f7",
"U5 c #f7f7f6",
"V5 c #b2b3b0",
"W5 c #8f908c",
"X5 c #9fa09d",
"Y5 c #70726d",
"Z5 c #a1a3a1",
"a5 c #747571",
"b5 c #d9d9d9",
"c5 c #dcdcdc",
"d5 c #dedede",
"e5 c #e0e0e0",
"f5 c #e2e2e2",
"g5 c #abacac",
"h5 c #2d302f",
"i5 c #4d5251",
"j5 c #686c6c",
"k5 c #6c7070",
"l5 c #6b6f6f",
"m5 c #4e5352",
"n5 c #393c3a",
"o5 c #7c7d7d",
"p5 c #f9f9f8",
"q5 c #9b9d99",
"r5 c #91928f",
"s5 c #b7b8b6",
"t5 c #c0c1c0",
"u5 c #50534f",
"v5 c #b0b1ae",
"w5 c #757672",
"x5 c #898a86",
"y5 c #dddddd",
"z5 c #c9caca",
"06 c #262929",
"16 c #636664",
"26 c #919393",
"36 c #656866",
"46 c #3d4040",
"56 c #a6a7a8",
"66 c #fcfcfc",
"76 c #fefefd",
"86 c #fdfdfc",
"96 c #fbfbfa",
":6 c #8a8b87",
";6 c #959793",
"A6 c #cacac9",
"B6 c #9a9b99",
"C6 c #4b4d4a",
"D6 c #b0b2ae",
"E6 c #7c7f7a",
"F6 c #7e7f7a",
"G6 c #b3b4b2",
"H6 c #222627",
"I6 c #797b77",
"J6 c #afb1ae",
"K6 c #b0b2af",
"L6 c #7b7d79",
"M6 c #383c3c",
"N6 c #c8c9c9",
"O6 c #f7f7f7",
"P6 c #f9f9f9",
"Q6 c #fbfbfb",
"R6 c #fdfdfd",
"S6 c #7e7f7b",
"T6 c #989997",
"U6 c #d6d6d6",
"V6 c #787975",
"W6 c #51524f",
"X6 c #959795",
"Y6 c #747672",
"Z6 c #959693",
"a6 c #3d4042",
"b6 c #bebfbb",
"c6 c #313637",
"d6 c #e7e7e8",
"e6 c #f2f2f2",
"f6 c #f4f4f4",
"g6 c #f8f8f8",
"h6 c #cecfcd",
"i6 c #7d7e7a",
"j6 c #999997",
"k6 c #dededd",
"l6 c #60625e",
"m6 c #4f504d",
"n6 c #7c7e7b",
"o6 c #989995",
"p6 c #5f6464",
"q6 c #b2b3af",
"r6 c #454a4c",
"s6 c #e9e9e9",
"t6 c #ebebeb",
"u6 c #ededed",
"v6 c #efefef",
"w6 c #f1f1f1",
"x6 c #f3f3f3",
"y6 c #f5f5f5",
"z6 c #acadab",
"07 c #7b7c7a",
"17 c #9d9e9c",
"27 c #d5d5d5",
"37 c #676965",
"47 c #9fa19d",
"57 c #787a76",
"67 c #d4d4d4",
"77 c #828586",
"87 c #a5a7a3",
"97 c #636768",
":7 c #e6e6e6",
";7 c #ececec",
"A7 c #eeeeee",
"B7 c #f0f0f0",
"C7 c #858583",
"D7 c #7e7f7c",
"E7 c #a9a9a8",
"F7 c #b0b0ae",
"G7 c #535550",
"H7 c #585a56",
"I7 c #a0a29e",
"J7 c #7c7e79",
"K7 c #5a5b58",
"L7 c #b6b6b6",
"M7 c #dbdbdb",
"N7 c #9fa1a2",
"O7 c #999b96",
"P7 c #868983",
"Q7 c #838586",
"R7 c #dfdfdf",
"S7 c #e1e1e1",
"T7 c #e3e3e3",
"U7 c #e4e4e4",
"V7 c #e7e7e7",
"W7 c #e8e8e8",
"X7 c #eaeaea",
"Y7 c #5f605d",
"Z7 c #848482",
"a7 c #b0b0b0",
"b7 c #8e8f8d",
"c7 c #535552",
"d7 c #8f908d",
"e7 c #7c7d79",
"f7 c #595a57",
"g7 c #8a8b8a",
"h7 c #aaabab",
"i7 c #929494",
"j7 c #c7c7c7",
"k7 c #c9c9c9",
"l7 c #cbcbcb",
"m7 c #cdcdcd",
"n7 c #cfcfcf",
"o7 c #c3c3c3",
"p7 c #444543",
"q7 c #848483",
"r7 c #aeaead",
"s7 c #737471",
"t7 c #7a7c78",
"u7 c #7d7d7a",
"v7 c #626360",
"w7 c #3e3f3d",
"x7 c #919191",
"y7 c #ababab",
"z7 c #a7a7a7",
"08 c #979898",
"18 c #acacac",
"28 c #adadad",
"38 c #a8a8a8",
"48 c #686867",
"58 c #515250",
"68 c #80807e",
"78 c #a8a8a7",
"88 c #5f615d",
"98 c #666764",
":8 c #848683",
";8 c #737572",
"A8 c #545552",
"B8 c #383836",
"C8 c #313130",
"D8 c #333331",
"E8 c #858782",
"F8 c #3a3a39",
"G8 c #323231",
"H8 c #2f2f2e",
"I8 c #414140",
"J8 c #6c6c6b",
"K8 c #818180",
"L8 c #949594",
"M8 c #565854",
"N8 c #6a6b67",
"O8 c #7d7e7b",
"P8 c #868683",
"Q8 c #858784",
"R8 c #787a77",
"S8 c #757774",
"T8 c #747573",
"U8 c #737371",
"V8 c #70726e",
"W8 c #6b6b6a",
"X8 c #696a68",
"Y8 c #6b6c6a",
"Z8 c #6d6e6c",
"a8 c #6e6f6e",
"b8 c #717170",
"c8 c #777776",
"d8 c #848583",
"e8 c #838482",
"f8 c #7a7a79",
"g8 c #5d5f5b",
"h8 c #565754",
"i8 c #555852",
"j8 c #8d8f8a",
"k8 c #878984",
"l8 c #5a5c58",
"m8 c #555753",
"n8 c #555754",
"o8 c #555654",
"p8 c #979994",
"q8 c #959792",
"r8 c #8a8c87",
"s8 c #a8aaa5",
"t8 c #91948e",
"u8 c #a4a7a2",
"v8 c #8c8e8a",
"w8 c #bcbdb9",
"x8 c #a1a39d",
"y8 c #b8b9b5",
"z8 c #8e908b",
"09 c #cecfcb",
"19 c #b1b3ad",
"29 c #c9cbc6",
"39 c #91938e",
"49 c #dcdedb",
"59 c #c0c3bd",
"69 c #d8dad6",
"79 c #949591",
"89 c #e9eae8",
"99 c #d1d3ce",
":9 c #e6e7e4",
";9 c #969893",
"A9 c #790000",
"B9 c #f3f4f2",
"C9 c #e1e2df",
"D9 c #f0f1ef",
"E9 c #979590",
"F9 c #870d0d",
"G9 c #960202",
"H9 c #ad2626",
"I9 c #bc4040",
"J9 c #a13d3d",
"K9 c #f1f2f1",
"L9 c #f8f9f8",
"M9 c #9a9893",
"N9 c #ae4b4b",
"O9 c #c24a4a",
"P9 c #c24949",
"Q9 c #bd4141",
"R9 c #b63636",
"S9 c #ae2929",
"T9 c #970404",
"U9 c #940000",
"V9 c #c13131",
"W9 c #c42a2a",
"X9 c #bd1111",
"Y9 c #ba0808",
"Z9 c #ffffff",
"a9 c #fefefe",
"b9 c #989591",
"c9 c #a60d0d",
"d9 c #b80000",
"e9 c #b80101",
"f9 c #ba0707",
"g9 c #bc1010",
"h9 c #c32727",
"i9 c #c43535",
"j9 c #950202",
"k9 c #de3535",
"l9 c #b40303",
"m9 c #f6f6f6",
"n9 c #fafafa",
"o9 c #97938f",
"p9 c #c21111",
"q9 c #da0404",
"r9 c #d90000",
"s9 c #e03131",
"t9 c #960505",
"u9 c #df2020",
"v9 c #ed4848",
"w9 c #f48d8d",
"x9 c #ca7272",
"y9 c #f3f3f2",
"z9 c #ececea",
"0: c #f2f2f1",
"1: c #969591",
"2: c #d88080",
"3: c #f48a8a",
"4: c #f48c8c",
"5: c #f48f8f",
"6: c #ef5656",
"7: c #e52323",
"8: c #950101",
"9: c #980101",
":: c #b91b1b",
";: c #b94d4d",
"A: c #f2f3f2",
"B: c #eeefed",
"C: c #edeeec",
"D: c #edeeed",
"E: c #f2f3f1",
"F: c #92918d",
"G: c #c75a5a",
"H: c #df5d5d",
"I: c #da5a5a",
"J: c #d25757",
"K: c #bc2424",
"L: c #9b0202",
"M: c #960000",
"N: c #7a0000",
"O: c #bbc0b5",
"P: c #c8cdc3",
"Q: c #c9cec4",
"R: c #c9cec3",
"S: c #bfc4ba",
"T: c #898883",
"U: c #870808",
"V: c #930000",
"W: c #980000",
"X: c #950000",
"Y: c #888a85",
"Z: c #898b86",
"a: c #8c8e88",
"                                                                                                ",
"                                        a:Z:Y:Y:Y:Y:Z:                                          ",
"                      X:W:X:V:V:V:V:V:U:T:S:R:Q:Q:P:O:T:N:V:V:V:V:V:M:W:X:                      ",
"                  M:L:K:J:I:H:H:H:H:H:G:F:E:D:C:C:B:A:Y:;:H:H:H:H:H:I:J:::9:                    ",
"                  8:7:6:5:4:3:3:3:3:3:2:1:0:z9z9z9z9y9Y:x93:3:3:3:3:w95:v9u9M:                  ",
"                  t9s9r9q9q9q9q9q9q9q9p9o9n9m9m9m9m9n9Y:l9q9q9q9q9q9q9q9r9k9X:                  ",
"                  j9i9h9g9f9e9d9d9d9d9c9b9a9a9a9a9a9Z9Y:W:d9d9d9d9e9Y9X9W9V9U9                  ",
"                  U9T9S9R9Q9P9O9O9O9O9N9M9L9K9K9K9K9n9Y:J9O9O9O9O9P9I9R9H9G9                    ",
"                      X:X:U9V:V:V:V:V:F9E9D9C9C9C9C9B9Y:A9V:V:V:V:V:X:U9U9                      ",
"                                        ;9:99999999989Y:                                        ",
"                                        79695959595949Y:                                        ",
"                                        39291919191909Y:                                        ",
"                                        z8y8x8x8x8x8w8Y:                                        ",
"                                        v8u8t8t8t8t8s8Y:                                        ",
"                                        r8q8Y:Y:Y:Y:p8Y:                                        ",
"                    o8n8m8m8m8m8m8m8m8l8k8j8Y:Y:Y:Y:z8Y:m8m8m8m8m8m8m8m8i8h8                    ",
"                  g8f8e8d8c8b8a8Z8Y8X8W8k8Y:Y:Y:Y:Y:Y:Y:V8U8T8S8S8R8Q8P8O8N8m8                  ",
"                M8L8K8J8I8H8G8G8G8G8G8F8E8Y:Y:Y:Y:Y:Y:Y:G8G8G8G8D8C8B8A8;8:898                  ",
"                887868584838281818181808E8Y:Y:Y:Y:Y:Y:Y:z718181818y7x7w7v7u7t7m8                ",
"                s7r7q7p7o7n7m7l7k7j7j7i7E8j8j8j8j8j8j8Y:h7j7j7j7j7j7j7g7f7e7d7m8                ",
"              c7b7a7Z7Y7X7W7V7U7T7S7R7Q7P7O7O7O7O7O7O7Y:N7M7M7M7M7M7M7L7K7J7I7H7                ",
"              G7F7E7D7C7B7A7;7X7W7:7U797Y:878787878787Y:77M7M7M7M7M7M767K7574737                ",
"              M8271707z6y6x6w6v6u6t6s6r6Y:q6q6q6q6q6q6Y:p6M7M7M7M7M7M7M7s7s7o6n6m6              ",
"              l6k6j6i6h6n9g6m9f6e6B7d6c6Z:b6b6b6b6b6b6Y:a6M7M7M7M7M7M7M7Z6Y6v8X6W6              ",
"              V6U6T6S6t6Z9R6Q6P6O6y6N6M6L6K6K6K6K6J6J6I6H6M7M7M7M7M7M7M7G6F6E6D6m8              ",
"            C6B6A6;6:6968676a9a966n9564636i7i7i72626261606z5S7R7y5M7M7M7A6x5w5v5g8              ",
"            u5t5s5r5q5p5n9Q666R6a9Z9o5n5m5l5k5k5k5k5j5i5h5g5:7U7f5e5d5c5b5Z:a5Z5Y5              ",
"            m8U7X5W5V5U5T5p5P6n9Q666S5R5Q5P5O5O5O5O5P5N5M5L5t6s6V7K5T7S7R7;6J5I5H5G5            ",
"            F5E5d7D5C5B5A5;5T5p5:5:5958575V8V8V8V8V8V8655545e6w6v6;7W7:7U735251505z4            ",
"            y4x4w4v4u4t4s4r496Q6Q6w6q4p4o4n4n4n4n4n4n4m4l4k4O6P6g6x6X7t6s6j4D5i4h4H7            ",
"          g425f4e4Y:d4c4b4b4a4Z4Y4X4W4V4U4U4U4U4U4U4U4T4S4R4Q4Y4P428e6B7A7O4N4M4f4L4            ",
"          K4J4I7k8I4H4H4H4c4b4G4F4E4D4C4B4B4B4B4B4B4B4B4A4;4:494m9P6O6y6f6e68474645444          ",
"          m834241404H4H4H4H4H4H4c4z3y395x3w3w3w3w3w3v3u3t3s3W7R6a9Z9R6Q6P6O6r3q3h4p3o3          ",
"          F5n3m3l3k3H4H4H4H4H4H4H4H4j3i3X4h3g3g3g3f3e3d3c3p5:596b386a9Z9a96634a3Z3Y3X3          ",
"          W3V3U3T3S3H4H4H4H4H4H4H4H4H4H4R3Q3P3O3N3M3L3B5A5;5U5g6P6n9Q666R6a9K3q8J3I3g8          ",
"        44H3G3F3D5E3H4H4H4H4H4H4H4H4H4H4H4D3C3B3A3;3:3t4y9B5A5;5U5T5p5:596b39383736353          ",
"        43332313O703z2y2x2x2x2;3;3w2w2d4d4v2v2u2D3D3D3v2v2t2d4s2;3r289q2p2r2o2n2m2l2k2j2        ",
"        X3i2h2g2f2e2Z:Y:Y:Y:Y:Y:Y:Y:Y:Y:Y:Y:Y:Y:Y:Y:Y:Y:Y:Y:Z:Z:r8r8r8d2r8c2b2x4a2Z2Y2X2        ",
"        H7W2V2V2V2U2T2S2R2Q2P2O2q839N2Y:j8M2;9L247K2J2I2H2h4G2F2E2D2x4C2B2A2;2:2928272z4        ",
"        H76252V2V2V2V24213S232221202z1y1c2r8D5x1o6w1v187u1t1s1Z3r1q1p1o1m2n1G4m1l1k1j1i1        ",
"        H7h1g1f1e1d1c1b1a1m18282Z1Y1X1x4D2W1V1U1T1S1R1Q1P1Y3s5O1N1M1L1z6K1J1I1H1G1F1E1D1        ",
"        C1B1A1J7;1:191817161514131J721110101z0y0x0w0v0u0E8t0k8Y:Z:Z:s001r0q0p0o0n0m0E1z4        ",
"        l0k0j0z0i0h0g0f0e0n0d0c0b0a0r0Z031J7211101z0y0x0H3s0E8t0k8Y:H321b0Y0X0W0r0V0U0C6        ",
"        T0S0S6R0;9Q0o6O7P0q5O0N0M0L0v1K004b2J0I087H0G0F0E0D0C0B0A0u1;0K0:09080r570T860          ",
"          504030m8m8m8m8m8m8m8m8m8m8m8m8m8m8m8m8m8m8m8m8m8m8m8m8m8m8m8m8m8m8m8m8201000          ",
"                                                                                                ",
"                                                                                                ",
"                                                                                                "};
