/* XPM */
static char *image[] = {
"48 48 339 2",
"   c None",
"00 c #565657",
"10 c #585859",
"20 c #575759",
"30 c #565658",
"40 c #56585a",
"50 c #58595b",
"60 c #595a5b",
"70 c #595a5c",
"80 c #5e5d5c",
"90 c #61605f",
":0 c #616060",
";0 c #565756",
"A0 c #434243",
"B0 c #8b8a88",
"C0 c #171717",
"D0 c #101011",
"E0 c #131214",
"F0 c #505254",
"G0 c #555657",
"H0 c #58585a",
"I0 c #5a5b5d",
"J0 c #5c5e5f",
"K0 c #5e6060",
"L0 c #4e4f50",
"M0 c #494a4a",
"N0 c #424244",
"O0 c #2f3032",
"P0 c #434445",
"Q0 c #4c4c4c",
"R0 c #575758",
"S0 c #c4c4c2",
"T0 c #fcfcfc",
"U0 c #494a4b",
"V0 c #323435",
"W0 c #565757",
"X0 c #5c5d5d",
"Y0 c #494a4c",
"Z0 c #242527",
"a0 c #2d2e30",
"b0 c #2c2d2f",
"c0 c #262628",
"d0 c #343536",
"e0 c #28282a",
"f0 c #1a1b1c",
"g0 c #515252",
"h0 c #5a5959",
"i0 c #5c5b5b",
"j0 c #605f5f",
"k0 c #7f7f80",
"l0 c #393a3b",
"m0 c #484848",
"n0 c #080a0c",
"o0 c #060709",
"p0 c #1f2022",
"q0 c #2a2b2d",
"r0 c #2e2f31",
"s0 c #343537",
"t0 c #3a3c3e",
"u0 c #3c3d3f",
"v0 c #2a2a2c",
"w0 c #040406",
"x0 c #07080a",
"y0 c #050507",
"z0 c #2a2b2c",
"01 c #282829",
"11 c #2f2f31",
"21 c #5c5b5c",
"31 c #aeaeac",
"41 c #363637",
"51 c #141517",
"61 c #222325",
"71 c #242628",
"81 c #28292b",
"91 c #2c2c2e",
":1 c #303133",
";1 c #1a1b1d",
"A1 c #08090b",
"B1 c #020406",
"C1 c #121314",
"D1 c #020203",
"E1 c #020305",
"F1 c #212223",
"G1 c #2b2d2c",
"H1 c #404041",
"I1 c #585858",
"J1 c #575656",
"K1 c #595858",
"L1 c #5c5a59",
"M1 c #646465",
"N1 c #323334",
"O1 c #161618",
"P1 c #1c1c1e",
"Q1 c #212224",
"R1 c #232426",
"S1 c #262729",
"T1 c #121214",
"U1 c #212122",
"V1 c #1e1f20",
"W1 c #18191a",
"X1 c #111113",
"Y1 c #070708",
"Z1 c #010102",
"a1 c #010103",
"b1 c #020204",
"c1 c #010204",
"d1 c #0d0e10",
"e1 c #060608",
"f1 c #3a3a3b",
"g1 c #545353",
"h1 c #595654",
"i1 c #b4b4b2",
"j1 c #9f9f9f",
"k1 c #464646",
"l1 c #202223",
"m1 c #16181a",
"n1 c #191a1b",
"o1 c #161617",
"p1 c #070709",
"q1 c #0b0b0d",
"r1 c #09090b",
"s1 c #08080a",
"t1 c #121315",
"u1 c #1b1b1d",
"v1 c #333435",
"w1 c #3c3c3d",
"x1 c #424242",
"y1 c #505051",
"z1 c #525151",
"02 c #5b5653",
"12 c #bdbcb9",
"22 c #bab9b9",
"32 c #ababaa",
"42 c #919190",
"52 c #444444",
"62 c #202022",
"72 c #08090a",
"82 c #0a0b0c",
"92 c #0c0e10",
":2 c #0e0f10",
";2 c #0e0e10",
"A2 c #0f0f11",
"B2 c #0f1012",
"C2 c #0e1012",
"D2 c #0e0f11",
"E2 c #161719",
"F2 c #191a1c",
"G2 c #101213",
"H2 c #101113",
"I2 c #383839",
"J2 c #565656",
"K2 c #4f4f4e",
"L2 c #4e4b4a",
"M2 c #bebcb9",
"N2 c #babab8",
"O2 c #b8b8b8",
"P2 c #b6b6b6",
"Q2 c #b2b2b0",
"R2 c #999999",
"S2 c #5a5a5a",
"T2 c #3b3c3b",
"U2 c #212221",
"V2 c #0a0b0b",
"W2 c #080809",
"X2 c #090a0b",
"Y2 c #0b0c0b",
"Z2 c #0b0c0d",
"a2 c #0b0c0c",
"b2 c #0c0c0e",
"c2 c #0a0c0e",
"d2 c #171819",
"e2 c #202021",
"f2 c #1d1e20",
"g2 c #0c0d0f",
"h2 c #161718",
"i2 c #535354",
"j2 c #555555",
"k2 c #515151",
"l2 c #4d4d4d",
"m2 c #2a2828",
"n2 c #b9b9b8",
"o2 c #b7b7b7",
"p2 c #b7b7b6",
"q2 c #b5b5b5",
"r2 c #b2b2b2",
"s2 c #aeaeae",
"t2 c #a0a0a0",
"u2 c #999a9a",
"v2 c #818281",
"w2 c #696969",
"x2 c #505050",
"y2 c #3a3b3b",
"z2 c #272928",
"03 c #141615",
"13 c #070808",
"23 c #060807",
"33 c #070908",
"43 c #080a09",
"53 c #090a0a",
"63 c #090a0c",
"73 c #0a0a0c",
"83 c #1d1d1d",
"93 c #1b1b1c",
":3 c #0b0c0e",
";3 c #030406",
"A3 c #353536",
"B3 c #535353",
"C3 c #414141",
"D3 c #242526",
"E3 c #22201e",
"F3 c #b7b7b8",
"G3 c #b7b7b5",
"H3 c #b5b5b3",
"I3 c #b4b4b4",
"J3 c #b3b3b3",
"K3 c #b0b0b0",
"L3 c #ababab",
"M3 c #a7a7a7",
"N3 c #9a9a9a",
"O3 c #919191",
"P3 c #6a6a6a",
"Q3 c #5c5c5c",
"R3 c #4c4e4d",
"S3 c #414241",
"T3 c #383938",
"U3 c #2e2f2e",
"V3 c #282a28",
"W3 c #242524",
"X3 c #232424",
"Y3 c #202221",
"Z3 c #1b1c1c",
"a3 c #1a1a1c",
"b3 c #1e1e20",
"c3 c #2b2c2d",
"d3 c #2b2c2e",
"e3 c #333333",
"f3 c #4b4845",
"g3 c #888888",
"h3 c #9c9c9b",
"i3 c #b1b1b1",
"j3 c #afafaf",
"k3 c #afafae",
"l3 c #acacac",
"m3 c #aaaaaa",
"n3 c #a4a4a3",
"o3 c #a3a3a2",
"p3 c #9d9d9d",
"q3 c #979797",
"r3 c #939393",
"s3 c #929292",
"t3 c #8c8c8b",
"u3 c #8a8a8a",
"v3 c #868686",
"w3 c #818181",
"x3 c #787878",
"y3 c #727272",
"z3 c #707070",
"04 c #6b6b6b",
"14 c #676767",
"24 c #636364",
"34 c #676564",
"44 c #747473",
"54 c #797979",
"64 c #a1a1a1",
"74 c #a9a9a9",
"84 c #a8a8a8",
"94 c #a5a5a5",
":4 c #a3a3a3",
";4 c #a2a2a2",
"A4 c #9e9e9e",
"B4 c #9c9c9c",
"C4 c #989898",
"D4 c #969696",
"E4 c #8f8f8f",
"F4 c #8e8e8e",
"G4 c #898989",
"H4 c #878787",
"I4 c #838383",
"J4 c #808080",
"K4 c #7c7c7c",
"L4 c #7b7b7a",
"M4 c #7b7a78",
"N4 c #737371",
"O4 c #7a7a7a",
"P4 c #191b1a",
"Q4 c #3f4041",
"R4 c #575858",
"S4 c #2e302f",
"T4 c #626362",
"U4 c #545454",
"V4 c #525252",
"W4 c #606061",
"X4 c #5d5d5e",
"Y4 c #626363",
"Z4 c #5f5f60",
"a4 c #69696a",
"b4 c #a1a09f",
"c4 c #9e9d9c",
"d4 c #999897",
"e4 c #979796",
"f4 c #959493",
"g4 c #949492",
"h4 c #959492",
"i4 c #93908f",
"j4 c #828280",
"k4 c #7d7c7c",
"l4 c #646464",
"m4 c #6a6b6b",
"n4 c #4a4c4b",
"o4 c #101211",
"p4 c #5a5b5a",
"q4 c #1a1c1c",
"r4 c #131514",
"s4 c #3c3d3e",
"t4 c #06080a",
"u4 c #1e1f21",
"v4 c #050608",
"w4 c #101012",
"x4 c #aaa9a7",
"y4 c #949494",
"z4 c #777878",
"05 c #686a6a",
"15 c #616262",
"25 c #4a4a4a",
"35 c #414342",
"45 c #404140",
"55 c #222224",
"65 c #242426",
"75 c #131416",
"85 c #2a2928",
"95 c #cfcecc",
":5 c #babab9",
";5 c #a2a2a1",
"A5 c #8c8c8c",
"B5 c #797a7a",
"C5 c #696868",
"D5 c #515150",
"E5 c #9783b9",
"F5 c #968fa0",
"                                                                                                ",
"                                                                                                ",
"                                                                                                ",
"                                                                                                ",
"                                                                                                ",
"                                                                                                ",
"                                                                                                ",
"                                                                                                ",
"                                                                                                ",
"                                                                                                ",
"                                                                                                ",
"                                                                                                ",
"                                                                                                ",
"                                                  F5E5                                          ",
"                                          D5C5B5A5;5:595                                        ",
"                                    857565554535251505z4y4x4                                    ",
"                                    w4v4u4t4s4r4q4p4o4n4m4l4k4j4                                ",
"                  i4h4g4f4e4d4c4b4h4a4Z4Y4X4W4V4U4T4S4R4Q4P4O4O4N4                              ",
"          M4L4K4J4I4H4G4F4E4y4D4C4B4A4;4:49484847464C4E4J4l4O45444                              ",
"      34241404z3y3x3O4J4w3v3u3t3s3r3q3B4p364o3n374m3l3k3j3i384h3g3                              ",
"  f3e3d3c3b3a3Z3Y3X3W3V3U3T3S3R3Q3P3K4A5O3C4N3B4;4:4M3m3L3j3K3J3I3H3G3F3                        ",
"E3D3C3B3A3;3:39383757373637373534333231303z2y2x2w2v2u2t2;484m3s2i3r2q2p2o2n2                    ",
"m2l2k2j2i2h2g2f2e2d2c2:3b2b2b2b2b2b2b2b2a2a2Z2Y2X2W2V2U2T2S2O4R284m3k3Q2I3P2O2N2M2              ",
"  L2K2V4J2I2H263G2F2E2D2D2C2B2B2w4w4w4B2B2A2;2:2B2D292:3Z28272726252w24232s2r2P2O22212          ",
"      02z1y1x1w1v1u1Z2D2B2H2t1H273s1s1s1r173q1s1p1A2o1n1d2B292g2g2f2u4m1l1k1z3j1K3i1p2O2        ",
"            h1g1J2S2k2f1D363e1d1v4c1b1b1c1c1c1a1Z1Y1X1W1V1U1T1H2C2D262S1R1Q1P1O1N1M1B4i3q2      ",
"                L1K1J1I1Q3H1b1t1G1F1E1c1c1c1c1E1Z1D1s1w4o1C1B1A1H2t1;1:1918171616251e141K431    ",
"                        Q3211101K4u3x2z0Z2E1b1E173s1b1y0x0E1c1c1w0v0u0t0s0r0q0S1R1p0o0n0m0l0k0  ",
"                                  j0i0h0g0c1E1E1E1e1q1f0e0d0e0O1c091b0a0a0q0Z0b3O1H2Q1Y0X0W0V0U0",
"                                          s1E1b1E1E1D3j1T0S0R062y1Q0P0O0r0N0M0L0R4K0J0I0H0G0F055",
"                                              E0D0C0      B0A0;0:09080S270605050H04030201000    ",
"                                                                                                ",
"                                                                                                ",
"                                                                                                ",
"                                                                                                ",
"                                                                                                ",
"                                                                                                ",
"                                                                                                ",
"                                                                                                ",
"                                                                                                ",
"                                                                                                ",
"                                                                                                ",
"                                                                                                ",
"                                                                                                ",
"                                                                                                ",
"                                                                                                ",
"                                                                                                ",
"                                                                                                "};
