/* XPM */
static char *image[] = {
"32 32 144 2",
"   c None",
"00 c #feca4a",
"10 c #febe4a",
"20 c #fec24a",
"30 c #fec64a",
"40 c #faa60a",
"50 c #fa9a02",
"60 c #fa8a02",
"70 c #f68e02",
"80 c #faa602",
"90 c #f68a02",
":0 c #da5a02",
";0 c #e66602",
"A0 c #ea6e02",
"B0 c #ea6a02",
"C0 c #ea6602",
"D0 c #e66202",
"E0 c #e26202",
"F0 c #ce5202",
"G0 c #e26602",
"H0 c #f68602",
"I0 c #fa9202",
"J0 c #e66e02",
"K0 c #ae3e02",
"L0 c #ee7202",
"M0 c #e65e02",
"N0 c #d65e02",
"O0 c #ee7a02",
"P0 c #d65602",
"Q0 c #9e3602",
"R0 c #be4a02",
"S0 c #d25202",
"T0 c #ea7a0e",
"U0 c #e28e3a",
"V0 c #de8e46",
"W0 c #de823a",
"X0 c #de7a26",
"Y0 c #e2720e",
"Z0 c #de6202",
"a0 c #d25602",
"b0 c #c65202",
"c0 c #ee7602",
"d0 c #b64202",
"e0 c #9a3202",
"f0 c #b64602",
"g0 c #be723a",
"h0 c #dacabe",
"i0 c #c6c2ba",
"j0 c #cad2d6",
"k0 c #dee2e6",
"l0 c #cad2da",
"m0 c #dedada",
"n0 c #cab29e",
"o0 c #c67a3e",
"p0 c #c24e02",
"q0 c #a63a02",
"r0 c #d25a02",
"s0 c #9a3a0e",
"t0 c #9a7a66",
"u0 c #dadee2",
"v0 c #ae8e76",
"w0 c #aa3e06",
"x0 c #c6cace",
"y0 c #aeb2b6",
"z0 c #dee2e2",
"01 c #c2c6c6",
"11 c #a2aab2",
"21 c #9a9ea2",
"31 c #babebe",
"41 c #ced2d2",
"51 c #cad2d2",
"61 c #cacece",
"71 c #b6babe",
"81 c #c6caca",
"91 c #babec2",
":1 c #becace",
";1 c #e2e6ea",
"A1 c #dee6ea",
"B1 c #dee6e6",
"C1 c #bec6ca",
"D1 c #d2d6d6",
"E1 c #b6b6b6",
"F1 c #caaa92",
"G1 c #daa66a",
"H1 c #e29e52",
"I1 c #e6924a",
"J1 c #de9252",
"K1 c #daa26e",
"L1 c #ceb292",
"M1 c #dadada",
"N1 c #aaaeae",
"O1 c #e66a02",
"P1 c #f27602",
"Q1 c #ee6602",
"R1 c #d26a16",
"S1 c #e26a02",
"T1 c #f28202",
"U1 c #ce5a02",
"V1 c #de6602",
"W1 c #c65a02",
"X1 c #da6202",
"Y1 c #f27e02",
"Z1 c #ea7a02",
"a1 c #d65a02",
"b1 c #f27a02",
"c1 c #f26e02",
"d1 c #ea7602",
"e1 c #da6602",
"f1 c #be5202",
"g1 c #ce5602",
"h1 c #e68626",
"i1 c #ea9e46",
"j1 c #eaa252",
"k1 c #e69a52",
"l1 c #e69646",
"m1 c #e28a2a",
"n1 c #d26606",
"o1 c #dedee2",
"p1 c #ced6de",
"q1 c #ced6d6",
"r1 c #ced2d6",
"s1 c #d2d6da",
"t1 c #d6dada",
"u1 c #b6bec2",
"v1 c #e2e6e6",
"w1 c #e6eaea",
"x1 c #d2dada",
"y1 c #dadede",
"z1 c #caced2",
"02 c #cad6de",
"12 c #d2dee2",
"22 c #e6eaee",
"32 c #bac2c6",
"42 c #eaa25e",
"52 c #ee6e02",
"62 c #fa7e02",
"72 c #f27202",
"82 c #ea7202",
"92 c #de6a02",
":2 c #f68202",
";2 c #de6e02",
"A2 c #fe8602",
"B2 c #f67a02",
"C2 c #c26202",
"                                                                ",
"                              C2C2                              ",
"                            C2B2A2C2                            ",
"                            ;2B2:292                            ",
"                            82726252                            ",
"                          824242424282                          ",
"                          3222122202z1                          ",
"                          y1x1w1x1v1u1                          ",
"                        t1z1w1s1w1r1w1z1                        ",
"                        y1v1x1w1x1v1y1v1                        ",
"                        y1q1w11222p1o1q1                        ",
"                        n1m1l1k1j1i1h1g1                        ",
"                      f1e1d1c1c1B2:2b1a1f1                      ",
"                      f192Z15272B2:2Y1X1f1                      ",
"                      W192d15272B2:2Y1V1W1                      ",
"                    U1U1;2d15272b1T1T1S1U1U1                    ",
"                    R1R1S152Q1c1P1B2B2O1R1R1                    ",
"                    N1M1L1K1J1I1l1H1G1F1E1z1                    ",
"                  N1D1C1B102A1p1;102B1:1t1N191                  ",
"                  8171y161v151v141v161y1314121                  ",
"                  11t101z0z1z041v1z1z001t1y0x0                  ",
"                w0v032u0z1z0z1v141z0x0y132s1t0s0                ",
"              r0q0p0o0n0m061z0l0k0j0y1i0h0g0f0e0d0              ",
"            c0b0q0b0a0Z0Y0X0W0V0V0U0h1T0O1S0R0Q0f0P0            ",
"          Y1O0X1d0b0N0V1S1M0M0Q1Q15272L0O1a1R0K0N0J0Y1          ",
"        I0H0T1T1G0F0a0X1G0E0D0C0B05252A0;0:0S0S1H090I0I0        ",
"      8080I07070H0B252D0D0M0D0D0C0B052L0P1Y1:260I0I0508040      ",
"      3030202030303020101010101010101010202000000000000000      ",
"      W1W1W1W1W1W1W1W1W1W1W1W1W1W1W1W1W1W1W1W1W1W1W1W1W1W1      ",
"                                                                ",
"                                                                ",
"                                                                "};
