/* XPM */
static char *image[] = {
"48 48 233 2",
"   c None",
"00 c #0a0a06",
"10 c #282517",
"20 c #302d1b",
"30 c #4c472c",
"40 c #565032",
"50 c #605937",
"60 c #706840",
"70 c #786f45",
"80 c #80774a",
"90 c #908653",
":0 c #918653",
";0 c #998e58",
"A0 c #a1955d",
"B0 c #b1a466",
"C0 c #aca063",
"D0 c #716941",
"E0 c #070503",
"F0 c #564f32",
"G0 c #ebdb88",
"H0 c #6a633d",
"I0 c #4f492d",
"J0 c #7c7447",
"K0 c #efde89",
"L0 c #464128",
"M0 c #1f1d0c",
"N0 c #403b24",
"O0 c #cfc078",
"P0 c #73662b",
"Q0 c #393521",
"R0 c #443f27",
"S0 c #4d451f",
"T0 c #322f1d",
"U0 c #8a8150",
"V0 c #262311",
"W0 c #a79742",
"X0 c #2c2919",
"Y0 c #c6b873",
"Z0 c #a79746",
"a0 c #242115",
"b0 c #f1e08c",
"c0 c #8f823e",
"d0 c #ab9a45",
"e0 c #a69641",
"f0 c #1f1c12",
"g0 c #f0df8a",
"h0 c #0a0905",
"i0 c #8b7e3e",
"j0 c #b3a24d",
"k0 c #ae9d48",
"l0 c #a6943f",
"m0 c #19170f",
"n0 c #13110a",
"o0 c #887b3e",
"p0 c #ad9c47",
"q0 c #a79641",
"r0 c #a3923d",
"s0 c #ecdc8a",
"t0 c #040302",
"u0 c #9a8c47",
"v0 c #b9a853",
"w0 c #b4a34e",
"x0 c #af9e49",
"y0 c #aa9944",
"z0 c #a5943f",
"01 c #9f8e39",
"11 c #c5b773",
"21 c #baaa57",
"31 c #bbaa55",
"41 c #b6a550",
"51 c #b1a04b",
"61 c #ac9b46",
"71 c #a69540",
"81 c #a1903b",
"91 c #9b8a35",
":1 c #8c8352",
";1 c #262314",
"A1 c #c2b15c",
"B1 c #bdac57",
"C1 c #ae9e4d",
"D1 c #8e813d",
"E1 c #756a30",
"F1 c #6f642b",
"G1 c #6c6128",
"H1 c #726527",
"I1 c #897a2d",
"J1 c #91802c",
"K1 c #050403",
"L1 c #f2e18d",
"M1 c #35301a",
"N1 c #474123",
"O1 c #17150c",
"P1 c #030201",
"Q1 c #1a190e",
"R1 c #1e1c10",
"S1 c #1e1b10",
"T1 c #0e0d07",
"U1 c #131208",
"V1 c #322c0f",
"W1 c #f1e08b",
"X1 c #908654",
"Y1 c #0d0c07",
"Z1 c #534d30",
"a1 c #c6b874",
"b1 c #d9ca7f",
"c1 c #9f945d",
"d1 c #35311e",
"e1 c #050402",
"f1 c #eddd89",
"g1 c #eddd8b",
"h1 c #716a42",
"i1 c #aea265",
"j1 c #eede8b",
"k1 c #a0955e",
"l1 c #e7d685",
"m1 c #e1d182",
"n1 c #3f3b25",
"o1 c #050303",
"p1 c #dacb7e",
"q1 c #9d925c",
"r1 c #090806",
"s1 c #d5c67b",
"t1 c #f2e18c",
"u1 c #cfc17a",
"v1 c #cebf77",
"w1 c #e4d486",
"x1 c #c9bb75",
"y1 c #ecdc8b",
"z1 c #c2b571",
"02 c #f2e18e",
"12 c #bdaf6d",
"22 c #010101",
"32 c #040402",
"42 c #b6a96a",
"52 c #050503",
"62 c #b0a466",
"72 c #090805",
"82 c #080804",
"92 c #aa9e62",
":2 c #f3e28d",
";2 c #0e0d08",
"A2 c #a3985f",
"B2 c #14130b",
"C2 c #9d925b",
"D2 c #1a180f",
"E2 c #978d58",
"F2 c #201d13",
"G2 c #918755",
"H2 c #252316",
"I2 c #8b8151",
"J2 c #2d2a1a",
"K2 c #857c4d",
"L2 c #0b0b07",
"M2 c #7e764a",
"N2 c #3b3723",
"O2 c #0a0806",
"P2 c #797046",
"Q2 c #433e27",
"R2 c #070704",
"S2 c #726a42",
"T2 c #f4e38e",
"U2 c #4b462c",
"V2 c #6c653f",
"W2 c #534d31",
"X2 c #655e3b",
"Y2 c #5b5536",
"Z2 c #5e5737",
"a2 c #625b3a",
"b2 c #575133",
"c2 c #69623f",
"d2 c #030302",
"e2 c #504a2f",
"f2 c #706943",
"g2 c #060603",
"h2 c #48432a",
"i2 c #f9e893",
"j2 c #fae994",
"k2 c #fbea95",
"l2 c #fceb96",
"m2 c #776f47",
"n2 c #090906",
"o2 c #403c25",
"p2 c #f5e48f",
"q2 c #f6e590",
"r2 c #f7e691",
"s2 c #f8e792",
"t2 c #e9d989",
"u2 c #e7d888",
"v2 c #e2d285",
"w2 c #d8c97f",
"x2 c #c9bb77",
"y2 c #c7ba76",
"z2 c #c1b472",
"03 c #b7ab6d",
"13 c #a99d64",
"23 c #a79b63",
"33 c #a0965f",
"43 c #978c59",
"53 c #887f51",
"63 c #867d4f",
"73 c #7f764b",
"83 c #766e46",
"93 c #67603d",
":3 c #655e3c",
";3 c #5c5637",
"A3 c #504b30",
"B3 c #3e3b25",
"C3 c #3c3824",
"D3 c #34311f",
"E3 c #2a2819",
"F3 c #14120c",
"G3 c #080706",
"H3 c #12110a",
"I3 c #4e492d",
"J3 c #474229",
"K3 c #3b3722",
"L3 c #2b2819",
"M3 c #292718",
"N3 c #232015",
"O3 c #19180f",
"P3 c #0c0c07",
"Q3 c #070604",
"R3 c #020201",
"S3 c #060503",
"T3 c #090905",
"U3 c #0a0906",
"V3 c #0c0b07",
"W3 c #0b0a06",
"X3 c #0c0a07",
"Y3 c #0b0905",
"Z3 c #090704",
"a3 c #020200",
"b3 c #000000",
"                                                                                        b3b3    ",
"          b3b3b3b3b3a3Z3Z3Y3X3W3V3V3U3U3T3S3S3R3b3b3b3b3b3b3b3b3b3Q3W3P3O3O3N3M3L3K3K3J3I3H3    ",
"G3F3E3D3C3B3A3A3;3:393838373635343433323130303z2y2x2w2w2v2u2t2s2s2r2r2r2r2r2q2q2q2q2p2p2p2o2    ",
"n2m2l2l2l2l2l2l2l2l2l2k2k2k2k2k2k2k2j2j2j2j2j2i2i2i2i2i2s2s2s2s2s2r2r2r2r2r2q2q2q2q2p2p2p2h2b3  ",
"g2f2l2l2l2l2l2l2l2k2k2k2k2k2k2k2k2j2j2j2j2j2j2i2i2i2i2i2s2s2s2s2s2r2r2r2r2q2q2q2q2q2p2p2p2e2b3  ",
"d2c2k2k2k2k2k2k2k2k2k2k2k2k2k2k2j2j2j2j2j2j2i2i2i2i2i2s2s2s2s2s2r2r2r2r2r2q2q2q2q2p2p2p2p2b2b3  ",
"b3a2k2k2k2k2k2k2k2k2k2k2k2k2j2j2j2j2j2j2j2i2i2i2i2i2s2s2s2s2s2r2r2r2r2r2q2q2q2q2q2p2p2p2p2Z2b3  ",
"b3Y2k2k2k2k2k2k2k2k2k2k2k2j2j2j2j2j2j2j2i2i2i2i2i2i2s2s2s2s2s2r2r2r2r2r2q2q2q2q2q2p2p2p2p2X2d2  ",
"b3W2k2k2k2k2k2k2k2k2j2j2j2j2j2j2j2j2j2i2i2i2i2i2i2s2s2s2s2s2r2r2r2r2r2q2q2q2q2q2p2p2p2p2p2V2g2  ",
"b3U2j2j2j2j2j2j2j2j2j2j2j2j2j2j2j2j2i2i2i2i2i2i2s2s2s2s2s2s2r2r2r2r2r2q2q2q2q2q2p2p2p2p2T2S2R2  ",
"  Q2j2j2j2j2j2j2j2j2j2j2j2j2j2j2i2i2i2i2i2i2i2s2s2s2s2s2s2r2r2r2r2r2q2q2q2q2q2p2p2p2p2p2T2P2O2  ",
"  N2j2j2j2j2j2j2j2j2j2j2j2j2i2i2i2i2i2i2i2i2s2s2s2s2s2s2r2r2r2r2r2q2q2q2q2q2p2p2p2p2p2T2T2M2L2  ",
"  D3j2j2j2j2j2j2j2j2j2i2i2i2i2i2i2i2i2i2i2s2s2s2s2s2s2r2r2r2r2r2r2q2q2q2q2q2p2p2p2p2p2T2T2K2W3  ",
"  J2i2i2i2i2i2i2i2i2i2i2i2i2i2i2i2i2i2s2s2s2s2s2s2s2r2r2r2r2r2r2q2q2q2q2q2p2p2p2p2p2T2T2T2I2V3  ",
"  H2i2i2i2i2i2i2i2i2i2i2i2i2i2i2i2i2s2s2s2s2s2s2s2r2r2r2r2r2r2q2q2q2q2q2p2p2p2p2p2p2T2T2T2G2V3  ",
"  F2i2i2i2i2i2i2i2i2i2i2i2i2i2i2s2s2s2s2s2s2s2s2r2r2r2r2r2r2q2q2q2q2q2q2p2p2p2p2p2T2T2T2T2E2X3  ",
"  D2i2i2i2i2i2i2i2i2i2i2i2s2s2s2s2s2s2s2s2s2r2r2r2r2r2r2r2q2q2q2q2q2q2p2p2p2p2p2T2T2T2T2T2C2U3  ",
"  B2i2i2i2i2i2i2s2s2s2s2s2s2s2s2s2s2s2s2s2r2r2r2r2r2r2r2q2q2q2q2q2q2p2p2p2p2p2p2T2T2T2T2T2A2T3  ",
"  ;2s2s2s2s2s2s2s2s2s2s2s2s2s2s2s2s2s2r2r2r2r2r2r2r2r2q2q2q2q2q2q2p2p2p2p2p2p2T2T2T2T2T2:29282  ",
"  72s2s2s2s2s2s2s2s2s2s2s2s2s2s2s2r2r2r2r2r2r2r2r2r2q2q2q2q2q2q2p2p2p2p2p2p2T2T2T2T2T2:2:262S3  ",
"  52s2s2s2s2s2s2s2s2s2s2s2s2r2r2r2r2r2r2r2r2r2r2q2q2q2q2q2q2q2p2p2p2p2p2p2T2T2T2T2T2T2:2:24232  ",
"  22s2s2s2s2s2s2s2s2r2r2r2r2r2r2r2r2r2r2r2r2q2q2q2q2q2q2q2q2p2p2p2p2p2p2T2T2T2T2T2T2:2:2:212R3  ",
"  b302r2r2r2r2r2r2r2r2r2r2r2r2r2r2r2r2r2r2q2q2q2q2q2q2q2q2p2p2p2p2p2p2T2T2T2T2T2T2:2:2:2:2z1b3  ",
"  b3y1r2r2r2r2r2r2r2r2r2r2r2r2r2r2r2q2q2q2q2q2q2q2q2q2p2p2p2p2p2p2p2T2T2T2T2T2T2:2:2:2:2:2x1b3  ",
"  b3w1r2r2r2r2r2r2r2r2r2r2r2r2r2q2q2q2q2q2q2q2q2q2q2p2p2p2p2p2p2p2T2T2T2T2T2T2:2:2:2:2:2:2v1b3  ",
"  b3u1r2r2r2r2r2r2r2r2r2q2q2q2q2q2q2q2q2q2q2q2q2p2p2p2p2p2p2p2p2T2T2T2T2T2T2:2:2:2:2:2:2t1s1b3  ",
"  r1q1q2q2q2q2q2q2q2q2q2q2q2q2q2q2q2q2q2q2q2p2p2p2p2p2p2p2p2T2T2T2T2T2T2T2:2:2:2:2:2:2t1t1p1b3  ",
"  o1n1q2q2q2q2q2q2q2q2q2q2q2q2q2q2q2q2q2p2p2p2p2p2p2p2p2p2T2T2T2T2T2T2T2:2:2:2:2:2:2t1t1t1m1b3  ",
"    d2A2q2q2q2q2q2q2q2q2q2q2q2q2q2p2p2p2p2p2p2p2p2p2p2T2T2T2T2T2T2T2T2:2:2:2:2:2:2t1t1t1t1l1b3  ",
"      g2k1q2q2q2q2q2q2q2q2p2p2p2j1i1h1g1p2p2p2p2p2p2T2T2T2T2T2T2T2:2:2:2:2:2:2:2t1t1t1t1t1f1b3  ",
"        e1d1c1b1p2p2p2p2g1a1C2Z1Y1b3X1p2p2p2p2p2T2T2T2T2T2T2T2T2:2:2:2:2:2:2:2t1t1t1t1t1t1W122  ",
"          V1U1b3T1S1R1Q1P1b3O1N1M1L3L1p2p2T2T2T2T2T2T2T2T2T2T2:2:2:2:2:2:2:2t1t1t1t1t1t1W1W1K1  ",
"            J1I1H1G1F1E1D1C1B1A1;1:1T2T2T2T2T2T2T2T2T2T2T2:2:2:2:2:2:2:2t1t1t1t1t1t1t1W1W1W1T3  ",
"                9181716151413121d211T2T2T2T2T2T2T2T2T2:2:2:2:2:2:2:2:2t1t1t1t1t1t1t1W1W1W1W1;2  ",
"                  01z0y0x0w0v0u0t0s0T2T2T2T2T2T2T2:2:2:2:2:2:2:2:2:2t1t1t1t1t1t1t1W1W1W1W1W1B2  ",
"                    r0q0p05141o0n0T2T2T2T2T2T2:2:2:2:2:2:2:2:2:2t1t1t1t1t1t1t1t1W1W1W1W1W1W1m0  ",
"                      l0y0k0j0i0h0T2T2T2:2:2:2:2:2:2:2:2:2:2t1t1t1t1t1t1t1t1W1W1W1W1W1W1W1g0f0  ",
"                        e0d0x0c0P1b0:2:2:2:2:2:2:2:2:2:2:2t1t1t1t1t1t1t1t1W1W1W1W1W1W1W1g0g0a0  ",
"                          q061Z0d2Y0:2:2:2:2:2:2:2:2t1t1t1t1t1t1t1t1t1W1W1W1W1W1W1W1W1g0g0g0X0  ",
"                            W0d0V0U0:2:2:2:2:2:2t1t1t1t1t1t1t1t1t1t1W1W1W1W1W1W1W1g0g0g0g0g0T0  ",
"                              q0S0R0:2:2:2t1t1t1t1t1t1t1t1t1t1t1W1W1W1W1W1W1W1W1g0g0g0g0g0g0Q0  ",
"                                P0R3O0t1t1t1t1t1t1t1t1t1t1t1W1W1W1W1W1W1W1W1g0g0g0g0g0g0g0g0N0  ",
"                                  M0L0W1t1t1t1t1t1t1t1t1W1W1W1W1W1W1W1W1W1g0g0g0g0g0g0g0K0K0J3b3",
"                                    R2J0t1t1t1t1t1W1W1W1W1W1W1W1W1W1W1g0g0g0g0g0g0g0g0K0K0K0I0b3",
"                                      t0H0G0t1W1W1W1W1W1W1W1W1W1W1g0g0g0g0g0g0g0g0g0K0K0K0K0F0b3",
"                                        E0H3D0C0B0B0B0A0A0;0:09080807060605050403030Q0Q02010;2b3",
"                                            Y352525252T3U3U3V3V300X372R2R2b3b3b3b3b3            ",
"                                                                                                "};
